999
dxfrw 0.6.1
  0
SECTION
  2
HEADER
  9
$ACADVER
  1
AC1021
  9
$DWGCODEPAGE
  3
ANSI_1252
  9
$INSBASE
 10
0
 20
0
 30
0
  9
$EXTMIN
 10
8.000000000000004
 20
18.37999999999977
 30
0
  9
$EXTMAX
 10
900
 20
930
 30
0
  9
$LIMMIN
 10
0
 20
0
  9
$LIMMAX
 10
420
 20
297
  9
$ORTHOMODE
 70
    0
  9
$REGENMODE
 70
    1
  9
$FILLMODE
 70
    1
  9
$QTEXTMODE
 70
    0
  9
$MIRRTEXT
 70
    0
  9
$LTSCALE
 40
1
  9
$ATTMODE
 70
    0
  9
$TEXTSIZE
 40
2.5
  9
$TRACEWID
 40
15.68
  9
$TEXTSTYLE
  7
STANDARD
  9
$CLAYER
  8
0
  9
$CELTYPE
  6
BYLAYER
  9
$CECOLOR
 62
  256
  9
$CELTSCALE
 40
1
  9
$DISPSILH
 70
    0
  9
$DIMSCALE
 40
2.5
  9
$DIMASZ
 40
2.5
  9
$DIMEXO
 40
0.625
  9
$DIMDLI
 40
3.75
  9
$DIMRND
 40
0
  9
$DIMDLE
 40
0
  9
$DIMEXE
 40
1.25
  9
$DIMTP
 40
0
  9
$DIMTM
 40
0
  9
$DIMTXT
 40
2.5
  9
$DIMCEN
 40
2.5
  9
$DIMTSZ
 40
0
  9
$DIMTOL
 70
    0
  9
$DIMLIM
 70
    0
  9
$DIMTIH
 70
    0
  9
$DIMTOH
 70
    0
  9
$DIMSE1
 70
    0
  9
$DIMSE2
 70
    0
  9
$DIMTAD
 70
    1
  9
$DIMZIN
 70
    8
  9
$DIMBLK
  1

  9
$DIMASO
 70
    1
  9
$DIMSHO
 70
    1
  9
$DIMPOST
  1

  9
$DIMAPOST
  1

  9
$DIMALT
 70
    0
  9
$DIMALTD
 70
    3
  9
$DIMALTF
 40
0.03937
  9
$DIMLFAC
 40
1
  9
$DIMTOFL
 70
    1
  9
$DIMTVP
 40
0
  9
$DIMTIX
 70
    0
  9
$DIMSOXD
 70
    0
  9
$DIMSAH
 70
    0
  9
$DIMBLK1
  1

  9
$DIMBLK2
  1

  9
$DIMSTYLE
  2
STANDARD
  9
$DIMCLRD
 70
    0
  9
$DIMCLRE
 70
    0
  9
$DIMCLRT
 70
    0
  9
$DIMTFAC
 40
1
  9
$DIMGAP
 40
0.625
  9
$DIMJUST
 70
    0
  9
$DIMSD1
 70
    0
  9
$DIMSD2
 70
    0
  9
$DIMTOLJ
 70
    0
  9
$DIMTZIN
 70
    8
  9
$DIMALTZ
 70
    0
  9
$DIMALTTZ
 70
    0
  9
$DIMUPT
 70
    0
  9
$DIMDEC
 70
    2
  9
$DIMTDEC
 70
    2
  9
$DIMALTU
 70
    2
  9
$DIMALTTD
 70
    3
  9
$DIMTXSTY
  7
STANDARD
  9
$DIMAUNIT
 70
    0
  9
$DIMADEC
 70
    0
  9
$DIMALTRND
 40
0
  9
$DIMAZIN
 70
    0
  9
$DIMDSEP
 70
   44
  9
$DIMATFIT
 70
    3
  9
$DIMFRAC
 70
    0
  9
$DIMLDRBLK
  1
STANDARD
  9
$DIMLUNIT
 70
    2
  9
$DIMLWD
 70
   -2
  9
$DIMLWE
 70
   -2
  9
$DIMTMOVE
 70
    0
  9
$DIMFXL
 40
1
  9
$DIMFXLON
 70
    0
  9
$DIMJOGANG
 40
0.7854
  9
$DIMTFILL
 70
    0
  9
$DIMTFILLCLR
 70
    0
  9
$DIMARCSYM
 70
    0
  9
$DIMLTYPE
  6

  9
$DIMLTEX1
  6

  9
$DIMLTEX2
  6

  9
$LUNITS
 70
    2
  9
$LUPREC
 70
    4
  9
$SKETCHINC
 40
1
  9
$FILLETRAD
 40
0
  9
$AUNITS
 70
    0
  9
$AUPREC
 70
    2
  9
$MENU
  1
.
  9
$ELEVATION
 40
0
  9
$PELEVATION
 40
0
  9
$THICKNESS
 40
0
  9
$LIMCHECK
 70
    0
  9
$CHAMFERA
 40
0
  9
$CHAMFERB
 40
0
  9
$CHAMFERC
 40
0
  9
$CHAMFERD
 40
0
  9
$SKPOLY
 70
    0
  9
$USRTIMER
 70
    1
  9
$ANGBASE
 50
0
  9
$ANGDIR
 70
    0
  9
$PDMODE
 70
   34
  9
$PDSIZE
 40
0
  9
$PLINEWID
 40
0
  9
$SPLFRAME
 70
    0
  9
$SPLINETYPE
 70
    2
  9
$SPLINESEGS
 70
    8
  9
$HANDSEED
  5
20000
  9
$SURFTAB1
 70
    6
  9
$SURFTAB2
 70
    6
  9
$SURFTYPE
 70
    6
  9
$SURFU
 70
    6
  9
$SURFV
 70
    6
  9
$UCSBASE
  2

  9
$UCSNAME
  2

  9
$UCSORG
 10
0
 20
0
 30
0
  9
$UCSXDIR
 10
1
 20
0
 30
0
  9
$UCSYDIR
 10
0
 20
1
 30
0
  9
$UCSORTHOREF
  2

  9
$UCSORTHOVIEW
 70
    0
  9
$UCSORGTOP
 10
0
 20
0
 30
0
  9
$UCSORGBOTTOM
 10
0
 20
0
 30
0
  9
$UCSORGLEFT
 10
0
 20
0
 30
0
  9
$UCSORGRIGHT
 10
0
 20
0
 30
0
  9
$UCSORGFRONT
 10
0
 20
0
 30
0
  9
$UCSORGBACK
 10
0
 20
0
 30
0
  9
$PUCSBASE
  2

  9
$PUCSNAME
  2

  9
$PUCSORG
 10
0
 20
0
 30
0
  9
$PUCSXDIR
 10
1
 20
0
 30
0
  9
$PUCSYDIR
 10
0
 20
1
 30
0
  9
$PUCSORTHOREF
  2

  9
$PUCSORTHOVIEW
 70
    0
  9
$PUCSORGTOP
 10
0
 20
0
 30
0
  9
$PUCSORGBOTTOM
 10
0
 20
0
 30
0
  9
$PUCSORGLEFT
 10
0
 20
0
 30
0
  9
$PUCSORGRIGHT
 10
0
 20
0
 30
0
  9
$PUCSORGFRONT
 10
0
 20
0
 30
0
  9
$PUCSORGBACK
 10
0
 20
0
 30
0
  9
$USERI1
 70
    0
  9
$USERI2
 70
    0
  9
$USERI3
 70
    0
  9
$USERI4
 70
    0
  9
$USERI5
 70
    0
  9
$USERR1
 40
0
  9
$USERR2
 40
0
  9
$USERR3
 40
0
  9
$USERR4
 40
0
  9
$USERR5
 40
0
  9
$WORLDVIEW
 70
    1
  9
$SHADEDGE
 70
    3
  9
$SHADEDIF
 70
   70
  9
$TILEMODE
 70
    1
  9
$MAXACTVP
 70
   64
  9
$PINSBASE
 10
0
 20
0
 30
0
  9
$PLIMCHECK
 70
    0
  9
$PEXTMIN
 10
0
 20
0
 30
0
  9
$PEXTMAX
 10
0
 20
0
 30
0
  9
$GRIDMODE
 70
    1
  9
$SNAPSTYLE
 70
    0
  9
$PLIMMIN
 10
0
 20
0
  9
$PLIMMAX
 10
210
 20
297
  9
$UNITMODE
 70
    0
  9
$VISRETAIN
 70
    1
  9
$PLINEGEN
 70
    0
  9
$PSLTSCALE
 70
    1
  9
$TREEDEPTH
 70
 3020
  9
$CMLSTYLE
  2
Standard
  9
$CMLJUST
 70
    0
  9
$CMLSCALE
 40
20
  9
$PROXYGRAPHICS
 70
    1
  9
$MEASUREMENT
 70
    1
  9
$CELWEIGHT
370
   -1
  9
$ENDCAPS
280
    0
  9
$JOINSTYLE
280
    0
  9
$LWDISPLAY
290
    0
  9
$INSUNITS
 70
    4
  9
$HYPERLINKBASE
  1

  9
$STYLESHEET
  1

  9
$XEDIT
290
    1
  9
$CEPSNTYPE
380
    0
  9
$PSTYLEMODE
290
    1
  9
$EXTNAMES
290
    1
  9
$PSVPSCALE
 40
1
  9
$OLESTARTUP
290
    0
  9
$SORTENTS
280
  127
  9
$INDEXCTL
280
    0
  9
$HIDETEXT
280
    1
  9
$XCLIPFRAME
290
    0
  9
$HALOGAP
280
    0
  9
$OBSCOLOR
 70
  257
  9
$OBSLTYPE
280
    0
  9
$INTERSECTIONDISPLAY
280
    0
  9
$INTERSECTIONCOLOR
 70
  257
  9
$DIMASSOC
280
    0
  9
$PROJECTNAME
  1

  9
$CAMERADISPLAY
290
    0
  9
$LENSLENGTH
 40
50
  9
$CAMERAHEIGHT
 40
0
  9
$STEPSPERSEC
 40
2
  9
$STEPSIZE
 40
50
  9
$3DDWFPREC
 40
2
  9
$PSOLWIDTH
 40
5
  9
$PSOLHEIGHT
 40
80
  9
$LOFTANG1
 40
1.570796326794897
  9
$LOFTANG2
 40
1.570796326794897
  9
$LOFTMAG1
 40
0
  9
$LOFTMAG2
 40
0
  9
$LOFTPARAM
 70
    7
  9
$LOFTNORMALS
280
    1
  9
$LATITUDE
 40
1
  9
$LONGITUDE
 40
1
  9
$NORTHDIRECTION
 40
0
  9
$TIMEZONE
 70
-8000
  9
$LIGHTGLYPHDISPLAY
280
    1
  9
$TILEMODELIGHTSYNCH
280
    1
  9
$SOLIDHIST
280
    1
  9
$SHOWHIST
280
    1
  9
$DWFFRAME
280
    2
  9
$DGNFRAME
280
    0
  9
$REALWORLDSCALE
290
    1
  9
$INTERFERECOLOR
 62
    1
  9
$CSHADOW
280
    0
  9
$SHADOWPLANELOCATION
 40
0
  0
ENDSEC
  0
SECTION
  2
CLASSES
  0
ENDSEC
  0
SECTION
  2
TABLES
  0
TABLE
  2
VPORT
  5
8
330
0
100
AcDbSymbolTable
 70
    1
  0
VPORT
  5
31
330
2
100
AcDbSymbolTableRecord
100
AcDbViewportTableRecord
  2
*ACTIVE
 70
    0
 10
0
 20
0
 11
1
 21
1
 12
6.252650775238433
 22
-225.0954279085836
 13
0
 23
0
 14
10
 24
10
 15
10
 25
10
 16
0
 26
0
 36
1
 17
0
 27
0
 37
0
 40
160.0678598461039
 41
1.859375
 42
50
 43
0
 44
0
 50
0
 51
0
 71
    0
 72
  100
 73
    1
 74
    3
 75
    0
 76
    1
 77
    0
 78
    0
281
    0
 65
    1
110
0
120
0
130
0
111
1
121
0
131
0
112
0
122
1
132
0
 79
    0
146
0
348
10020
 60
    7
 61
    5
292
1
282
    1
141
0
142
0
 63
  250
421
3358443
  0
ENDTAB
  0
TABLE
  2
LTYPE
  5
5
330
0
100
AcDbSymbolTable
 70
    4
  0
LTYPE
  5
14
330
5
100
AcDbSymbolTableRecord
100
AcDbLinetypeTableRecord
  2
ByBlock
 70
    0
  3

 72
   65
 73
    0
 40
0
  0
LTYPE
  5
15
330
5
100
AcDbSymbolTableRecord
100
AcDbLinetypeTableRecord
  2
ByLayer
 70
    0
  3

 72
   65
 73
    0
 40
0
  0
LTYPE
  5
16
330
5
100
AcDbSymbolTableRecord
100
AcDbLinetypeTableRecord
  2
Continuous
 70
    0
  3
Solid line
 72
   65
 73
    0
 40
0
  0
LTYPE
  5
32
330
5
100
AcDbSymbolTableRecord
100
AcDbLinetypeTableRecord
  2
DOT
 70
    0
  3
Dot . . . . . . . . . . . . . . . . . . . . . .
 72
   65
 73
    2
 40
6.35
 49
0
 74
    0
 49
-6.35
 74
    0
  0
LTYPE
  5
33
330
5
100
AcDbSymbolTableRecord
100
AcDbLinetypeTableRecord
  2
DOTTINY
 70
    0
  3
Dot (.15x) .....................................
 72
   65
 73
    2
 40
0.9525
 49
0
 74
    0
 49
-0.9525
 74
    0
  0
LTYPE
  5
34
330
5
100
AcDbSymbolTableRecord
100
AcDbLinetypeTableRecord
  2
DOT2
 70
    0
  3
Dot (.5x) .....................................
 72
   65
 73
    2
 40
3.175
 49
0
 74
    0
 49
-3.175
 74
    0
  0
LTYPE
  5
35
330
5
100
AcDbSymbolTableRecord
100
AcDbLinetypeTableRecord
  2
DOTX2
 70
    0
  3
Dot (2x) .  .  .  .  .  .  .  .  .  .  .  .  .
 72
   65
 73
    2
 40
12.7
 49
0
 74
    0
 49
-12.7
 74
    0
  0
LTYPE
  5
36
330
5
100
AcDbSymbolTableRecord
100
AcDbLinetypeTableRecord
  2
DASHED
 70
    0
  3
Dashed _ _ _ _ _ _ _ _ _ _ _ _ _ _ _ _ _
 72
   65
 73
    2
 40
19.05
 49
12.7
 74
    0
 49
-6.35
 74
    0
  0
LTYPE
  5
37
330
5
100
AcDbSymbolTableRecord
100
AcDbLinetypeTableRecord
  2
DASHEDTINY
 70
    0
  3
Dashed (.15x) _ _ _ _ _ _ _ _ _ _ _ _ _ _ _ _ _
 72
   65
 73
    2
 40
2.8575
 49
1.905
 74
    0
 49
-0.9525
 74
    0
  0
LTYPE
  5
38
330
5
100
AcDbSymbolTableRecord
100
AcDbLinetypeTableRecord
  2
DASHED2
 70
    0
  3
Dashed (.5x) _ _ _ _ _ _ _ _ _ _ _ _ _ _ _ _ _
 72
   65
 73
    2
 40
9.524999999999999
 49
6.35
 74
    0
 49
-3.175
 74
    0
  0
LTYPE
  5
39
330
5
100
AcDbSymbolTableRecord
100
AcDbLinetypeTableRecord
  2
DASHEDX2
 70
    0
  3
Dashed (2x) ____  ____  ____  ____  ____  ___
 72
   65
 73
    2
 40
38.09999999999999
 49
25.4
 74
    0
 49
-12.7
 74
    0
  0
LTYPE
  5
3A
330
5
100
AcDbSymbolTableRecord
100
AcDbLinetypeTableRecord
  2
DASHDOT
 70
    0
  3
Dash dot __ . __ . __ . __ . __ . __ . __ . __
 72
   65
 73
    4
 40
25.4
 49
12.7
 74
    0
 49
-6.35
 74
    0
 49
0
 74
    0
 49
-6.35
 74
    0
  0
LTYPE
  5
3B
330
5
100
AcDbSymbolTableRecord
100
AcDbLinetypeTableRecord
  2
DASHDOTTINY
 70
    0
  3
Dash dot (.15x) _._._._._._._._._._._._._._._.
 72
   65
 73
    4
 40
3.81
 49
1.905
 74
    0
 49
-0.9525
 74
    0
 49
0
 74
    0
 49
-0.9525
 74
    0
  0
LTYPE
  5
3C
330
5
100
AcDbSymbolTableRecord
100
AcDbLinetypeTableRecord
  2
DASHDOT2
 70
    0
  3
Dash dot (.5x) _._._._._._._._._._._._._._._.
 72
   65
 73
    4
 40
12.7
 49
6.35
 74
    0
 49
-3.175
 74
    0
 49
0
 74
    0
 49
-3.175
 74
    0
  0
LTYPE
  5
3D
330
5
100
AcDbSymbolTableRecord
100
AcDbLinetypeTableRecord
  2
DASHDOTX2
 70
    0
  3
Dash dot (2x) ____  .  ____  .  ____  .  ___
 72
   65
 73
    4
 40
50.8
 49
25.4
 74
    0
 49
-12.7
 74
    0
 49
0
 74
    0
 49
-12.7
 74
    0
  0
LTYPE
  5
3E
330
5
100
AcDbSymbolTableRecord
100
AcDbLinetypeTableRecord
  2
DIVIDE
 70
    0
  3
Divide ____ . . ____ . . ____ . . ____ . . ____
 72
   65
 73
    6
 40
31.75
 49
12.7
 74
    0
 49
-6.35
 74
    0
 49
0
 74
    0
 49
-6.35
 74
    0
 49
0
 74
    0
 49
-6.35
 74
    0
  0
LTYPE
  5
3F
330
5
100
AcDbSymbolTableRecord
100
AcDbLinetypeTableRecord
  2
DIVIDETINY
 70
    0
  3
Divide (.15x) __..__..__..__..__..__..__..__.._
 72
   65
 73
    6
 40
4.7625
 49
1.905
 74
    0
 49
-0.9525
 74
    0
 49
0
 74
    0
 49
-0.9525
 74
    0
 49
0
 74
    0
 49
-0.9525
 74
    0
  0
LTYPE
  5
40
330
5
100
AcDbSymbolTableRecord
100
AcDbLinetypeTableRecord
  2
DIVIDE2
 70
    0
  3
Divide (.5x) __..__..__..__..__..__..__..__.._
 72
   65
 73
    6
 40
15.875
 49
6.35
 74
    0
 49
-3.175
 74
    0
 49
0
 74
    0
 49
-3.175
 74
    0
 49
0
 74
    0
 49
-3.175
 74
    0
  0
LTYPE
  5
41
330
5
100
AcDbSymbolTableRecord
100
AcDbLinetypeTableRecord
  2
DIVIDEX2
 70
    0
  3
Divide (2x) ________  .  .  ________  .  .  _
 72
   65
 73
    6
 40
63.5
 49
25.4
 74
    0
 49
-12.7
 74
    0
 49
0
 74
    0
 49
-12.7
 74
    0
 49
0
 74
    0
 49
-12.7
 74
    0
  0
LTYPE
  5
42
330
5
100
AcDbSymbolTableRecord
100
AcDbLinetypeTableRecord
  2
BORDER
 70
    0
  3
Border __ __ . __ __ . __ __ . __ __ . __ __ .
 72
   65
 73
    6
 40
44.45
 49
12.7
 74
    0
 49
-6.35
 74
    0
 49
12.7
 74
    0
 49
-6.35
 74
    0
 49
0
 74
    0
 49
-6.35
 74
    0
  0
LTYPE
  5
43
330
5
100
AcDbSymbolTableRecord
100
AcDbLinetypeTableRecord
  2
BORDERTINY
 70
    0
  3
Border (.15x) __.__.__.__.__.__.__.__.__.__.__.
 72
   65
 73
    6
 40
6.6675
 49
1.905
 74
    0
 49
-0.9525
 74
    0
 49
1.905
 74
    0
 49
-0.9525
 74
    0
 49
0
 74
    0
 49
-0.9525
 74
    0
  0
LTYPE
  5
44
330
5
100
AcDbSymbolTableRecord
100
AcDbLinetypeTableRecord
  2
BORDER2
 70
    0
  3
Border (.5x) __.__.__.__.__.__.__.__.__.__.__.
 72
   65
 73
    6
 40
22.225
 49
6.35
 74
    0
 49
-3.175
 74
    0
 49
6.35
 74
    0
 49
-3.175
 74
    0
 49
0
 74
    0
 49
-3.175
 74
    0
  0
LTYPE
  5
45
330
5
100
AcDbSymbolTableRecord
100
AcDbLinetypeTableRecord
  2
BORDERX2
 70
    0
  3
Border (2x) ____  ____  .  ____  ____  .  ___
 72
   65
 73
    6
 40
88.89999999999999
 49
25.4
 74
    0
 49
-12.7
 74
    0
 49
25.4
 74
    0
 49
-12.7
 74
    0
 49
0
 74
    0
 49
-12.7
 74
    0
  0
LTYPE
  5
46
330
5
100
AcDbSymbolTableRecord
100
AcDbLinetypeTableRecord
  2
CENTER
 70
    0
  3
Center ____ _ ____ _ ____ _ ____ _ ____ _ ____
 72
   65
 73
    4
 40
50.8
 49
31.75
 74
    0
 49
-6.35
 74
    0
 49
6.35
 74
    0
 49
-6.35
 74
    0
  0
LTYPE
  5
47
330
5
100
AcDbSymbolTableRecord
100
AcDbLinetypeTableRecord
  2
CENTERTINY
 70
    0
  3
Center (.15x) ___ _ ___ _ ___ _ ___ _ ___ _ ___
 72
   65
 73
    4
 40
7.619999999999999
 49
4.7625
 74
    0
 49
-0.9525
 74
    0
 49
0.9525
 74
    0
 49
-0.9525
 74
    0
  0
LTYPE
  5
48
330
5
100
AcDbSymbolTableRecord
100
AcDbLinetypeTableRecord
  2
CENTER2
 70
    0
  3
Center (.5x) ___ _ ___ _ ___ _ ___ _ ___ _ ___
 72
   65
 73
    4
 40
28.575
 49
19.05
 74
    0
 49
-3.175
 74
    0
 49
3.175
 74
    0
 49
-3.175
 74
    0
  0
LTYPE
  5
49
330
5
100
AcDbSymbolTableRecord
100
AcDbLinetypeTableRecord
  2
CENTERX2
 70
    0
  3
Center (2x) ________  __  ________  __  _____
 72
   65
 73
    4
 40
101.6
 49
63.5
 74
    0
 49
-12.7
 74
    0
 49
12.7
 74
    0
 49
-12.7
 74
    0
  0
ENDTAB
  0
TABLE
  2
LAYER
  5
2
330
0
100
AcDbSymbolTable
 70
    1
  0
LAYER
  5
10
330
2
100
AcDbSymbolTableRecord
100
AcDbLayerTableRecord
  2
0
 70
    5
 62
    7
  6
CONTINUOUS
370
    0
390
F
  0
LAYER
  5
4A
330
2
100
AcDbSymbolTableRecord
100
AcDbLayerTableRecord
  2
parts
 70
    0
 62
    7
  6
CONTINUOUS
370
    0
390
F
  0
ENDTAB
  0
TABLE
  2
STYLE
  5
3
330
0
100
AcDbSymbolTable
 70
    3
  0
STYLE
  5
4B
330
2
100
AcDbSymbolTableRecord
100
AcDbTextStyleTableRecord
  2
Standard
 70
    0
 40
0
 41
1
 50
0
 71
    0
 42
1
  3
txt
  4

  0
ENDTAB
  0
TABLE
  2
VIEW
  5
6
330
0
100
AcDbSymbolTable
 70
    0
  0
ENDTAB
  0
TABLE
  2
UCS
  5
7
330
0
100
AcDbSymbolTable
 70
    0
  0
ENDTAB
  0
TABLE
  2
APPID
  5
9
330
0
100
AcDbSymbolTable
 70
    1
  0
APPID
  5
12
330
9
100
AcDbSymbolTableRecord
100
AcDbRegAppTableRecord
  2
ACAD
 70
    0
  0
APPID
  5
4C
330
9
100
AcDbSymbolTableRecord
100
AcDbRegAppTableRecord
  2
LibreCad
 70
    0
  0
ENDTAB
  0
TABLE
  2
DIMSTYLE
  5
A
330
0
100
AcDbSymbolTable
 70
    1
100
AcDbDimStyleTable
 71
    1
  0
DIMSTYLE
105
4D
330
A
100
AcDbSymbolTableRecord
100
AcDbDimStyleTableRecord
  2
Standard
 70
    0
 40
1
 41
2.5
 42
0.625
 43
0.38
 44
1.25
 45
0
 46
0
 47
0
 48
0
140
2.5
141
0.09
142
0
143
25.4
144
1
145
0
146
1
147
0.625
148
0
 71
    0
 72
    0
 73
    0
 74
    1
 75
    0
 76
    0
 77
    0
 78
    0
 79
    0
170
    0
171
    2
172
    0
173
    0
174
    0
175
    0
176
    0
177
    0
178
    0
179
    0
271
    4
272
    4
273
    2
274
    2
275
    0
276
    0
277
    2
278
   46
279
    0
280
    0
281
    0
282
    0
283
    1
284
    0
285
    0
286
    0
288
    0
289
    3
340
Standard
341

371
   -2
372
   -2
  0
ENDTAB
  0
TABLE
  2
BLOCK_RECORD
  5
1
330
0
100
AcDbSymbolTable
 70
    2
  0
BLOCK_RECORD
  5
1F
330
1
100
AcDbSymbolTableRecord
100
AcDbBlockTableRecord
  2
*Model_Space
 70
    0
280
    1
281
    0
  0
BLOCK_RECORD
  5
1E
330
1
100
AcDbSymbolTableRecord
100
AcDbBlockTableRecord
  2
*Paper_Space
 70
    0
280
    1
281
    0
  0
ENDTAB
  0
ENDSEC
  0
SECTION
  2
BLOCKS
  0
BLOCK
  5
20
330
1F
100
AcDbEntity
  8
0
100
AcDbBlockBegin
  2
*Model_Space
 70
    0
 10
0
 20
0
 30
0
  3
*Model_Space
  1

  0
ENDBLK
  5
21
330
1F
100
AcDbEntity
  8
0
100
AcDbBlockEnd
  0
BLOCK
  5
1C
330
1B
100
AcDbEntity
  8
0
100
AcDbBlockBegin
  2
*Paper_Space
 70
    0
 10
0
 20
0
 30
0
  3
*Paper_Space
  1

  0
ENDBLK
  5
1D
330
1F
100
AcDbEntity
  8
0
100
AcDbBlockEnd
  0
ENDSEC
  0
SECTION
  2
ENTITIES
  0
LINE
  5
4E
100
AcDbEntity
  8
parts
  6
ByLayer
 62
  256
370
   -1
100
AcDbLine
 10
371.9999999999999
 20
740
 11
721.9999999999999
 21
740
  0
LINE
  5
4F
100
AcDbEntity
  8
parts
  6
ByLayer
 62
  256
370
   -1
100
AcDbLine
 10
371.9999999999999
 20
740
 11
21.99999999999995
 21
740
  0
LINE
  5
50
100
AcDbEntity
  8
parts
  6
ByLayer
 62
  256
370
   -1
100
AcDbLine
 10
371.9999999999999
 20
770
 11
21.99999999999995
 21
770
  0
LINE
  5
51
100
AcDbEntity
  8
parts
  6
ByLayer
 62
  256
370
   -1
100
AcDbLine
 10
371.9999999999999
 20
770
 11
721.9999999999999
 21
770
  0
LINE
  5
52
100
AcDbEntity
  8
parts
  6
ByLayer
 62
  256
370
   -1
100
AcDbLine
 10
721.9999999999999
 20
770
 11
733.9999999999999
 21
770
  0
LINE
  5
53
100
AcDbEntity
  8
parts
  6
ByLayer
 62
  256
370
   -1
100
AcDbLine
 10
21.99999999999995
 20
770
 11
9.999999999999954
 21
770
  0
LINE
  5
54
100
AcDbEntity
  8
parts
  6
ByLayer
 62
  256
370
   -1
100
AcDbLine
 10
9.999999999999954
 20
770
 11
9.999999999999954
 21
760
  0
LINE
  5
55
100
AcDbEntity
  8
parts
  6
ByLayer
 62
  256
370
   -1
100
AcDbLine
 10
733.9999999999999
 20
770
 11
733.9999999999999
 21
760
  0
LINE
  5
56
100
AcDbEntity
  8
parts
  6
ByLayer
 62
  256
370
   -1
100
AcDbLine
 10
21.99999999999995
 20
740
 11
21.99999999999995
 21
750
  0
LINE
  5
57
100
AcDbEntity
  8
parts
  6
ByLayer
 62
  256
370
   -1
100
AcDbLine
 10
721.9999999999999
 20
740
 11
721.9999999999999
 21
750
  0
LINE
  5
58
100
AcDbEntity
  8
parts
  6
ByLayer
 62
  256
370
   -1
100
AcDbLine
 10
733.9999999999999
 20
760
 11
733.9999999999999
 21
750
  0
LINE
  5
59
100
AcDbEntity
  8
parts
  6
ByLayer
 62
  256
370
   -1
100
AcDbLine
 10
9.999999999999954
 20
760
 11
9.999999999999956
 21
750
  0
LINE
  5
5A
100
AcDbEntity
  8
parts
  6
ByLayer
 62
  256
370
   -1
100
AcDbLine
 10
372
 20
690
 11
721.9999999999999
 21
690
  0
LINE
  5
5B
100
AcDbEntity
  8
parts
  6
ByLayer
 62
  256
370
   -1
100
AcDbLine
 10
372
 20
690
 11
21.99999999999996
 21
690
  0
LINE
  5
5C
100
AcDbEntity
  8
parts
  6
ByLayer
 62
  256
370
   -1
100
AcDbLine
 10
372
 20
720
 11
21.99999999999995
 21
720
  0
LINE
  5
5D
100
AcDbEntity
  8
parts
  6
ByLayer
 62
  256
370
   -1
100
AcDbLine
 10
372
 20
720
 11
721.9999999999999
 21
720
  0
LINE
  5
5E
100
AcDbEntity
  8
parts
  6
ByLayer
 62
  256
370
   -1
100
AcDbLine
 10
721.9999999999999
 20
720
 11
733.9999999999999
 21
720
  0
LINE
  5
5F
100
AcDbEntity
  8
parts
  6
ByLayer
 62
  256
370
   -1
100
AcDbLine
 10
21.99999999999995
 20
720
 11
9.999999999999957
 21
720
  0
LINE
  5
60
100
AcDbEntity
  8
parts
  6
ByLayer
 62
  256
370
   -1
100
AcDbLine
 10
9.999999999999957
 20
720
 11
9.999999999999957
 21
710
  0
LINE
  5
61
100
AcDbEntity
  8
parts
  6
ByLayer
 62
  256
370
   -1
100
AcDbLine
 10
733.9999999999999
 20
720
 11
733.9999999999999
 21
710
  0
LINE
  5
62
100
AcDbEntity
  8
parts
  6
ByLayer
 62
  256
370
   -1
100
AcDbLine
 10
21.99999999999996
 20
690
 11
21.99999999999996
 21
700
  0
LINE
  5
63
100
AcDbEntity
  8
parts
  6
ByLayer
 62
  256
370
   -1
100
AcDbLine
 10
721.9999999999999
 20
690
 11
721.9999999999999
 21
700
  0
LINE
  5
64
100
AcDbEntity
  8
parts
  6
ByLayer
 62
  256
370
   -1
100
AcDbLine
 10
733.9999999999999
 20
710
 11
733.9999999999999
 21
700
  0
LINE
  5
65
100
AcDbEntity
  8
parts
  6
ByLayer
 62
  256
370
   -1
100
AcDbLine
 10
9.999999999999957
 20
710
 11
9.999999999999957
 21
700
  0
LINE
  5
66
100
AcDbEntity
  8
parts
  6
ByLayer
 62
  256
370
   -1
100
AcDbLine
 10
47.49999999999999
 20
176.75
 11
47.49999999999999
 21
188.75
  0
LINE
  5
67
100
AcDbEntity
  8
parts
  6
ByLayer
 62
  256
370
   -1
100
AcDbLine
 10
32.49999999999999
 20
176.75
 11
32.49999999999999
 21
188.75
  0
LINE
  5
68
100
AcDbEntity
  8
parts
  6
ByLayer
 62
  256
370
   -1
100
AcDbLine
 10
47.49999999999999
 20
188.75
 11
32.49999999999999
 21
188.75
  0
ARC
  5
69
100
AcDbEntity
  8
parts
  6
ByLayer
 62
  256
370
   -1
100
AcDbCircle
 10
30.49999999999999
 20
176.75
 40
2
100
AcDbArc
 50
180
 51
359.9999832695215
  0
ARC
  5
6A
100
AcDbEntity
  8
parts
  6
ByLayer
 62
  256
370
   -1
100
AcDbCircle
 10
49.49999999999999
 20
176.75
 40
2
100
AcDbArc
 50
180.0000034150946
 51
0
  0
LINE
  5
6B
100
AcDbEntity
  8
parts
  6
ByLayer
 62
  256
370
   -1
100
AcDbLine
 10
28.49999999999999
 20
176.75
 11
20.99999999999999
 21
176.75
  0
LINE
  5
6C
100
AcDbEntity
  8
parts
  6
ByLayer
 62
  256
370
   -1
100
AcDbLine
 10
51.49999999999999
 20
176.75
 11
58.99999999999999
 21
176.75
  0
LINE
  5
6D
100
AcDbEntity
  8
parts
  6
ByLayer
 62
  256
370
   -1
100
AcDbLine
 10
47.49999999999999
 20
151.25
 11
47.49999999999999
 21
139.25
  0
LINE
  5
6E
100
AcDbEntity
  8
parts
  6
ByLayer
 62
  256
370
   -1
100
AcDbLine
 10
32.49999999999999
 20
151.25
 11
32.49999999999999
 21
139.25
  0
LINE
  5
6F
100
AcDbEntity
  8
parts
  6
ByLayer
 62
  256
370
   -1
100
AcDbLine
 10
47.49999999999999
 20
139.25
 11
32.49999999999999
 21
139.25
  0
ARC
  5
70
100
AcDbEntity
  8
parts
  6
ByLayer
 62
  256
370
   -1
100
AcDbCircle
 10
30.49999999999999
 20
151.25
 40
2
100
AcDbArc
 50
3.415094585006375e-06
 51
180
  0
ARC
  5
71
100
AcDbEntity
  8
parts
  6
ByLayer
 62
  256
370
   -1
100
AcDbCircle
 10
49.49999999999999
 20
151.25
 40
2
100
AcDbArc
 50
0
 51
180.0000167304781
  0
LINE
  5
72
100
AcDbEntity
  8
parts
  6
ByLayer
 62
  256
370
   -1
100
AcDbLine
 10
28.49999999999999
 20
151.25
 11
20.99999999999999
 21
151.25
  0
LINE
  5
73
100
AcDbEntity
  8
parts
  6
ByLayer
 62
  256
370
   -1
100
AcDbLine
 10
58.99999999999999
 20
151.25
 11
51.49999999999999
 21
151.25
  0
LINE
  5
74
100
AcDbEntity
  8
parts
  6
ByLayer
 62
  256
370
   -1
100
AcDbLine
 10
58.99999999999999
 20
176.75
 11
58.99999999999999
 21
151.25
  0
LINE
  5
75
100
AcDbEntity
  8
parts
  6
ByLayer
 62
  256
370
   -1
100
AcDbLine
 10
20.99999999999999
 20
176.75
 11
20.99999999999999
 21
151.25
  0
LINE
  5
76
100
AcDbEntity
  8
parts
  6
ByLayer
 62
  256
370
   -1
100
AcDbLine
 10
97.49999999999999
 20
176.75
 11
97.49999999999999
 21
188.75
  0
LINE
  5
77
100
AcDbEntity
  8
parts
  6
ByLayer
 62
  256
370
   -1
100
AcDbLine
 10
82.49999999999999
 20
176.75
 11
82.49999999999999
 21
188.75
  0
LINE
  5
78
100
AcDbEntity
  8
parts
  6
ByLayer
 62
  256
370
   -1
100
AcDbLine
 10
97.49999999999999
 20
188.75
 11
82.49999999999999
 21
188.75
  0
ARC
  5
79
100
AcDbEntity
  8
parts
  6
ByLayer
 62
  256
370
   -1
100
AcDbCircle
 10
80.49999999999999
 20
176.75
 40
2
100
AcDbArc
 50
180
 51
359.9999832695215
  0
ARC
  5
7A
100
AcDbEntity
  8
parts
  6
ByLayer
 62
  256
370
   -1
100
AcDbCircle
 10
99.49999999999999
 20
176.75
 40
2
100
AcDbArc
 50
180.0000034150946
 51
0
  0
LINE
  5
7B
100
AcDbEntity
  8
parts
  6
ByLayer
 62
  256
370
   -1
100
AcDbLine
 10
78.49999999999999
 20
176.75
 11
70.99999999999999
 21
176.75
  0
LINE
  5
7C
100
AcDbEntity
  8
parts
  6
ByLayer
 62
  256
370
   -1
100
AcDbLine
 10
101.5
 20
176.75
 11
109
 21
176.75
  0
LINE
  5
7D
100
AcDbEntity
  8
parts
  6
ByLayer
 62
  256
370
   -1
100
AcDbLine
 10
97.5
 20
151.25
 11
97.5
 21
139.25
  0
LINE
  5
7E
100
AcDbEntity
  8
parts
  6
ByLayer
 62
  256
370
   -1
100
AcDbLine
 10
82.5
 20
151.25
 11
82.5
 21
139.25
  0
LINE
  5
7F
100
AcDbEntity
  8
parts
  6
ByLayer
 62
  256
370
   -1
100
AcDbLine
 10
97.5
 20
139.25
 11
82.5
 21
139.25
  0
ARC
  5
80
100
AcDbEntity
  8
parts
  6
ByLayer
 62
  256
370
   -1
100
AcDbCircle
 10
80.5
 20
151.25
 40
2
100
AcDbArc
 50
3.415094585006375e-06
 51
180
  0
ARC
  5
81
100
AcDbEntity
  8
parts
  6
ByLayer
 62
  256
370
   -1
100
AcDbCircle
 10
99.5
 20
151.25
 40
2
100
AcDbArc
 50
0
 51
180.0000167304781
  0
LINE
  5
82
100
AcDbEntity
  8
parts
  6
ByLayer
 62
  256
370
   -1
100
AcDbLine
 10
78.5
 20
151.25
 11
71
 21
151.25
  0
LINE
  5
83
100
AcDbEntity
  8
parts
  6
ByLayer
 62
  256
370
   -1
100
AcDbLine
 10
109
 20
151.25
 11
101.5
 21
151.25
  0
LINE
  5
84
100
AcDbEntity
  8
parts
  6
ByLayer
 62
  256
370
   -1
100
AcDbLine
 10
109
 20
176.75
 11
109
 21
151.25
  0
LINE
  5
85
100
AcDbEntity
  8
parts
  6
ByLayer
 62
  256
370
   -1
100
AcDbLine
 10
70.99999999999999
 20
176.75
 11
71
 21
151.25
  0
LINE
  5
86
100
AcDbEntity
  8
parts
  6
ByLayer
 62
  256
370
   -1
100
AcDbLine
 10
480
 20
222.5
 11
830
 21
222.5
  0
LINE
  5
87
100
AcDbEntity
  8
parts
  6
ByLayer
 62
  256
370
   -1
100
AcDbLine
 10
480
 20
222.5
 11
130
 21
222.5
  0
LINE
  5
88
100
AcDbEntity
  8
parts
  6
ByLayer
 62
  256
370
   -1
100
AcDbLine
 10
430
 20
177.5
 11
430
 21
165.5
  0
LINE
  5
89
100
AcDbEntity
  8
parts
  6
ByLayer
 62
  256
370
   -1
100
AcDbLine
 10
530
 20
177.5
 11
530
 21
165.5
  0
LINE
  5
8A
100
AcDbEntity
  8
parts
  6
ByLayer
 62
  256
370
   -1
100
AcDbLine
 10
530
 20
165.5
 11
430
 21
165.5
  0
ARC
  5
8B
100
AcDbEntity
  8
parts
  6
ByLayer
 62
  256
370
   -1
100
AcDbCircle
 10
428
 20
177.5
 40
2
100
AcDbArc
 50
359.999971022
 51
179.999971022
  0
ARC
  5
8C
100
AcDbEntity
  8
parts
  6
ByLayer
 62
  256
370
   -1
100
AcDbCircle
 10
532
 20
177.5
 40
2
100
AcDbArc
 50
359.9999726792
 51
179.999972679
  0
LINE
  5
8D
100
AcDbEntity
  8
parts
  6
ByLayer
 62
  256
370
   -1
100
AcDbLine
 10
730
 20
177.5
 11
730
 21
165.5
  0
LINE
  5
8E
100
AcDbEntity
  8
parts
  6
ByLayer
 62
  256
370
   -1
100
AcDbLine
 10
630
 20
177.5
 11
630
 21
165.5
  0
LINE
  5
8F
100
AcDbEntity
  8
parts
  6
ByLayer
 62
  256
370
   -1
100
AcDbLine
 10
630
 20
165.5
 11
730
 21
165.5
  0
ARC
  5
90
100
AcDbEntity
  8
parts
  6
ByLayer
 62
  256
370
   -1
100
AcDbCircle
 10
732
 20
177.5
 40
2
100
AcDbArc
 50
2.897800001437892e-05
 51
180.000028978
  0
ARC
  5
91
100
AcDbEntity
  8
parts
  6
ByLayer
 62
  256
370
   -1
100
AcDbCircle
 10
628
 20
177.5
 40
2
100
AcDbArc
 50
2.732079998648355e-05
 51
180.000027321
  0
LINE
  5
92
100
AcDbEntity
  8
parts
  6
ByLayer
 62
  256
370
   -1
100
AcDbLine
 10
330
 20
177.5
 11
330
 21
165.5
  0
LINE
  5
93
100
AcDbEntity
  8
parts
  6
ByLayer
 62
  256
370
   -1
100
AcDbLine
 10
230
 20
177.5
 11
230
 21
165.5
  0
LINE
  5
94
100
AcDbEntity
  8
parts
  6
ByLayer
 62
  256
370
   -1
100
AcDbLine
 10
230
 20
165.5
 11
330
 21
165.5
  0
ARC
  5
95
100
AcDbEntity
  8
parts
  6
ByLayer
 62
  256
370
   -1
100
AcDbCircle
 10
332
 20
177.5
 40
2
100
AcDbArc
 50
2.897800001437892e-05
 51
180.000028978
  0
ARC
  5
96
100
AcDbEntity
  8
parts
  6
ByLayer
 62
  256
370
   -1
100
AcDbCircle
 10
228
 20
177.5
 40
2
100
AcDbArc
 50
2.732079998648355e-05
 51
180.000027321
  0
LINE
  5
97
100
AcDbEntity
  8
parts
  6
ByLayer
 62
  256
370
   -1
100
AcDbLine
 10
830
 20
177.5
 11
734
 21
177.5000010115
  0
LINE
  5
98
100
AcDbEntity
  8
parts
  6
ByLayer
 62
  256
370
   -1
100
AcDbLine
 10
626
 20
177.4999990463
 11
534
 21
177.4999990463
  0
LINE
  5
99
100
AcDbEntity
  8
parts
  6
ByLayer
 62
  256
370
   -1
100
AcDbLine
 10
426
 20
177.5000010115
 11
334
 21
177.5000010115
  0
LINE
  5
9A
100
AcDbEntity
  8
parts
  6
ByLayer
 62
  256
370
   -1
100
AcDbLine
 10
226
 20
177.4999990463
 11
130
 21
177.5
  0
LINE
  5
9B
100
AcDbEntity
  8
parts
  6
ByLayer
 62
  256
370
   -1
100
AcDbLine
 10
830
 20
222.5
 11
842
 21
222.5
  0
LINE
  5
9C
100
AcDbEntity
  8
parts
  6
ByLayer
 62
  256
370
   -1
100
AcDbLine
 10
830
 20
200
 11
842
 21
200
  0
LINE
  5
9D
100
AcDbEntity
  8
parts
  6
ByLayer
 62
  256
370
   -1
100
AcDbLine
 10
842
 20
222.5
 11
842
 21
200
  0
ARC
  5
9E
100
AcDbEntity
  8
parts
  6
ByLayer
 62
  256
370
   -1
100
AcDbCircle
 10
830
 20
198
 40
2
100
AcDbArc
 50
90.00015454999999
 51
270
  0
LINE
  5
9F
100
AcDbEntity
  8
parts
  6
ByLayer
 62
  256
370
   -1
100
AcDbLine
 10
830
 20
196
 11
830
 21
177.5
  0
LINE
  5
A0
100
AcDbEntity
  8
parts
  6
ByLayer
 62
  256
370
   -1
100
AcDbLine
 10
130
 20
222.5
 11
118
 21
222.5
  0
LINE
  5
A1
100
AcDbEntity
  8
parts
  6
ByLayer
 62
  256
370
   -1
100
AcDbLine
 10
130
 20
200
 11
118
 21
200
  0
LINE
  5
A2
100
AcDbEntity
  8
parts
  6
ByLayer
 62
  256
370
   -1
100
AcDbLine
 10
118
 20
222.5
 11
118
 21
200
  0
ARC
  5
A3
100
AcDbEntity
  8
parts
  6
ByLayer
 62
  256
370
   -1
100
AcDbCircle
 10
130
 20
198
 40
2
100
AcDbArc
 50
270
 51
89.99984545000001
  0
LINE
  5
A4
100
AcDbEntity
  8
parts
  6
ByLayer
 62
  256
370
   -1
100
AcDbLine
 10
130
 20
196
 11
130
 21
177.5
  0
LINE
  5
A5
100
AcDbEntity
  8
parts
  6
ByLayer
 62
  256
370
   -1
100
AcDbLine
 10
482
 20
150
 11
832
 21
150
  0
LINE
  5
A6
100
AcDbEntity
  8
parts
  6
ByLayer
 62
  256
370
   -1
100
AcDbLine
 10
482
 20
150
 11
132
 21
150
  0
LINE
  5
A7
100
AcDbEntity
  8
parts
  6
ByLayer
 62
  256
370
   -1
100
AcDbLine
 10
432
 20
105
 11
432
 21
93
  0
LINE
  5
A8
100
AcDbEntity
  8
parts
  6
ByLayer
 62
  256
370
   -1
100
AcDbLine
 10
532
 20
105
 11
532
 21
93
  0
LINE
  5
A9
100
AcDbEntity
  8
parts
  6
ByLayer
 62
  256
370
   -1
100
AcDbLine
 10
532
 20
93
 11
432
 21
93
  0
ARC
  5
AA
100
AcDbEntity
  8
parts
  6
ByLayer
 62
  256
370
   -1
100
AcDbCircle
 10
430
 20
105
 40
2
100
AcDbArc
 50
359.999971022
 51
179.999971022
  0
ARC
  5
AB
100
AcDbEntity
  8
parts
  6
ByLayer
 62
  256
370
   -1
100
AcDbCircle
 10
534
 20
105
 40
2
100
AcDbArc
 50
359.9999726792
 51
179.999972679
  0
LINE
  5
AC
100
AcDbEntity
  8
parts
  6
ByLayer
 62
  256
370
   -1
100
AcDbLine
 10
732
 20
105
 11
732
 21
93
  0
LINE
  5
AD
100
AcDbEntity
  8
parts
  6
ByLayer
 62
  256
370
   -1
100
AcDbLine
 10
632
 20
105
 11
632
 21
93
  0
LINE
  5
AE
100
AcDbEntity
  8
parts
  6
ByLayer
 62
  256
370
   -1
100
AcDbLine
 10
632
 20
93
 11
732
 21
93
  0
ARC
  5
AF
100
AcDbEntity
  8
parts
  6
ByLayer
 62
  256
370
   -1
100
AcDbCircle
 10
734
 20
105
 40
2
100
AcDbArc
 50
2.897800001437892e-05
 51
180.000028978
  0
ARC
  5
B0
100
AcDbEntity
  8
parts
  6
ByLayer
 62
  256
370
   -1
100
AcDbCircle
 10
630
 20
105
 40
2
100
AcDbArc
 50
2.732079998648355e-05
 51
180.000027321
  0
LINE
  5
B1
100
AcDbEntity
  8
parts
  6
ByLayer
 62
  256
370
   -1
100
AcDbLine
 10
332
 20
105
 11
332
 21
93
  0
LINE
  5
B2
100
AcDbEntity
  8
parts
  6
ByLayer
 62
  256
370
   -1
100
AcDbLine
 10
232
 20
105
 11
232
 21
93
  0
LINE
  5
B3
100
AcDbEntity
  8
parts
  6
ByLayer
 62
  256
370
   -1
100
AcDbLine
 10
232
 20
93
 11
332
 21
93
  0
ARC
  5
B4
100
AcDbEntity
  8
parts
  6
ByLayer
 62
  256
370
   -1
100
AcDbCircle
 10
334
 20
105
 40
2
100
AcDbArc
 50
2.897800001437892e-05
 51
180.000028978
  0
ARC
  5
B5
100
AcDbEntity
  8
parts
  6
ByLayer
 62
  256
370
   -1
100
AcDbCircle
 10
230
 20
105
 40
2
100
AcDbArc
 50
2.732079998648355e-05
 51
180.000027321
  0
LINE
  5
B6
100
AcDbEntity
  8
parts
  6
ByLayer
 62
  256
370
   -1
100
AcDbLine
 10
832
 20
105
 11
736
 21
105.0000010115
  0
LINE
  5
B7
100
AcDbEntity
  8
parts
  6
ByLayer
 62
  256
370
   -1
100
AcDbLine
 10
628
 20
104.9999990463
 11
536
 21
104.9999990463
  0
LINE
  5
B8
100
AcDbEntity
  8
parts
  6
ByLayer
 62
  256
370
   -1
100
AcDbLine
 10
428
 20
105.0000010115
 11
336
 21
105.0000010115
  0
LINE
  5
B9
100
AcDbEntity
  8
parts
  6
ByLayer
 62
  256
370
   -1
100
AcDbLine
 10
228
 20
104.9999990463
 11
132
 21
105
  0
LINE
  5
BA
100
AcDbEntity
  8
parts
  6
ByLayer
 62
  256
370
   -1
100
AcDbLine
 10
832
 20
150
 11
844
 21
150
  0
LINE
  5
BB
100
AcDbEntity
  8
parts
  6
ByLayer
 62
  256
370
   -1
100
AcDbLine
 10
832
 20
127.5
 11
844
 21
127.5
  0
LINE
  5
BC
100
AcDbEntity
  8
parts
  6
ByLayer
 62
  256
370
   -1
100
AcDbLine
 10
844
 20
150
 11
844
 21
127.5
  0
ARC
  5
BD
100
AcDbEntity
  8
parts
  6
ByLayer
 62
  256
370
   -1
100
AcDbCircle
 10
832
 20
125.5
 40
2
100
AcDbArc
 50
90.00015454999999
 51
270
  0
LINE
  5
BE
100
AcDbEntity
  8
parts
  6
ByLayer
 62
  256
370
   -1
100
AcDbLine
 10
832
 20
123.5
 11
832
 21
105
  0
LINE
  5
BF
100
AcDbEntity
  8
parts
  6
ByLayer
 62
  256
370
   -1
100
AcDbLine
 10
132
 20
150
 11
120
 21
150
  0
LINE
  5
C0
100
AcDbEntity
  8
parts
  6
ByLayer
 62
  256
370
   -1
100
AcDbLine
 10
132
 20
127.5
 11
120
 21
127.5
  0
LINE
  5
C1
100
AcDbEntity
  8
parts
  6
ByLayer
 62
  256
370
   -1
100
AcDbLine
 10
120
 20
150
 11
120
 21
127.5
  0
ARC
  5
C2
100
AcDbEntity
  8
parts
  6
ByLayer
 62
  256
370
   -1
100
AcDbCircle
 10
132
 20
125.5
 40
2
100
AcDbArc
 50
270
 51
89.99984545000001
  0
LINE
  5
C3
100
AcDbEntity
  8
parts
  6
ByLayer
 62
  256
370
   -1
100
AcDbLine
 10
132
 20
123.5
 11
132
 21
105
  0
LINE
  5
C4
100
AcDbEntity
  8
parts
  6
ByLayer
 62
  256
370
   -1
100
AcDbLine
 10
68.5
 20
80
 11
68.5
 21
50
  0
LINE
  5
C5
100
AcDbEntity
  8
parts
  6
ByLayer
 62
  256
370
   -1
100
AcDbLine
 10
11.5
 20
80
 11
11.5
 21
50
  0
LINE
  5
C6
100
AcDbEntity
  8
parts
  6
ByLayer
 62
  256
370
   -1
100
AcDbLine
 10
68.5
 20
80
 11
68.5
 21
110
  0
LINE
  5
C7
100
AcDbEntity
  8
parts
  6
ByLayer
 62
  256
370
   -1
100
AcDbLine
 10
11.5
 20
80
 11
11.49999999999999
 21
110
  0
LINE
  5
C8
100
AcDbEntity
  8
parts
  6
ByLayer
 62
  256
370
   -1
100
AcDbLine
 10
39.99999999999999
 20
122
 11
49.99999999999999
 21
122
  0
LINE
  5
C9
100
AcDbEntity
  8
parts
  6
ByLayer
 62
  256
370
   -1
100
AcDbLine
 10
40
 20
38
 11
50
 21
38
  0
LINE
  5
CA
100
AcDbEntity
  8
parts
  6
ByLayer
 62
  256
370
   -1
100
AcDbLine
 10
40
 20
38
 11
30
 21
38
  0
LINE
  5
CB
100
AcDbEntity
  8
parts
  6
ByLayer
 62
  256
370
   -1
100
AcDbLine
 10
39.99999999999999
 20
122
 11
29.99999999999999
 21
122
  0
LINE
  5
CC
100
AcDbEntity
  8
parts
  6
ByLayer
 62
  256
370
   -1
100
AcDbLine
 10
49.99999999999999
 20
122
 11
49.99999999999999
 21
110
  0
LINE
  5
CD
100
AcDbEntity
  8
parts
  6
ByLayer
 62
  256
370
   -1
100
AcDbLine
 10
29.99999999999999
 20
122
 11
29.99999999999999
 21
110
  0
LINE
  5
CE
100
AcDbEntity
  8
parts
  6
ByLayer
 62
  256
370
   -1
100
AcDbLine
 10
50
 20
38
 11
50
 21
50
  0
LINE
  5
CF
100
AcDbEntity
  8
parts
  6
ByLayer
 62
  256
370
   -1
100
AcDbLine
 10
30
 20
38
 11
30
 21
50
  0
LINE
  5
D0
100
AcDbEntity
  8
parts
  6
ByLayer
 62
  256
370
   -1
100
AcDbLine
 10
53.99999999999999
 20
110
 11
68.5
 21
110
  0
ARC
  5
D1
100
AcDbEntity
  8
parts
  6
ByLayer
 62
  256
370
   -1
100
AcDbCircle
 10
51.99999999999999
 20
110
 40
2
100
AcDbArc
 50
179.9999931698108
 51
360
  0
LINE
  5
D2
100
AcDbEntity
  8
parts
  6
ByLayer
 62
  256
370
   -1
100
AcDbLine
 10
25.99999999999993
 20
110
 11
11.49999999999999
 21
110
  0
ARC
  5
D3
100
AcDbEntity
  8
parts
  6
ByLayer
 62
  256
370
   -1
100
AcDbCircle
 10
27.99999999999999
 20
110
 40
2
100
AcDbArc
 50
180
 51
0
  0
ARC
  5
D4
100
AcDbEntity
  8
parts
  6
ByLayer
 62
  256
370
   -1
100
AcDbCircle
 10
52
 20
50
 40
2
100
AcDbArc
 50
0
 51
180
  0
LINE
  5
D5
100
AcDbEntity
  8
parts
  6
ByLayer
 62
  256
370
   -1
100
AcDbLine
 10
68.5
 20
50
 11
54.00000000000006
 21
50
  0
LINE
  5
D6
100
AcDbEntity
  8
parts
  6
ByLayer
 62
  256
370
   -1
100
AcDbLine
 10
26
 20
50
 11
11.5
 21
50
  0
ARC
  5
D7
100
AcDbEntity
  8
parts
  6
ByLayer
 62
  256
370
   -1
100
AcDbCircle
 10
28
 20
50
 40
2
100
AcDbArc
 50
359.9999931698108
 51
180
  0
CIRCLE
  5
D8
100
AcDbEntity
  8
parts
  6
ByLayer
 62
  256
370
   -1
100
AcDbCircle
 10
63.61999999999999
 20
103.6199999999999
 40
2
  0
CIRCLE
  5
D9
100
AcDbEntity
  8
parts
  6
ByLayer
 62
  256
370
   -1
100
AcDbCircle
 10
16.37999999999999
 20
103.6199999999999
 40
2
  0
CIRCLE
  5
DA
100
AcDbEntity
  8
parts
  6
ByLayer
 62
  256
370
   -1
100
AcDbCircle
 10
16.38
 20
56.38000000000011
 40
2
  0
CIRCLE
  5
DB
100
AcDbEntity
  8
parts
  6
ByLayer
 62
  256
370
   -1
100
AcDbCircle
 10
63.62
 20
56.38000000000011
 40
2
  0
CIRCLE
  5
DC
100
AcDbEntity
  8
parts
  6
ByLayer
 62
  256
370
   -1
100
AcDbCircle
 10
40
 20
80
 40
20
  0
CIRCLE
  5
DD
100
AcDbEntity
  8
parts
  6
ByLayer
 62
  256
370
   -1
100
AcDbCircle
 10
39.99999999999999
 20
116
 40
2
  0
CIRCLE
  5
DE
100
AcDbEntity
  8
parts
  6
ByLayer
 62
  256
370
   -1
100
AcDbCircle
 10
40
 20
44
 40
2
  0
LINE
  5
DF
100
AcDbEntity
  8
parts
  6
ByLayer
 62
  256
370
   -1
100
AcDbLine
 10
138.5
 20
78
 11
138.5
 21
33
  0
LINE
  5
E0
100
AcDbEntity
  8
parts
  6
ByLayer
 62
  256
370
   -1
100
AcDbLine
 10
81.5
 20
78
 11
81.5
 21
33
  0
LINE
  5
E1
100
AcDbEntity
  8
parts
  6
ByLayer
 62
  256
370
   -1
100
AcDbLine
 10
120
 20
45
 11
120
 21
33
  0
LINE
  5
E2
100
AcDbEntity
  8
parts
  6
ByLayer
 62
  256
370
   -1
100
AcDbLine
 10
100
 20
45
 11
100
 21
33
  0
LINE
  5
E3
100
AcDbEntity
  8
parts
  6
ByLayer
 62
  256
370
   -1
100
AcDbLine
 10
138.5
 20
33
 11
120
 21
33
  0
LINE
  5
E4
100
AcDbEntity
  8
parts
  6
ByLayer
 62
  256
370
   -1
100
AcDbLine
 10
100
 20
33
 11
81.5
 21
33
  0
ARC
  5
E5
100
AcDbEntity
  8
parts
  6
ByLayer
 62
  256
370
   -1
100
AcDbCircle
 10
118
 20
45
 40
2
100
AcDbArc
 50
0
 51
180
  0
ARC
  5
E6
100
AcDbEntity
  8
parts
  6
ByLayer
 62
  256
370
   -1
100
AcDbCircle
 10
102
 20
45
 40
2
100
AcDbArc
 50
0
 51
179.9998454504592
  0
LINE
  5
E7
100
AcDbEntity
  8
parts
  6
ByLayer
 62
  256
370
   -1
100
AcDbLine
 10
110
 20
45
 11
105
 21
45
  0
LINE
  5
E8
100
AcDbEntity
  8
parts
  6
ByLayer
 62
  256
370
   -1
100
AcDbLine
 10
105
 20
45
 11
103.9999999999946
 21
45
  0
LINE
  5
E9
100
AcDbEntity
  8
parts
  6
ByLayer
 62
  256
370
   -1
100
AcDbLine
 10
110
 20
45
 11
116
 21
45
  0
LINE
  5
EA
100
AcDbEntity
  8
parts
  6
ByLayer
 62
  256
370
   -1
100
AcDbLine
 10
88.99999730259364
 20
78.00000000000205
 11
81.5
 21
78
  0
LINE
  5
EB
100
AcDbEntity
  8
parts
  6
ByLayer
 62
  256
370
   -1
100
AcDbLine
 10
128.9999973237612
 20
90.00000651169398
 11
128.9999973237612
 21
78.00000381469499
  0
ARC
  5
EC
100
AcDbEntity
  8
parts
  6
ByLayer
 62
  256
370
   -1
100
AcDbCircle
 10
130.9999973237612
 20
78.00000381469499
 40
2
100
AcDbArc
 50
179.9998907170001
 51
0
  0
ARC
  5
ED
100
AcDbEntity
  8
parts
  6
ByLayer
 62
  256
370
   -1
100
AcDbCircle
 10
108.9999973237612
 20
80.00000381469499
 40
2
100
AcDbArc
 50
269.999922725
 51
90
  0
LINE
  5
EE
100
AcDbEntity
  8
parts
  6
ByLayer
 62
  256
370
   -1
100
AcDbLine
 10
108.9999973237612
 20
90.00000381469499
 11
108.9999973237612
 21
82.00000381469499
  0
LINE
  5
EF
100
AcDbEntity
  8
parts
  6
ByLayer
 62
  256
370
   -1
100
AcDbLine
 10
108.9999973237612
 20
90.00000381469499
 11
128.9999973237612
 21
90.00000381469499
  0
LINE
  5
F0
100
AcDbEntity
  8
parts
  6
ByLayer
 62
  256
370
   -1
100
AcDbLine
 10
138.5
 20
78
 11
132.9999973237612
 21
78.00000381469499
  0
LINE
  5
F1
100
AcDbEntity
  8
parts
  6
ByLayer
 62
  256
370
   -1
100
AcDbLine
 10
108.9999946263549
 20
78.0000038146959
 11
88.99999730259364
 21
78.00000000000205
  0
ARC
  5
F2
100
AcDbEntity
  8
parts
  6
ByLayer
 62
  256
370
   -1
100
AcDbCircle
 10
723.9999999999999
 20
750
 40
2
100
AcDbArc
 50
0
 51
180
  0
LINE
  5
F3
100
AcDbEntity
  8
parts
  6
ByLayer
 62
  256
370
   -1
100
AcDbLine
 10
725.9999999999998
 20
750
 11
733.9999999999999
 21
750
  0
LINE
  5
F4
100
AcDbEntity
  8
parts
  6
ByLayer
 62
  256
370
   -1
100
AcDbLine
 10
726.0000000000582
 20
700
 11
733.9999999999999
 21
700
  0
ARC
  5
F5
100
AcDbEntity
  8
parts
  6
ByLayer
 62
  256
370
   -1
100
AcDbCircle
 10
723.9999999999999
 20
700
 40
2
100
AcDbArc
 50
0
 51
179.9995628678915
  0
ARC
  5
F6
100
AcDbEntity
  8
parts
  6
ByLayer
 62
  256
370
   -1
100
AcDbCircle
 10
19.99999999999995
 20
750
 40
2
100
AcDbArc
 50
0
 51
180
  0
LINE
  5
F7
100
AcDbEntity
  8
parts
  6
ByLayer
 62
  256
370
   -1
100
AcDbLine
 10
18.00000000001445
 20
750
 11
9.999999999999956
 21
750
  0
ARC
  5
F8
100
AcDbEntity
  8
parts
  6
ByLayer
 62
  256
370
   -1
100
AcDbCircle
 10
19.99999999999996
 20
700
 40
2
100
AcDbArc
 50
0
 51
180
  0
LINE
  5
F9
100
AcDbEntity
  8
parts
  6
ByLayer
 62
  256
370
   -1
100
AcDbLine
 10
17.99999999998541
 20
700
 11
9.999999999999957
 21
700
  0
LINE
  5
FA
100
AcDbEntity
  8
parts
  6
ByLayer
 62
  256
370
   -1
100
AcDbLine
 10
420
 20
790
 11
20.00000000000001
 21
790
  0
LINE
  5
FB
100
AcDbEntity
  8
parts
  6
ByLayer
 62
  256
370
   -1
100
AcDbLine
 10
420
 20
930
 11
20
 21
930
  0
CIRCLE
  5
FC
100
AcDbEntity
  8
parts
  6
ByLayer
 62
  256
370
   -1
100
AcDbCircle
 10
239.5
 20
872
 40
2
  0
CIRCLE
  5
FD
100
AcDbEntity
  8
parts
  6
ByLayer
 62
  256
370
   -1
100
AcDbCircle
 10
239.5
 20
848
 40
2
  0
CIRCLE
  5
FE
100
AcDbEntity
  8
parts
  6
ByLayer
 62
  256
370
   -1
100
AcDbCircle
 10
200.5
 20
848
 40
2
  0
CIRCLE
  5
FF
100
AcDbEntity
  8
parts
  6
ByLayer
 62
  256
370
   -1
100
AcDbCircle
 10
200.5
 20
872
 40
2
  0
CIRCLE
  5
100
100
AcDbEntity
  8
parts
  6
ByLayer
 62
  256
370
   -1
100
AcDbCircle
 10
414
 20
897.5
 40
2.5
  0
CIRCLE
  5
101
100
AcDbEntity
  8
parts
  6
ByLayer
 62
  256
370
   -1
100
AcDbCircle
 10
386
 20
897.5
 40
2.5
  0
CIRCLE
  5
102
100
AcDbEntity
  8
parts
  6
ByLayer
 62
  256
370
   -1
100
AcDbCircle
 10
386
 20
923.5
 40
2.5
  0
CIRCLE
  5
103
100
AcDbEntity
  8
parts
  6
ByLayer
 62
  256
370
   -1
100
AcDbCircle
 10
414
 20
923.5
 40
2.5
  0
CIRCLE
  5
104
100
AcDbEntity
  8
parts
  6
ByLayer
 62
  256
370
   -1
100
AcDbCircle
 10
414
 20
822.5
 40
2.5
  0
CIRCLE
  5
105
100
AcDbEntity
  8
parts
  6
ByLayer
 62
  256
370
   -1
100
AcDbCircle
 10
386
 20
822.5
 40
2.5
  0
CIRCLE
  5
106
100
AcDbEntity
  8
parts
  6
ByLayer
 62
  256
370
   -1
100
AcDbCircle
 10
386
 20
796.5
 40
2.5
  0
CIRCLE
  5
107
100
AcDbEntity
  8
parts
  6
ByLayer
 62
  256
370
   -1
100
AcDbCircle
 10
414
 20
796.5
 40
2.5
  0
CIRCLE
  5
108
100
AcDbEntity
  8
parts
  6
ByLayer
 62
  256
370
   -1
100
AcDbCircle
 10
54.00000000000001
 20
796.5
 40
2.5
  0
CIRCLE
  5
109
100
AcDbEntity
  8
parts
  6
ByLayer
 62
  256
370
   -1
100
AcDbCircle
 10
26.00000000000001
 20
796.5
 40
2.5
  0
CIRCLE
  5
10A
100
AcDbEntity
  8
parts
  6
ByLayer
 62
  256
370
   -1
100
AcDbCircle
 10
54.00000000000001
 20
822.5
 40
2.5
  0
CIRCLE
  5
10B
100
AcDbEntity
  8
parts
  6
ByLayer
 62
  256
370
   -1
100
AcDbCircle
 10
26.00000000000001
 20
822.5
 40
2.5
  0
CIRCLE
  5
10C
100
AcDbEntity
  8
parts
  6
ByLayer
 62
  256
370
   -1
100
AcDbCircle
 10
54
 20
897.5
 40
2.5
  0
CIRCLE
  5
10D
100
AcDbEntity
  8
parts
  6
ByLayer
 62
  256
370
   -1
100
AcDbCircle
 10
26
 20
897.5
 40
2.5
  0
CIRCLE
  5
10E
100
AcDbEntity
  8
parts
  6
ByLayer
 62
  256
370
   -1
100
AcDbCircle
 10
26
 20
923.5
 40
2.5
  0
CIRCLE
  5
10F
100
AcDbEntity
  8
parts
  6
ByLayer
 62
  256
370
   -1
100
AcDbCircle
 10
54
 20
923.5
 40
2.5
  0
LINE
  5
110
100
AcDbEntity
  8
parts
  6
ByLayer
 62
  256
370
   -1
100
AcDbLine
 10
420
 20
847.5
 11
432
 21
847.5
  0
LINE
  5
111
100
AcDbEntity
  8
parts
  6
ByLayer
 62
  256
370
   -1
100
AcDbLine
 10
420
 20
872.5
 11
432
 21
872.5
  0
LINE
  5
112
100
AcDbEntity
  8
parts
  6
ByLayer
 62
  256
370
   -1
100
AcDbLine
 10
432
 20
847.5
 11
432
 21
872.5
  0
LINE
  5
113
100
AcDbEntity
  8
parts
  6
ByLayer
 62
  256
370
   -1
100
AcDbLine
 10
420
 20
876.5
 11
420
 21
930
  0
LINE
  5
114
100
AcDbEntity
  8
parts
  6
ByLayer
 62
  256
370
   -1
100
AcDbLine
 10
420
 20
843.5
 11
420
 21
790
  0
ARC
  5
115
100
AcDbEntity
  8
parts
  6
ByLayer
 62
  256
370
   -1
100
AcDbCircle
 10
420
 20
845.5
 40
2
100
AcDbArc
 50
90
 51
270
  0
ARC
  5
116
100
AcDbEntity
  8
parts
  6
ByLayer
 62
  256
370
   -1
100
AcDbCircle
 10
420
 20
874.5
 40
2
100
AcDbArc
 50
90
 51
270
  0
LINE
  5
117
100
AcDbEntity
  8
parts
  6
ByLayer
 62
  256
370
   -1
100
AcDbLine
 10
20.00000000000001
 20
847.5
 11
8.000000000000005
 21
847.5
  0
LINE
  5
118
100
AcDbEntity
  8
parts
  6
ByLayer
 62
  256
370
   -1
100
AcDbLine
 10
20
 20
872.5
 11
8.000000000000004
 21
872.5
  0
LINE
  5
119
100
AcDbEntity
  8
parts
  6
ByLayer
 62
  256
370
   -1
100
AcDbLine
 10
8.000000000000005
 20
847.5
 11
8.000000000000004
 21
872.5
  0
LINE
  5
11A
100
AcDbEntity
  8
parts
  6
ByLayer
 62
  256
370
   -1
100
AcDbLine
 10
20
 20
876.5
 11
20
 21
930
  0
LINE
  5
11B
100
AcDbEntity
  8
parts
  6
ByLayer
 62
  256
370
   -1
100
AcDbLine
 10
20.00000000000001
 20
843.5
 11
20.00000000000001
 21
790
  0
ARC
  5
11C
100
AcDbEntity
  8
parts
  6
ByLayer
 62
  256
370
   -1
100
AcDbCircle
 10
20.00000000000001
 20
845.5
 40
2
100
AcDbArc
 50
270
 51
90
  0
ARC
  5
11D
100
AcDbEntity
  8
parts
  6
ByLayer
 62
  256
370
   -1
100
AcDbCircle
 10
20
 20
874.5
 40
2
100
AcDbArc
 50
270
 51
90
  0
LINE
  5
11E
100
AcDbEntity
  8
parts
  6
ByLayer
 62
  256
370
   -1
100
AcDbLine
 10
485
 20
920
 11
485
 21
808.5
  0
LINE
  5
11F
100
AcDbEntity
  8
parts
  6
ByLayer
 62
  256
370
   -1
100
AcDbLine
 10
875
 20
920.0000000000001
 11
875
 21
808.5
  0
LINE
  5
120
100
AcDbEntity
  8
parts
  6
ByLayer
 62
  256
370
   -1
100
AcDbLine
 10
530
 20
908.0000005840001
 11
530
 21
920.0000005840039
  0
LINE
  5
121
100
AcDbEntity
  8
parts
  6
ByLayer
 62
  256
370
   -1
100
AcDbLine
 10
630
 20
908.0000005840001
 11
630
 21
920.0000005840039
  0
ARC
  5
122
100
AcDbEntity
  8
parts
  6
ByLayer
 62
  256
370
   -1
100
AcDbCircle
 10
628
 20
908.0000005840001
 40
2
100
AcDbArc
 50
180.0000334609565
 51
3.346099998012173e-05
  0
ARC
  5
123
100
AcDbEntity
  8
parts
  6
ByLayer
 62
  256
370
   -1
100
AcDbCircle
 10
532
 20
908.0000005840001
 40
2
100
AcDbArc
 50
179.999945358
 51
0
  0
LINE
  5
124
100
AcDbEntity
  8
parts
  6
ByLayer
 62
  256
370
   -1
100
AcDbLine
 10
626
 20
907.999999416
 11
534
 21
908.0000005840001
  0
LINE
  5
125
100
AcDbEntity
  8
parts
  6
ByLayer
 62
  256
370
   -1
100
AcDbLine
 10
730
 20
907.9999995794001
 11
730
 21
919.9999995794459
  0
LINE
  5
126
100
AcDbEntity
  8
parts
  6
ByLayer
 62
  256
370
   -1
100
AcDbLine
 10
830
 20
907.9999995794001
 11
830
 21
919.9999995794459
  0
ARC
  5
127
100
AcDbEntity
  8
parts
  6
ByLayer
 62
  256
370
   -1
100
AcDbCircle
 10
828
 20
907.9999995794001
 40
2
100
AcDbArc
 50
179.999945358
 51
359.999945358
  0
ARC
  5
128
100
AcDbEntity
  8
parts
  6
ByLayer
 62
  256
370
   -1
100
AcDbCircle
 10
732
 20
907.9999995794001
 40
2
100
AcDbArc
 50
179.999969454
 51
359.9999694539999
  0
LINE
  5
129
100
AcDbEntity
  8
parts
  6
ByLayer
 62
  256
370
   -1
100
AcDbLine
 10
826
 20
908.0000014868001
 11
734
 21
907.9999985132001
  0
LINE
  5
12A
100
AcDbEntity
  8
parts
  6
ByLayer
 62
  256
370
   -1
100
AcDbLine
 10
875
 20
920.0000000000001
 11
830
 21
919.9999995794459
  0
LINE
  5
12B
100
AcDbEntity
  8
parts
  6
ByLayer
 62
  256
370
   -1
100
AcDbLine
 10
730
 20
919.9999995794459
 11
630
 21
920.0000005840039
  0
LINE
  5
12C
100
AcDbEntity
  8
parts
  6
ByLayer
 62
  256
370
   -1
100
AcDbLine
 10
530
 20
920.0000005840039
 11
485
 21
920
  0
CIRCLE
  5
12D
100
AcDbEntity
  8
parts
  6
ByLayer
 62
  256
370
   -1
100
AcDbCircle
 10
680
 20
914
 40
2
  0
CIRCLE
  5
12E
100
AcDbEntity
  8
parts
  6
ByLayer
 62
  256
370
   -1
100
AcDbCircle
 10
505
 20
914
 40
2
  0
CIRCLE
  5
12F
100
AcDbEntity
  8
parts
  6
ByLayer
 62
  256
370
   -1
100
AcDbCircle
 10
855
 20
914.0000000000001
 40
2
  0
LINE
  5
130
100
AcDbEntity
  8
parts
  6
ByLayer
 62
  256
370
   -1
100
AcDbLine
 10
565
 20
820.5
 11
545
 21
820.5
  0
LINE
  5
131
100
AcDbEntity
  8
parts
  6
ByLayer
 62
  256
370
   -1
100
AcDbLine
 10
565
 20
840.5
 11
545
 21
840.5
  0
ARC
  5
132
100
AcDbEntity
  8
parts
  6
ByLayer
 62
  256
370
   -1
100
AcDbCircle
 10
565
 20
822.5
 40
2
100
AcDbArc
 50
270.0000772748
 51
90.00007727500004
  0
ARC
  5
133
100
AcDbEntity
  8
parts
  6
ByLayer
 62
  256
370
   -1
100
AcDbCircle
 10
565
 20
838.5
 40
2
100
AcDbArc
 50
270
 51
90
  0
ARC
  5
134
100
AcDbEntity
  8
parts
  6
ByLayer
 62
  256
370
   -1
100
AcDbCircle
 10
545
 20
838.5
 40
2
100
AcDbArc
 50
89.99992272499996
 51
270
  0
ARC
  5
135
100
AcDbEntity
  8
parts
  6
ByLayer
 62
  256
370
   -1
100
AcDbCircle
 10
545
 20
822.5
 40
2
100
AcDbArc
 50
90
 51
270
  0
LINE
  5
136
100
AcDbEntity
  8
parts
  6
ByLayer
 62
  256
370
   -1
100
AcDbLine
 10
565
 20
836.5
 11
565
 21
824.5
  0
LINE
  5
137
100
AcDbEntity
  8
parts
  6
ByLayer
 62
  256
370
   -1
100
AcDbLine
 10
545
 20
824.5
 11
545
 21
836.5
  0
LINE
  5
138
100
AcDbEntity
  8
parts
  6
ByLayer
 62
  256
370
   -1
100
AcDbLine
 10
795
 20
820.5
 11
815
 21
820.5
  0
LINE
  5
139
100
AcDbEntity
  8
parts
  6
ByLayer
 62
  256
370
   -1
100
AcDbLine
 10
795
 20
840.5
 11
815
 21
840.5
  0
ARC
  5
13A
100
AcDbEntity
  8
parts
  6
ByLayer
 62
  256
370
   -1
100
AcDbCircle
 10
795
 20
822.5
 40
2
100
AcDbArc
 50
89.99992272499996
 51
269.9999227252
  0
ARC
  5
13B
100
AcDbEntity
  8
parts
  6
ByLayer
 62
  256
370
   -1
100
AcDbCircle
 10
795
 20
838.5
 40
2
100
AcDbArc
 50
90
 51
270
  0
ARC
  5
13C
100
AcDbEntity
  8
parts
  6
ByLayer
 62
  256
370
   -1
100
AcDbCircle
 10
815
 20
838.5
 40
2
100
AcDbArc
 50
270
 51
90.00007727500004
  0
ARC
  5
13D
100
AcDbEntity
  8
parts
  6
ByLayer
 62
  256
370
   -1
100
AcDbCircle
 10
815
 20
822.5
 40
2
100
AcDbArc
 50
270
 51
90
  0
LINE
  5
13E
100
AcDbEntity
  8
parts
  6
ByLayer
 62
  256
370
   -1
100
AcDbLine
 10
795
 20
836.5
 11
795
 21
824.5
  0
LINE
  5
13F
100
AcDbEntity
  8
parts
  6
ByLayer
 62
  256
370
   -1
100
AcDbLine
 10
815
 20
824.5
 11
815
 21
836.5
  0
LINE
  5
140
100
AcDbEntity
  8
parts
  6
ByLayer
 62
  256
370
   -1
100
AcDbLine
 10
730
 20
808.5
 11
730
 21
820.5
  0
LINE
  5
141
100
AcDbEntity
  8
parts
  6
ByLayer
 62
  256
370
   -1
100
AcDbLine
 10
630
 20
808.5
 11
630
 21
820.5
  0
LINE
  5
142
100
AcDbEntity
  8
parts
  6
ByLayer
 62
  256
370
   -1
100
AcDbLine
 10
875
 20
808.5
 11
730
 21
808.5
  0
LINE
  5
143
100
AcDbEntity
  8
parts
  6
ByLayer
 62
  256
370
   -1
100
AcDbLine
 10
630
 20
808.5
 11
485
 21
808.5
  0
ARC
  5
144
100
AcDbEntity
  8
parts
  6
ByLayer
 62
  256
370
   -1
100
AcDbCircle
 10
632
 20
820.5
 40
2
100
AcDbArc
 50
0
 51
180
  0
ARC
  5
145
100
AcDbEntity
  8
parts
  6
ByLayer
 62
  256
370
   -1
100
AcDbCircle
 10
728
 20
820.5
 40
2
100
AcDbArc
 50
0
 51
180
  0
LINE
  5
146
100
AcDbEntity
  8
parts
  6
ByLayer
 62
  256
370
   -1
100
AcDbLine
 10
634
 20
820.5
 11
726
 21
820.5
  0
LINE
  5
147
100
AcDbEntity
  8
parts
  6
ByLayer
 62
  256
370
   -1
100
AcDbLine
 10
546
 20
885.5
 11
546
 21
863
  0
LINE
  5
148
100
AcDbEntity
  8
parts
  6
ByLayer
 62
  256
370
   -1
100
AcDbLine
 10
534
 20
885.5
 11
534
 21
863
  0
ARC
  5
149
100
AcDbEntity
  8
parts
  6
ByLayer
 62
  256
370
   -1
100
AcDbCircle
 10
544
 20
863
 40
2
100
AcDbArc
 50
180.0000000000004
 51
359.999945358
  0
ARC
  5
14A
100
AcDbEntity
  8
parts
  6
ByLayer
 62
  256
370
   -1
100
AcDbCircle
 10
536
 20
863
 40
2
100
AcDbArc
 50
180
 51
0
  0
ARC
  5
14B
100
AcDbEntity
  8
parts
  6
ByLayer
 62
  256
370
   -1
100
AcDbCircle
 10
536
 20
885.5
 40
2
100
AcDbArc
 50
0
 51
180
  0
ARC
  5
14C
100
AcDbEntity
  8
parts
  6
ByLayer
 62
  256
370
   -1
100
AcDbCircle
 10
544
 20
885.5
 40
2
100
AcDbArc
 50
0
 51
180
  0
LINE
  5
14D
100
AcDbEntity
  8
parts
  6
ByLayer
 62
  256
370
   -1
100
AcDbLine
 10
540
 20
885.5
 11
542
 21
885.5
  0
LINE
  5
14E
100
AcDbEntity
  8
parts
  6
ByLayer
 62
  256
370
   -1
100
AcDbLine
 10
540
 20
885.5
 11
538
 21
885.5
  0
LINE
  5
14F
100
AcDbEntity
  8
parts
  6
ByLayer
 62
  256
370
   -1
100
AcDbLine
 10
542
 20
863
 11
538
 21
863
  0
CIRCLE
  5
150
100
AcDbEntity
  8
parts
  6
ByLayer
 62
  256
370
   -1
100
AcDbCircle
 10
540
 20
897
 40
2
  0
LINE
  5
151
100
AcDbEntity
  8
parts
  6
ByLayer
 62
  256
370
   -1
100
AcDbLine
 10
814
 20
885.5
 11
814
 21
863
  0
LINE
  5
152
100
AcDbEntity
  8
parts
  6
ByLayer
 62
  256
370
   -1
100
AcDbLine
 10
826
 20
885.5
 11
826
 21
863
  0
ARC
  5
153
100
AcDbEntity
  8
parts
  6
ByLayer
 62
  256
370
   -1
100
AcDbCircle
 10
816
 20
863
 40
2
100
AcDbArc
 50
180.0000546415131
 51
0
  0
ARC
  5
154
100
AcDbEntity
  8
parts
  6
ByLayer
 62
  256
370
   -1
100
AcDbCircle
 10
824
 20
863
 40
2
100
AcDbArc
 50
180
 51
0
  0
ARC
  5
155
100
AcDbEntity
  8
parts
  6
ByLayer
 62
  256
370
   -1
100
AcDbCircle
 10
824
 20
885.5
 40
2
100
AcDbArc
 50
0
 51
180
  0
ARC
  5
156
100
AcDbEntity
  8
parts
  6
ByLayer
 62
  256
370
   -1
100
AcDbCircle
 10
816
 20
885.5
 40
2
100
AcDbArc
 50
0
 51
180
  0
LINE
  5
157
100
AcDbEntity
  8
parts
  6
ByLayer
 62
  256
370
   -1
100
AcDbLine
 10
820
 20
885.5
 11
818
 21
885.5
  0
LINE
  5
158
100
AcDbEntity
  8
parts
  6
ByLayer
 62
  256
370
   -1
100
AcDbLine
 10
820
 20
885.5
 11
822
 21
885.5
  0
LINE
  5
159
100
AcDbEntity
  8
parts
  6
ByLayer
 62
  256
370
   -1
100
AcDbLine
 10
818
 20
863
 11
822
 21
863
  0
CIRCLE
  5
15A
100
AcDbEntity
  8
parts
  6
ByLayer
 62
  256
370
   -1
100
AcDbCircle
 10
820
 20
897.0000000000001
 40
2
  0
LINE
  5
15B
100
AcDbEntity
  8
parts
  6
ByLayer
 62
  256
370
   -1
100
AcDbLine
 10
865
 20
820.5
 11
845
 21
820.5
  0
LINE
  5
15C
100
AcDbEntity
  8
parts
  6
ByLayer
 62
  256
370
   -1
100
AcDbLine
 10
865
 20
832.5
 11
845
 21
832.5
  0
LINE
  5
15D
100
AcDbEntity
  8
parts
  6
ByLayer
 62
  256
370
   -1
100
AcDbLine
 10
865
 20
824.5
 11
865
 21
828.5
  0
ARC
  5
15E
100
AcDbEntity
  8
parts
  6
ByLayer
 62
  256
370
   -1
100
AcDbCircle
 10
865
 20
830.5
 40
2
100
AcDbArc
 50
270
 51
90
  0
ARC
  5
15F
100
AcDbEntity
  8
parts
  6
ByLayer
 62
  256
370
   -1
100
AcDbCircle
 10
865
 20
822.5
 40
2
100
AcDbArc
 50
270
 51
90
  0
ARC
  5
160
100
AcDbEntity
  8
parts
  6
ByLayer
 62
  256
370
   -1
100
AcDbCircle
 10
845
 20
822.5
 40
2
100
AcDbArc
 50
90
 51
270
  0
LINE
  5
161
100
AcDbEntity
  8
parts
  6
ByLayer
 62
  256
370
   -1
100
AcDbLine
 10
845
 20
824.5
 11
845
 21
828.5
  0
ARC
  5
162
100
AcDbEntity
  8
parts
  6
ByLayer
 62
  256
370
   -1
100
AcDbCircle
 10
845
 20
830.5
 40
2
100
AcDbArc
 50
90
 51
270
  0
LINE
  5
163
100
AcDbEntity
  8
parts
  6
ByLayer
 62
  256
370
   -1
100
AcDbLine
 10
495
 20
820.5
 11
515
 21
820.5
  0
LINE
  5
164
100
AcDbEntity
  8
parts
  6
ByLayer
 62
  256
370
   -1
100
AcDbLine
 10
495
 20
832.5
 11
515
 21
832.5
  0
LINE
  5
165
100
AcDbEntity
  8
parts
  6
ByLayer
 62
  256
370
   -1
100
AcDbLine
 10
495
 20
824.5
 11
495
 21
828.5
  0
ARC
  5
166
100
AcDbEntity
  8
parts
  6
ByLayer
 62
  256
370
   -1
100
AcDbCircle
 10
495
 20
830.5
 40
2
100
AcDbArc
 50
90
 51
270
  0
ARC
  5
167
100
AcDbEntity
  8
parts
  6
ByLayer
 62
  256
370
   -1
100
AcDbCircle
 10
495
 20
822.5
 40
2
100
AcDbArc
 50
90
 51
270
  0
ARC
  5
168
100
AcDbEntity
  8
parts
  6
ByLayer
 62
  256
370
   -1
100
AcDbCircle
 10
515
 20
822.5
 40
2
100
AcDbArc
 50
270
 51
90
  0
LINE
  5
169
100
AcDbEntity
  8
parts
  6
ByLayer
 62
  256
370
   -1
100
AcDbLine
 10
515
 20
824.5
 11
515
 21
828.5
  0
ARC
  5
16A
100
AcDbEntity
  8
parts
  6
ByLayer
 62
  256
370
   -1
100
AcDbCircle
 10
515
 20
830.5
 40
2
100
AcDbArc
 50
270
 51
90
  0
CIRCLE
  5
16B
100
AcDbEntity
  8
parts
  6
ByLayer
 62
  256
370
   -1
100
AcDbCircle
 10
893.5
 20
756
 40
2.5
  0
CIRCLE
  5
16C
100
AcDbEntity
  8
parts
  6
ByLayer
 62
  256
370
   -1
100
AcDbCircle
 10
893.5
 20
784
 40
2.5
  0
CIRCLE
  5
16D
100
AcDbEntity
  8
parts
  6
ByLayer
 62
  256
370
   -1
100
AcDbCircle
 10
867.5
 20
784
 40
2.5
  0
CIRCLE
  5
16E
100
AcDbEntity
  8
parts
  6
ByLayer
 62
  256
370
   -1
100
AcDbCircle
 10
867.5
 20
756
 40
2.5
  0
CIRCLE
  5
16F
100
AcDbEntity
  8
parts
  6
ByLayer
 62
  256
370
   -1
100
AcDbCircle
 10
792.5
 20
756
 40
2.5
  0
CIRCLE
  5
170
100
AcDbEntity
  8
parts
  6
ByLayer
 62
  256
370
   -1
100
AcDbCircle
 10
792.5
 20
784
 40
2.5
  0
CIRCLE
  5
171
100
AcDbEntity
  8
parts
  6
ByLayer
 62
  256
370
   -1
100
AcDbCircle
 10
766.5
 20
784
 40
2.5
  0
CIRCLE
  5
172
100
AcDbEntity
  8
parts
  6
ByLayer
 62
  256
370
   -1
100
AcDbCircle
 10
766.5
 20
756
 40
2.5
  0
LINE
  5
173
100
AcDbEntity
  8
parts
  6
ByLayer
 62
  256
370
   -1
100
AcDbLine
 10
760
 20
750
 11
760
 21
790
  0
LINE
  5
174
100
AcDbEntity
  8
parts
  6
ByLayer
 62
  256
370
   -1
100
AcDbLine
 10
760
 20
790
 11
900
 21
790
  0
LINE
  5
175
100
AcDbEntity
  8
parts
  6
ByLayer
 62
  256
370
   -1
100
AcDbLine
 10
900
 20
750
 11
900
 21
790
  0
LINE
  5
176
100
AcDbEntity
  8
parts
  6
ByLayer
 62
  256
370
   -1
100
AcDbLine
 10
880
 20
750
 11
880
 21
738
  0
LINE
  5
177
100
AcDbEntity
  8
parts
  6
ByLayer
 62
  256
370
   -1
100
AcDbLine
 10
780
 20
750
 11
780
 21
738
  0
LINE
  5
178
100
AcDbEntity
  8
parts
  6
ByLayer
 62
  256
370
   -1
100
AcDbLine
 10
855
 20
750
 11
855
 21
738
  0
LINE
  5
179
100
AcDbEntity
  8
parts
  6
ByLayer
 62
  256
370
   -1
100
AcDbLine
 10
805
 20
750
 11
805
 21
738
  0
LINE
  5
17A
100
AcDbEntity
  8
parts
  6
ByLayer
 62
  256
370
   -1
100
AcDbLine
 10
880
 20
738
 11
855
 21
738
  0
LINE
  5
17B
100
AcDbEntity
  8
parts
  6
ByLayer
 62
  256
370
   -1
100
AcDbLine
 10
805
 20
738
 11
780
 21
738
  0
ARC
  5
17C
100
AcDbEntity
  8
parts
  6
ByLayer
 62
  256
370
   -1
100
AcDbCircle
 10
807
 20
750
 40
2
100
AcDbArc
 50
0
 51
180.000133844
  0
LINE
  5
17D
100
AcDbEntity
  8
parts
  6
ByLayer
 62
  256
370
   -1
100
AcDbLine
 10
776
 20
750
 11
760
 21
750
  0
ARC
  5
17E
100
AcDbEntity
  8
parts
  6
ByLayer
 62
  256
370
   -1
100
AcDbCircle
 10
778
 20
750
 40
2
100
AcDbArc
 50
0.0001092830000035447
 51
180
  0
ARC
  5
17F
100
AcDbEntity
  8
parts
  6
ByLayer
 62
  256
370
   -1
100
AcDbCircle
 10
853
 20
750
 40
2
100
AcDbArc
 50
5.464150000177235e-05
 51
180
  0
LINE
  5
180
100
AcDbEntity
  8
parts
  6
ByLayer
 62
  256
370
   -1
100
AcDbLine
 10
851
 20
750
 11
809
 21
750
  0
LINE
  5
181
100
AcDbEntity
  8
parts
  6
ByLayer
 62
  256
370
   -1
100
AcDbLine
 10
884
 20
750
 11
900
 21
750
  0
ARC
  5
182
100
AcDbEntity
  8
parts
  6
ByLayer
 62
  256
370
   -1
100
AcDbCircle
 10
882
 20
750
 40
2
100
AcDbArc
 50
0
 51
179.9999227249999
  0
CIRCLE
  5
183
100
AcDbEntity
  8
parts
  6
ByLayer
 62
  256
370
   -1
100
AcDbCircle
 10
293.5
 20
64
 40
2.5
  0
CIRCLE
  5
184
100
AcDbEntity
  8
parts
  6
ByLayer
 62
  256
370
   -1
100
AcDbCircle
 10
293.5
 20
36
 40
2.5
  0
CIRCLE
  5
185
100
AcDbEntity
  8
parts
  6
ByLayer
 62
  256
370
   -1
100
AcDbCircle
 10
267.5
 20
36
 40
2.5
  0
CIRCLE
  5
186
100
AcDbEntity
  8
parts
  6
ByLayer
 62
  256
370
   -1
100
AcDbCircle
 10
267.5
 20
64
 40
2.5
  0
CIRCLE
  5
187
100
AcDbEntity
  8
parts
  6
ByLayer
 62
  256
370
   -1
100
AcDbCircle
 10
192.5
 20
64
 40
2.5
  0
CIRCLE
  5
188
100
AcDbEntity
  8
parts
  6
ByLayer
 62
  256
370
   -1
100
AcDbCircle
 10
192.5
 20
36
 40
2.5
  0
CIRCLE
  5
189
100
AcDbEntity
  8
parts
  6
ByLayer
 62
  256
370
   -1
100
AcDbCircle
 10
166.5
 20
36
 40
2.5
  0
CIRCLE
  5
18A
100
AcDbEntity
  8
parts
  6
ByLayer
 62
  256
370
   -1
100
AcDbCircle
 10
166.5
 20
64
 40
2.5
  0
LINE
  5
18B
100
AcDbEntity
  8
parts
  6
ByLayer
 62
  256
370
   -1
100
AcDbLine
 10
160
 20
70
 11
160
 21
30
  0
LINE
  5
18C
100
AcDbEntity
  8
parts
  6
ByLayer
 62
  256
370
   -1
100
AcDbLine
 10
160
 20
30
 11
300
 21
30
  0
LINE
  5
18D
100
AcDbEntity
  8
parts
  6
ByLayer
 62
  256
370
   -1
100
AcDbLine
 10
300
 20
70
 11
300
 21
30
  0
LINE
  5
18E
100
AcDbEntity
  8
parts
  6
ByLayer
 62
  256
370
   -1
100
AcDbLine
 10
280
 20
70
 11
280
 21
82
  0
LINE
  5
18F
100
AcDbEntity
  8
parts
  6
ByLayer
 62
  256
370
   -1
100
AcDbLine
 10
180
 20
70
 11
180
 21
82
  0
LINE
  5
190
100
AcDbEntity
  8
parts
  6
ByLayer
 62
  256
370
   -1
100
AcDbLine
 10
255
 20
70
 11
255
 21
82
  0
LINE
  5
191
100
AcDbEntity
  8
parts
  6
ByLayer
 62
  256
370
   -1
100
AcDbLine
 10
205
 20
70
 11
205
 21
82
  0
LINE
  5
192
100
AcDbEntity
  8
parts
  6
ByLayer
 62
  256
370
   -1
100
AcDbLine
 10
280
 20
82
 11
255
 21
82
  0
LINE
  5
193
100
AcDbEntity
  8
parts
  6
ByLayer
 62
  256
370
   -1
100
AcDbLine
 10
205
 20
82
 11
180
 21
82
  0
ARC
  5
194
100
AcDbEntity
  8
parts
  6
ByLayer
 62
  256
370
   -1
100
AcDbCircle
 10
207
 20
70
 40
2
100
AcDbArc
 50
179.999866156
 51
360
  0
LINE
  5
195
100
AcDbEntity
  8
parts
  6
ByLayer
 62
  256
370
   -1
100
AcDbLine
 10
176
 20
70
 11
160
 21
70
  0
ARC
  5
196
100
AcDbEntity
  8
parts
  6
ByLayer
 62
  256
370
   -1
100
AcDbCircle
 10
178
 20
70
 40
2
100
AcDbArc
 50
180
 51
359.999890717
  0
ARC
  5
197
100
AcDbEntity
  8
parts
  6
ByLayer
 62
  256
370
   -1
100
AcDbCircle
 10
253
 20
70
 40
2
100
AcDbArc
 50
180
 51
359.999945358
  0
LINE
  5
198
100
AcDbEntity
  8
parts
  6
ByLayer
 62
  256
370
   -1
100
AcDbLine
 10
251
 20
70
 11
209
 21
70
  0
LINE
  5
199
100
AcDbEntity
  8
parts
  6
ByLayer
 62
  256
370
   -1
100
AcDbLine
 10
284
 20
70
 11
300
 21
70
  0
ARC
  5
19A
100
AcDbEntity
  8
parts
  6
ByLayer
 62
  256
370
   -1
100
AcDbCircle
 10
282
 20
70
 40
2
100
AcDbArc
 50
180.0000772750001
 51
360
  0
CIRCLE
  5
19B
100
AcDbEntity
  8
parts
  6
ByLayer
 62
  256
370
   -1
100
AcDbCircle
 10
377.0000010354
 20
49.99999999999977
 40
15
  0
CIRCLE
  5
19C
100
AcDbEntity
  8
parts
  6
ByLayer
 62
  256
370
   -1
100
AcDbCircle
 10
400.6200010354
 20
73.61999999999978
 40
2
  0
CIRCLE
  5
19D
100
AcDbEntity
  8
parts
  6
ByLayer
 62
  256
370
   -1
100
AcDbCircle
 10
400.6200010354
 20
26.37999999999977
 40
2
  0
CIRCLE
  5
19E
100
AcDbEntity
  8
parts
  6
ByLayer
 62
  256
370
   -1
100
AcDbCircle
 10
353.3800010354
 20
26.37999999999977
 40
2
  0
CIRCLE
  5
19F
100
AcDbEntity
  8
parts
  6
ByLayer
 62
  256
370
   -1
100
AcDbCircle
 10
353.3800010354
 20
73.61999999999978
 40
2
  0
LINE
  5
1A0
100
AcDbEntity
  8
parts
  6
ByLayer
 62
  256
370
   -1
100
AcDbLine
 10
408.6200010354
 20
73.61999999999978
 11
408.6200010354
 21
26.37999999999977
  0
LINE
  5
1A1
100
AcDbEntity
  8
parts
  6
ByLayer
 62
  256
370
   -1
100
AcDbLine
 10
400.6200010354
 20
18.37999999999977
 11
353.3800010354
 21
18.37999999999977
  0
LINE
  5
1A2
100
AcDbEntity
  8
parts
  6
ByLayer
 62
  256
370
   -1
100
AcDbLine
 10
345.3800010354
 20
26.37999999999977
 11
345.3800010354
 21
73.61999999999978
  0
LINE
  5
1A3
100
AcDbEntity
  8
parts
  6
ByLayer
 62
  256
370
   -1
100
AcDbLine
 10
353.3800010354
 20
81.61999999999978
 11
400.6200010354
 21
81.61999999999978
  0
ARC
  5
1A4
100
AcDbEntity
  8
parts
  6
ByLayer
 62
  256
370
   -1
100
AcDbCircle
 10
400.6200010354
 20
73.61999999999978
 40
8
100
AcDbArc
 50
6.830189017346126e-06
 51
90.00000800910679
  0
ARC
  5
1A5
100
AcDbEntity
  8
parts
  6
ByLayer
 62
  256
370
   -1
100
AcDbCircle
 10
400.6200010354
 20
26.37999999999977
 40
8
100
AcDbArc
 50
270
 51
0
  0
ARC
  5
1A6
100
AcDbEntity
  8
parts
  6
ByLayer
 62
  256
370
   -1
100
AcDbCircle
 10
353.3800010354
 20
26.37999999999977
 40
8
100
AcDbArc
 50
180.0000034150946
 51
269.9999965849054
  0
ARC
  5
1A7
100
AcDbEntity
  8
parts
  6
ByLayer
 62
  256
370
   -1
100
AcDbCircle
 10
353.3800010354
 20
73.61999999999978
 40
8
100
AcDbArc
 50
89.9999975851635
 51
179.9999982924527
  0
LINE
  5
1A8
100
AcDbEntity
  8
parts
  6
ByLayer
 62
  256
370
   -1
100
AcDbLine
 10
9.999999999999984
 20
255
 11
121.5
 21
255
  0
LINE
  5
1A9
100
AcDbEntity
  8
parts
  6
ByLayer
 62
  256
370
   -1
100
AcDbLine
 10
9.999999999999959
 20
645
 11
121.5
 21
645
  0
LINE
  5
1AA
100
AcDbEntity
  8
parts
  6
ByLayer
 62
  256
370
   -1
100
AcDbLine
 10
21.99999941599998
 20
300
 11
9.999999415996118
 21
300
  0
LINE
  5
1AB
100
AcDbEntity
  8
parts
  6
ByLayer
 62
  256
370
   -1
100
AcDbLine
 10
21.99999941599997
 20
400
 11
9.999999415996113
 21
400
  0
ARC
  5
1AC
100
AcDbEntity
  8
parts
  6
ByLayer
 62
  256
370
   -1
100
AcDbCircle
 10
21.99999941599997
 20
398
 40
2
100
AcDbArc
 50
270.0000334609565
 51
90.00003346099999
  0
ARC
  5
1AD
100
AcDbEntity
  8
parts
  6
ByLayer
 62
  256
370
   -1
100
AcDbCircle
 10
21.99999941599998
 20
302
 40
2
100
AcDbArc
 50
269.999945358
 51
90
  0
LINE
  5
1AE
100
AcDbEntity
  8
parts
  6
ByLayer
 62
  256
370
   -1
100
AcDbLine
 10
22.00000058399997
 20
396
 11
21.99999941599998
 21
304
  0
LINE
  5
1AF
100
AcDbEntity
  8
parts
  6
ByLayer
 62
  256
370
   -1
100
AcDbLine
 10
22.00000042059997
 20
500
 11
10.00000042055415
 21
500
  0
LINE
  5
1B0
100
AcDbEntity
  8
parts
  6
ByLayer
 62
  256
370
   -1
100
AcDbLine
 10
22.00000042059996
 20
600
 11
10.00000042055414
 21
600
  0
ARC
  5
1B1
100
AcDbEntity
  8
parts
  6
ByLayer
 62
  256
370
   -1
100
AcDbCircle
 10
22.00000042059996
 20
598
 40
2
100
AcDbArc
 50
269.999945358
 51
89.99994535800003
  0
ARC
  5
1B2
100
AcDbEntity
  8
parts
  6
ByLayer
 62
  256
370
   -1
100
AcDbCircle
 10
22.00000042059997
 20
502
 40
2
100
AcDbArc
 50
269.999969454
 51
89.99996945399998
  0
LINE
  5
1B3
100
AcDbEntity
  8
parts
  6
ByLayer
 62
  256
370
   -1
100
AcDbLine
 10
21.99999851319996
 20
596
 11
22.00000148679996
 21
504
  0
LINE
  5
1B4
100
AcDbEntity
  8
parts
  6
ByLayer
 62
  256
370
   -1
100
AcDbLine
 10
9.999999999999959
 20
645
 11
10.00000042055414
 21
600
  0
LINE
  5
1B5
100
AcDbEntity
  8
parts
  6
ByLayer
 62
  256
370
   -1
100
AcDbLine
 10
10.00000042055415
 20
500
 11
9.999999415996113
 21
400
  0
LINE
  5
1B6
100
AcDbEntity
  8
parts
  6
ByLayer
 62
  256
370
   -1
100
AcDbLine
 10
9.999999415996118
 20
300
 11
9.999999999999984
 21
255
  0
CIRCLE
  5
1B7
100
AcDbEntity
  8
parts
  6
ByLayer
 62
  256
370
   -1
100
AcDbCircle
 10
15.99999999999997
 20
450
 40
2
  0
CIRCLE
  5
1B8
100
AcDbEntity
  8
parts
  6
ByLayer
 62
  256
370
   -1
100
AcDbCircle
 10
15.99999999999998
 20
275
 40
2
  0
CIRCLE
  5
1B9
100
AcDbEntity
  8
parts
  6
ByLayer
 62
  256
370
   -1
100
AcDbCircle
 10
15.99999999999996
 20
625
 40
2
  0
LINE
  5
1BA
100
AcDbEntity
  8
parts
  6
ByLayer
 62
  256
370
   -1
100
AcDbLine
 10
109.5
 20
335
 11
109.5
 21
315
  0
LINE
  5
1BB
100
AcDbEntity
  8
parts
  6
ByLayer
 62
  256
370
   -1
100
AcDbLine
 10
89.49999999999999
 20
335
 11
89.49999999999999
 21
315
  0
ARC
  5
1BC
100
AcDbEntity
  8
parts
  6
ByLayer
 62
  256
370
   -1
100
AcDbCircle
 10
107.5
 20
335
 40
2
100
AcDbArc
 50
7.727479999993677e-05
 51
180.0000772750001
  0
ARC
  5
1BD
100
AcDbEntity
  8
parts
  6
ByLayer
 62
  256
370
   -1
100
AcDbCircle
 10
91.49999999999999
 20
335
 40
2
100
AcDbArc
 50
0
 51
180
  0
ARC
  5
1BE
100
AcDbEntity
  8
parts
  6
ByLayer
 62
  256
370
   -1
100
AcDbCircle
 10
91.49999999999999
 20
315
 40
2
100
AcDbArc
 50
179.9999227249999
 51
360
  0
ARC
  5
1BF
100
AcDbEntity
  8
parts
  6
ByLayer
 62
  256
370
   -1
100
AcDbCircle
 10
107.5
 20
315
 40
2
100
AcDbArc
 50
180
 51
360
  0
LINE
  5
1C0
100
AcDbEntity
  8
parts
  6
ByLayer
 62
  256
370
   -1
100
AcDbLine
 10
93.49999999999999
 20
335
 11
105.5
 21
335
  0
LINE
  5
1C1
100
AcDbEntity
  8
parts
  6
ByLayer
 62
  256
370
   -1
100
AcDbLine
 10
105.5
 20
315
 11
93.49999999999999
 21
315
  0
LINE
  5
1C2
100
AcDbEntity
  8
parts
  6
ByLayer
 62
  256
370
   -1
100
AcDbLine
 10
109.5
 20
565
 11
109.5
 21
585
  0
LINE
  5
1C3
100
AcDbEntity
  8
parts
  6
ByLayer
 62
  256
370
   -1
100
AcDbLine
 10
89.49999999999997
 20
565
 11
89.49999999999997
 21
585
  0
ARC
  5
1C4
100
AcDbEntity
  8
parts
  6
ByLayer
 62
  256
370
   -1
100
AcDbCircle
 10
107.5
 20
565
 40
2
100
AcDbArc
 50
179.9999227249999
 51
359.9999227252
  0
ARC
  5
1C5
100
AcDbEntity
  8
parts
  6
ByLayer
 62
  256
370
   -1
100
AcDbCircle
 10
91.49999999999997
 20
565
 40
2
100
AcDbArc
 50
180
 51
0
  0
ARC
  5
1C6
100
AcDbEntity
  8
parts
  6
ByLayer
 62
  256
370
   -1
100
AcDbCircle
 10
91.49999999999997
 20
585
 40
2
100
AcDbArc
 50
0
 51
180.0000772750001
  0
ARC
  5
1C7
100
AcDbEntity
  8
parts
  6
ByLayer
 62
  256
370
   -1
100
AcDbCircle
 10
107.5
 20
585
 40
2
100
AcDbArc
 50
0
 51
180
  0
LINE
  5
1C8
100
AcDbEntity
  8
parts
  6
ByLayer
 62
  256
370
   -1
100
AcDbLine
 10
93.49999999999997
 20
565
 11
105.5
 21
565
  0
LINE
  5
1C9
100
AcDbEntity
  8
parts
  6
ByLayer
 62
  256
370
   -1
100
AcDbLine
 10
105.5
 20
585
 11
93.49999999999997
 21
585
  0
LINE
  5
1CA
100
AcDbEntity
  8
parts
  6
ByLayer
 62
  256
370
   -1
100
AcDbLine
 10
121.5
 20
500
 11
109.5
 21
500
  0
LINE
  5
1CB
100
AcDbEntity
  8
parts
  6
ByLayer
 62
  256
370
   -1
100
AcDbLine
 10
121.5
 20
400
 11
109.5
 21
400
  0
LINE
  5
1CC
100
AcDbEntity
  8
parts
  6
ByLayer
 62
  256
370
   -1
100
AcDbLine
 10
121.5
 20
645
 11
121.5
 21
500
  0
LINE
  5
1CD
100
AcDbEntity
  8
parts
  6
ByLayer
 62
  256
370
   -1
100
AcDbLine
 10
121.5
 20
400
 11
121.5
 21
255
  0
ARC
  5
1CE
100
AcDbEntity
  8
parts
  6
ByLayer
 62
  256
370
   -1
100
AcDbCircle
 10
109.5
 20
402
 40
2
100
AcDbArc
 50
90
 51
270
  0
ARC
  5
1CF
100
AcDbEntity
  8
parts
  6
ByLayer
 62
  256
370
   -1
100
AcDbCircle
 10
109.5
 20
498
 40
2
100
AcDbArc
 50
90
 51
270
  0
LINE
  5
1D0
100
AcDbEntity
  8
parts
  6
ByLayer
 62
  256
370
   -1
100
AcDbLine
 10
109.5
 20
404
 11
109.5
 21
496
  0
LINE
  5
1D1
100
AcDbEntity
  8
parts
  6
ByLayer
 62
  256
370
   -1
100
AcDbLine
 10
44.49999999999998
 20
316
 11
66.99999999999999
 21
316
  0
LINE
  5
1D2
100
AcDbEntity
  8
parts
  6
ByLayer
 62
  256
370
   -1
100
AcDbLine
 10
44.49999999999998
 20
304
 11
66.99999999999999
 21
304
  0
ARC
  5
1D3
100
AcDbEntity
  8
parts
  6
ByLayer
 62
  256
370
   -1
100
AcDbCircle
 10
66.99999999999999
 20
314
 40
2
100
AcDbArc
 50
270.0000000000004
 51
89.99994535799999
  0
ARC
  5
1D4
100
AcDbEntity
  8
parts
  6
ByLayer
 62
  256
370
   -1
100
AcDbCircle
 10
66.99999999999999
 20
306
 40
2
100
AcDbArc
 50
270
 51
90
  0
ARC
  5
1D5
100
AcDbEntity
  8
parts
  6
ByLayer
 62
  256
370
   -1
100
AcDbCircle
 10
44.49999999999998
 20
306
 40
2
100
AcDbArc
 50
90
 51
270
  0
ARC
  5
1D6
100
AcDbEntity
  8
parts
  6
ByLayer
 62
  256
370
   -1
100
AcDbCircle
 10
44.49999999999998
 20
314
 40
2
100
AcDbArc
 50
90
 51
270
  0
LINE
  5
1D7
100
AcDbEntity
  8
parts
  6
ByLayer
 62
  256
370
   -1
100
AcDbLine
 10
44.49999999999998
 20
310
 11
44.49999999999998
 21
312
  0
LINE
  5
1D8
100
AcDbEntity
  8
parts
  6
ByLayer
 62
  256
370
   -1
100
AcDbLine
 10
44.49999999999998
 20
310
 11
44.49999999999998
 21
308
  0
LINE
  5
1D9
100
AcDbEntity
  8
parts
  6
ByLayer
 62
  256
370
   -1
100
AcDbLine
 10
66.99999999999999
 20
312
 11
66.99999999999999
 21
308
  0
CIRCLE
  5
1DA
100
AcDbEntity
  8
parts
  6
ByLayer
 62
  256
370
   -1
100
AcDbCircle
 10
32.99999999999998
 20
310
 40
2
  0
LINE
  5
1DB
100
AcDbEntity
  8
parts
  6
ByLayer
 62
  256
370
   -1
100
AcDbLine
 10
44.49999999999996
 20
584
 11
66.99999999999997
 21
584
  0
LINE
  5
1DC
100
AcDbEntity
  8
parts
  6
ByLayer
 62
  256
370
   -1
100
AcDbLine
 10
44.49999999999996
 20
596
 11
66.99999999999996
 21
596
  0
ARC
  5
1DD
100
AcDbEntity
  8
parts
  6
ByLayer
 62
  256
370
   -1
100
AcDbCircle
 10
66.99999999999997
 20
586
 40
2
100
AcDbArc
 50
270.0000546415131
 51
90
  0
ARC
  5
1DE
100
AcDbEntity
  8
parts
  6
ByLayer
 62
  256
370
   -1
100
AcDbCircle
 10
66.99999999999996
 20
594
 40
2
100
AcDbArc
 50
270
 51
90
  0
ARC
  5
1DF
100
AcDbEntity
  8
parts
  6
ByLayer
 62
  256
370
   -1
100
AcDbCircle
 10
44.49999999999996
 20
594
 40
2
100
AcDbArc
 50
90
 51
270
  0
ARC
  5
1E0
100
AcDbEntity
  8
parts
  6
ByLayer
 62
  256
370
   -1
100
AcDbCircle
 10
44.49999999999996
 20
586
 40
2
100
AcDbArc
 50
90
 51
270
  0
LINE
  5
1E1
100
AcDbEntity
  8
parts
  6
ByLayer
 62
  256
370
   -1
100
AcDbLine
 10
44.49999999999996
 20
590
 11
44.49999999999996
 21
588
  0
LINE
  5
1E2
100
AcDbEntity
  8
parts
  6
ByLayer
 62
  256
370
   -1
100
AcDbLine
 10
44.49999999999996
 20
590
 11
44.49999999999996
 21
592
  0
LINE
  5
1E3
100
AcDbEntity
  8
parts
  6
ByLayer
 62
  256
370
   -1
100
AcDbLine
 10
66.99999999999997
 20
588
 11
66.99999999999996
 21
592
  0
CIRCLE
  5
1E4
100
AcDbEntity
  8
parts
  6
ByLayer
 62
  256
370
   -1
100
AcDbCircle
 10
32.99999999999996
 20
590
 40
2
  0
LINE
  5
1E5
100
AcDbEntity
  8
parts
  6
ByLayer
 62
  256
370
   -1
100
AcDbLine
 10
109.5
 20
635
 11
109.5
 21
615
  0
LINE
  5
1E6
100
AcDbEntity
  8
parts
  6
ByLayer
 62
  256
370
   -1
100
AcDbLine
 10
97.49999999999996
 20
635
 11
97.49999999999996
 21
615
  0
LINE
  5
1E7
100
AcDbEntity
  8
parts
  6
ByLayer
 62
  256
370
   -1
100
AcDbLine
 10
105.5
 20
635
 11
101.5
 21
635
  0
ARC
  5
1E8
100
AcDbEntity
  8
parts
  6
ByLayer
 62
  256
370
   -1
100
AcDbCircle
 10
99.49999999999996
 20
635
 40
2
100
AcDbArc
 50
0
 51
180
  0
ARC
  5
1E9
100
AcDbEntity
  8
parts
  6
ByLayer
 62
  256
370
   -1
100
AcDbCircle
 10
107.5
 20
635
 40
2
100
AcDbArc
 50
0
 51
180
  0
ARC
  5
1EA
100
AcDbEntity
  8
parts
  6
ByLayer
 62
  256
370
   -1
100
AcDbCircle
 10
107.5
 20
615
 40
2
100
AcDbArc
 50
180
 51
360
  0
LINE
  5
1EB
100
AcDbEntity
  8
parts
  6
ByLayer
 62
  256
370
   -1
100
AcDbLine
 10
105.5
 20
615
 11
101.5
 21
615
  0
ARC
  5
1EC
100
AcDbEntity
  8
parts
  6
ByLayer
 62
  256
370
   -1
100
AcDbCircle
 10
99.49999999999996
 20
615
 40
2
100
AcDbArc
 50
180
 51
360
  0
LINE
  5
1ED
100
AcDbEntity
  8
parts
  6
ByLayer
 62
  256
370
   -1
100
AcDbLine
 10
109.5
 20
265
 11
109.5
 21
285
  0
LINE
  5
1EE
100
AcDbEntity
  8
parts
  6
ByLayer
 62
  256
370
   -1
100
AcDbLine
 10
97.49999999999999
 20
265
 11
97.49999999999999
 21
285
  0
LINE
  5
1EF
100
AcDbEntity
  8
parts
  6
ByLayer
 62
  256
370
   -1
100
AcDbLine
 10
105.5
 20
265
 11
101.5
 21
265
  0
ARC
  5
1F0
100
AcDbEntity
  8
parts
  6
ByLayer
 62
  256
370
   -1
100
AcDbCircle
 10
99.49999999999999
 20
265
 40
2
100
AcDbArc
 50
180
 51
0
  0
ARC
  5
1F1
100
AcDbEntity
  8
parts
  6
ByLayer
 62
  256
370
   -1
100
AcDbCircle
 10
107.5
 20
265
 40
2
100
AcDbArc
 50
180
 51
0
  0
ARC
  5
1F2
100
AcDbEntity
  8
parts
  6
ByLayer
 62
  256
370
   -1
100
AcDbCircle
 10
107.5
 20
285
 40
2
100
AcDbArc
 50
0
 51
180
  0
LINE
  5
1F3
100
AcDbEntity
  8
parts
  6
ByLayer
 62
  256
370
   -1
100
AcDbLine
 10
105.5
 20
285
 11
101.5
 21
285
  0
ARC
  5
1F4
100
AcDbEntity
  8
parts
  6
ByLayer
 62
  256
370
   -1
100
AcDbCircle
 10
99.49999999999999
 20
285
 40
2
100
AcDbArc
 50
0
 51
180
  0
CIRCLE
  5
1F5
100
AcDbEntity
  8
parts
  6
ByLayer
 62
  256
370
   -1
100
AcDbCircle
 10
47.00000103539997
 20
449.9999999999998
 40
15
  0
CIRCLE
  5
1F6
100
AcDbEntity
  8
parts
  6
ByLayer
 62
  256
370
   -1
100
AcDbCircle
 10
70.62000103539995
 20
473.6199999999998
 40
2
  0
CIRCLE
  5
1F7
100
AcDbEntity
  8
parts
  6
ByLayer
 62
  256
370
   -1
100
AcDbCircle
 10
70.62000103539995
 20
426.3799999999998
 40
2
  0
CIRCLE
  5
1F8
100
AcDbEntity
  8
parts
  6
ByLayer
 62
  256
370
   -1
100
AcDbCircle
 10
23.38000103539997
 20
426.3799999999998
 40
2
  0
CIRCLE
  5
1F9
100
AcDbEntity
  8
parts
  6
ByLayer
 62
  256
370
   -1
100
AcDbCircle
 10
23.38000103539997
 20
473.6199999999998
 40
2
  0
CIRCLE
  5
1FA
100
AcDbEntity
  8
parts
  6
ByLayer
 62
  256
370
   -1
100
AcDbCircle
 10
62.99999999999996
 20
563
 40
2
  0
CIRCLE
  5
1FB
100
AcDbEntity
  8
parts
  6
ByLayer
 62
  256
370
   -1
100
AcDbCircle
 10
62.99999999999997
 20
497
 40
2
  0
CIRCLE
  5
1FC
100
AcDbEntity
  8
parts
  6
ByLayer
 62
  256
370
   -1
100
AcDbCircle
 10
30.99999999999997
 20
497
 40
2
  0
CIRCLE
  5
1FD
100
AcDbEntity
  8
parts
  6
ByLayer
 62
  256
370
   -1
100
AcDbCircle
 10
30.99999999999996
 20
563
 40
2
  0
ARC
  5
1FE
100
AcDbEntity
  8
parts
  6
ByLayer
 62
  256
370
   -1
100
AcDbCircle
 10
56.99999999999996
 20
557
 40
3
100
AcDbArc
 50
0
 51
90
  0
LINE
  5
1FF
100
AcDbEntity
  8
parts
  6
ByLayer
 62
  256
370
   -1
100
AcDbLine
 10
56.99999999999996
 20
560
 11
36.99999999999996
 21
560
  0
ARC
  5
200
100
AcDbEntity
  8
parts
  6
ByLayer
 62
  256
370
   -1
100
AcDbCircle
 10
36.99999999999996
 20
557
 40
3
100
AcDbArc
 50
90
 51
180
  0
LINE
  5
201
100
AcDbEntity
  8
parts
  6
ByLayer
 62
  256
370
   -1
100
AcDbLine
 10
59.99999999999997
 20
503
 11
59.99999999999996
 21
557
  0
ARC
  5
202
100
AcDbEntity
  8
parts
  6
ByLayer
 62
  256
370
   -1
100
AcDbCircle
 10
56.99999999999997
 20
503
 40
3
100
AcDbArc
 50
270
 51
0
  0
LINE
  5
203
100
AcDbEntity
  8
parts
  6
ByLayer
 62
  256
370
   -1
100
AcDbLine
 10
56.99999999999997
 20
500
 11
36.99999999999997
 21
500
  0
LINE
  5
204
100
AcDbEntity
  8
parts
  6
ByLayer
 62
  256
370
   -1
100
AcDbLine
 10
33.99999999999996
 20
557
 11
33.99999999999997
 21
503
  0
ARC
  5
205
100
AcDbEntity
  8
parts
  6
ByLayer
 62
  256
370
   -1
100
AcDbCircle
 10
36.99999999999997
 20
503
 40
3
100
AcDbArc
 50
180
 51
270
  0
CIRCLE
  5
206
100
AcDbEntity
  8
parts
  6
ByLayer
 62
  256
370
   -1
100
AcDbCircle
 10
70.09999999999997
 20
361.25
 40
2
  0
CIRCLE
  5
207
100
AcDbEntity
  8
parts
  6
ByLayer
 62
  256
370
   -1
100
AcDbCircle
 10
29.89999999999997
 20
361.25
 40
2
  0
LINE
  5
208
100
AcDbEntity
  8
parts
  6
ByLayer
 62
  256
370
   -1
100
AcDbLine
 10
66.49999999999997
 20
361.25
 11
66.49999999999997
 21
392.4
  0
ARC
  5
209
100
AcDbEntity
  8
parts
  6
ByLayer
 62
  256
370
   -1
100
AcDbCircle
 10
64.49999999999997
 20
392.4
 40
2
100
AcDbArc
 50
0
 51
90
  0
LINE
  5
20A
100
AcDbEntity
  8
parts
  6
ByLayer
 62
  256
370
   -1
100
AcDbLine
 10
64.49999999999997
 20
394.4
 11
35.49999999999998
 21
394.4
  0
LINE
  5
20B
100
AcDbEntity
  8
parts
  6
ByLayer
 62
  256
370
   -1
100
AcDbLine
 10
33.49999999999998
 20
361.25
 11
33.49999999999998
 21
392.4
  0
ARC
  5
20C
100
AcDbEntity
  8
parts
  6
ByLayer
 62
  256
370
   -1
100
AcDbCircle
 10
35.49999999999998
 20
392.4
 40
2
100
AcDbArc
 50
90
 51
180
  0
LINE
  5
20D
100
AcDbEntity
  8
parts
  6
ByLayer
 62
  256
370
   -1
100
AcDbLine
 10
66.49999999999997
 20
361.25
 11
66.49999999999999
 21
330.1
  0
ARC
  5
20E
100
AcDbEntity
  8
parts
  6
ByLayer
 62
  256
370
   -1
100
AcDbCircle
 10
64.49999999999999
 20
330.1
 40
2
100
AcDbArc
 50
270
 51
0
  0
LINE
  5
20F
100
AcDbEntity
  8
parts
  6
ByLayer
 62
  256
370
   -1
100
AcDbLine
 10
64.49999999999999
 20
328.1
 11
35.49999999999998
 21
328.1
  0
LINE
  5
210
100
AcDbEntity
  8
parts
  6
ByLayer
 62
  256
370
   -1
100
AcDbLine
 10
33.49999999999998
 20
361.25
 11
33.49999999999998
 21
330.1
  0
ARC
  5
211
100
AcDbEntity
  8
parts
  6
ByLayer
 62
  256
370
   -1
100
AcDbCircle
 10
35.49999999999998
 20
330.1
 40
2
100
AcDbArc
 50
180
 51
270
  0
LINE
  5
212
100
AcDbEntity
  8
parts
  6
ByLayer
 62
  256
370
   -1
100
AcDbLine
 10
859.999999999999
 20
249.0000000000057
 11
159.9999999999989
 21
249.0000000000057
  0
LINE
  5
213
100
AcDbEntity
  8
parts
  6
ByLayer
 62
  256
370
   -1
100
AcDbLine
 10
859.999999999999
 20
639.0000000000057
 11
159.9999999999989
 21
639.0000000000057
  0
CIRCLE
  5
214
100
AcDbEntity
  8
parts
  6
ByLayer
 62
  256
370
   -1
100
AcDbCircle
 10
209.9999999999989
 20
275.0000000000057
 40
2
  0
CIRCLE
  5
215
100
AcDbEntity
  8
parts
  6
ByLayer
 62
  256
370
   -1
100
AcDbCircle
 10
209.9999999999989
 20
253.0000000000057
 40
2
  0
CIRCLE
  5
216
100
AcDbEntity
  8
parts
  6
ByLayer
 62
  256
370
   -1
100
AcDbCircle
 10
359.999999999999
 20
275.0000000000057
 40
2
  0
CIRCLE
  5
217
100
AcDbEntity
  8
parts
  6
ByLayer
 62
  256
370
   -1
100
AcDbCircle
 10
359.999999999999
 20
253.0000000000057
 40
2
  0
CIRCLE
  5
218
100
AcDbEntity
  8
parts
  6
ByLayer
 62
  256
370
   -1
100
AcDbCircle
 10
509.999999999999
 20
275.0000000000057
 40
2
  0
CIRCLE
  5
219
100
AcDbEntity
  8
parts
  6
ByLayer
 62
  256
370
   -1
100
AcDbCircle
 10
509.999999999999
 20
253.0000000000057
 40
2
  0
CIRCLE
  5
21A
100
AcDbEntity
  8
parts
  6
ByLayer
 62
  256
370
   -1
100
AcDbCircle
 10
809.999999999999
 20
275.0000000000057
 40
2
  0
CIRCLE
  5
21B
100
AcDbEntity
  8
parts
  6
ByLayer
 62
  256
370
   -1
100
AcDbCircle
 10
809.999999999999
 20
253.0000000000057
 40
2
  0
CIRCLE
  5
21C
100
AcDbEntity
  8
parts
  6
ByLayer
 62
  256
370
   -1
100
AcDbCircle
 10
659.9999999999989
 20
275.0000000000057
 40
2
  0
CIRCLE
  5
21D
100
AcDbEntity
  8
parts
  6
ByLayer
 62
  256
370
   -1
100
AcDbCircle
 10
659.9999999999989
 20
253.0000000000057
 40
2
  0
CIRCLE
  5
21E
100
AcDbEntity
  8
parts
  6
ByLayer
 62
  256
370
   -1
100
AcDbCircle
 10
209.9999999999989
 20
635.0000000000057
 40
2
  0
CIRCLE
  5
21F
100
AcDbEntity
  8
parts
  6
ByLayer
 62
  256
370
   -1
100
AcDbCircle
 10
209.9999999999989
 20
613.0000000000057
 40
2
  0
CIRCLE
  5
220
100
AcDbEntity
  8
parts
  6
ByLayer
 62
  256
370
   -1
100
AcDbCircle
 10
359.9999999999989
 20
635.0000000000057
 40
2
  0
CIRCLE
  5
221
100
AcDbEntity
  8
parts
  6
ByLayer
 62
  256
370
   -1
100
AcDbCircle
 10
359.9999999999989
 20
613.0000000000057
 40
2
  0
CIRCLE
  5
222
100
AcDbEntity
  8
parts
  6
ByLayer
 62
  256
370
   -1
100
AcDbCircle
 10
509.999999999999
 20
635.0000000000057
 40
2
  0
CIRCLE
  5
223
100
AcDbEntity
  8
parts
  6
ByLayer
 62
  256
370
   -1
100
AcDbCircle
 10
509.999999999999
 20
613.0000000000057
 40
2
  0
CIRCLE
  5
224
100
AcDbEntity
  8
parts
  6
ByLayer
 62
  256
370
   -1
100
AcDbCircle
 10
809.999999999999
 20
635.0000000000057
 40
2
  0
CIRCLE
  5
225
100
AcDbEntity
  8
parts
  6
ByLayer
 62
  256
370
   -1
100
AcDbCircle
 10
809.999999999999
 20
613.0000000000057
 40
2
  0
CIRCLE
  5
226
100
AcDbEntity
  8
parts
  6
ByLayer
 62
  256
370
   -1
100
AcDbCircle
 10
659.9999999999989
 20
613.0000000000057
 40
2
  0
CIRCLE
  5
227
100
AcDbEntity
  8
parts
  6
ByLayer
 62
  256
370
   -1
100
AcDbCircle
 10
659.9999999999989
 20
635.0000000000057
 40
2
  0
CIRCLE
  5
228
100
AcDbEntity
  8
parts
  6
ByLayer
 62
  256
370
   -1
100
AcDbCircle
 10
811.499999999999
 20
421.0000000000057
 40
3.75
  0
CIRCLE
  5
229
100
AcDbEntity
  8
parts
  6
ByLayer
 62
  256
370
   -1
100
AcDbCircle
 10
811.499999999999
 20
467.0000000000057
 40
3.75
  0
CIRCLE
  5
22A
100
AcDbEntity
  8
parts
  6
ByLayer
 62
  256
370
   -1
100
AcDbCircle
 10
194.4999999999989
 20
467.0000000000057
 40
3.75
  0
CIRCLE
  5
22B
100
AcDbEntity
  8
parts
  6
ByLayer
 62
  256
370
   -1
100
AcDbCircle
 10
194.4999999999989
 20
421.0000000000057
 40
3.75
  0
CIRCLE
  5
22C
100
AcDbEntity
  8
parts
  6
ByLayer
 62
  256
370
   -1
100
AcDbCircle
 10
207.4999999999989
 20
467.0000000000057
 40
3.75
  0
CIRCLE
  5
22D
100
AcDbEntity
  8
parts
  6
ByLayer
 62
  256
370
   -1
100
AcDbCircle
 10
207.4999999999989
 20
421.0000000000057
 40
3.75
  0
LINE
  5
22E
100
AcDbEntity
  8
parts
  6
ByLayer
 62
  256
370
   -1
100
AcDbLine
 10
147.9999999999989
 20
344.0000000000057
 11
147.9999999999989
 21
294.0000000000057
  0
LINE
  5
22F
100
AcDbEntity
  8
parts
  6
ByLayer
 62
  256
370
   -1
100
AcDbLine
 10
147.9999999999989
 20
544.0000000000057
 11
147.9999999999989
 21
494.0000000000057
  0
LINE
  5
230
100
AcDbEntity
  8
parts
  6
ByLayer
 62
  256
370
   -1
100
AcDbLine
 10
147.9999999999989
 20
344.0000000000057
 11
147.9999999999989
 21
394.0000000000057
  0
LINE
  5
231
100
AcDbEntity
  8
parts
  6
ByLayer
 62
  256
370
   -1
100
AcDbLine
 10
147.9999999999989
 20
544.0000000000057
 11
147.9999999999989
 21
594.0000000000057
  0
LINE
  5
232
100
AcDbEntity
  8
parts
  6
ByLayer
 62
  256
370
   -1
100
AcDbLine
 10
147.9999999999989
 20
494.0000000000057
 11
159.9999999999989
 21
494.0000000000057
  0
LINE
  5
233
100
AcDbEntity
  8
parts
  6
ByLayer
 62
  256
370
   -1
100
AcDbLine
 10
147.9999999999989
 20
594.0000000000057
 11
159.9999999999989
 21
594.0000000000057
  0
LINE
  5
234
100
AcDbEntity
  8
parts
  6
ByLayer
 62
  256
370
   -1
100
AcDbLine
 10
147.9999999999989
 20
394.0000000000057
 11
159.9999999999989
 21
394.0000000000057
  0
LINE
  5
235
100
AcDbEntity
  8
parts
  6
ByLayer
 62
  256
370
   -1
100
AcDbLine
 10
147.9999999999989
 20
294.0000000000057
 11
159.9999999999989
 21
294.0000000000057
  0
LINE
  5
236
100
AcDbEntity
  8
parts
  6
ByLayer
 62
  256
370
   -1
100
AcDbLine
 10
159.9999999999989
 20
598.0000000000057
 11
159.9999999999989
 21
639.0000000000057
  0
LINE
  5
237
100
AcDbEntity
  8
parts
  6
ByLayer
 62
  256
370
   -1
100
AcDbLine
 10
159.9999999999989
 20
249.0000000000057
 11
159.9999999999989
 21
290.0000000000057
  0
ARC
  5
238
100
AcDbEntity
  8
parts
  6
ByLayer
 62
  256
370
   -1
100
AcDbCircle
 10
159.9999999999989
 20
292.0000000000057
 40
2
100
AcDbArc
 50
270
 51
89.999922725
  0
ARC
  5
239
100
AcDbEntity
  8
parts
  6
ByLayer
 62
  256
370
   -1
100
AcDbCircle
 10
159.9999999999989
 20
396.0000000000057
 40
2
100
AcDbArc
 50
270
 51
90
  0
ARC
  5
23A
100
AcDbEntity
  8
parts
  6
ByLayer
 62
  256
370
   -1
100
AcDbCircle
 10
159.9999999999989
 20
492.0000000000057
 40
2
100
AcDbArc
 50
270
 51
90.00015454999999
  0
ARC
  5
23B
100
AcDbEntity
  8
parts
  6
ByLayer
 62
  256
370
   -1
100
AcDbCircle
 10
159.9999999999989
 20
596.0000000000057
 40
2
100
AcDbArc
 50
269.99984545
 51
90
  0
LINE
  5
23C
100
AcDbEntity
  8
parts
  6
ByLayer
 62
  256
370
   -1
100
AcDbLine
 10
871.999999999999
 20
344.0000000000057
 11
871.999999999999
 21
294.0000000000057
  0
LINE
  5
23D
100
AcDbEntity
  8
parts
  6
ByLayer
 62
  256
370
   -1
100
AcDbLine
 10
871.999999999999
 20
544.0000000000057
 11
871.999999999999
 21
494.0000000000057
  0
LINE
  5
23E
100
AcDbEntity
  8
parts
  6
ByLayer
 62
  256
370
   -1
100
AcDbLine
 10
871.999999999999
 20
344.0000000000057
 11
871.999999999999
 21
394.0000000000057
  0
LINE
  5
23F
100
AcDbEntity
  8
parts
  6
ByLayer
 62
  256
370
   -1
100
AcDbLine
 10
871.999999999999
 20
544.0000000000057
 11
871.999999999999
 21
594.0000000000057
  0
LINE
  5
240
100
AcDbEntity
  8
parts
  6
ByLayer
 62
  256
370
   -1
100
AcDbLine
 10
871.999999999999
 20
494.0000000000057
 11
859.999999999999
 21
494.0000000000057
  0
LINE
  5
241
100
AcDbEntity
  8
parts
  6
ByLayer
 62
  256
370
   -1
100
AcDbLine
 10
871.999999999999
 20
594.0000000000057
 11
859.999999999999
 21
594.0000000000057
  0
LINE
  5
242
100
AcDbEntity
  8
parts
  6
ByLayer
 62
  256
370
   -1
100
AcDbLine
 10
871.999999999999
 20
394.0000000000057
 11
859.999999999999
 21
394.0000000000057
  0
LINE
  5
243
100
AcDbEntity
  8
parts
  6
ByLayer
 62
  256
370
   -1
100
AcDbLine
 10
871.999999999999
 20
294.0000000000057
 11
859.999999999999
 21
294.0000000000057
  0
LINE
  5
244
100
AcDbEntity
  8
parts
  6
ByLayer
 62
  256
370
   -1
100
AcDbLine
 10
859.999999999999
 20
598.0000000000057
 11
859.999999999999
 21
639.0000000000057
  0
LINE
  5
245
100
AcDbEntity
  8
parts
  6
ByLayer
 62
  256
370
   -1
100
AcDbLine
 10
859.999999999999
 20
490.0000000000057
 11
859.999999999999
 21
398.0000000000057
  0
LINE
  5
246
100
AcDbEntity
  8
parts
  6
ByLayer
 62
  256
370
   -1
100
AcDbLine
 10
859.999999999999
 20
249.0000000000057
 11
859.999999999999
 21
290.0000000000057
  0
ARC
  5
247
100
AcDbEntity
  8
parts
  6
ByLayer
 62
  256
370
   -1
100
AcDbCircle
 10
859.999999999999
 20
292.0000000000057
 40
2
100
AcDbArc
 50
90.000077275
 51
270
  0
ARC
  5
248
100
AcDbEntity
  8
parts
  6
ByLayer
 62
  256
370
   -1
100
AcDbCircle
 10
859.999999999999
 20
396.0000000000057
 40
2
100
AcDbArc
 50
90
 51
270
  0
ARC
  5
249
100
AcDbEntity
  8
parts
  6
ByLayer
 62
  256
370
   -1
100
AcDbCircle
 10
859.999999999999
 20
492.0000000000057
 40
2
100
AcDbArc
 50
89.99984545000001
 51
270
  0
ARC
  5
24A
100
AcDbEntity
  8
parts
  6
ByLayer
 62
  256
370
   -1
100
AcDbCircle
 10
859.999999999999
 20
596.0000000000057
 40
2
100
AcDbArc
 50
90
 51
270.0001545495392
  0
LINE
  5
24B
100
AcDbEntity
  8
parts
  6
ByLayer
 62
  256
370
   -1
100
AcDbLine
 10
509.999999999999
 20
578.0000000000057
 11
459.999999999999
 21
578.0000000000057
  0
LINE
  5
24C
100
AcDbEntity
  8
parts
  6
ByLayer
 62
  256
370
   -1
100
AcDbLine
 10
459.999999999999
 20
590.0000000000057
 11
559.999999999999
 21
590.0000000000057
  0
LINE
  5
24D
100
AcDbEntity
  8
parts
  6
ByLayer
 62
  256
370
   -1
100
AcDbLine
 10
559.999999999999
 20
578.0000000000057
 11
509.999999999999
 21
578.0000000000057
  0
CIRCLE
  5
24E
100
AcDbEntity
  8
parts
  6
ByLayer
 62
  256
370
   -1
100
AcDbCircle
 10
609.999999999999
 20
584.0000000000057
 40
2
  0
CIRCLE
  5
24F
100
AcDbEntity
  8
parts
  6
ByLayer
 62
  256
370
   -1
100
AcDbCircle
 10
409.999999999999
 20
584.0000000000057
 40
2
  0
LINE
  5
250
100
AcDbEntity
  8
parts
  6
ByLayer
 62
  256
370
   -1
100
AcDbLine
 10
309.9999999999989
 20
578.0000000000057
 11
359.9999999999989
 21
578.0000000000057
  0
LINE
  5
251
100
AcDbEntity
  8
parts
  6
ByLayer
 62
  256
370
   -1
100
AcDbLine
 10
359.9999999999989
 20
590.0000000000057
 11
259.9999999999989
 21
590.0000000000057
  0
LINE
  5
252
100
AcDbEntity
  8
parts
  6
ByLayer
 62
  256
370
   -1
100
AcDbLine
 10
259.9999999999989
 20
578.0000000000057
 11
309.9999999999989
 21
578.0000000000057
  0
LINE
  5
253
100
AcDbEntity
  8
parts
  6
ByLayer
 62
  256
370
   -1
100
AcDbLine
 10
709.9999999999989
 20
578.0000000000057
 11
759.999999999999
 21
578.0000000000057
  0
LINE
  5
254
100
AcDbEntity
  8
parts
  6
ByLayer
 62
  256
370
   -1
100
AcDbLine
 10
759.999999999999
 20
590.0000000000057
 11
659.9999999999989
 21
590.0000000000057
  0
LINE
  5
255
100
AcDbEntity
  8
parts
  6
ByLayer
 62
  256
370
   -1
100
AcDbLine
 10
659.9999999999989
 20
578.0000000000057
 11
709.9999999999989
 21
578.0000000000057
  0
CIRCLE
  5
256
100
AcDbEntity
  8
parts
  6
ByLayer
 62
  256
370
   -1
100
AcDbCircle
 10
809.999999999999
 20
584.0000000000057
 40
2
  0
CIRCLE
  5
257
100
AcDbEntity
  8
parts
  6
ByLayer
 62
  256
370
   -1
100
AcDbCircle
 10
209.9999999999989
 20
584.0000000000057
 40
2
  0
CIRCLE
  5
258
100
AcDbEntity
  8
parts
  6
ByLayer
 62
  256
370
   -1
100
AcDbCircle
 10
609.999999999999
 20
304.0000000000057
 40
2
  0
CIRCLE
  5
259
100
AcDbEntity
  8
parts
  6
ByLayer
 62
  256
370
   -1
100
AcDbCircle
 10
409.999999999999
 20
304.0000000000057
 40
2
  0
CIRCLE
  5
25A
100
AcDbEntity
  8
parts
  6
ByLayer
 62
  256
370
   -1
100
AcDbCircle
 10
809.999999999999
 20
304.0000000000057
 40
2
  0
CIRCLE
  5
25B
100
AcDbEntity
  8
parts
  6
ByLayer
 62
  256
370
   -1
100
AcDbCircle
 10
209.9999999999989
 20
304.0000000000057
 40
2
  0
LINE
  5
25C
100
AcDbEntity
  8
parts
  6
ByLayer
 62
  256
370
   -1
100
AcDbLine
 10
162.9999999999989
 20
472.6200000000057
 11
162.9999999999989
 21
462.6200000000057
  0
LINE
  5
25D
100
AcDbEntity
  8
parts
  6
ByLayer
 62
  256
370
   -1
100
AcDbLine
 10
162.9999999999989
 20
425.3800000000057
 11
162.9999999999989
 21
415.3800000000057
  0
LINE
  5
25E
100
AcDbEntity
  8
parts
  6
ByLayer
 62
  256
370
   -1
100
AcDbLine
 10
159.9999999999989
 20
490.0000000000057
 11
159.9999999999989
 21
475.6200000000057
  0
LINE
  5
25F
100
AcDbEntity
  8
parts
  6
ByLayer
 62
  256
370
   -1
100
AcDbLine
 10
159.9999999999989
 20
459.6200000000057
 11
159.9999999999989
 21
428.3799999999984
  0
LINE
  5
260
100
AcDbEntity
  8
parts
  6
ByLayer
 62
  256
370
   -1
100
AcDbLine
 10
159.9999999999988
 20
412.380000000013
 11
159.9999999999989
 21
398.0000000000057
  0
ARC
  5
261
100
AcDbEntity
  8
parts
  6
ByLayer
 62
  256
370
   -1
100
AcDbCircle
 10
159.9999999999989
 20
425.3800000000057
 40
3
100
AcDbArc
 50
4.834443115824545e-13
 51
90
  0
ARC
  5
262
100
AcDbEntity
  8
parts
  6
ByLayer
 62
  256
370
   -1
100
AcDbCircle
 10
159.9999999999989
 20
415.3800000000057
 40
3
100
AcDbArc
 50
270
 51
359.9998969669738
  0
ARC
  5
263
100
AcDbEntity
  8
parts
  6
ByLayer
 62
  256
370
   -1
100
AcDbCircle
 10
159.9999999999989
 20
462.6200000000057
 40
3
100
AcDbArc
 50
270
 51
0
  0
ARC
  5
264
100
AcDbEntity
  8
parts
  6
ByLayer
 62
  256
370
   -1
100
AcDbCircle
 10
159.9999999999989
 20
472.6200000000057
 40
3
100
AcDbArc
 50
0.0001030330250734086
 51
90
  0
ARC
  5
265
100
AcDbEntity
  8
parts
  6
ByLayer
 62
  256
370
   -1
100
AcDbCircle
 10
759.999999999999
 20
588.0000000000057
 40
2
100
AcDbArc
 50
270
 51
90.00030909907829
  0
LINE
  5
266
100
AcDbEntity
  8
parts
  6
ByLayer
 62
  256
370
   -1
100
AcDbLine
 10
759.999999999999
 20
582.0000000000057
 11
759.999999999999
 21
586.0000000000057
  0
ARC
  5
267
100
AcDbEntity
  8
parts
  6
ByLayer
 62
  256
370
   -1
100
AcDbCircle
 10
759.999999999999
 20
580.0000000000057
 40
2
100
AcDbArc
 50
269.9995628678898
 51
90
  0
ARC
  5
268
100
AcDbEntity
  8
parts
  6
ByLayer
 62
  256
370
   -1
100
AcDbCircle
 10
659.9999999999989
 20
580.0000000000057
 40
2
100
AcDbArc
 50
90
 51
270.0002185660534
  0
ARC
  5
269
100
AcDbEntity
  8
parts
  6
ByLayer
 62
  256
370
   -1
100
AcDbCircle
 10
659.9999999999989
 20
588.0000000000057
 40
2
100
AcDbArc
 50
90
 51
270
  0
LINE
  5
26A
100
AcDbEntity
  8
parts
  6
ByLayer
 62
  256
370
   -1
100
AcDbLine
 10
559.999999999999
 20
586.0000000000057
 11
559.999999999999
 21
582.0000000000057
  0
ARC
  5
26B
100
AcDbEntity
  8
parts
  6
ByLayer
 62
  256
370
   -1
100
AcDbCircle
 10
559.999999999999
 20
580.0000000000057
 40
2
100
AcDbArc
 50
269.9997814339433
 51
89.99999999999837
  0
ARC
  5
26C
100
AcDbEntity
  8
parts
  6
ByLayer
 62
  256
370
   -1
100
AcDbCircle
 10
559.999999999999
 20
588.0000000000057
 40
2
100
AcDbArc
 50
270
 51
90.0001545495391
  0
LINE
  5
26D
100
AcDbEntity
  8
parts
  6
ByLayer
 62
  256
370
   -1
100
AcDbLine
 10
459.999999999999
 20
582.0000000000057
 11
459.999999999999
 21
586.0000000000057
  0
ARC
  5
26E
100
AcDbEntity
  8
parts
  6
ByLayer
 62
  256
370
   -1
100
AcDbCircle
 10
459.999999999999
 20
580.0000000000057
 40
2
100
AcDbArc
 50
90
 51
270
  0
ARC
  5
26F
100
AcDbEntity
  8
parts
  6
ByLayer
 62
  256
370
   -1
100
AcDbCircle
 10
459.999999999999
 20
588.0000000000057
 40
2
100
AcDbArc
 50
90
 51
270
  0
ARC
  5
270
100
AcDbEntity
  8
parts
  6
ByLayer
 62
  256
370
   -1
100
AcDbCircle
 10
359.9999999999989
 20
588.0000000000057
 40
2
100
AcDbArc
 50
270
 51
90.00010928302829
  0
LINE
  5
271
100
AcDbEntity
  8
parts
  6
ByLayer
 62
  256
370
   -1
100
AcDbLine
 10
359.9999999999989
 20
582.0000000000057
 11
359.9999999999989
 21
586.0000000000057
  0
ARC
  5
272
100
AcDbEntity
  8
parts
  6
ByLayer
 62
  256
370
   -1
100
AcDbCircle
 10
359.9999999999989
 20
580.0000000000057
 40
2
100
AcDbArc
 50
270
 51
90
  0
ARC
  5
273
100
AcDbEntity
  8
parts
  6
ByLayer
 62
  256
370
   -1
100
AcDbCircle
 10
259.9999999999989
 20
580.0000000000057
 40
2
100
AcDbArc
 50
90
 51
270.0001092830259
  0
ARC
  5
274
100
AcDbEntity
  8
parts
  6
ByLayer
 62
  256
370
   -1
100
AcDbCircle
 10
259.9999999999989
 20
588.0000000000057
 40
2
100
AcDbArc
 50
90
 51
270
  0
LINE
  5
275
100
AcDbEntity
  8
parts
  6
ByLayer
 62
  256
370
   -1
100
AcDbLine
 10
259.9999999999989
 20
586.0000000000057
 11
259.9999999999989
 21
582.0000000000057
  0
LINE
  5
276
100
AcDbEntity
  8
parts
  6
ByLayer
 62
  256
370
   -1
100
AcDbLine
 10
659.9999999999989
 20
586.0000000000057
 11
659.9999999999989
 21
582.0000000000057
  0
LINE
  5
277
100
AcDbEntity
  8
parts
  6
ByLayer
 62
  256
370
   -1
100
AcDbLine
 10
510.0000000000003
 20
310.000000000002
 11
460.0000000000003
 21
310.0000000000016
  0
LINE
  5
278
100
AcDbEntity
  8
parts
  6
ByLayer
 62
  256
370
   -1
100
AcDbLine
 10
460.0000000000003
 20
298.0000000000016
 11
560.0000000000003
 21
298.0000000000025
  0
LINE
  5
279
100
AcDbEntity
  8
parts
  6
ByLayer
 62
  256
370
   -1
100
AcDbLine
 10
560.0000000000003
 20
310.0000000000025
 11
510.0000000000003
 21
310.000000000002
  0
LINE
  5
27A
100
AcDbEntity
  8
parts
  6
ByLayer
 62
  256
370
   -1
100
AcDbLine
 10
310
 20
310
 11
360.0000000000003
 21
310.0000000000005
  0
LINE
  5
27B
100
AcDbEntity
  8
parts
  6
ByLayer
 62
  256
370
   -1
100
AcDbLine
 10
360.0000000000005
 20
298.0000000000005
 11
260.0000000000003
 21
297.9999999999993
  0
LINE
  5
27C
100
AcDbEntity
  8
parts
  6
ByLayer
 62
  256
370
   -1
100
AcDbLine
 10
260
 20
309.9999999999993
 11
310
 21
310
  0
LINE
  5
27D
100
AcDbEntity
  8
parts
  6
ByLayer
 62
  256
370
   -1
100
AcDbLine
 10
710.0000000000002
 20
310.0000000000043
 11
760.0000000000003
 21
310.0000000000048
  0
LINE
  5
27E
100
AcDbEntity
  8
parts
  6
ByLayer
 62
  256
370
   -1
100
AcDbLine
 10
760.0000000000003
 20
298.0000000000048
 11
660.0000000000005
 21
298.0000000000036
  0
LINE
  5
27F
100
AcDbEntity
  8
parts
  6
ByLayer
 62
  256
370
   -1
100
AcDbLine
 10
660.0000000000002
 20
310.0000000000036
 11
710.0000000000002
 21
310.0000000000043
  0
ARC
  5
280
100
AcDbEntity
  8
parts
  6
ByLayer
 62
  256
370
   -1
100
AcDbCircle
 10
760.0000000000003
 20
300.0000000000048
 40
2
100
AcDbArc
 50
269.9996909009224
 51
90.00000000000058
  0
LINE
  5
281
100
AcDbEntity
  8
parts
  6
ByLayer
 62
  256
370
   -1
100
AcDbLine
 10
760.0000000000003
 20
306.0000000000048
 11
760.0000000000003
 21
302.0000000000048
  0
ARC
  5
282
100
AcDbEntity
  8
parts
  6
ByLayer
 62
  256
370
   -1
100
AcDbCircle
 10
760.0000000000003
 20
308.0000000000048
 40
2
100
AcDbArc
 50
270.0000000000006
 51
90.0004371321108
  0
ARC
  5
283
100
AcDbEntity
  8
parts
  6
ByLayer
 62
  256
370
   -1
100
AcDbCircle
 10
660.0000000000002
 20
308.0000000000036
 40
2
100
AcDbArc
 50
89.99978143394719
 51
270.0000000000006
  0
ARC
  5
284
100
AcDbEntity
  8
parts
  6
ByLayer
 62
  256
370
   -1
100
AcDbCircle
 10
660.0000000000005
 20
300.0000000000036
 40
2
100
AcDbArc
 50
90.00000000000058
 51
270.0000000000006
  0
LINE
  5
285
100
AcDbEntity
  8
parts
  6
ByLayer
 62
  256
370
   -1
100
AcDbLine
 10
560.0000000000003
 20
302.0000000000025
 11
560.0000000000003
 21
306.0000000000025
  0
ARC
  5
286
100
AcDbEntity
  8
parts
  6
ByLayer
 62
  256
370
   -1
100
AcDbCircle
 10
560.0000000000003
 20
308.0000000000025
 40
2
100
AcDbArc
 50
270.0000000000022
 51
90.00021856605731
  0
ARC
  5
287
100
AcDbEntity
  8
parts
  6
ByLayer
 62
  256
370
   -1
100
AcDbCircle
 10
560.0000000000003
 20
300.0000000000025
 40
2
100
AcDbArc
 50
269.9998454504615
 51
90.00000000000058
  0
LINE
  5
288
100
AcDbEntity
  8
parts
  6
ByLayer
 62
  256
370
   -1
100
AcDbLine
 10
460.0000000000003
 20
306.0000000000016
 11
460.0000000000003
 21
302.0000000000016
  0
ARC
  5
289
100
AcDbEntity
  8
parts
  6
ByLayer
 62
  256
370
   -1
100
AcDbCircle
 10
460.0000000000003
 20
308.0000000000016
 40
2
100
AcDbArc
 50
90.00000000000058
 51
270.0000000000006
  0
ARC
  5
28A
100
AcDbEntity
  8
parts
  6
ByLayer
 62
  256
370
   -1
100
AcDbCircle
 10
460.0000000000003
 20
300.0000000000016
 40
2
100
AcDbArc
 50
90.00000000000058
 51
270.0000000000006
  0
ARC
  5
28B
100
AcDbEntity
  8
parts
  6
ByLayer
 62
  256
370
   -1
100
AcDbCircle
 10
360.0000000000005
 20
300.0000000000005
 40
2
100
AcDbArc
 50
269.9998907169723
 51
90.00000000000058
  0
LINE
  5
28C
100
AcDbEntity
  8
parts
  6
ByLayer
 62
  256
370
   -1
100
AcDbLine
 10
360.0000000000005
 20
306.0000000000005
 11
360.0000000000005
 21
302.0000000000005
  0
ARC
  5
28D
100
AcDbEntity
  8
parts
  6
ByLayer
 62
  256
370
   -1
100
AcDbCircle
 10
360.0000000000003
 20
308.0000000000005
 40
2
100
AcDbArc
 50
270.0000000000006
 51
90.00000000000058
  0
ARC
  5
28E
100
AcDbEntity
  8
parts
  6
ByLayer
 62
  256
370
   -1
100
AcDbCircle
 10
260
 20
307.9999999999993
 40
2
100
AcDbArc
 50
89.9998907169747
 51
270.0000000000006
  0
ARC
  5
28F
100
AcDbEntity
  8
parts
  6
ByLayer
 62
  256
370
   -1
100
AcDbCircle
 10
260.0000000000003
 20
299.9999999999993
 40
2
100
AcDbArc
 50
90.00000000000058
 51
270.0000000000006
  0
LINE
  5
290
100
AcDbEntity
  8
parts
  6
ByLayer
 62
  256
370
   -1
100
AcDbLine
 10
260.0000000000003
 20
301.9999999999993
 11
260.0000000000003
 21
305.9999999999993
  0
LINE
  5
291
100
AcDbEntity
  8
parts
  6
ByLayer
 62
  256
370
   -1
100
AcDbLine
 10
660.0000000000005
 20
302.0000000000036
 11
660.0000000000002
 21
306.0000000000036
  0
ENDSEC
  0
SECTION
  2
OBJECTS
  0
DICTIONARY
  5
C
330
0
100
AcDbDictionary
281
    1
  3
ACAD_GROUP
350
D
  0
DICTIONARY
  5
D
330
C
100
AcDbDictionary
281
    1
  0
ENDSEC
  0
EOF
