999
dxfrw 0.6.1
  0
SECTION
  2
HEADER
  9
$ACADVER
  1
AC1021
  9
$DWGCODEPAGE
  3
ANSI_1252
  9
$INSBASE
 10
0
 20
0
 30
0
  9
$EXTMIN
 10
-7.347880794884119e-14
 20
0
 30
0
  9
$EXTMAX
 10
2400
 20
1200
 30
0
  9
$LIMMIN
 10
0
 20
0
  9
$LIMMAX
 10
420
 20
297
  9
$ORTHOMODE
 70
    0
  9
$REGENMODE
 70
    1
  9
$FILLMODE
 70
    1
  9
$QTEXTMODE
 70
    0
  9
$MIRRTEXT
 70
    0
  9
$LTSCALE
 40
1
  9
$ATTMODE
 70
    0
  9
$TEXTSIZE
 40
2.5
  9
$TRACEWID
 40
15.68
  9
$TEXTSTYLE
  7
STANDARD
  9
$CLAYER
  8
0
  9
$CELTYPE
  6
BYLAYER
  9
$CECOLOR
 62
  256
  9
$CELTSCALE
 40
1
  9
$DISPSILH
 70
    0
  9
$DIMSCALE
 40
2.5
  9
$DIMASZ
 40
2.5
  9
$DIMEXO
 40
0.625
  9
$DIMDLI
 40
3.75
  9
$DIMRND
 40
0
  9
$DIMDLE
 40
0
  9
$DIMEXE
 40
1.25
  9
$DIMTP
 40
0
  9
$DIMTM
 40
0
  9
$DIMTXT
 40
2.5
  9
$DIMCEN
 40
2.5
  9
$DIMTSZ
 40
0
  9
$DIMTOL
 70
    0
  9
$DIMLIM
 70
    0
  9
$DIMTIH
 70
    0
  9
$DIMTOH
 70
    0
  9
$DIMSE1
 70
    0
  9
$DIMSE2
 70
    0
  9
$DIMTAD
 70
    1
  9
$DIMZIN
 70
    8
  9
$DIMBLK
  1

  9
$DIMASO
 70
    1
  9
$DIMSHO
 70
    1
  9
$DIMPOST
  1

  9
$DIMAPOST
  1

  9
$DIMALT
 70
    0
  9
$DIMALTD
 70
    3
  9
$DIMALTF
 40
0.03937
  9
$DIMLFAC
 40
1
  9
$DIMTOFL
 70
    1
  9
$DIMTVP
 40
0
  9
$DIMTIX
 70
    0
  9
$DIMSOXD
 70
    0
  9
$DIMSAH
 70
    0
  9
$DIMBLK1
  1

  9
$DIMBLK2
  1

  9
$DIMSTYLE
  2
STANDARD
  9
$DIMCLRD
 70
    0
  9
$DIMCLRE
 70
    0
  9
$DIMCLRT
 70
    0
  9
$DIMTFAC
 40
1
  9
$DIMGAP
 40
0.625
  9
$DIMJUST
 70
    0
  9
$DIMSD1
 70
    0
  9
$DIMSD2
 70
    0
  9
$DIMTOLJ
 70
    0
  9
$DIMTZIN
 70
    8
  9
$DIMALTZ
 70
    0
  9
$DIMALTTZ
 70
    0
  9
$DIMUPT
 70
    0
  9
$DIMDEC
 70
    2
  9
$DIMTDEC
 70
    2
  9
$DIMALTU
 70
    2
  9
$DIMALTTD
 70
    3
  9
$DIMTXSTY
  7
STANDARD
  9
$DIMAUNIT
 70
    0
  9
$DIMADEC
 70
    0
  9
$DIMALTRND
 40
0
  9
$DIMAZIN
 70
    0
  9
$DIMDSEP
 70
   44
  9
$DIMATFIT
 70
    3
  9
$DIMFRAC
 70
    0
  9
$DIMLDRBLK
  1
STANDARD
  9
$DIMLUNIT
 70
    2
  9
$DIMLWD
 70
   -2
  9
$DIMLWE
 70
   -2
  9
$DIMTMOVE
 70
    0
  9
$DIMFXL
 40
1
  9
$DIMFXLON
 70
    0
  9
$DIMJOGANG
 40
0.7854
  9
$DIMTFILL
 70
    0
  9
$DIMTFILLCLR
 70
    0
  9
$DIMARCSYM
 70
    0
  9
$DIMLTYPE
  6

  9
$DIMLTEX1
  6

  9
$DIMLTEX2
  6

  9
$LUNITS
 70
    2
  9
$LUPREC
 70
    4
  9
$SKETCHINC
 40
1
  9
$FILLETRAD
 40
0
  9
$AUNITS
 70
    0
  9
$AUPREC
 70
    2
  9
$MENU
  1
.
  9
$ELEVATION
 40
0
  9
$PELEVATION
 40
0
  9
$THICKNESS
 40
0
  9
$LIMCHECK
 70
    0
  9
$CHAMFERA
 40
0
  9
$CHAMFERB
 40
0
  9
$CHAMFERC
 40
0
  9
$CHAMFERD
 40
0
  9
$SKPOLY
 70
    0
  9
$USRTIMER
 70
    1
  9
$ANGBASE
 50
0
  9
$ANGDIR
 70
    0
  9
$PDMODE
 70
   34
  9
$PDSIZE
 40
0
  9
$PLINEWID
 40
0
  9
$SPLFRAME
 70
    0
  9
$SPLINETYPE
 70
    2
  9
$SPLINESEGS
 70
    8
  9
$HANDSEED
  5
20000
  9
$SURFTAB1
 70
    6
  9
$SURFTAB2
 70
    6
  9
$SURFTYPE
 70
    6
  9
$SURFU
 70
    6
  9
$SURFV
 70
    6
  9
$UCSBASE
  2

  9
$UCSNAME
  2

  9
$UCSORG
 10
0
 20
0
 30
0
  9
$UCSXDIR
 10
1
 20
0
 30
0
  9
$UCSYDIR
 10
0
 20
1
 30
0
  9
$UCSORTHOREF
  2

  9
$UCSORTHOVIEW
 70
    0
  9
$UCSORGTOP
 10
0
 20
0
 30
0
  9
$UCSORGBOTTOM
 10
0
 20
0
 30
0
  9
$UCSORGLEFT
 10
0
 20
0
 30
0
  9
$UCSORGRIGHT
 10
0
 20
0
 30
0
  9
$UCSORGFRONT
 10
0
 20
0
 30
0
  9
$UCSORGBACK
 10
0
 20
0
 30
0
  9
$PUCSBASE
  2

  9
$PUCSNAME
  2

  9
$PUCSORG
 10
0
 20
0
 30
0
  9
$PUCSXDIR
 10
1
 20
0
 30
0
  9
$PUCSYDIR
 10
0
 20
1
 30
0
  9
$PUCSORTHOREF
  2

  9
$PUCSORTHOVIEW
 70
    0
  9
$PUCSORGTOP
 10
0
 20
0
 30
0
  9
$PUCSORGBOTTOM
 10
0
 20
0
 30
0
  9
$PUCSORGLEFT
 10
0
 20
0
 30
0
  9
$PUCSORGRIGHT
 10
0
 20
0
 30
0
  9
$PUCSORGFRONT
 10
0
 20
0
 30
0
  9
$PUCSORGBACK
 10
0
 20
0
 30
0
  9
$USERI1
 70
    0
  9
$USERI2
 70
    0
  9
$USERI3
 70
    0
  9
$USERI4
 70
    0
  9
$USERI5
 70
    0
  9
$USERR1
 40
0
  9
$USERR2
 40
0
  9
$USERR3
 40
0
  9
$USERR4
 40
0
  9
$USERR5
 40
0
  9
$WORLDVIEW
 70
    1
  9
$SHADEDGE
 70
    3
  9
$SHADEDIF
 70
   70
  9
$TILEMODE
 70
    1
  9
$MAXACTVP
 70
   64
  9
$PINSBASE
 10
0
 20
0
 30
0
  9
$PLIMCHECK
 70
    0
  9
$PEXTMIN
 10
0
 20
0
 30
0
  9
$PEXTMAX
 10
0
 20
0
 30
0
  9
$GRIDMODE
 70
    1
  9
$SNAPSTYLE
 70
    0
  9
$PLIMMIN
 10
0
 20
0
  9
$PLIMMAX
 10
210
 20
297
  9
$UNITMODE
 70
    0
  9
$VISRETAIN
 70
    1
  9
$PLINEGEN
 70
    0
  9
$PSLTSCALE
 70
    1
  9
$TREEDEPTH
 70
 3020
  9
$CMLSTYLE
  2
Standard
  9
$CMLJUST
 70
    0
  9
$CMLSCALE
 40
20
  9
$PROXYGRAPHICS
 70
    1
  9
$MEASUREMENT
 70
    1
  9
$CELWEIGHT
370
   -1
  9
$ENDCAPS
280
    0
  9
$JOINSTYLE
280
    0
  9
$LWDISPLAY
290
    0
  9
$INSUNITS
 70
    4
  9
$HYPERLINKBASE
  1

  9
$STYLESHEET
  1

  9
$XEDIT
290
    1
  9
$CEPSNTYPE
380
    0
  9
$PSTYLEMODE
290
    1
  9
$EXTNAMES
290
    1
  9
$PSVPSCALE
 40
1
  9
$OLESTARTUP
290
    0
  9
$SORTENTS
280
  127
  9
$INDEXCTL
280
    0
  9
$HIDETEXT
280
    1
  9
$XCLIPFRAME
290
    0
  9
$HALOGAP
280
    0
  9
$OBSCOLOR
 70
  257
  9
$OBSLTYPE
280
    0
  9
$INTERSECTIONDISPLAY
280
    0
  9
$INTERSECTIONCOLOR
 70
  257
  9
$DIMASSOC
280
    0
  9
$PROJECTNAME
  1

  9
$CAMERADISPLAY
290
    0
  9
$LENSLENGTH
 40
50
  9
$CAMERAHEIGHT
 40
0
  9
$STEPSPERSEC
 40
2
  9
$STEPSIZE
 40
50
  9
$3DDWFPREC
 40
2
  9
$PSOLWIDTH
 40
5
  9
$PSOLHEIGHT
 40
80
  9
$LOFTANG1
 40
1.570796326794897
  9
$LOFTANG2
 40
1.570796326794897
  9
$LOFTMAG1
 40
0
  9
$LOFTMAG2
 40
0
  9
$LOFTPARAM
 70
    7
  9
$LOFTNORMALS
280
    1
  9
$LATITUDE
 40
1
  9
$LONGITUDE
 40
1
  9
$NORTHDIRECTION
 40
0
  9
$TIMEZONE
 70
-8000
  9
$LIGHTGLYPHDISPLAY
280
    1
  9
$TILEMODELIGHTSYNCH
280
    1
  9
$SOLIDHIST
280
    1
  9
$SHOWHIST
280
    1
  9
$DWFFRAME
280
    2
  9
$DGNFRAME
280
    0
  9
$REALWORLDSCALE
290
    1
  9
$INTERFERECOLOR
 62
    1
  9
$CSHADOW
280
    0
  9
$SHADOWPLANELOCATION
 40
0
  0
ENDSEC
  0
SECTION
  2
CLASSES
  0
ENDSEC
  0
SECTION
  2
TABLES
  0
TABLE
  2
VPORT
  5
8
330
0
100
AcDbSymbolTable
 70
    1
  0
VPORT
  5
31
330
2
100
AcDbSymbolTableRecord
100
AcDbViewportTableRecord
  2
*ACTIVE
 70
    0
 10
0
 20
0
 11
1
 21
1
 12
1060.392147167238
 22
545.5863805091233
 13
0
 23
0
 14
10
 24
10
 15
10
 25
10
 16
0
 26
0
 36
1
 17
0
 27
0
 37
0
 40
1163.507203568116
 41
2.099206349206349
 42
50
 43
0
 44
0
 50
0
 51
0
 71
    0
 72
  100
 73
    1
 74
    3
 75
    0
 76
    1
 77
    0
 78
    0
281
    0
 65
    1
110
0
120
0
130
0
111
1
121
0
131
0
112
0
122
1
132
0
 79
    0
146
0
348
10020
 60
    7
 61
    5
292
1
282
    1
141
0
142
0
 63
  250
421
3358443
  0
ENDTAB
  0
TABLE
  2
LTYPE
  5
5
330
0
100
AcDbSymbolTable
 70
    4
  0
LTYPE
  5
14
330
5
100
AcDbSymbolTableRecord
100
AcDbLinetypeTableRecord
  2
ByBlock
 70
    0
  3

 72
   65
 73
    0
 40
0
  0
LTYPE
  5
15
330
5
100
AcDbSymbolTableRecord
100
AcDbLinetypeTableRecord
  2
ByLayer
 70
    0
  3

 72
   65
 73
    0
 40
0
  0
LTYPE
  5
16
330
5
100
AcDbSymbolTableRecord
100
AcDbLinetypeTableRecord
  2
Continuous
 70
    0
  3
Solid line
 72
   65
 73
    0
 40
0
  0
LTYPE
  5
32
330
5
100
AcDbSymbolTableRecord
100
AcDbLinetypeTableRecord
  2
DOT
 70
    0
  3
Dot . . . . . . . . . . . . . . . . . . . . . .
 72
   65
 73
    2
 40
6.35
 49
0
 74
    0
 49
-6.35
 74
    0
  0
LTYPE
  5
33
330
5
100
AcDbSymbolTableRecord
100
AcDbLinetypeTableRecord
  2
DOTTINY
 70
    0
  3
Dot (.15x) .....................................
 72
   65
 73
    2
 40
0.9525
 49
0
 74
    0
 49
-0.9525
 74
    0
  0
LTYPE
  5
34
330
5
100
AcDbSymbolTableRecord
100
AcDbLinetypeTableRecord
  2
DOT2
 70
    0
  3
Dot (.5x) .....................................
 72
   65
 73
    2
 40
3.175
 49
0
 74
    0
 49
-3.175
 74
    0
  0
LTYPE
  5
35
330
5
100
AcDbSymbolTableRecord
100
AcDbLinetypeTableRecord
  2
DOTX2
 70
    0
  3
Dot (2x) .  .  .  .  .  .  .  .  .  .  .  .  .
 72
   65
 73
    2
 40
12.7
 49
0
 74
    0
 49
-12.7
 74
    0
  0
LTYPE
  5
36
330
5
100
AcDbSymbolTableRecord
100
AcDbLinetypeTableRecord
  2
DASHED
 70
    0
  3
Dashed _ _ _ _ _ _ _ _ _ _ _ _ _ _ _ _ _
 72
   65
 73
    2
 40
19.05
 49
12.7
 74
    0
 49
-6.35
 74
    0
  0
LTYPE
  5
37
330
5
100
AcDbSymbolTableRecord
100
AcDbLinetypeTableRecord
  2
DASHEDTINY
 70
    0
  3
Dashed (.15x) _ _ _ _ _ _ _ _ _ _ _ _ _ _ _ _ _
 72
   65
 73
    2
 40
2.8575
 49
1.905
 74
    0
 49
-0.9525
 74
    0
  0
LTYPE
  5
38
330
5
100
AcDbSymbolTableRecord
100
AcDbLinetypeTableRecord
  2
DASHED2
 70
    0
  3
Dashed (.5x) _ _ _ _ _ _ _ _ _ _ _ _ _ _ _ _ _
 72
   65
 73
    2
 40
9.524999999999999
 49
6.35
 74
    0
 49
-3.175
 74
    0
  0
LTYPE
  5
39
330
5
100
AcDbSymbolTableRecord
100
AcDbLinetypeTableRecord
  2
DASHEDX2
 70
    0
  3
Dashed (2x) ____  ____  ____  ____  ____  ___
 72
   65
 73
    2
 40
38.09999999999999
 49
25.4
 74
    0
 49
-12.7
 74
    0
  0
LTYPE
  5
3A
330
5
100
AcDbSymbolTableRecord
100
AcDbLinetypeTableRecord
  2
DASHDOT
 70
    0
  3
Dash dot __ . __ . __ . __ . __ . __ . __ . __
 72
   65
 73
    4
 40
25.4
 49
12.7
 74
    0
 49
-6.35
 74
    0
 49
0
 74
    0
 49
-6.35
 74
    0
  0
LTYPE
  5
3B
330
5
100
AcDbSymbolTableRecord
100
AcDbLinetypeTableRecord
  2
DASHDOTTINY
 70
    0
  3
Dash dot (.15x) _._._._._._._._._._._._._._._.
 72
   65
 73
    4
 40
3.81
 49
1.905
 74
    0
 49
-0.9525
 74
    0
 49
0
 74
    0
 49
-0.9525
 74
    0
  0
LTYPE
  5
3C
330
5
100
AcDbSymbolTableRecord
100
AcDbLinetypeTableRecord
  2
DASHDOT2
 70
    0
  3
Dash dot (.5x) _._._._._._._._._._._._._._._.
 72
   65
 73
    4
 40
12.7
 49
6.35
 74
    0
 49
-3.175
 74
    0
 49
0
 74
    0
 49
-3.175
 74
    0
  0
LTYPE
  5
3D
330
5
100
AcDbSymbolTableRecord
100
AcDbLinetypeTableRecord
  2
DASHDOTX2
 70
    0
  3
Dash dot (2x) ____  .  ____  .  ____  .  ___
 72
   65
 73
    4
 40
50.8
 49
25.4
 74
    0
 49
-12.7
 74
    0
 49
0
 74
    0
 49
-12.7
 74
    0
  0
LTYPE
  5
3E
330
5
100
AcDbSymbolTableRecord
100
AcDbLinetypeTableRecord
  2
DIVIDE
 70
    0
  3
Divide ____ . . ____ . . ____ . . ____ . . ____
 72
   65
 73
    6
 40
31.75
 49
12.7
 74
    0
 49
-6.35
 74
    0
 49
0
 74
    0
 49
-6.35
 74
    0
 49
0
 74
    0
 49
-6.35
 74
    0
  0
LTYPE
  5
3F
330
5
100
AcDbSymbolTableRecord
100
AcDbLinetypeTableRecord
  2
DIVIDETINY
 70
    0
  3
Divide (.15x) __..__..__..__..__..__..__..__.._
 72
   65
 73
    6
 40
4.7625
 49
1.905
 74
    0
 49
-0.9525
 74
    0
 49
0
 74
    0
 49
-0.9525
 74
    0
 49
0
 74
    0
 49
-0.9525
 74
    0
  0
LTYPE
  5
40
330
5
100
AcDbSymbolTableRecord
100
AcDbLinetypeTableRecord
  2
DIVIDE2
 70
    0
  3
Divide (.5x) __..__..__..__..__..__..__..__.._
 72
   65
 73
    6
 40
15.875
 49
6.35
 74
    0
 49
-3.175
 74
    0
 49
0
 74
    0
 49
-3.175
 74
    0
 49
0
 74
    0
 49
-3.175
 74
    0
  0
LTYPE
  5
41
330
5
100
AcDbSymbolTableRecord
100
AcDbLinetypeTableRecord
  2
DIVIDEX2
 70
    0
  3
Divide (2x) ________  .  .  ________  .  .  _
 72
   65
 73
    6
 40
63.5
 49
25.4
 74
    0
 49
-12.7
 74
    0
 49
0
 74
    0
 49
-12.7
 74
    0
 49
0
 74
    0
 49
-12.7
 74
    0
  0
LTYPE
  5
42
330
5
100
AcDbSymbolTableRecord
100
AcDbLinetypeTableRecord
  2
BORDER
 70
    0
  3
Border __ __ . __ __ . __ __ . __ __ . __ __ .
 72
   65
 73
    6
 40
44.45
 49
12.7
 74
    0
 49
-6.35
 74
    0
 49
12.7
 74
    0
 49
-6.35
 74
    0
 49
0
 74
    0
 49
-6.35
 74
    0
  0
LTYPE
  5
43
330
5
100
AcDbSymbolTableRecord
100
AcDbLinetypeTableRecord
  2
BORDERTINY
 70
    0
  3
Border (.15x) __.__.__.__.__.__.__.__.__.__.__.
 72
   65
 73
    6
 40
6.6675
 49
1.905
 74
    0
 49
-0.9525
 74
    0
 49
1.905
 74
    0
 49
-0.9525
 74
    0
 49
0
 74
    0
 49
-0.9525
 74
    0
  0
LTYPE
  5
44
330
5
100
AcDbSymbolTableRecord
100
AcDbLinetypeTableRecord
  2
BORDER2
 70
    0
  3
Border (.5x) __.__.__.__.__.__.__.__.__.__.__.
 72
   65
 73
    6
 40
22.225
 49
6.35
 74
    0
 49
-3.175
 74
    0
 49
6.35
 74
    0
 49
-3.175
 74
    0
 49
0
 74
    0
 49
-3.175
 74
    0
  0
LTYPE
  5
45
330
5
100
AcDbSymbolTableRecord
100
AcDbLinetypeTableRecord
  2
BORDERX2
 70
    0
  3
Border (2x) ____  ____  .  ____  ____  .  ___
 72
   65
 73
    6
 40
88.89999999999999
 49
25.4
 74
    0
 49
-12.7
 74
    0
 49
25.4
 74
    0
 49
-12.7
 74
    0
 49
0
 74
    0
 49
-12.7
 74
    0
  0
LTYPE
  5
46
330
5
100
AcDbSymbolTableRecord
100
AcDbLinetypeTableRecord
  2
CENTER
 70
    0
  3
Center ____ _ ____ _ ____ _ ____ _ ____ _ ____
 72
   65
 73
    4
 40
50.8
 49
31.75
 74
    0
 49
-6.35
 74
    0
 49
6.35
 74
    0
 49
-6.35
 74
    0
  0
LTYPE
  5
47
330
5
100
AcDbSymbolTableRecord
100
AcDbLinetypeTableRecord
  2
CENTERTINY
 70
    0
  3
Center (.15x) ___ _ ___ _ ___ _ ___ _ ___ _ ___
 72
   65
 73
    4
 40
7.619999999999999
 49
4.7625
 74
    0
 49
-0.9525
 74
    0
 49
0.9525
 74
    0
 49
-0.9525
 74
    0
  0
LTYPE
  5
48
330
5
100
AcDbSymbolTableRecord
100
AcDbLinetypeTableRecord
  2
CENTER2
 70
    0
  3
Center (.5x) ___ _ ___ _ ___ _ ___ _ ___ _ ___
 72
   65
 73
    4
 40
28.575
 49
19.05
 74
    0
 49
-3.175
 74
    0
 49
3.175
 74
    0
 49
-3.175
 74
    0
  0
LTYPE
  5
49
330
5
100
AcDbSymbolTableRecord
100
AcDbLinetypeTableRecord
  2
CENTERX2
 70
    0
  3
Center (2x) ________  __  ________  __  _____
 72
   65
 73
    4
 40
101.6
 49
63.5
 74
    0
 49
-12.7
 74
    0
 49
12.7
 74
    0
 49
-12.7
 74
    0
  0
ENDTAB
  0
TABLE
  2
LAYER
  5
2
330
0
100
AcDbSymbolTable
 70
    1
  0
LAYER
  5
10
330
2
100
AcDbSymbolTableRecord
100
AcDbLayerTableRecord
  2
0
 70
    5
 62
    7
  6
CONTINUOUS
370
    0
390
F
  0
LAYER
  5
4A
330
2
100
AcDbSymbolTableRecord
100
AcDbLayerTableRecord
  2
parts
 70
    0
 62
    7
  6
CONTINUOUS
370
    0
390
F
  0
ENDTAB
  0
TABLE
  2
STYLE
  5
3
330
0
100
AcDbSymbolTable
 70
    3
  0
STYLE
  5
4B
330
2
100
AcDbSymbolTableRecord
100
AcDbTextStyleTableRecord
  2
Standard
 70
    0
 40
0
 41
1
 50
0
 71
    0
 42
1
  3
txt
  4

  0
ENDTAB
  0
TABLE
  2
VIEW
  5
6
330
0
100
AcDbSymbolTable
 70
    0
  0
ENDTAB
  0
TABLE
  2
UCS
  5
7
330
0
100
AcDbSymbolTable
 70
    0
  0
ENDTAB
  0
TABLE
  2
APPID
  5
9
330
0
100
AcDbSymbolTable
 70
    1
  0
APPID
  5
12
330
9
100
AcDbSymbolTableRecord
100
AcDbRegAppTableRecord
  2
ACAD
 70
    0
  0
APPID
  5
4C
330
9
100
AcDbSymbolTableRecord
100
AcDbRegAppTableRecord
  2
LibreCad
 70
    0
  0
ENDTAB
  0
TABLE
  2
DIMSTYLE
  5
A
330
0
100
AcDbSymbolTable
 70
    1
100
AcDbDimStyleTable
 71
    1
  0
DIMSTYLE
105
4D
330
A
100
AcDbSymbolTableRecord
100
AcDbDimStyleTableRecord
  2
Standard
 70
    0
 40
1
 41
2.5
 42
0.625
 43
0.38
 44
1.25
 45
0
 46
0
 47
0
 48
0
140
2.5
141
0.09
142
0
143
25.4
144
1
145
0
146
1
147
0.625
148
0
 71
    0
 72
    0
 73
    0
 74
    1
 75
    0
 76
    0
 77
    0
 78
    0
 79
    0
170
    0
171
    2
172
    0
173
    0
174
    0
175
    0
176
    0
177
    0
178
    0
179
    0
271
    4
272
    4
273
    2
274
    2
275
    0
276
    0
277
    2
278
   46
279
    0
280
    0
281
    0
282
    0
283
    1
284
    0
285
    0
286
    0
288
    0
289
    3
340
Standard
341

371
   -2
372
   -2
  0
ENDTAB
  0
TABLE
  2
BLOCK_RECORD
  5
1
330
0
100
AcDbSymbolTable
 70
    2
  0
BLOCK_RECORD
  5
1F
330
1
100
AcDbSymbolTableRecord
100
AcDbBlockTableRecord
  2
*Model_Space
 70
    0
280
    1
281
    0
  0
BLOCK_RECORD
  5
1E
330
1
100
AcDbSymbolTableRecord
100
AcDbBlockTableRecord
  2
*Paper_Space
 70
    0
280
    1
281
    0
  0
ENDTAB
  0
ENDSEC
  0
SECTION
  2
BLOCKS
  0
BLOCK
  5
20
330
1F
100
AcDbEntity
  8
0
100
AcDbBlockBegin
  2
*Model_Space
 70
    0
 10
0
 20
0
 30
0
  3
*Model_Space
  1

  0
ENDBLK
  5
21
330
1F
100
AcDbEntity
  8
0
100
AcDbBlockEnd
  0
BLOCK
  5
1C
330
1B
100
AcDbEntity
  8
0
100
AcDbBlockBegin
  2
*Paper_Space
 70
    0
 10
0
 20
0
 30
0
  3
*Paper_Space
  1

  0
ENDBLK
  5
1D
330
1F
100
AcDbEntity
  8
0
100
AcDbBlockEnd
  0
ENDSEC
  0
SECTION
  2
ENTITIES
  0
LINE
  5
4E
100
AcDbEntity
  8
parts
  6
ByLayer
 62
  256
370
   -1
100
AcDbLine
 10
378
 20
850
 11
378
 21
150.0000000000001
  0
LINE
  5
4F
100
AcDbEntity
  8
parts
  6
ByLayer
 62
  256
370
   -1
100
AcDbLine
 10
42
 20
850
 11
42
 21
150
  0
CIRCLE
  5
50
100
AcDbEntity
  8
parts
  6
ByLayer
 62
  256
370
   -1
100
AcDbCircle
 10
210
 20
500
 40
3.75
  0
CIRCLE
  5
51
100
AcDbEntity
  8
parts
  6
ByLayer
 62
  256
370
   -1
100
AcDbCircle
 10
260
 20
500
 40
3.75
  0
CIRCLE
  5
52
100
AcDbEntity
  8
parts
  6
ByLayer
 62
  256
370
   -1
100
AcDbCircle
 10
310
 20
500
 40
3.75
  0
CIRCLE
  5
53
100
AcDbEntity
  8
parts
  6
ByLayer
 62
  256
370
   -1
100
AcDbCircle
 10
360
 20
500
 40
3.75
  0
CIRCLE
  5
54
100
AcDbEntity
  8
parts
  6
ByLayer
 62
  256
370
   -1
100
AcDbCircle
 10
160
 20
500
 40
3.75
  0
CIRCLE
  5
55
100
AcDbEntity
  8
parts
  6
ByLayer
 62
  256
370
   -1
100
AcDbCircle
 10
110
 20
500
 40
3.75
  0
CIRCLE
  5
56
100
AcDbEntity
  8
parts
  6
ByLayer
 62
  256
370
   -1
100
AcDbCircle
 10
60
 20
500
 40
3.75
  0
CIRCLE
  5
57
100
AcDbEntity
  8
parts
  6
ByLayer
 62
  256
370
   -1
100
AcDbCircle
 10
210
 20
550
 40
3.75
  0
CIRCLE
  5
58
100
AcDbEntity
  8
parts
  6
ByLayer
 62
  256
370
   -1
100
AcDbCircle
 10
260
 20
550
 40
3.75
  0
CIRCLE
  5
59
100
AcDbEntity
  8
parts
  6
ByLayer
 62
  256
370
   -1
100
AcDbCircle
 10
310
 20
550
 40
3.75
  0
CIRCLE
  5
5A
100
AcDbEntity
  8
parts
  6
ByLayer
 62
  256
370
   -1
100
AcDbCircle
 10
360
 20
550
 40
3.75
  0
CIRCLE
  5
5B
100
AcDbEntity
  8
parts
  6
ByLayer
 62
  256
370
   -1
100
AcDbCircle
 10
160
 20
550
 40
3.75
  0
CIRCLE
  5
5C
100
AcDbEntity
  8
parts
  6
ByLayer
 62
  256
370
   -1
100
AcDbCircle
 10
110
 20
550
 40
3.75
  0
CIRCLE
  5
5D
100
AcDbEntity
  8
parts
  6
ByLayer
 62
  256
370
   -1
100
AcDbCircle
 10
60
 20
550
 40
3.75
  0
CIRCLE
  5
5E
100
AcDbEntity
  8
parts
  6
ByLayer
 62
  256
370
   -1
100
AcDbCircle
 10
210
 20
600
 40
3.75
  0
CIRCLE
  5
5F
100
AcDbEntity
  8
parts
  6
ByLayer
 62
  256
370
   -1
100
AcDbCircle
 10
260
 20
600
 40
3.75
  0
CIRCLE
  5
60
100
AcDbEntity
  8
parts
  6
ByLayer
 62
  256
370
   -1
100
AcDbCircle
 10
310
 20
600
 40
3.75
  0
CIRCLE
  5
61
100
AcDbEntity
  8
parts
  6
ByLayer
 62
  256
370
   -1
100
AcDbCircle
 10
360
 20
600
 40
3.75
  0
CIRCLE
  5
62
100
AcDbEntity
  8
parts
  6
ByLayer
 62
  256
370
   -1
100
AcDbCircle
 10
160
 20
600
 40
3.75
  0
CIRCLE
  5
63
100
AcDbEntity
  8
parts
  6
ByLayer
 62
  256
370
   -1
100
AcDbCircle
 10
110
 20
600
 40
3.75
  0
CIRCLE
  5
64
100
AcDbEntity
  8
parts
  6
ByLayer
 62
  256
370
   -1
100
AcDbCircle
 10
60
 20
600
 40
3.75
  0
CIRCLE
  5
65
100
AcDbEntity
  8
parts
  6
ByLayer
 62
  256
370
   -1
100
AcDbCircle
 10
210
 20
650
 40
3.75
  0
CIRCLE
  5
66
100
AcDbEntity
  8
parts
  6
ByLayer
 62
  256
370
   -1
100
AcDbCircle
 10
260
 20
650
 40
3.75
  0
CIRCLE
  5
67
100
AcDbEntity
  8
parts
  6
ByLayer
 62
  256
370
   -1
100
AcDbCircle
 10
310
 20
650
 40
3.75
  0
CIRCLE
  5
68
100
AcDbEntity
  8
parts
  6
ByLayer
 62
  256
370
   -1
100
AcDbCircle
 10
360
 20
650
 40
3.75
  0
CIRCLE
  5
69
100
AcDbEntity
  8
parts
  6
ByLayer
 62
  256
370
   -1
100
AcDbCircle
 10
160
 20
650
 40
3.75
  0
CIRCLE
  5
6A
100
AcDbEntity
  8
parts
  6
ByLayer
 62
  256
370
   -1
100
AcDbCircle
 10
110
 20
650
 40
3.75
  0
CIRCLE
  5
6B
100
AcDbEntity
  8
parts
  6
ByLayer
 62
  256
370
   -1
100
AcDbCircle
 10
60
 20
650
 40
3.75
  0
CIRCLE
  5
6C
100
AcDbEntity
  8
parts
  6
ByLayer
 62
  256
370
   -1
100
AcDbCircle
 10
210
 20
700
 40
3.75
  0
CIRCLE
  5
6D
100
AcDbEntity
  8
parts
  6
ByLayer
 62
  256
370
   -1
100
AcDbCircle
 10
260
 20
700
 40
3.75
  0
CIRCLE
  5
6E
100
AcDbEntity
  8
parts
  6
ByLayer
 62
  256
370
   -1
100
AcDbCircle
 10
310
 20
700
 40
3.75
  0
CIRCLE
  5
6F
100
AcDbEntity
  8
parts
  6
ByLayer
 62
  256
370
   -1
100
AcDbCircle
 10
360
 20
700
 40
3.75
  0
CIRCLE
  5
70
100
AcDbEntity
  8
parts
  6
ByLayer
 62
  256
370
   -1
100
AcDbCircle
 10
160
 20
700
 40
3.75
  0
CIRCLE
  5
71
100
AcDbEntity
  8
parts
  6
ByLayer
 62
  256
370
   -1
100
AcDbCircle
 10
110
 20
700
 40
3.75
  0
CIRCLE
  5
72
100
AcDbEntity
  8
parts
  6
ByLayer
 62
  256
370
   -1
100
AcDbCircle
 10
60
 20
700
 40
3.75
  0
CIRCLE
  5
73
100
AcDbEntity
  8
parts
  6
ByLayer
 62
  256
370
   -1
100
AcDbCircle
 10
210
 20
750
 40
3.75
  0
CIRCLE
  5
74
100
AcDbEntity
  8
parts
  6
ByLayer
 62
  256
370
   -1
100
AcDbCircle
 10
260
 20
750
 40
3.75
  0
CIRCLE
  5
75
100
AcDbEntity
  8
parts
  6
ByLayer
 62
  256
370
   -1
100
AcDbCircle
 10
310
 20
750
 40
3.75
  0
CIRCLE
  5
76
100
AcDbEntity
  8
parts
  6
ByLayer
 62
  256
370
   -1
100
AcDbCircle
 10
360
 20
750
 40
3.75
  0
CIRCLE
  5
77
100
AcDbEntity
  8
parts
  6
ByLayer
 62
  256
370
   -1
100
AcDbCircle
 10
160
 20
750
 40
3.75
  0
CIRCLE
  5
78
100
AcDbEntity
  8
parts
  6
ByLayer
 62
  256
370
   -1
100
AcDbCircle
 10
110
 20
750
 40
3.75
  0
CIRCLE
  5
79
100
AcDbEntity
  8
parts
  6
ByLayer
 62
  256
370
   -1
100
AcDbCircle
 10
60
 20
750
 40
3.75
  0
CIRCLE
  5
7A
100
AcDbEntity
  8
parts
  6
ByLayer
 62
  256
370
   -1
100
AcDbCircle
 10
210
 20
800
 40
3.75
  0
CIRCLE
  5
7B
100
AcDbEntity
  8
parts
  6
ByLayer
 62
  256
370
   -1
100
AcDbCircle
 10
260
 20
800
 40
3.75
  0
CIRCLE
  5
7C
100
AcDbEntity
  8
parts
  6
ByLayer
 62
  256
370
   -1
100
AcDbCircle
 10
310
 20
800
 40
3.75
  0
CIRCLE
  5
7D
100
AcDbEntity
  8
parts
  6
ByLayer
 62
  256
370
   -1
100
AcDbCircle
 10
360
 20
800
 40
3.75
  0
CIRCLE
  5
7E
100
AcDbEntity
  8
parts
  6
ByLayer
 62
  256
370
   -1
100
AcDbCircle
 10
160
 20
800
 40
3.75
  0
CIRCLE
  5
7F
100
AcDbEntity
  8
parts
  6
ByLayer
 62
  256
370
   -1
100
AcDbCircle
 10
110
 20
800
 40
3.75
  0
CIRCLE
  5
80
100
AcDbEntity
  8
parts
  6
ByLayer
 62
  256
370
   -1
100
AcDbCircle
 10
60
 20
800
 40
3.75
  0
CIRCLE
  5
81
100
AcDbEntity
  8
parts
  6
ByLayer
 62
  256
370
   -1
100
AcDbCircle
 10
210
 20
450
 40
3.75
  0
CIRCLE
  5
82
100
AcDbEntity
  8
parts
  6
ByLayer
 62
  256
370
   -1
100
AcDbCircle
 10
260
 20
450
 40
3.75
  0
CIRCLE
  5
83
100
AcDbEntity
  8
parts
  6
ByLayer
 62
  256
370
   -1
100
AcDbCircle
 10
310
 20
450
 40
3.75
  0
CIRCLE
  5
84
100
AcDbEntity
  8
parts
  6
ByLayer
 62
  256
370
   -1
100
AcDbCircle
 10
360
 20
450
 40
3.75
  0
CIRCLE
  5
85
100
AcDbEntity
  8
parts
  6
ByLayer
 62
  256
370
   -1
100
AcDbCircle
 10
160
 20
450
 40
3.75
  0
CIRCLE
  5
86
100
AcDbEntity
  8
parts
  6
ByLayer
 62
  256
370
   -1
100
AcDbCircle
 10
110
 20
450
 40
3.75
  0
CIRCLE
  5
87
100
AcDbEntity
  8
parts
  6
ByLayer
 62
  256
370
   -1
100
AcDbCircle
 10
60
 20
450
 40
3.75
  0
CIRCLE
  5
88
100
AcDbEntity
  8
parts
  6
ByLayer
 62
  256
370
   -1
100
AcDbCircle
 10
210
 20
400
 40
3.75
  0
CIRCLE
  5
89
100
AcDbEntity
  8
parts
  6
ByLayer
 62
  256
370
   -1
100
AcDbCircle
 10
260
 20
400
 40
3.75
  0
CIRCLE
  5
8A
100
AcDbEntity
  8
parts
  6
ByLayer
 62
  256
370
   -1
100
AcDbCircle
 10
310
 20
400
 40
3.75
  0
CIRCLE
  5
8B
100
AcDbEntity
  8
parts
  6
ByLayer
 62
  256
370
   -1
100
AcDbCircle
 10
360
 20
400
 40
3.75
  0
CIRCLE
  5
8C
100
AcDbEntity
  8
parts
  6
ByLayer
 62
  256
370
   -1
100
AcDbCircle
 10
160
 20
400
 40
3.75
  0
CIRCLE
  5
8D
100
AcDbEntity
  8
parts
  6
ByLayer
 62
  256
370
   -1
100
AcDbCircle
 10
110
 20
400
 40
3.75
  0
CIRCLE
  5
8E
100
AcDbEntity
  8
parts
  6
ByLayer
 62
  256
370
   -1
100
AcDbCircle
 10
60
 20
400
 40
3.75
  0
CIRCLE
  5
8F
100
AcDbEntity
  8
parts
  6
ByLayer
 62
  256
370
   -1
100
AcDbCircle
 10
210
 20
350
 40
3.75
  0
CIRCLE
  5
90
100
AcDbEntity
  8
parts
  6
ByLayer
 62
  256
370
   -1
100
AcDbCircle
 10
260
 20
350.0000000000001
 40
3.75
  0
CIRCLE
  5
91
100
AcDbEntity
  8
parts
  6
ByLayer
 62
  256
370
   -1
100
AcDbCircle
 10
310
 20
350.0000000000001
 40
3.75
  0
CIRCLE
  5
92
100
AcDbEntity
  8
parts
  6
ByLayer
 62
  256
370
   -1
100
AcDbCircle
 10
360
 20
350.0000000000001
 40
3.75
  0
CIRCLE
  5
93
100
AcDbEntity
  8
parts
  6
ByLayer
 62
  256
370
   -1
100
AcDbCircle
 10
160
 20
350
 40
3.75
  0
CIRCLE
  5
94
100
AcDbEntity
  8
parts
  6
ByLayer
 62
  256
370
   -1
100
AcDbCircle
 10
110
 20
350
 40
3.75
  0
CIRCLE
  5
95
100
AcDbEntity
  8
parts
  6
ByLayer
 62
  256
370
   -1
100
AcDbCircle
 10
60
 20
350
 40
3.75
  0
CIRCLE
  5
96
100
AcDbEntity
  8
parts
  6
ByLayer
 62
  256
370
   -1
100
AcDbCircle
 10
210
 20
300
 40
3.75
  0
CIRCLE
  5
97
100
AcDbEntity
  8
parts
  6
ByLayer
 62
  256
370
   -1
100
AcDbCircle
 10
260
 20
300.0000000000001
 40
3.75
  0
CIRCLE
  5
98
100
AcDbEntity
  8
parts
  6
ByLayer
 62
  256
370
   -1
100
AcDbCircle
 10
310
 20
300.0000000000001
 40
3.75
  0
CIRCLE
  5
99
100
AcDbEntity
  8
parts
  6
ByLayer
 62
  256
370
   -1
100
AcDbCircle
 10
360
 20
300.0000000000001
 40
3.75
  0
CIRCLE
  5
9A
100
AcDbEntity
  8
parts
  6
ByLayer
 62
  256
370
   -1
100
AcDbCircle
 10
160
 20
300
 40
3.75
  0
CIRCLE
  5
9B
100
AcDbEntity
  8
parts
  6
ByLayer
 62
  256
370
   -1
100
AcDbCircle
 10
110
 20
300
 40
3.75
  0
CIRCLE
  5
9C
100
AcDbEntity
  8
parts
  6
ByLayer
 62
  256
370
   -1
100
AcDbCircle
 10
60
 20
300
 40
3.75
  0
CIRCLE
  5
9D
100
AcDbEntity
  8
parts
  6
ByLayer
 62
  256
370
   -1
100
AcDbCircle
 10
210
 20
250
 40
3.75
  0
CIRCLE
  5
9E
100
AcDbEntity
  8
parts
  6
ByLayer
 62
  256
370
   -1
100
AcDbCircle
 10
260
 20
250.0000000000001
 40
3.75
  0
CIRCLE
  5
9F
100
AcDbEntity
  8
parts
  6
ByLayer
 62
  256
370
   -1
100
AcDbCircle
 10
310
 20
250.0000000000001
 40
3.75
  0
CIRCLE
  5
A0
100
AcDbEntity
  8
parts
  6
ByLayer
 62
  256
370
   -1
100
AcDbCircle
 10
360
 20
250.0000000000001
 40
3.75
  0
CIRCLE
  5
A1
100
AcDbEntity
  8
parts
  6
ByLayer
 62
  256
370
   -1
100
AcDbCircle
 10
160
 20
250
 40
3.75
  0
CIRCLE
  5
A2
100
AcDbEntity
  8
parts
  6
ByLayer
 62
  256
370
   -1
100
AcDbCircle
 10
110
 20
250
 40
3.75
  0
CIRCLE
  5
A3
100
AcDbEntity
  8
parts
  6
ByLayer
 62
  256
370
   -1
100
AcDbCircle
 10
60
 20
250
 40
3.75
  0
CIRCLE
  5
A4
100
AcDbEntity
  8
parts
  6
ByLayer
 62
  256
370
   -1
100
AcDbCircle
 10
210
 20
200
 40
3.75
  0
CIRCLE
  5
A5
100
AcDbEntity
  8
parts
  6
ByLayer
 62
  256
370
   -1
100
AcDbCircle
 10
260
 20
200.0000000000001
 40
3.75
  0
CIRCLE
  5
A6
100
AcDbEntity
  8
parts
  6
ByLayer
 62
  256
370
   -1
100
AcDbCircle
 10
310
 20
200.0000000000001
 40
3.75
  0
CIRCLE
  5
A7
100
AcDbEntity
  8
parts
  6
ByLayer
 62
  256
370
   -1
100
AcDbCircle
 10
360
 20
200.0000000000001
 40
3.75
  0
CIRCLE
  5
A8
100
AcDbEntity
  8
parts
  6
ByLayer
 62
  256
370
   -1
100
AcDbCircle
 10
160
 20
200
 40
3.75
  0
CIRCLE
  5
A9
100
AcDbEntity
  8
parts
  6
ByLayer
 62
  256
370
   -1
100
AcDbCircle
 10
110
 20
200
 40
3.75
  0
CIRCLE
  5
AA
100
AcDbEntity
  8
parts
  6
ByLayer
 62
  256
370
   -1
100
AcDbCircle
 10
60
 20
200
 40
3.75
  0
LINE
  5
AB
100
AcDbEntity
  8
parts
  6
ByLayer
 62
  256
370
   -1
100
AcDbLine
 10
210
 20
138
 11
260
 21
138.0000000000001
  0
LINE
  5
AC
100
AcDbEntity
  8
parts
  6
ByLayer
 62
  256
370
   -1
100
AcDbLine
 10
210
 20
138
 11
160
 21
138
  0
LINE
  5
AD
100
AcDbEntity
  8
parts
  6
ByLayer
 62
  256
370
   -1
100
AcDbLine
 10
160
 20
138
 11
160
 21
150
  0
LINE
  5
AE
100
AcDbEntity
  8
parts
  6
ByLayer
 62
  256
370
   -1
100
AcDbLine
 10
260
 20
138.0000000000001
 11
260
 21
150.0000000000001
  0
ARC
  5
AF
100
AcDbEntity
  8
parts
  6
ByLayer
 62
  256
370
   -1
100
AcDbCircle
 10
158
 20
150
 40
2
100
AcDbArc
 50
359.999781434
 51
180
  0
LINE
  5
B0
100
AcDbEntity
  8
parts
  6
ByLayer
 62
  256
370
   -1
100
AcDbLine
 10
42
 20
150
 11
156
 21
150
  0
ARC
  5
B1
100
AcDbEntity
  8
parts
  6
ByLayer
 62
  256
370
   -1
100
AcDbCircle
 10
262
 20
150.0000000000001
 40
2
100
AcDbArc
 50
0
 51
180
  0
LINE
  5
B2
100
AcDbEntity
  8
parts
  6
ByLayer
 62
  256
370
   -1
100
AcDbLine
 10
264
 20
150.0000000000001
 11
378
 21
150.0000000000001
  0
LINE
  5
B3
100
AcDbEntity
  8
parts
  6
ByLayer
 62
  256
370
   -1
100
AcDbLine
 10
210
 20
862
 11
260
 21
862
  0
LINE
  5
B4
100
AcDbEntity
  8
parts
  6
ByLayer
 62
  256
370
   -1
100
AcDbLine
 10
210
 20
862
 11
160
 21
862
  0
LINE
  5
B5
100
AcDbEntity
  8
parts
  6
ByLayer
 62
  256
370
   -1
100
AcDbLine
 10
160
 20
862
 11
160
 21
850
  0
LINE
  5
B6
100
AcDbEntity
  8
parts
  6
ByLayer
 62
  256
370
   -1
100
AcDbLine
 10
260
 20
862
 11
260
 21
850
  0
ARC
  5
B7
100
AcDbEntity
  8
parts
  6
ByLayer
 62
  256
370
   -1
100
AcDbCircle
 10
158
 20
850
 40
2
100
AcDbArc
 50
180
 51
0.000218566056697296
  0
LINE
  5
B8
100
AcDbEntity
  8
parts
  6
ByLayer
 62
  256
370
   -1
100
AcDbLine
 10
42
 20
850
 11
156
 21
850
  0
ARC
  5
B9
100
AcDbEntity
  8
parts
  6
ByLayer
 62
  256
370
   -1
100
AcDbCircle
 10
262
 20
850
 40
2
100
AcDbArc
 50
180
 51
0
  0
LINE
  5
BA
100
AcDbEntity
  8
parts
  6
ByLayer
 62
  256
370
   -1
100
AcDbLine
 10
264
 20
850
 11
378
 21
850
  0
CIRCLE
  5
BB
100
AcDbEntity
  8
parts
  6
ByLayer
 62
  256
370
   -1
100
AcDbCircle
 10
210
 20
856
 40
2
  0
CIRCLE
  5
BC
100
AcDbEntity
  8
parts
  6
ByLayer
 62
  256
370
   -1
100
AcDbCircle
 10
210
 20
144
 40
2
  0
LINE
  5
BD
100
AcDbEntity
  8
parts
  6
ByLayer
 62
  256
370
   -1
100
AcDbLine
 10
191.5
 20
121
 11
28.5
 21
121
  0
LINE
  5
BE
100
AcDbEntity
  8
parts
  6
ByLayer
 62
  256
370
   -1
100
AcDbLine
 10
191.5
 20
19
 11
28.5
 21
19
  0
LINE
  5
BF
100
AcDbEntity
  8
parts
  6
ByLayer
 62
  256
370
   -1
100
AcDbLine
 10
203.5
 20
70
 11
203.5
 21
50
  0
LINE
  5
C0
100
AcDbEntity
  8
parts
  6
ByLayer
 62
  256
370
   -1
100
AcDbLine
 10
203.5
 20
70
 11
203.5
 21
90
  0
LINE
  5
C1
100
AcDbEntity
  8
parts
  6
ByLayer
 62
  256
370
   -1
100
AcDbLine
 10
203.5
 20
50
 11
191.5
 21
50
  0
LINE
  5
C2
100
AcDbEntity
  8
parts
  6
ByLayer
 62
  256
370
   -1
100
AcDbLine
 10
203.5
 20
90
 11
191.5
 21
90
  0
LINE
  5
C3
100
AcDbEntity
  8
parts
  6
ByLayer
 62
  256
370
   -1
100
AcDbLine
 10
191.5
 20
121
 11
191.5
 21
94
  0
ARC
  5
C4
100
AcDbEntity
  8
parts
  6
ByLayer
 62
  256
370
   -1
100
AcDbCircle
 10
191.5
 20
92
 40
2
100
AcDbArc
 50
90
 51
270
  0
LINE
  5
C5
100
AcDbEntity
  8
parts
  6
ByLayer
 62
  256
370
   -1
100
AcDbLine
 10
191.5
 20
46
 11
191.5
 21
19
  0
ARC
  5
C6
100
AcDbEntity
  8
parts
  6
ByLayer
 62
  256
370
   -1
100
AcDbCircle
 10
191.5
 20
48
 40
2
100
AcDbArc
 50
89.99994535799999
 51
270
  0
LINE
  5
C7
100
AcDbEntity
  8
parts
  6
ByLayer
 62
  256
370
   -1
100
AcDbLine
 10
16.5
 20
70
 11
16.5
 21
50
  0
LINE
  5
C8
100
AcDbEntity
  8
parts
  6
ByLayer
 62
  256
370
   -1
100
AcDbLine
 10
16.5
 20
70
 11
16.5
 21
90
  0
LINE
  5
C9
100
AcDbEntity
  8
parts
  6
ByLayer
 62
  256
370
   -1
100
AcDbLine
 10
16.5
 20
50
 11
28.5
 21
50
  0
LINE
  5
CA
100
AcDbEntity
  8
parts
  6
ByLayer
 62
  256
370
   -1
100
AcDbLine
 10
16.5
 20
90
 11
28.5
 21
90
  0
LINE
  5
CB
100
AcDbEntity
  8
parts
  6
ByLayer
 62
  256
370
   -1
100
AcDbLine
 10
28.5
 20
121
 11
28.5
 21
94
  0
ARC
  5
CC
100
AcDbEntity
  8
parts
  6
ByLayer
 62
  256
370
   -1
100
AcDbCircle
 10
28.5
 20
92
 40
2
100
AcDbArc
 50
270.0000000000004
 51
90
  0
LINE
  5
CD
100
AcDbEntity
  8
parts
  6
ByLayer
 62
  256
370
   -1
100
AcDbLine
 10
28.5
 20
46
 11
28.5
 21
19
  0
ARC
  5
CE
100
AcDbEntity
  8
parts
  6
ByLayer
 62
  256
370
   -1
100
AcDbCircle
 10
28.5
 20
48
 40
2
100
AcDbArc
 50
270
 51
90.00005464200001
  0
CIRCLE
  5
CF
100
AcDbEntity
  8
parts
  6
ByLayer
 62
  256
370
   -1
100
AcDbCircle
 10
22.5
 20
70
 40
2
  0
CIRCLE
  5
D0
100
AcDbEntity
  8
parts
  6
ByLayer
 62
  256
370
   -1
100
AcDbCircle
 10
197.5
 20
70
 40
2
  0
LINE
  5
D1
100
AcDbEntity
  8
parts
  6
ByLayer
 62
  256
370
   -1
100
AcDbLine
 10
401.5
 20
121.0000000000001
 11
238.5
 21
121.0000000000001
  0
LINE
  5
D2
100
AcDbEntity
  8
parts
  6
ByLayer
 62
  256
370
   -1
100
AcDbLine
 10
401.5
 20
19.00000000000011
 11
238.5
 21
19.00000000000011
  0
LINE
  5
D3
100
AcDbEntity
  8
parts
  6
ByLayer
 62
  256
370
   -1
100
AcDbLine
 10
413.5
 20
70.0000000000001
 11
413.5
 21
50.0000000000001
  0
LINE
  5
D4
100
AcDbEntity
  8
parts
  6
ByLayer
 62
  256
370
   -1
100
AcDbLine
 10
413.5
 20
70.0000000000001
 11
413.5
 21
90.00000000000011
  0
LINE
  5
D5
100
AcDbEntity
  8
parts
  6
ByLayer
 62
  256
370
   -1
100
AcDbLine
 10
413.5
 20
50.0000000000001
 11
401.5
 21
50.0000000000001
  0
LINE
  5
D6
100
AcDbEntity
  8
parts
  6
ByLayer
 62
  256
370
   -1
100
AcDbLine
 10
413.5
 20
90.00000000000011
 11
401.5
 21
90.00000000000011
  0
LINE
  5
D7
100
AcDbEntity
  8
parts
  6
ByLayer
 62
  256
370
   -1
100
AcDbLine
 10
401.5
 20
121.0000000000001
 11
401.5
 21
94.00000000000011
  0
ARC
  5
D8
100
AcDbEntity
  8
parts
  6
ByLayer
 62
  256
370
   -1
100
AcDbCircle
 10
401.5
 20
92.00000000000011
 40
2
100
AcDbArc
 50
90
 51
270
  0
LINE
  5
D9
100
AcDbEntity
  8
parts
  6
ByLayer
 62
  256
370
   -1
100
AcDbLine
 10
401.5
 20
46.00000000000011
 11
401.5
 21
19.00000000000011
  0
ARC
  5
DA
100
AcDbEntity
  8
parts
  6
ByLayer
 62
  256
370
   -1
100
AcDbCircle
 10
401.5
 20
48.00000000000011
 40
2
100
AcDbArc
 50
89.99994535799999
 51
270
  0
LINE
  5
DB
100
AcDbEntity
  8
parts
  6
ByLayer
 62
  256
370
   -1
100
AcDbLine
 10
226.5
 20
70.0000000000001
 11
226.5
 21
50.0000000000001
  0
LINE
  5
DC
100
AcDbEntity
  8
parts
  6
ByLayer
 62
  256
370
   -1
100
AcDbLine
 10
226.5
 20
70.0000000000001
 11
226.5
 21
90.00000000000011
  0
LINE
  5
DD
100
AcDbEntity
  8
parts
  6
ByLayer
 62
  256
370
   -1
100
AcDbLine
 10
226.5
 20
50.0000000000001
 11
238.5
 21
50.0000000000001
  0
LINE
  5
DE
100
AcDbEntity
  8
parts
  6
ByLayer
 62
  256
370
   -1
100
AcDbLine
 10
226.5
 20
90.00000000000011
 11
238.5
 21
90.00000000000011
  0
LINE
  5
DF
100
AcDbEntity
  8
parts
  6
ByLayer
 62
  256
370
   -1
100
AcDbLine
 10
238.5
 20
121.0000000000001
 11
238.5
 21
94.00000000000011
  0
ARC
  5
E0
100
AcDbEntity
  8
parts
  6
ByLayer
 62
  256
370
   -1
100
AcDbCircle
 10
238.5
 20
92.00000000000011
 40
2
100
AcDbArc
 50
270.0000000000004
 51
90
  0
LINE
  5
E1
100
AcDbEntity
  8
parts
  6
ByLayer
 62
  256
370
   -1
100
AcDbLine
 10
238.5
 20
46.00000000000011
 11
238.5
 21
19.00000000000011
  0
ARC
  5
E2
100
AcDbEntity
  8
parts
  6
ByLayer
 62
  256
370
   -1
100
AcDbCircle
 10
238.5
 20
48.00000000000011
 40
2
100
AcDbArc
 50
270
 51
90.00005464200001
  0
CIRCLE
  5
E3
100
AcDbEntity
  8
parts
  6
ByLayer
 62
  256
370
   -1
100
AcDbCircle
 10
232.5
 20
70.0000000000001
 40
2
  0
CIRCLE
  5
E4
100
AcDbEntity
  8
parts
  6
ByLayer
 62
  256
370
   -1
100
AcDbCircle
 10
407.5
 20
70.0000000000001
 40
2
  0
CIRCLE
  5
E5
100
AcDbEntity
  8
parts
  6
ByLayer
 62
  256
370
   -1
100
AcDbCircle
 10
390
 20
116.0000000000001
 40
2
  0
CIRCLE
  5
E6
100
AcDbEntity
  8
parts
  6
ByLayer
 62
  256
370
   -1
100
AcDbCircle
 10
390
 20
84.00000000000011
 40
2
  0
CIRCLE
  5
E7
100
AcDbEntity
  8
parts
  6
ByLayer
 62
  256
370
   -1
100
AcDbCircle
 10
390
 20
24.00000000000011
 40
2
  0
CIRCLE
  5
E8
100
AcDbEntity
  8
parts
  6
ByLayer
 62
  256
370
   -1
100
AcDbCircle
 10
390
 20
56.0000000000001
 40
2
  0
CIRCLE
  5
E9
100
AcDbEntity
  8
parts
  6
ByLayer
 62
  256
370
   -1
100
AcDbCircle
 10
250
 20
116.0000000000001
 40
2
  0
CIRCLE
  5
EA
100
AcDbEntity
  8
parts
  6
ByLayer
 62
  256
370
   -1
100
AcDbCircle
 10
250
 20
84.00000000000011
 40
2
  0
CIRCLE
  5
EB
100
AcDbEntity
  8
parts
  6
ByLayer
 62
  256
370
   -1
100
AcDbCircle
 10
250
 20
24.00000000000011
 40
2
  0
CIRCLE
  5
EC
100
AcDbEntity
  8
parts
  6
ByLayer
 62
  256
370
   -1
100
AcDbCircle
 10
250
 20
56.0000000000001
 40
2
  0
CIRCLE
  5
ED
100
AcDbEntity
  8
parts
  6
ByLayer
 62
  256
370
   -1
100
AcDbCircle
 10
339.5
 20
58.0000000000001
 40
2.5
  0
CIRCLE
  5
EE
100
AcDbEntity
  8
parts
  6
ByLayer
 62
  256
370
   -1
100
AcDbCircle
 10
339.5
 20
82.00000000000011
 40
2.5
  0
CIRCLE
  5
EF
100
AcDbEntity
  8
parts
  6
ByLayer
 62
  256
370
   -1
100
AcDbCircle
 10
300.5
 20
82.00000000000011
 40
2.5
  0
CIRCLE
  5
F0
100
AcDbEntity
  8
parts
  6
ByLayer
 62
  256
370
   -1
100
AcDbCircle
 10
300.5
 20
58.0000000000001
 40
2.5
  0
LINE
  5
F1
100
AcDbEntity
  8
parts
  6
ByLayer
 62
  256
370
   -1
100
AcDbLine
 10
456
 20
650.0000000000001
 11
456
 21
450
  0
LINE
  5
F2
100
AcDbEntity
  8
parts
  6
ByLayer
 62
  256
370
   -1
100
AcDbLine
 10
456
 20
650.0000000000001
 11
456
 21
850
  0
LINE
  5
F3
100
AcDbEntity
  8
parts
  6
ByLayer
 62
  256
370
   -1
100
AcDbLine
 10
456
 20
450
 11
444
 21
450
  0
LINE
  5
F4
100
AcDbEntity
  8
parts
  6
ByLayer
 62
  256
370
   -1
100
AcDbLine
 10
440
 20
450.0000026970001
 11
440
 21
438
  0
LINE
  5
F5
100
AcDbEntity
  8
parts
  6
ByLayer
 62
  256
370
   -1
100
AcDbLine
 10
420
 20
862
 11
440
 21
862
  0
LINE
  5
F6
100
AcDbEntity
  8
parts
  6
ByLayer
 62
  256
370
   -1
100
AcDbLine
 10
440
 20
862
 11
440
 21
849.9999973030001
  0
LINE
  5
F7
100
AcDbEntity
  8
parts
  6
ByLayer
 62
  256
370
   -1
100
AcDbLine
 10
444
 20
850
 11
456
 21
850
  0
ARC
  5
F8
100
AcDbEntity
  8
parts
  6
ByLayer
 62
  256
370
   -1
100
AcDbCircle
 10
442
 20
450
 40
2
100
AcDbArc
 50
0
 51
180.0001092829999
  0
ARC
  5
F9
100
AcDbEntity
  8
parts
  6
ByLayer
 62
  256
370
   -1
100
AcDbCircle
 10
442
 20
850
 40
2
100
AcDbArc
 50
180.0000772750001
 51
360
  0
CIRCLE
  5
FA
100
AcDbEntity
  8
parts
  6
ByLayer
 62
  256
370
   -1
100
AcDbCircle
 10
430
 20
600
 40
2
  0
CIRCLE
  5
FB
100
AcDbEntity
  8
parts
  6
ByLayer
 62
  256
370
   -1
100
AcDbCircle
 10
430
 20
500
 40
2
  0
CIRCLE
  5
FC
100
AcDbEntity
  8
parts
  6
ByLayer
 62
  256
370
   -1
100
AcDbCircle
 10
430
 20
700
 40
2
  0
CIRCLE
  5
FD
100
AcDbEntity
  8
parts
  6
ByLayer
 62
  256
370
   -1
100
AcDbCircle
 10
430
 20
800
 40
2
  0
CIRCLE
  5
FE
100
AcDbEntity
  8
parts
  6
ByLayer
 62
  256
370
   -1
100
AcDbCircle
 10
452
 20
800
 40
2
  0
CIRCLE
  5
FF
100
AcDbEntity
  8
parts
  6
ByLayer
 62
  256
370
   -1
100
AcDbCircle
 10
452
 20
700.0000000000001
 40
2
  0
CIRCLE
  5
100
100
AcDbEntity
  8
parts
  6
ByLayer
 62
  256
370
   -1
100
AcDbCircle
 10
452
 20
600
 40
2
  0
CIRCLE
  5
101
100
AcDbEntity
  8
parts
  6
ByLayer
 62
  256
370
   -1
100
AcDbCircle
 10
452
 20
500
 40
2
  0
LINE
  5
102
100
AcDbEntity
  8
parts
  6
ByLayer
 62
  256
370
   -1
100
AcDbLine
 10
420
 20
450
 11
416
 21
450
  0
ARC
  5
103
100
AcDbEntity
  8
parts
  6
ByLayer
 62
  256
370
   -1
100
AcDbCircle
 10
420
 20
448
 40
2
100
AcDbArc
 50
270
 51
90.000077275
  0
LINE
  5
104
100
AcDbEntity
  8
parts
  6
ByLayer
 62
  256
370
   -1
100
AcDbLine
 10
420
 20
862
 11
420
 21
854
  0
LINE
  5
105
100
AcDbEntity
  8
parts
  6
ByLayer
 62
  256
370
   -1
100
AcDbLine
 10
420
 20
850
 11
416
 21
850
  0
ARC
  5
106
100
AcDbEntity
  8
parts
  6
ByLayer
 62
  256
370
   -1
100
AcDbCircle
 10
420
 20
852
 40
2
100
AcDbArc
 50
269.999922725
 51
90
  0
LINE
  5
107
100
AcDbEntity
  8
parts
  6
ByLayer
 62
  256
370
   -1
100
AcDbLine
 10
416
 20
550
 11
404
 21
550
  0
LINE
  5
108
100
AcDbEntity
  8
parts
  6
ByLayer
 62
  256
370
   -1
100
AcDbLine
 10
416
 20
750
 11
404
 21
750
  0
ARC
  5
109
100
AcDbEntity
  8
parts
  6
ByLayer
 62
  256
370
   -1
100
AcDbCircle
 10
416
 20
752
 40
2
100
AcDbArc
 50
269.999961363
 51
90
  0
ARC
  5
10A
100
AcDbEntity
  8
parts
  6
ByLayer
 62
  256
370
   -1
100
AcDbCircle
 10
416
 20
548
 40
2
100
AcDbArc
 50
270.0000642450362
 51
89.99993307799998
  0
LINE
  5
10B
100
AcDbEntity
  8
parts
  6
ByLayer
 62
  256
370
   -1
100
AcDbLine
 10
416
 20
450
 11
416.0000022426
 21
546
  0
LINE
  5
10C
100
AcDbEntity
  8
parts
  6
ByLayer
 62
  256
370
   -1
100
AcDbLine
 10
416
 20
754
 11
416
 21
850
  0
LINE
  5
10D
100
AcDbEntity
  8
parts
  6
ByLayer
 62
  256
370
   -1
100
AcDbLine
 10
404
 20
750
 11
404
 21
550
  0
CIRCLE
  5
10E
100
AcDbEntity
  8
parts
  6
ByLayer
 62
  256
370
   -1
100
AcDbCircle
 10
410
 20
700
 40
2
  0
CIRCLE
  5
10F
100
AcDbEntity
  8
parts
  6
ByLayer
 62
  256
370
   -1
100
AcDbCircle
 10
410
 20
600
 40
2
  0
CIRCLE
  5
110
100
AcDbEntity
  8
parts
  6
ByLayer
 62
  256
370
   -1
100
AcDbCircle
 10
430
 20
444
 40
2
  0
CIRCLE
  5
111
100
AcDbEntity
  8
parts
  6
ByLayer
 62
  256
370
   -1
100
AcDbCircle
 10
430
 20
856
 40
2
  0
LINE
  5
112
100
AcDbEntity
  8
parts
  6
ByLayer
 62
  256
370
   -1
100
AcDbLine
 10
420
 20
446
 11
420
 21
442
  0
ARC
  5
113
100
AcDbEntity
  8
parts
  6
ByLayer
 62
  256
370
   -1
100
AcDbCircle
 10
442
 20
438
 40
2
100
AcDbArc
 50
179.9998907170001
 51
0
  0
ARC
  5
114
100
AcDbEntity
  8
parts
  6
ByLayer
 62
  256
370
   -1
100
AcDbCircle
 10
420
 20
440
 40
2
100
AcDbArc
 50
269.999922725
 51
90
  0
LINE
  5
115
100
AcDbEntity
  8
parts
  6
ByLayer
 62
  256
370
   -1
100
AcDbLine
 10
469.5
 20
438
 11
469.5
 21
393
  0
LINE
  5
116
100
AcDbEntity
  8
parts
  6
ByLayer
 62
  256
370
   -1
100
AcDbLine
 10
412.5
 20
438
 11
412.5
 21
393
  0
LINE
  5
117
100
AcDbEntity
  8
parts
  6
ByLayer
 62
  256
370
   -1
100
AcDbLine
 10
451
 20
405
 11
451
 21
393
  0
LINE
  5
118
100
AcDbEntity
  8
parts
  6
ByLayer
 62
  256
370
   -1
100
AcDbLine
 10
431
 20
405
 11
431
 21
393
  0
LINE
  5
119
100
AcDbEntity
  8
parts
  6
ByLayer
 62
  256
370
   -1
100
AcDbLine
 10
469.5
 20
393
 11
451
 21
393
  0
LINE
  5
11A
100
AcDbEntity
  8
parts
  6
ByLayer
 62
  256
370
   -1
100
AcDbLine
 10
431
 20
393
 11
412.5
 21
393
  0
ARC
  5
11B
100
AcDbEntity
  8
parts
  6
ByLayer
 62
  256
370
   -1
100
AcDbCircle
 10
449
 20
405
 40
2
100
AcDbArc
 50
0
 51
180
  0
ARC
  5
11C
100
AcDbEntity
  8
parts
  6
ByLayer
 62
  256
370
   -1
100
AcDbCircle
 10
433
 20
405
 40
2
100
AcDbArc
 50
0
 51
179.9998454504592
  0
LINE
  5
11D
100
AcDbEntity
  8
parts
  6
ByLayer
 62
  256
370
   -1
100
AcDbLine
 10
441
 20
405
 11
436
 21
405
  0
LINE
  5
11E
100
AcDbEntity
  8
parts
  6
ByLayer
 62
  256
370
   -1
100
AcDbLine
 10
436
 20
405
 11
434.999999999995
 21
405
  0
LINE
  5
11F
100
AcDbEntity
  8
parts
  6
ByLayer
 62
  256
370
   -1
100
AcDbLine
 10
441
 20
405
 11
447
 21
405
  0
LINE
  5
120
100
AcDbEntity
  8
parts
  6
ByLayer
 62
  256
370
   -1
100
AcDbLine
 10
469.5
 20
438
 11
444
 21
438
  0
LINE
  5
121
100
AcDbEntity
  8
parts
  6
ByLayer
 62
  256
370
   -1
100
AcDbLine
 10
419.999997302594
 20
438.0000000000018
 11
412.5
 21
438
  0
LINE
  5
122
100
AcDbEntity
  8
parts
  6
ByLayer
 62
  256
370
   -1
100
AcDbLine
 10
482.5
 20
308.0000000000001
 11
457.5
 21
308.0000000000001
  0
LINE
  5
123
100
AcDbEntity
  8
parts
  6
ByLayer
 62
  256
370
   -1
100
AcDbLine
 10
482.5
 20
320.0000000000001
 11
457.5
 21
320.0000000000001
  0
LINE
  5
124
100
AcDbEntity
  8
parts
  6
ByLayer
 62
  256
370
   -1
100
AcDbLine
 10
400
 20
348.0000000000001
 11
400
 21
264.0000000000001
  0
LINE
  5
125
100
AcDbEntity
  8
parts
  6
ByLayer
 62
  256
370
   -1
100
AcDbLine
 10
420
 20
320.0000000000001
 11
445
 21
320.0000000000001
  0
LINE
  5
126
100
AcDbEntity
  8
parts
  6
ByLayer
 62
  256
370
   -1
100
AcDbLine
 10
445
 20
332.0000000000001
 11
420
 21
332.0000000000001
  0
LINE
  5
127
100
AcDbEntity
  8
parts
  6
ByLayer
 62
  256
370
   -1
100
AcDbLine
 10
520
 20
332.0000000000001
 11
495
 21
332.0000000000001
  0
LINE
  5
128
100
AcDbEntity
  8
parts
  6
ByLayer
 62
  256
370
   -1
100
AcDbLine
 10
495
 20
320.0000000000001
 11
520
 21
320.0000000000001
  0
CIRCLE
  5
129
100
AcDbEntity
  8
parts
  6
ByLayer
 62
  256
370
   -1
100
AcDbCircle
 10
471
 20
326.0000000000001
 40
2
  0
CIRCLE
  5
12A
100
AcDbEntity
  8
parts
  6
ByLayer
 62
  256
370
   -1
100
AcDbCircle
 10
520
 20
314.0000000000001
 40
2
  0
CIRCLE
  5
12B
100
AcDbEntity
  8
parts
  6
ByLayer
 62
  256
370
   -1
100
AcDbCircle
 10
420
 20
314.0000000000001
 40
2
  0
LINE
  5
12C
100
AcDbEntity
  8
parts
  6
ByLayer
 62
  256
370
   -1
100
AcDbLine
 10
540
 20
348.0000000000001
 11
540
 21
360.0000000000001
  0
LINE
  5
12D
100
AcDbEntity
  8
parts
  6
ByLayer
 62
  256
370
   -1
100
AcDbLine
 10
400
 20
348.0000000000001
 11
400
 21
360.0000000000001
  0
LINE
  5
12E
100
AcDbEntity
  8
parts
  6
ByLayer
 62
  256
370
   -1
100
AcDbLine
 10
540
 20
360.0000000000001
 11
400
 21
360.0000000000001
  0
LINE
  5
12F
100
AcDbEntity
  8
parts
  6
ByLayer
 62
  256
370
   -1
100
AcDbLine
 10
482.5
 20
314.0000000000001
 11
482.5
 21
312.0000000000001
  0
LINE
  5
130
100
AcDbEntity
  8
parts
  6
ByLayer
 62
  256
370
   -1
100
AcDbLine
 10
482.5
 20
314.0000000000001
 11
482.5
 21
316.0000000000001
  0
ARC
  5
131
100
AcDbEntity
  8
parts
  6
ByLayer
 62
  256
370
   -1
100
AcDbCircle
 10
482.5
 20
318.0000000000001
 40
2
100
AcDbArc
 50
270
 51
89.999990341
  0
ARC
  5
132
100
AcDbEntity
  8
parts
  6
ByLayer
 62
  256
370
   -1
100
AcDbCircle
 10
482.5
 20
310.0000000000001
 40
2
100
AcDbArc
 50
269.9999975852
 51
90
  0
ARC
  5
133
100
AcDbEntity
  8
parts
  6
ByLayer
 62
  256
370
   -1
100
AcDbCircle
 10
457.5
 20
310.0000000000001
 40
2
100
AcDbArc
 50
90
 51
269.999990341
  0
LINE
  5
134
100
AcDbEntity
  8
parts
  6
ByLayer
 62
  256
370
   -1
100
AcDbLine
 10
457.5
 20
314.0000000000001
 11
457.5
 21
312.0000000000001
  0
LINE
  5
135
100
AcDbEntity
  8
parts
  6
ByLayer
 62
  256
370
   -1
100
AcDbLine
 10
457.5
 20
314.0000000000001
 11
457.5
 21
316.0000000000001
  0
ARC
  5
136
100
AcDbEntity
  8
parts
  6
ByLayer
 62
  256
370
   -1
100
AcDbCircle
 10
457.5
 20
318.0000000000001
 40
2
100
AcDbArc
 50
90.000002415
 51
270
  0
ARC
  5
137
100
AcDbEntity
  8
parts
  6
ByLayer
 62
  256
370
   -1
100
AcDbCircle
 10
520
 20
322.0000000000001
 40
2
100
AcDbArc
 50
269.9999806813
 51
90
  0
ARC
  5
138
100
AcDbEntity
  8
parts
  6
ByLayer
 62
  256
370
   -1
100
AcDbCircle
 10
520
 20
330.0000000000001
 40
2
100
AcDbArc
 50
270
 51
90
  0
LINE
  5
139
100
AcDbEntity
  8
parts
  6
ByLayer
 62
  256
370
   -1
100
AcDbLine
 10
520
 20
324.0000000000001
 11
520
 21
328.0000000000001
  0
LINE
  5
13A
100
AcDbEntity
  8
parts
  6
ByLayer
 62
  256
370
   -1
100
AcDbLine
 10
495
 20
328.0000000000001
 11
495
 21
324.0000000000001
  0
ARC
  5
13B
100
AcDbEntity
  8
parts
  6
ByLayer
 62
  256
370
   -1
100
AcDbCircle
 10
495
 20
330.0000000000001
 40
2
100
AcDbArc
 50
90.00002366000002
 51
270
  0
ARC
  5
13C
100
AcDbEntity
  8
parts
  6
ByLayer
 62
  256
370
   -1
100
AcDbCircle
 10
495
 20
322.0000000000001
 40
2
100
AcDbArc
 50
90
 51
269.9999863396
  0
ARC
  5
13D
100
AcDbEntity
  8
parts
  6
ByLayer
 62
  256
370
   -1
100
AcDbCircle
 10
445
 20
322.0000000000001
 40
2
100
AcDbArc
 50
270.0000118302
 51
90.00001183000001
  0
ARC
  5
13E
100
AcDbEntity
  8
parts
  6
ByLayer
 62
  256
370
   -1
100
AcDbCircle
 10
445
 20
330.0000000000001
 40
2
100
AcDbArc
 50
270
 51
89.99999517000002
  0
LINE
  5
13F
100
AcDbEntity
  8
parts
  6
ByLayer
 62
  256
370
   -1
100
AcDbLine
 10
420
 20
328.0000000000001
 11
420
 21
324.0000000000001
  0
ARC
  5
140
100
AcDbEntity
  8
parts
  6
ByLayer
 62
  256
370
   -1
100
AcDbCircle
 10
420
 20
322.0000000000001
 40
2
100
AcDbArc
 50
90
 51
269.9999863396
  0
ARC
  5
141
100
AcDbEntity
  8
parts
  6
ByLayer
 62
  256
370
   -1
100
AcDbCircle
 10
420
 20
330.0000000000001
 40
2
100
AcDbArc
 50
90.00002366000002
 51
270
  0
LINE
  5
142
100
AcDbEntity
  8
parts
  6
ByLayer
 62
  256
370
   -1
100
AcDbLine
 10
445
 20
324.0000000000001
 11
445
 21
328.0000000000001
  0
LINE
  5
143
100
AcDbEntity
  8
parts
  6
ByLayer
 62
  256
370
   -1
100
AcDbLine
 10
607
 20
114.0000000000001
 11
619
 21
114.0000000000001
  0
LINE
  5
144
100
AcDbEntity
  8
parts
  6
ByLayer
 62
  256
370
   -1
100
AcDbLine
 10
607
 20
134.0000000000001
 11
619
 21
134.0000000000001
  0
LINE
  5
145
100
AcDbEntity
  8
parts
  6
ByLayer
 62
  256
370
   -1
100
AcDbLine
 10
619
 20
82.00000000000011
 11
619
 21
114.0000000000001
  0
LINE
  5
146
100
AcDbEntity
  8
parts
  6
ByLayer
 62
  256
370
   -1
100
AcDbLine
 10
619
 20
166.0000000000001
 11
619
 21
134.0000000000001
  0
LINE
  5
147
100
AcDbEntity
  8
parts
  6
ByLayer
 62
  256
370
   -1
100
AcDbLine
 10
607
 20
118.0000000000001
 11
607
 21
130.0000000000001
  0
ARC
  5
148
100
AcDbEntity
  8
parts
  6
ByLayer
 62
  256
370
   -1
100
AcDbCircle
 10
607
 20
116.0000000000001
 40
2
100
AcDbArc
 50
90
 51
270.000122182
  0
ARC
  5
149
100
AcDbEntity
  8
parts
  6
ByLayer
 62
  256
370
   -1
100
AcDbCircle
 10
607
 20
132.0000000000001
 40
2
100
AcDbArc
 50
89.999972679
 51
270
  0
LINE
  5
14A
100
AcDbEntity
  8
parts
  6
ByLayer
 62
  256
370
   -1
100
AcDbLine
 10
557
 20
82.00000000000011
 11
583
 21
82.00000000000011
  0
LINE
  5
14B
100
AcDbEntity
  8
parts
  6
ByLayer
 62
  256
370
   -1
100
AcDbLine
 10
583
 20
82.00000000000011
 11
583
 21
94.00000000000011
  0
LINE
  5
14C
100
AcDbEntity
  8
parts
  6
ByLayer
 62
  256
370
   -1
100
AcDbLine
 10
603
 20
94.00000000000011
 11
603
 21
82.00000000000011
  0
LINE
  5
14D
100
AcDbEntity
  8
parts
  6
ByLayer
 62
  256
370
   -1
100
AcDbLine
 10
619
 20
82.00000000000011
 11
603
 21
82.00000000000011
  0
LINE
  5
14E
100
AcDbEntity
  8
parts
  6
ByLayer
 62
  256
370
   -1
100
AcDbLine
 10
599
 20
94.00000000000011
 11
587
 21
94.00000000000011
  0
ARC
  5
14F
100
AcDbEntity
  8
parts
  6
ByLayer
 62
  256
370
   -1
100
AcDbCircle
 10
585
 20
94.00000000000011
 40
2
100
AcDbArc
 50
0
 51
180.000115912
  0
ARC
  5
150
100
AcDbEntity
  8
parts
  6
ByLayer
 62
  256
370
   -1
100
AcDbCircle
 10
601
 20
94.00000000000011
 40
2
100
AcDbArc
 50
3.863699998796721e-05
 51
180
  0
LINE
  5
151
100
AcDbEntity
  8
parts
  6
ByLayer
 62
  256
370
   -1
100
AcDbLine
 10
583
 20
166.0000000000001
 11
583
 21
154.0000000000001
  0
LINE
  5
152
100
AcDbEntity
  8
parts
  6
ByLayer
 62
  256
370
   -1
100
AcDbLine
 10
603
 20
154.0000000000001
 11
603
 21
166.0000000000001
  0
LINE
  5
153
100
AcDbEntity
  8
parts
  6
ByLayer
 62
  256
370
   -1
100
AcDbLine
 10
599
 20
154.0000000000001
 11
587
 21
154.0000000000001
  0
ARC
  5
154
100
AcDbEntity
  8
parts
  6
ByLayer
 62
  256
370
   -1
100
AcDbCircle
 10
585
 20
154.0000000000001
 40
2
100
AcDbArc
 50
179.999884088
 51
0
  0
ARC
  5
155
100
AcDbEntity
  8
parts
  6
ByLayer
 62
  256
370
   -1
100
AcDbCircle
 10
601
 20
154.0000000000001
 40
2
100
AcDbArc
 50
180
 51
359.999961363
  0
LINE
  5
156
100
AcDbEntity
  8
parts
  6
ByLayer
 62
  256
370
   -1
100
AcDbLine
 10
599
 20
166.0000000000001
 11
587
 21
166.0000000000001
  0
ARC
  5
157
100
AcDbEntity
  8
parts
  6
ByLayer
 62
  256
370
   -1
100
AcDbCircle
 10
585
 20
166.0000000000001
 40
2
100
AcDbArc
 50
0
 51
180.0001159121528
  0
ARC
  5
158
100
AcDbEntity
  8
parts
  6
ByLayer
 62
  256
370
   -1
100
AcDbCircle
 10
601
 20
166.0000000000001
 40
2
100
AcDbArc
 50
3.863699998796721e-05
 51
180
  0
CIRCLE
  5
159
100
AcDbEntity
  8
parts
  6
ByLayer
 62
  256
370
   -1
100
AcDbCircle
 10
613
 20
104.0000000000001
 40
2
  0
CIRCLE
  5
15A
100
AcDbEntity
  8
parts
  6
ByLayer
 62
  256
370
   -1
100
AcDbCircle
 10
613
 20
144.0000000000001
 40
2
  0
LINE
  5
15B
100
AcDbEntity
  8
parts
  6
ByLayer
 62
  256
370
   -1
100
AcDbLine
 10
619
 20
166.0000000000001
 11
544.4292350221999
 21
258.5055059218001
  0
LINE
  5
15C
100
AcDbEntity
  8
parts
  6
ByLayer
 62
  256
370
   -1
100
AcDbLine
 10
540
 20
271.0574491182002
 11
540
 21
348.0000000000001
  0
ARC
  5
15D
100
AcDbEntity
  8
parts
  6
ByLayer
 62
  256
370
   -1
100
AcDbCircle
 10
560
 20
271.0574491182002
 40
20
100
AcDbArc
 50
180
 51
218.8730669945
  0
LINE
  5
15E
100
AcDbEntity
  8
parts
  6
ByLayer
 62
  256
370
   -1
100
AcDbLine
 10
557
 20
82.00000000000011
 11
553
 21
82.00000000000011
  0
LINE
  5
15F
100
AcDbEntity
  8
parts
  6
ByLayer
 62
  256
370
   -1
100
AcDbLine
 10
553
 20
82.00000000000011
 11
400
 21
264.0000000000001
  0
LINE
  5
160
100
AcDbEntity
  8
parts
  6
ByLayer
 62
  256
370
   -1
100
AcDbLine
 10
550
 20
820
 11
550
 21
832
  0
LINE
  5
161
100
AcDbEntity
  8
parts
  6
ByLayer
 62
  256
370
   -1
100
AcDbLine
 10
530
 20
820
 11
530
 21
832
  0
LINE
  5
162
100
AcDbEntity
  8
parts
  6
ByLayer
 62
  256
370
   -1
100
AcDbLine
 10
550
 20
832
 11
530
 21
832
  0
LINE
  5
163
100
AcDbEntity
  8
parts
  6
ByLayer
 62
  256
370
   -1
100
AcDbLine
 10
554
 20
820
 11
570
 21
820
  0
ARC
  5
164
100
AcDbEntity
  8
parts
  6
ByLayer
 62
  256
370
   -1
100
AcDbCircle
 10
552
 20
820
 40
2
100
AcDbArc
 50
180.0000772750001
 51
360
  0
ARC
  5
165
100
AcDbEntity
  8
parts
  6
ByLayer
 62
  256
370
   -1
100
AcDbCircle
 10
528
 20
820
 40
2
100
AcDbArc
 50
180
 51
7.727500004410401e-05
  0
LINE
  5
166
100
AcDbEntity
  8
parts
  6
ByLayer
 62
  256
370
   -1
100
AcDbLine
 10
550
 20
420
 11
550
 21
408
  0
LINE
  5
167
100
AcDbEntity
  8
parts
  6
ByLayer
 62
  256
370
   -1
100
AcDbLine
 10
530
 20
420
 11
530
 21
408
  0
LINE
  5
168
100
AcDbEntity
  8
parts
  6
ByLayer
 62
  256
370
   -1
100
AcDbLine
 10
550
 20
408
 11
530
 21
408
  0
LINE
  5
169
100
AcDbEntity
  8
parts
  6
ByLayer
 62
  256
370
   -1
100
AcDbLine
 10
554
 20
420
 11
570
 21
420
  0
ARC
  5
16A
100
AcDbEntity
  8
parts
  6
ByLayer
 62
  256
370
   -1
100
AcDbCircle
 10
552
 20
420
 40
2
100
AcDbArc
 50
0
 51
179.9999227249999
  0
ARC
  5
16B
100
AcDbEntity
  8
parts
  6
ByLayer
 62
  256
370
   -1
100
AcDbCircle
 10
528
 20
420
 40
2
100
AcDbArc
 50
359.9999227252
 51
180
  0
CIRCLE
  5
16C
100
AcDbEntity
  8
parts
  6
ByLayer
 62
  256
370
   -1
100
AcDbCircle
 10
563
 20
797.5
 40
3.75
  0
CIRCLE
  5
16D
100
AcDbEntity
  8
parts
  6
ByLayer
 62
  256
370
   -1
100
AcDbCircle
 10
517
 20
797.5
 40
3.75
  0
CIRCLE
  5
16E
100
AcDbEntity
  8
parts
  6
ByLayer
 62
  256
370
   -1
100
AcDbCircle
 10
563
 20
441.5
 40
3.75
  0
CIRCLE
  5
16F
100
AcDbEntity
  8
parts
  6
ByLayer
 62
  256
370
   -1
100
AcDbCircle
 10
517
 20
441.5
 40
3.75
  0
LINE
  5
170
100
AcDbEntity
  8
parts
  6
ByLayer
 62
  256
370
   -1
100
AcDbLine
 10
570
 20
420
 11
582
 21
420
  0
LINE
  5
171
100
AcDbEntity
  8
parts
  6
ByLayer
 62
  256
370
   -1
100
AcDbLine
 10
582
 20
820
 11
570
 21
820
  0
LINE
  5
172
100
AcDbEntity
  8
parts
  6
ByLayer
 62
  256
370
   -1
100
AcDbLine
 10
570
 20
520
 11
582
 21
520
  0
ARC
  5
173
100
AcDbEntity
  8
parts
  6
ByLayer
 62
  256
370
   -1
100
AcDbCircle
 10
570
 20
522
 40
2
100
AcDbArc
 50
90
 51
270.0000000000004
  0
LINE
  5
174
100
AcDbEntity
  8
parts
  6
ByLayer
 62
  256
370
   -1
100
AcDbLine
 10
582
 20
520
 11
582
 21
420
  0
LINE
  5
175
100
AcDbEntity
  8
parts
  6
ByLayer
 62
  256
370
   -1
100
AcDbLine
 10
570
 20
720
 11
582
 21
720
  0
ARC
  5
176
100
AcDbEntity
  8
parts
  6
ByLayer
 62
  256
370
   -1
100
AcDbCircle
 10
570
 20
718
 40
2
100
AcDbArc
 50
90
 51
270
  0
LINE
  5
177
100
AcDbEntity
  8
parts
  6
ByLayer
 62
  256
370
   -1
100
AcDbLine
 10
582
 20
720
 11
582
 21
820
  0
LINE
  5
178
100
AcDbEntity
  8
parts
  6
ByLayer
 62
  256
370
   -1
100
AcDbLine
 10
570
 20
716
 11
570
 21
524
  0
LINE
  5
179
100
AcDbEntity
  8
parts
  6
ByLayer
 62
  256
370
   -1
100
AcDbLine
 10
510
 20
520
 11
498
 21
520
  0
ARC
  5
17A
100
AcDbEntity
  8
parts
  6
ByLayer
 62
  256
370
   -1
100
AcDbCircle
 10
510
 20
522
 40
2
100
AcDbArc
 50
270
 51
90
  0
LINE
  5
17B
100
AcDbEntity
  8
parts
  6
ByLayer
 62
  256
370
   -1
100
AcDbLine
 10
498
 20
520
 11
498
 21
420
  0
LINE
  5
17C
100
AcDbEntity
  8
parts
  6
ByLayer
 62
  256
370
   -1
100
AcDbLine
 10
510
 20
720
 11
498
 21
720
  0
ARC
  5
17D
100
AcDbEntity
  8
parts
  6
ByLayer
 62
  256
370
   -1
100
AcDbCircle
 10
510
 20
718
 40
2
100
AcDbArc
 50
270.0000000000002
 51
90
  0
LINE
  5
17E
100
AcDbEntity
  8
parts
  6
ByLayer
 62
  256
370
   -1
100
AcDbLine
 10
498
 20
720
 11
498
 21
820
  0
LINE
  5
17F
100
AcDbEntity
  8
parts
  6
ByLayer
 62
  256
370
   -1
100
AcDbLine
 10
510
 20
716
 11
510
 21
524
  0
LINE
  5
180
100
AcDbEntity
  8
parts
  6
ByLayer
 62
  256
370
   -1
100
AcDbLine
 10
526
 20
420
 11
498
 21
420
  0
LINE
  5
181
100
AcDbEntity
  8
parts
  6
ByLayer
 62
  256
370
   -1
100
AcDbLine
 10
526
 20
820
 11
498
 21
820
  0
CIRCLE
  5
182
100
AcDbEntity
  8
parts
  6
ByLayer
 62
  256
370
   -1
100
AcDbCircle
 10
504
 20
469
 40
2
  0
CIRCLE
  5
183
100
AcDbEntity
  8
parts
  6
ByLayer
 62
  256
370
   -1
100
AcDbCircle
 10
504
 20
770
 40
2
  0
CIRCLE
  5
184
100
AcDbEntity
  8
parts
  6
ByLayer
 62
  256
370
   -1
100
AcDbCircle
 10
576
 20
770
 40
2
  0
CIRCLE
  5
185
100
AcDbEntity
  8
parts
  6
ByLayer
 62
  256
370
   -1
100
AcDbCircle
 10
576
 20
470
 40
2
  0
CIRCLE
  5
186
100
AcDbEntity
  8
parts
  6
ByLayer
 62
  256
370
   -1
100
AcDbCircle
 10
540
 20
826
 40
2
  0
CIRCLE
  5
187
100
AcDbEntity
  8
parts
  6
ByLayer
 62
  256
370
   -1
100
AcDbCircle
 10
540
 20
414
 40
2
  0
LINE
  5
188
100
AcDbEntity
  8
parts
  6
ByLayer
 62
  256
370
   -1
100
AcDbLine
 10
720.5
 20
723
 11
659.5
 21
723
  0
LINE
  5
189
100
AcDbEntity
  8
parts
  6
ByLayer
 62
  256
370
   -1
100
AcDbLine
 10
720.5
 20
817
 11
659.5
 21
817
  0
CIRCLE
  5
18A
100
AcDbEntity
  8
parts
  6
ByLayer
 62
  256
370
   -1
100
AcDbCircle
 10
683.5
 20
728
 40
2
  0
CIRCLE
  5
18B
100
AcDbEntity
  8
parts
  6
ByLayer
 62
  256
370
   -1
100
AcDbCircle
 10
683.5
 20
752
 40
2
  0
CIRCLE
  5
18C
100
AcDbEntity
  8
parts
  6
ByLayer
 62
  256
370
   -1
100
AcDbCircle
 10
665.5
 20
752
 40
2
  0
CIRCLE
  5
18D
100
AcDbEntity
  8
parts
  6
ByLayer
 62
  256
370
   -1
100
AcDbCircle
 10
665.5
 20
728
 40
2
  0
CIRCLE
  5
18E
100
AcDbEntity
  8
parts
  6
ByLayer
 62
  256
370
   -1
100
AcDbCircle
 10
696.5
 20
728
 40
2
  0
CIRCLE
  5
18F
100
AcDbEntity
  8
parts
  6
ByLayer
 62
  256
370
   -1
100
AcDbCircle
 10
696.5
 20
752
 40
2
  0
CIRCLE
  5
190
100
AcDbEntity
  8
parts
  6
ByLayer
 62
  256
370
   -1
100
AcDbCircle
 10
714.5
 20
752
 40
2
  0
CIRCLE
  5
191
100
AcDbEntity
  8
parts
  6
ByLayer
 62
  256
370
   -1
100
AcDbCircle
 10
714.5
 20
728
 40
2
  0
CIRCLE
  5
192
100
AcDbEntity
  8
parts
  6
ByLayer
 62
  256
370
   -1
100
AcDbCircle
 10
683.5
 20
812
 40
2
  0
CIRCLE
  5
193
100
AcDbEntity
  8
parts
  6
ByLayer
 62
  256
370
   -1
100
AcDbCircle
 10
683.5
 20
788
 40
2
  0
CIRCLE
  5
194
100
AcDbEntity
  8
parts
  6
ByLayer
 62
  256
370
   -1
100
AcDbCircle
 10
665.5
 20
788
 40
2
  0
CIRCLE
  5
195
100
AcDbEntity
  8
parts
  6
ByLayer
 62
  256
370
   -1
100
AcDbCircle
 10
665.5
 20
812
 40
2
  0
CIRCLE
  5
196
100
AcDbEntity
  8
parts
  6
ByLayer
 62
  256
370
   -1
100
AcDbCircle
 10
696.5
 20
812
 40
2
  0
CIRCLE
  5
197
100
AcDbEntity
  8
parts
  6
ByLayer
 62
  256
370
   -1
100
AcDbCircle
 10
696.5
 20
788
 40
2
  0
CIRCLE
  5
198
100
AcDbEntity
  8
parts
  6
ByLayer
 62
  256
370
   -1
100
AcDbCircle
 10
714.5
 20
788
 40
2
  0
CIRCLE
  5
199
100
AcDbEntity
  8
parts
  6
ByLayer
 62
  256
370
   -1
100
AcDbCircle
 10
714.5
 20
812
 40
2
  0
CIRCLE
  5
19A
100
AcDbEntity
  8
parts
  6
ByLayer
 62
  256
370
   -1
100
AcDbCircle
 10
700
 20
735
 40
3
  0
CIRCLE
  5
19B
100
AcDbEntity
  8
parts
  6
ByLayer
 62
  256
370
   -1
100
AcDbCircle
 10
680
 20
735
 40
3
  0
CIRCLE
  5
19C
100
AcDbEntity
  8
parts
  6
ByLayer
 62
  256
370
   -1
100
AcDbCircle
 10
680
 20
805
 40
3
  0
CIRCLE
  5
19D
100
AcDbEntity
  8
parts
  6
ByLayer
 62
  256
370
   -1
100
AcDbCircle
 10
700
 20
805
 40
3
  0
LINE
  5
19E
100
AcDbEntity
  8
parts
  6
ByLayer
 62
  256
370
   -1
100
AcDbLine
 10
720.5
 20
817
 11
720.5
 21
723
  0
LINE
  5
19F
100
AcDbEntity
  8
parts
  6
ByLayer
 62
  256
370
   -1
100
AcDbLine
 10
659.5
 20
817
 11
659.5
 21
723
  0
LINE
  5
1A0
100
AcDbEntity
  8
parts
  6
ByLayer
 62
  256
370
   -1
100
AcDbLine
 10
660
 20
469
 11
672
 21
469
  0
LINE
  5
1A1
100
AcDbEntity
  8
parts
  6
ByLayer
 62
  256
370
   -1
100
AcDbLine
 10
660
 20
429
 11
672
 21
429
  0
ARC
  5
1A2
100
AcDbEntity
  8
parts
  6
ByLayer
 62
  256
370
   -1
100
AcDbCircle
 10
672
 20
467
 40
2
100
AcDbArc
 50
270
 51
89.99996136300001
  0
LINE
  5
1A3
100
AcDbEntity
  8
parts
  6
ByLayer
 62
  256
370
   -1
100
AcDbLine
 10
672
 20
465
 11
672
 21
433
  0
ARC
  5
1A4
100
AcDbEntity
  8
parts
  6
ByLayer
 62
  256
370
   -1
100
AcDbCircle
 10
672
 20
431
 40
2
100
AcDbArc
 50
270.0000136603786
 51
90
  0
LINE
  5
1A5
100
AcDbEntity
  8
parts
  6
ByLayer
 62
  256
370
   -1
100
AcDbLine
 10
660
 20
500
 11
660
 21
469
  0
LINE
  5
1A6
100
AcDbEntity
  8
parts
  6
ByLayer
 62
  256
370
   -1
100
AcDbLine
 10
660
 20
429
 11
660
 21
398
  0
LINE
  5
1A7
100
AcDbEntity
  8
parts
  6
ByLayer
 62
  256
370
   -1
100
AcDbLine
 10
742
 20
469
 11
730
 21
469
  0
LINE
  5
1A8
100
AcDbEntity
  8
parts
  6
ByLayer
 62
  256
370
   -1
100
AcDbLine
 10
742
 20
429
 11
730
 21
429
  0
ARC
  5
1A9
100
AcDbEntity
  8
parts
  6
ByLayer
 62
  256
370
   -1
100
AcDbCircle
 10
730
 20
467
 40
2
100
AcDbArc
 50
90
 51
270
  0
ARC
  5
1AA
100
AcDbEntity
  8
parts
  6
ByLayer
 62
  256
370
   -1
100
AcDbCircle
 10
730
 20
431
 40
2
100
AcDbArc
 50
90
 51
270.000038637
  0
LINE
  5
1AB
100
AcDbEntity
  8
parts
  6
ByLayer
 62
  256
370
   -1
100
AcDbLine
 10
730
 20
465
 11
730
 21
433
  0
ARC
  5
1AC
100
AcDbEntity
  8
parts
  6
ByLayer
 62
  256
370
   -1
100
AcDbCircle
 10
742
 20
467
 40
2
100
AcDbArc
 50
270
 51
90
  0
ARC
  5
1AD
100
AcDbEntity
  8
parts
  6
ByLayer
 62
  256
370
   -1
100
AcDbCircle
 10
742
 20
431
 40
2
100
AcDbArc
 50
269.999961363
 51
90
  0
LINE
  5
1AE
100
AcDbEntity
  8
parts
  6
ByLayer
 62
  256
370
   -1
100
AcDbLine
 10
742
 20
465
 11
742
 21
433
  0
CIRCLE
  5
1AF
100
AcDbEntity
  8
parts
  6
ByLayer
 62
  256
370
   -1
100
AcDbCircle
 10
736
 20
484
 40
2
  0
CIRCLE
  5
1B0
100
AcDbEntity
  8
parts
  6
ByLayer
 62
  256
370
   -1
100
AcDbCircle
 10
736
 20
414
 40
2
  0
CIRCLE
  5
1B1
100
AcDbEntity
  8
parts
  6
ByLayer
 62
  256
370
   -1
100
AcDbCircle
 10
666
 20
414
 40
2
  0
CIRCLE
  5
1B2
100
AcDbEntity
  8
parts
  6
ByLayer
 62
  256
370
   -1
100
AcDbCircle
 10
666
 20
484
 40
2
  0
CIRCLE
  5
1B3
100
AcDbEntity
  8
parts
  6
ByLayer
 62
  256
370
   -1
100
AcDbCircle
 10
762
 20
419
 40
4.2
  0
CIRCLE
  5
1B4
100
AcDbEntity
  8
parts
  6
ByLayer
 62
  256
370
   -1
100
AcDbCircle
 10
762
 20
479
 40
4.2
  0
CIRCLE
  5
1B5
100
AcDbEntity
  8
parts
  6
ByLayer
 62
  256
370
   -1
100
AcDbCircle
 10
761
 20
449
 40
13
  0
CIRCLE
  5
1B6
100
AcDbEntity
  8
parts
  6
ByLayer
 62
  256
370
   -1
100
AcDbCircle
 10
761
 20
467
 40
2
  0
CIRCLE
  5
1B7
100
AcDbEntity
  8
parts
  6
ByLayer
 62
  256
370
   -1
100
AcDbCircle
 10
761
 20
431
 40
2
  0
CIRCLE
  5
1B8
100
AcDbEntity
  8
parts
  6
ByLayer
 62
  256
370
   -1
100
AcDbCircle
 10
724
 20
416
 40
2.5
  0
CIRCLE
  5
1B9
100
AcDbEntity
  8
parts
  6
ByLayer
 62
  256
370
   -1
100
AcDbCircle
 10
724
 20
442
 40
2.5
  0
CIRCLE
  5
1BA
100
AcDbEntity
  8
parts
  6
ByLayer
 62
  256
370
   -1
100
AcDbCircle
 10
696
 20
442
 40
2.5
  0
CIRCLE
  5
1BB
100
AcDbEntity
  8
parts
  6
ByLayer
 62
  256
370
   -1
100
AcDbCircle
 10
696
 20
416
 40
2.5
  0
CIRCLE
  5
1BC
100
AcDbEntity
  8
parts
  6
ByLayer
 62
  256
370
   -1
100
AcDbCircle
 10
696
 20
456
 40
2.5
  0
CIRCLE
  5
1BD
100
AcDbEntity
  8
parts
  6
ByLayer
 62
  256
370
   -1
100
AcDbCircle
 10
696
 20
482
 40
2.5
  0
CIRCLE
  5
1BE
100
AcDbEntity
  8
parts
  6
ByLayer
 62
  256
370
   -1
100
AcDbCircle
 10
724
 20
482
 40
2.5
  0
CIRCLE
  5
1BF
100
AcDbEntity
  8
parts
  6
ByLayer
 62
  256
370
   -1
100
AcDbCircle
 10
724
 20
456
 40
2.5
  0
LINE
  5
1C0
100
AcDbEntity
  8
parts
  6
ByLayer
 62
  256
370
   -1
100
AcDbLine
 10
780
 20
480
 11
780
 21
418
  0
LINE
  5
1C1
100
AcDbEntity
  8
parts
  6
ByLayer
 62
  256
370
   -1
100
AcDbLine
 10
780
 20
480
 11
780
 21
500
  0
LINE
  5
1C2
100
AcDbEntity
  8
parts
  6
ByLayer
 62
  256
370
   -1
100
AcDbLine
 10
780
 20
418
 11
780
 21
398
  0
LINE
  5
1C3
100
AcDbEntity
  8
parts
  6
ByLayer
 62
  256
370
   -1
100
AcDbLine
 10
768.5
 20
410
 11
768.5
 21
398
  0
LINE
  5
1C4
100
AcDbEntity
  8
parts
  6
ByLayer
 62
  256
370
   -1
100
AcDbLine
 10
753.5
 20
410
 11
753.5
 21
398
  0
LINE
  5
1C5
100
AcDbEntity
  8
parts
  6
ByLayer
 62
  256
370
   -1
100
AcDbLine
 10
768.5
 20
488
 11
768.5
 21
500
  0
LINE
  5
1C6
100
AcDbEntity
  8
parts
  6
ByLayer
 62
  256
370
   -1
100
AcDbLine
 10
753.5
 20
488
 11
753.5
 21
500
  0
LINE
  5
1C7
100
AcDbEntity
  8
parts
  6
ByLayer
 62
  256
370
   -1
100
AcDbLine
 10
761
 20
488
 11
764.5
 21
488
  0
LINE
  5
1C8
100
AcDbEntity
  8
parts
  6
ByLayer
 62
  256
370
   -1
100
AcDbLine
 10
761
 20
488
 11
757.5
 21
488
  0
ARC
  5
1C9
100
AcDbEntity
  8
parts
  6
ByLayer
 62
  256
370
   -1
100
AcDbCircle
 10
755.5
 20
488
 40
2
100
AcDbArc
 50
179.9999840730591
 51
360
  0
ARC
  5
1CA
100
AcDbEntity
  8
parts
  6
ByLayer
 62
  256
370
   -1
100
AcDbCircle
 10
766.5
 20
488
 40
2
100
AcDbArc
 50
180
 51
2.290915085424294e-05
  0
LINE
  5
1CB
100
AcDbEntity
  8
parts
  6
ByLayer
 62
  256
370
   -1
100
AcDbLine
 10
761
 20
410
 11
764.5
 21
410
  0
LINE
  5
1CC
100
AcDbEntity
  8
parts
  6
ByLayer
 62
  256
370
   -1
100
AcDbLine
 10
761
 20
410
 11
757.5
 21
410
  0
ARC
  5
1CD
100
AcDbEntity
  8
parts
  6
ByLayer
 62
  256
370
   -1
100
AcDbCircle
 10
755.5
 20
410
 40
2
100
AcDbArc
 50
0
 51
180
  0
ARC
  5
1CE
100
AcDbEntity
  8
parts
  6
ByLayer
 62
  256
370
   -1
100
AcDbCircle
 10
766.5
 20
410
 40
2
100
AcDbArc
 50
359.9999726792431
 51
180
  0
LINE
  5
1CF
100
AcDbEntity
  8
parts
  6
ByLayer
 62
  256
370
   -1
100
AcDbLine
 10
768.5
 20
500
 11
780
 21
500
  0
LINE
  5
1D0
100
AcDbEntity
  8
parts
  6
ByLayer
 62
  256
370
   -1
100
AcDbLine
 10
768.5
 20
398
 11
780
 21
398
  0
LINE
  5
1D1
100
AcDbEntity
  8
parts
  6
ByLayer
 62
  256
370
   -1
100
AcDbLine
 10
753.5
 20
398
 11
660
 21
398
  0
LINE
  5
1D2
100
AcDbEntity
  8
parts
  6
ByLayer
 62
  256
370
   -1
100
AcDbLine
 10
660
 20
500
 11
753.5
 21
500
  0
CIRCLE
  5
1D3
100
AcDbEntity
  8
parts
  6
ByLayer
 62
  256
370
   -1
100
AcDbCircle
 10
774.25
 20
404
 40
2
  0
CIRCLE
  5
1D4
100
AcDbEntity
  8
parts
  6
ByLayer
 62
  256
370
   -1
100
AcDbCircle
 10
747.75
 20
404
 40
2
  0
CIRCLE
  5
1D5
100
AcDbEntity
  8
parts
  6
ByLayer
 62
  256
370
   -1
100
AcDbCircle
 10
747.75
 20
494
 40
2
  0
CIRCLE
  5
1D6
100
AcDbEntity
  8
parts
  6
ByLayer
 62
  256
370
   -1
100
AcDbCircle
 10
774.25
 20
494
 40
2
  0
LINE
  5
1D7
100
AcDbEntity
  8
parts
  6
ByLayer
 62
  256
370
   -1
100
AcDbLine
 10
660
 20
669
 11
672
 21
669
  0
LINE
  5
1D8
100
AcDbEntity
  8
parts
  6
ByLayer
 62
  256
370
   -1
100
AcDbLine
 10
660
 20
629
 11
672
 21
629
  0
ARC
  5
1D9
100
AcDbEntity
  8
parts
  6
ByLayer
 62
  256
370
   -1
100
AcDbCircle
 10
672
 20
667
 40
2
100
AcDbArc
 50
270
 51
89.99996136300001
  0
LINE
  5
1DA
100
AcDbEntity
  8
parts
  6
ByLayer
 62
  256
370
   -1
100
AcDbLine
 10
672
 20
665
 11
672
 21
633
  0
ARC
  5
1DB
100
AcDbEntity
  8
parts
  6
ByLayer
 62
  256
370
   -1
100
AcDbCircle
 10
672
 20
631
 40
2
100
AcDbArc
 50
270.0000136603786
 51
90
  0
LINE
  5
1DC
100
AcDbEntity
  8
parts
  6
ByLayer
 62
  256
370
   -1
100
AcDbLine
 10
660
 20
700
 11
660
 21
669
  0
LINE
  5
1DD
100
AcDbEntity
  8
parts
  6
ByLayer
 62
  256
370
   -1
100
AcDbLine
 10
660
 20
629
 11
660
 21
598
  0
LINE
  5
1DE
100
AcDbEntity
  8
parts
  6
ByLayer
 62
  256
370
   -1
100
AcDbLine
 10
742
 20
669
 11
730
 21
669
  0
LINE
  5
1DF
100
AcDbEntity
  8
parts
  6
ByLayer
 62
  256
370
   -1
100
AcDbLine
 10
742
 20
629
 11
730
 21
629
  0
ARC
  5
1E0
100
AcDbEntity
  8
parts
  6
ByLayer
 62
  256
370
   -1
100
AcDbCircle
 10
730
 20
667
 40
2
100
AcDbArc
 50
90
 51
270
  0
ARC
  5
1E1
100
AcDbEntity
  8
parts
  6
ByLayer
 62
  256
370
   -1
100
AcDbCircle
 10
730
 20
631
 40
2
100
AcDbArc
 50
90
 51
270.000038637
  0
LINE
  5
1E2
100
AcDbEntity
  8
parts
  6
ByLayer
 62
  256
370
   -1
100
AcDbLine
 10
730
 20
665
 11
730
 21
633
  0
ARC
  5
1E3
100
AcDbEntity
  8
parts
  6
ByLayer
 62
  256
370
   -1
100
AcDbCircle
 10
742
 20
667
 40
2
100
AcDbArc
 50
270
 51
90
  0
ARC
  5
1E4
100
AcDbEntity
  8
parts
  6
ByLayer
 62
  256
370
   -1
100
AcDbCircle
 10
742
 20
631
 40
2
100
AcDbArc
 50
269.999961363
 51
90
  0
LINE
  5
1E5
100
AcDbEntity
  8
parts
  6
ByLayer
 62
  256
370
   -1
100
AcDbLine
 10
742
 20
665
 11
742
 21
633
  0
CIRCLE
  5
1E6
100
AcDbEntity
  8
parts
  6
ByLayer
 62
  256
370
   -1
100
AcDbCircle
 10
736
 20
684
 40
2
  0
CIRCLE
  5
1E7
100
AcDbEntity
  8
parts
  6
ByLayer
 62
  256
370
   -1
100
AcDbCircle
 10
736
 20
614
 40
2
  0
CIRCLE
  5
1E8
100
AcDbEntity
  8
parts
  6
ByLayer
 62
  256
370
   -1
100
AcDbCircle
 10
666
 20
614
 40
2
  0
CIRCLE
  5
1E9
100
AcDbEntity
  8
parts
  6
ByLayer
 62
  256
370
   -1
100
AcDbCircle
 10
666
 20
684
 40
2
  0
CIRCLE
  5
1EA
100
AcDbEntity
  8
parts
  6
ByLayer
 62
  256
370
   -1
100
AcDbCircle
 10
762
 20
619
 40
4.2
  0
CIRCLE
  5
1EB
100
AcDbEntity
  8
parts
  6
ByLayer
 62
  256
370
   -1
100
AcDbCircle
 10
762
 20
679
 40
4.2
  0
CIRCLE
  5
1EC
100
AcDbEntity
  8
parts
  6
ByLayer
 62
  256
370
   -1
100
AcDbCircle
 10
761
 20
649
 40
13
  0
CIRCLE
  5
1ED
100
AcDbEntity
  8
parts
  6
ByLayer
 62
  256
370
   -1
100
AcDbCircle
 10
761
 20
667
 40
2
  0
CIRCLE
  5
1EE
100
AcDbEntity
  8
parts
  6
ByLayer
 62
  256
370
   -1
100
AcDbCircle
 10
761
 20
631
 40
2
  0
CIRCLE
  5
1EF
100
AcDbEntity
  8
parts
  6
ByLayer
 62
  256
370
   -1
100
AcDbCircle
 10
724
 20
616
 40
2.5
  0
CIRCLE
  5
1F0
100
AcDbEntity
  8
parts
  6
ByLayer
 62
  256
370
   -1
100
AcDbCircle
 10
724
 20
642
 40
2.5
  0
CIRCLE
  5
1F1
100
AcDbEntity
  8
parts
  6
ByLayer
 62
  256
370
   -1
100
AcDbCircle
 10
696
 20
642
 40
2.5
  0
CIRCLE
  5
1F2
100
AcDbEntity
  8
parts
  6
ByLayer
 62
  256
370
   -1
100
AcDbCircle
 10
696
 20
616
 40
2.5
  0
CIRCLE
  5
1F3
100
AcDbEntity
  8
parts
  6
ByLayer
 62
  256
370
   -1
100
AcDbCircle
 10
696
 20
656
 40
2.5
  0
CIRCLE
  5
1F4
100
AcDbEntity
  8
parts
  6
ByLayer
 62
  256
370
   -1
100
AcDbCircle
 10
696
 20
682
 40
2.5
  0
CIRCLE
  5
1F5
100
AcDbEntity
  8
parts
  6
ByLayer
 62
  256
370
   -1
100
AcDbCircle
 10
724
 20
682
 40
2.5
  0
CIRCLE
  5
1F6
100
AcDbEntity
  8
parts
  6
ByLayer
 62
  256
370
   -1
100
AcDbCircle
 10
724
 20
656
 40
2.5
  0
LINE
  5
1F7
100
AcDbEntity
  8
parts
  6
ByLayer
 62
  256
370
   -1
100
AcDbLine
 10
780
 20
680
 11
780
 21
618
  0
LINE
  5
1F8
100
AcDbEntity
  8
parts
  6
ByLayer
 62
  256
370
   -1
100
AcDbLine
 10
780
 20
680
 11
780
 21
680
  0
LINE
  5
1F9
100
AcDbEntity
  8
parts
  6
ByLayer
 62
  256
370
   -1
100
AcDbLine
 10
760
 20
700
 11
660
 21
700
  0
ARC
  5
1FA
100
AcDbEntity
  8
parts
  6
ByLayer
 62
  256
370
   -1
100
AcDbCircle
 10
760
 20
680
 40
20
100
AcDbArc
 50
0
 51
90
  0
LINE
  5
1FB
100
AcDbEntity
  8
parts
  6
ByLayer
 62
  256
370
   -1
100
AcDbLine
 10
780
 20
618
 11
780
 21
618
  0
LINE
  5
1FC
100
AcDbEntity
  8
parts
  6
ByLayer
 62
  256
370
   -1
100
AcDbLine
 10
760
 20
598
 11
660
 21
598
  0
ARC
  5
1FD
100
AcDbEntity
  8
parts
  6
ByLayer
 62
  256
370
   -1
100
AcDbCircle
 10
760
 20
618
 40
20
100
AcDbArc
 50
270
 51
0
  0
CIRCLE
  5
1FE
100
AcDbEntity
  8
parts
  6
ByLayer
 62
  256
370
   -1
100
AcDbCircle
 10
748.5
 20
785.5
 40
2
  0
CIRCLE
  5
1FF
100
AcDbEntity
  8
parts
  6
ByLayer
 62
  256
370
   -1
100
AcDbCircle
 10
779.5
 20
785.5
 40
2
  0
CIRCLE
  5
200
100
AcDbEntity
  8
parts
  6
ByLayer
 62
  256
370
   -1
100
AcDbCircle
 10
779.5
 20
754.5
 40
2
  0
CIRCLE
  5
201
100
AcDbEntity
  8
parts
  6
ByLayer
 62
  256
370
   -1
100
AcDbCircle
 10
748.5
 20
754.5
 40
2
  0
CIRCLE
  5
202
100
AcDbEntity
  8
parts
  6
ByLayer
 62
  256
370
   -1
100
AcDbCircle
 10
764
 20
770
 40
13
  0
LINE
  5
203
100
AcDbEntity
  8
parts
  6
ByLayer
 62
  256
370
   -1
100
AcDbLine
 10
783
 20
821
 11
783
 21
719
  0
LINE
  5
204
100
AcDbEntity
  8
parts
  6
ByLayer
 62
  256
370
   -1
100
AcDbLine
 10
745
 20
821
 11
745
 21
719
  0
LINE
  5
205
100
AcDbEntity
  8
parts
  6
ByLayer
 62
  256
370
   -1
100
AcDbLine
 10
771.5
 20
731
 11
771.5
 21
719
  0
LINE
  5
206
100
AcDbEntity
  8
parts
  6
ByLayer
 62
  256
370
   -1
100
AcDbLine
 10
756.5
 20
731
 11
756.5
 21
719
  0
LINE
  5
207
100
AcDbEntity
  8
parts
  6
ByLayer
 62
  256
370
   -1
100
AcDbLine
 10
771.5
 20
809
 11
771.5
 21
821
  0
LINE
  5
208
100
AcDbEntity
  8
parts
  6
ByLayer
 62
  256
370
   -1
100
AcDbLine
 10
756.5
 20
809
 11
756.5
 21
821
  0
LINE
  5
209
100
AcDbEntity
  8
parts
  6
ByLayer
 62
  256
370
   -1
100
AcDbLine
 10
764
 20
809
 11
767.5
 21
809
  0
LINE
  5
20A
100
AcDbEntity
  8
parts
  6
ByLayer
 62
  256
370
   -1
100
AcDbLine
 10
764
 20
809
 11
760.5
 21
809
  0
ARC
  5
20B
100
AcDbEntity
  8
parts
  6
ByLayer
 62
  256
370
   -1
100
AcDbCircle
 10
758.5
 20
809
 40
2
100
AcDbArc
 50
179.9999840730591
 51
360
  0
ARC
  5
20C
100
AcDbEntity
  8
parts
  6
ByLayer
 62
  256
370
   -1
100
AcDbCircle
 10
769.5
 20
809
 40
2
100
AcDbArc
 50
180
 51
2.290915085424294e-05
  0
LINE
  5
20D
100
AcDbEntity
  8
parts
  6
ByLayer
 62
  256
370
   -1
100
AcDbLine
 10
764
 20
731
 11
767.5
 21
731
  0
LINE
  5
20E
100
AcDbEntity
  8
parts
  6
ByLayer
 62
  256
370
   -1
100
AcDbLine
 10
764
 20
731
 11
760.5
 21
731
  0
ARC
  5
20F
100
AcDbEntity
  8
parts
  6
ByLayer
 62
  256
370
   -1
100
AcDbCircle
 10
758.5
 20
731
 40
2
100
AcDbArc
 50
0
 51
180
  0
ARC
  5
210
100
AcDbEntity
  8
parts
  6
ByLayer
 62
  256
370
   -1
100
AcDbCircle
 10
769.5
 20
731
 40
2
100
AcDbArc
 50
359.9999726792431
 51
180
  0
LINE
  5
211
100
AcDbEntity
  8
parts
  6
ByLayer
 62
  256
370
   -1
100
AcDbLine
 10
783
 20
719
 11
771.5
 21
719
  0
LINE
  5
212
100
AcDbEntity
  8
parts
  6
ByLayer
 62
  256
370
   -1
100
AcDbLine
 10
756.5
 20
719
 11
745
 21
719
  0
LINE
  5
213
100
AcDbEntity
  8
parts
  6
ByLayer
 62
  256
370
   -1
100
AcDbLine
 10
783
 20
821
 11
771.5
 21
821
  0
LINE
  5
214
100
AcDbEntity
  8
parts
  6
ByLayer
 62
  256
370
   -1
100
AcDbLine
 10
756.5
 20
821
 11
745
 21
821
  0
CIRCLE
  5
215
100
AcDbEntity
  8
parts
  6
ByLayer
 62
  256
370
   -1
100
AcDbCircle
 10
777.25
 20
815
 40
2
  0
CIRCLE
  5
216
100
AcDbEntity
  8
parts
  6
ByLayer
 62
  256
370
   -1
100
AcDbCircle
 10
750.75
 20
815
 40
2
  0
CIRCLE
  5
217
100
AcDbEntity
  8
parts
  6
ByLayer
 62
  256
370
   -1
100
AcDbCircle
 10
777.25
 20
725
 40
2
  0
CIRCLE
  5
218
100
AcDbEntity
  8
parts
  6
ByLayer
 62
  256
370
   -1
100
AcDbCircle
 10
750.75
 20
725
 40
2
  0
LINE
  5
219
100
AcDbEntity
  8
parts
  6
ByLayer
 62
  256
370
   -1
100
AcDbLine
 10
646
 20
610
 11
646
 21
810
  0
LINE
  5
21A
100
AcDbEntity
  8
parts
  6
ByLayer
 62
  256
370
   -1
100
AcDbLine
 10
646
 20
410
 11
634
 21
410
  0
LINE
  5
21B
100
AcDbEntity
  8
parts
  6
ByLayer
 62
  256
370
   -1
100
AcDbLine
 10
610
 20
822
 11
630
 21
822
  0
LINE
  5
21C
100
AcDbEntity
  8
parts
  6
ByLayer
 62
  256
370
   -1
100
AcDbLine
 10
630
 20
822
 11
630
 21
809.9999973029999
  0
LINE
  5
21D
100
AcDbEntity
  8
parts
  6
ByLayer
 62
  256
370
   -1
100
AcDbLine
 10
634
 20
810
 11
646
 21
810
  0
ARC
  5
21E
100
AcDbEntity
  8
parts
  6
ByLayer
 62
  256
370
   -1
100
AcDbCircle
 10
632
 20
410
 40
2
100
AcDbArc
 50
0
 51
180.0001092829999
  0
ARC
  5
21F
100
AcDbEntity
  8
parts
  6
ByLayer
 62
  256
370
   -1
100
AcDbCircle
 10
632
 20
810
 40
2
100
AcDbArc
 50
180.0000772750001
 51
360
  0
CIRCLE
  5
220
100
AcDbEntity
  8
parts
  6
ByLayer
 62
  256
370
   -1
100
AcDbCircle
 10
620
 20
560
 40
2
  0
CIRCLE
  5
221
100
AcDbEntity
  8
parts
  6
ByLayer
 62
  256
370
   -1
100
AcDbCircle
 10
620
 20
460
 40
2
  0
CIRCLE
  5
222
100
AcDbEntity
  8
parts
  6
ByLayer
 62
  256
370
   -1
100
AcDbCircle
 10
620
 20
660
 40
2
  0
CIRCLE
  5
223
100
AcDbEntity
  8
parts
  6
ByLayer
 62
  256
370
   -1
100
AcDbCircle
 10
620
 20
760
 40
2
  0
CIRCLE
  5
224
100
AcDbEntity
  8
parts
  6
ByLayer
 62
  256
370
   -1
100
AcDbCircle
 10
642
 20
760
 40
2
  0
CIRCLE
  5
225
100
AcDbEntity
  8
parts
  6
ByLayer
 62
  256
370
   -1
100
AcDbCircle
 10
642
 20
660
 40
2
  0
CIRCLE
  5
226
100
AcDbEntity
  8
parts
  6
ByLayer
 62
  256
370
   -1
100
AcDbCircle
 10
642
 20
560
 40
2
  0
CIRCLE
  5
227
100
AcDbEntity
  8
parts
  6
ByLayer
 62
  256
370
   -1
100
AcDbCircle
 10
642
 20
460
 40
2
  0
LINE
  5
228
100
AcDbEntity
  8
parts
  6
ByLayer
 62
  256
370
   -1
100
AcDbLine
 10
610
 20
410
 11
606
 21
410
  0
ARC
  5
229
100
AcDbEntity
  8
parts
  6
ByLayer
 62
  256
370
   -1
100
AcDbCircle
 10
610
 20
408
 40
2
100
AcDbArc
 50
270
 51
90.000077275
  0
LINE
  5
22A
100
AcDbEntity
  8
parts
  6
ByLayer
 62
  256
370
   -1
100
AcDbLine
 10
610
 20
822
 11
610
 21
814
  0
LINE
  5
22B
100
AcDbEntity
  8
parts
  6
ByLayer
 62
  256
370
   -1
100
AcDbLine
 10
610
 20
810
 11
606
 21
810
  0
ARC
  5
22C
100
AcDbEntity
  8
parts
  6
ByLayer
 62
  256
370
   -1
100
AcDbCircle
 10
610
 20
812
 40
2
100
AcDbArc
 50
269.999922725
 51
90
  0
LINE
  5
22D
100
AcDbEntity
  8
parts
  6
ByLayer
 62
  256
370
   -1
100
AcDbLine
 10
606
 20
510
 11
594
 21
510
  0
LINE
  5
22E
100
AcDbEntity
  8
parts
  6
ByLayer
 62
  256
370
   -1
100
AcDbLine
 10
606
 20
710
 11
594
 21
710
  0
ARC
  5
22F
100
AcDbEntity
  8
parts
  6
ByLayer
 62
  256
370
   -1
100
AcDbCircle
 10
606
 20
712
 40
2
100
AcDbArc
 50
269.999961363
 51
90
  0
ARC
  5
230
100
AcDbEntity
  8
parts
  6
ByLayer
 62
  256
370
   -1
100
AcDbCircle
 10
606
 20
508
 40
2
100
AcDbArc
 50
270.0000642450362
 51
89.99993307799998
  0
LINE
  5
231
100
AcDbEntity
  8
parts
  6
ByLayer
 62
  256
370
   -1
100
AcDbLine
 10
606
 20
714
 11
606
 21
810
  0
LINE
  5
232
100
AcDbEntity
  8
parts
  6
ByLayer
 62
  256
370
   -1
100
AcDbLine
 10
594
 20
710
 11
594
 21
510
  0
CIRCLE
  5
233
100
AcDbEntity
  8
parts
  6
ByLayer
 62
  256
370
   -1
100
AcDbCircle
 10
600
 20
660
 40
2
  0
CIRCLE
  5
234
100
AcDbEntity
  8
parts
  6
ByLayer
 62
  256
370
   -1
100
AcDbCircle
 10
600
 20
560
 40
2
  0
CIRCLE
  5
235
100
AcDbEntity
  8
parts
  6
ByLayer
 62
  256
370
   -1
100
AcDbCircle
 10
620
 20
404
 40
2
  0
CIRCLE
  5
236
100
AcDbEntity
  8
parts
  6
ByLayer
 62
  256
370
   -1
100
AcDbCircle
 10
620
 20
816
 40
2
  0
LINE
  5
237
100
AcDbEntity
  8
parts
  6
ByLayer
 62
  256
370
   -1
100
AcDbLine
 10
610
 20
398
 11
630
 21
398
  0
LINE
  5
238
100
AcDbEntity
  8
parts
  6
ByLayer
 62
  256
370
   -1
100
AcDbLine
 10
606.000002242575
 20
506.0000000000013
 11
606
 21
410
  0
LINE
  5
239
100
AcDbEntity
  8
parts
  6
ByLayer
 62
  256
370
   -1
100
AcDbLine
 10
610
 20
406
 11
610
 21
398
  0
LINE
  5
23A
100
AcDbEntity
  8
parts
  6
ByLayer
 62
  256
370
   -1
100
AcDbLine
 10
630
 20
398
 11
630.0000000000041
 21
409.9999961853036
  0
LINE
  5
23B
100
AcDbEntity
  8
parts
  6
ByLayer
 62
  256
370
   -1
100
AcDbLine
 10
646
 20
410
 11
646
 21
610
  0
LINE
  5
23C
100
AcDbEntity
  8
parts
  6
ByLayer
 62
  256
370
   -1
100
AcDbLine
 10
672.5
 20
304
 11
647.5
 21
304
  0
LINE
  5
23D
100
AcDbEntity
  8
parts
  6
ByLayer
 62
  256
370
   -1
100
AcDbLine
 10
672.5
 20
316
 11
647.5
 21
316
  0
LINE
  5
23E
100
AcDbEntity
  8
parts
  6
ByLayer
 62
  256
370
   -1
100
AcDbLine
 10
590
 20
344
 11
590
 21
260
  0
LINE
  5
23F
100
AcDbEntity
  8
parts
  6
ByLayer
 62
  256
370
   -1
100
AcDbLine
 10
610
 20
316
 11
635
 21
316
  0
LINE
  5
240
100
AcDbEntity
  8
parts
  6
ByLayer
 62
  256
370
   -1
100
AcDbLine
 10
635
 20
328
 11
610
 21
328
  0
LINE
  5
241
100
AcDbEntity
  8
parts
  6
ByLayer
 62
  256
370
   -1
100
AcDbLine
 10
710
 20
328
 11
685
 21
328
  0
LINE
  5
242
100
AcDbEntity
  8
parts
  6
ByLayer
 62
  256
370
   -1
100
AcDbLine
 10
685
 20
316
 11
710
 21
316
  0
CIRCLE
  5
243
100
AcDbEntity
  8
parts
  6
ByLayer
 62
  256
370
   -1
100
AcDbCircle
 10
661
 20
322
 40
2
  0
CIRCLE
  5
244
100
AcDbEntity
  8
parts
  6
ByLayer
 62
  256
370
   -1
100
AcDbCircle
 10
710
 20
310
 40
2
  0
CIRCLE
  5
245
100
AcDbEntity
  8
parts
  6
ByLayer
 62
  256
370
   -1
100
AcDbCircle
 10
610
 20
310
 40
2
  0
LINE
  5
246
100
AcDbEntity
  8
parts
  6
ByLayer
 62
  256
370
   -1
100
AcDbLine
 10
730
 20
344
 11
730
 21
356
  0
LINE
  5
247
100
AcDbEntity
  8
parts
  6
ByLayer
 62
  256
370
   -1
100
AcDbLine
 10
590
 20
344
 11
590
 21
356
  0
LINE
  5
248
100
AcDbEntity
  8
parts
  6
ByLayer
 62
  256
370
   -1
100
AcDbLine
 10
730
 20
356
 11
590
 21
356
  0
LINE
  5
249
100
AcDbEntity
  8
parts
  6
ByLayer
 62
  256
370
   -1
100
AcDbLine
 10
672.5
 20
310
 11
672.5
 21
308
  0
LINE
  5
24A
100
AcDbEntity
  8
parts
  6
ByLayer
 62
  256
370
   -1
100
AcDbLine
 10
672.5
 20
310
 11
672.5
 21
312
  0
ARC
  5
24B
100
AcDbEntity
  8
parts
  6
ByLayer
 62
  256
370
   -1
100
AcDbCircle
 10
672.5
 20
314
 40
2
100
AcDbArc
 50
270
 51
89.999990341
  0
ARC
  5
24C
100
AcDbEntity
  8
parts
  6
ByLayer
 62
  256
370
   -1
100
AcDbCircle
 10
672.5
 20
306
 40
2
100
AcDbArc
 50
269.9999975852
 51
90
  0
ARC
  5
24D
100
AcDbEntity
  8
parts
  6
ByLayer
 62
  256
370
   -1
100
AcDbCircle
 10
647.5
 20
306
 40
2
100
AcDbArc
 50
90
 51
269.999990341
  0
LINE
  5
24E
100
AcDbEntity
  8
parts
  6
ByLayer
 62
  256
370
   -1
100
AcDbLine
 10
647.5
 20
310
 11
647.5
 21
308
  0
LINE
  5
24F
100
AcDbEntity
  8
parts
  6
ByLayer
 62
  256
370
   -1
100
AcDbLine
 10
647.5
 20
310
 11
647.5
 21
312
  0
ARC
  5
250
100
AcDbEntity
  8
parts
  6
ByLayer
 62
  256
370
   -1
100
AcDbCircle
 10
647.5
 20
314
 40
2
100
AcDbArc
 50
90.000002415
 51
270
  0
ARC
  5
251
100
AcDbEntity
  8
parts
  6
ByLayer
 62
  256
370
   -1
100
AcDbCircle
 10
710
 20
318
 40
2
100
AcDbArc
 50
269.9999806813
 51
90
  0
ARC
  5
252
100
AcDbEntity
  8
parts
  6
ByLayer
 62
  256
370
   -1
100
AcDbCircle
 10
710
 20
326
 40
2
100
AcDbArc
 50
270
 51
90
  0
LINE
  5
253
100
AcDbEntity
  8
parts
  6
ByLayer
 62
  256
370
   -1
100
AcDbLine
 10
710
 20
320
 11
710
 21
324
  0
LINE
  5
254
100
AcDbEntity
  8
parts
  6
ByLayer
 62
  256
370
   -1
100
AcDbLine
 10
685
 20
324
 11
685
 21
320
  0
ARC
  5
255
100
AcDbEntity
  8
parts
  6
ByLayer
 62
  256
370
   -1
100
AcDbCircle
 10
685
 20
326
 40
2
100
AcDbArc
 50
90.00002366000002
 51
270
  0
ARC
  5
256
100
AcDbEntity
  8
parts
  6
ByLayer
 62
  256
370
   -1
100
AcDbCircle
 10
685
 20
318
 40
2
100
AcDbArc
 50
90
 51
269.9999863396
  0
ARC
  5
257
100
AcDbEntity
  8
parts
  6
ByLayer
 62
  256
370
   -1
100
AcDbCircle
 10
635
 20
318
 40
2
100
AcDbArc
 50
270.0000118302
 51
90.00001183000001
  0
ARC
  5
258
100
AcDbEntity
  8
parts
  6
ByLayer
 62
  256
370
   -1
100
AcDbCircle
 10
635
 20
326
 40
2
100
AcDbArc
 50
270
 51
89.99999516999999
  0
LINE
  5
259
100
AcDbEntity
  8
parts
  6
ByLayer
 62
  256
370
   -1
100
AcDbLine
 10
610
 20
324
 11
610
 21
320
  0
ARC
  5
25A
100
AcDbEntity
  8
parts
  6
ByLayer
 62
  256
370
   -1
100
AcDbCircle
 10
610
 20
318
 40
2
100
AcDbArc
 50
90
 51
269.9999863396
  0
ARC
  5
25B
100
AcDbEntity
  8
parts
  6
ByLayer
 62
  256
370
   -1
100
AcDbCircle
 10
610
 20
326
 40
2
100
AcDbArc
 50
90.00002366000002
 51
270
  0
LINE
  5
25C
100
AcDbEntity
  8
parts
  6
ByLayer
 62
  256
370
   -1
100
AcDbLine
 10
635
 20
320
 11
635
 21
324
  0
LINE
  5
25D
100
AcDbEntity
  8
parts
  6
ByLayer
 62
  256
370
   -1
100
AcDbLine
 10
797
 20
110
 11
809
 21
110
  0
LINE
  5
25E
100
AcDbEntity
  8
parts
  6
ByLayer
 62
  256
370
   -1
100
AcDbLine
 10
797
 20
130
 11
809
 21
130
  0
LINE
  5
25F
100
AcDbEntity
  8
parts
  6
ByLayer
 62
  256
370
   -1
100
AcDbLine
 10
809
 20
78
 11
809
 21
110
  0
LINE
  5
260
100
AcDbEntity
  8
parts
  6
ByLayer
 62
  256
370
   -1
100
AcDbLine
 10
809
 20
162
 11
809
 21
130
  0
LINE
  5
261
100
AcDbEntity
  8
parts
  6
ByLayer
 62
  256
370
   -1
100
AcDbLine
 10
797
 20
114
 11
797
 21
126
  0
ARC
  5
262
100
AcDbEntity
  8
parts
  6
ByLayer
 62
  256
370
   -1
100
AcDbCircle
 10
797
 20
112
 40
2
100
AcDbArc
 50
90
 51
270.000122182
  0
ARC
  5
263
100
AcDbEntity
  8
parts
  6
ByLayer
 62
  256
370
   -1
100
AcDbCircle
 10
797
 20
128
 40
2
100
AcDbArc
 50
89.99997267900002
 51
270
  0
LINE
  5
264
100
AcDbEntity
  8
parts
  6
ByLayer
 62
  256
370
   -1
100
AcDbLine
 10
747
 20
78
 11
773
 21
78
  0
LINE
  5
265
100
AcDbEntity
  8
parts
  6
ByLayer
 62
  256
370
   -1
100
AcDbLine
 10
773
 20
78
 11
773
 21
90
  0
LINE
  5
266
100
AcDbEntity
  8
parts
  6
ByLayer
 62
  256
370
   -1
100
AcDbLine
 10
793
 20
90
 11
793
 21
78
  0
LINE
  5
267
100
AcDbEntity
  8
parts
  6
ByLayer
 62
  256
370
   -1
100
AcDbLine
 10
809
 20
78
 11
793
 21
78
  0
LINE
  5
268
100
AcDbEntity
  8
parts
  6
ByLayer
 62
  256
370
   -1
100
AcDbLine
 10
789
 20
90
 11
777
 21
90
  0
ARC
  5
269
100
AcDbEntity
  8
parts
  6
ByLayer
 62
  256
370
   -1
100
AcDbCircle
 10
775
 20
90
 40
2
100
AcDbArc
 50
0
 51
180.000115912
  0
ARC
  5
26A
100
AcDbEntity
  8
parts
  6
ByLayer
 62
  256
370
   -1
100
AcDbCircle
 10
791
 20
90
 40
2
100
AcDbArc
 50
3.863699998796721e-05
 51
180
  0
LINE
  5
26B
100
AcDbEntity
  8
parts
  6
ByLayer
 62
  256
370
   -1
100
AcDbLine
 10
793
 20
150
 11
793
 21
162
  0
LINE
  5
26C
100
AcDbEntity
  8
parts
  6
ByLayer
 62
  256
370
   -1
100
AcDbLine
 10
789
 20
150
 11
777
 21
150
  0
ARC
  5
26D
100
AcDbEntity
  8
parts
  6
ByLayer
 62
  256
370
   -1
100
AcDbCircle
 10
791
 20
150
 40
2
100
AcDbArc
 50
180
 51
359.999961363
  0
LINE
  5
26E
100
AcDbEntity
  8
parts
  6
ByLayer
 62
  256
370
   -1
100
AcDbLine
 10
789
 20
162
 11
777
 21
162
  0
ARC
  5
26F
100
AcDbEntity
  8
parts
  6
ByLayer
 62
  256
370
   -1
100
AcDbCircle
 10
791
 20
162
 40
2
100
AcDbArc
 50
3.863699998796721e-05
 51
180
  0
CIRCLE
  5
270
100
AcDbEntity
  8
parts
  6
ByLayer
 62
  256
370
   -1
100
AcDbCircle
 10
803
 20
100
 40
2
  0
CIRCLE
  5
271
100
AcDbEntity
  8
parts
  6
ByLayer
 62
  256
370
   -1
100
AcDbCircle
 10
803
 20
140
 40
2
  0
LINE
  5
272
100
AcDbEntity
  8
parts
  6
ByLayer
 62
  256
370
   -1
100
AcDbLine
 10
809
 20
162
 11
734.4292350221999
 21
254.5055059218
  0
LINE
  5
273
100
AcDbEntity
  8
parts
  6
ByLayer
 62
  256
370
   -1
100
AcDbLine
 10
730
 20
267.0574491182001
 11
730
 21
344
  0
ARC
  5
274
100
AcDbEntity
  8
parts
  6
ByLayer
 62
  256
370
   -1
100
AcDbCircle
 10
750
 20
267.0574491182001
 40
20
100
AcDbArc
 50
180
 51
218.8730669945
  0
CIRCLE
  5
275
100
AcDbEntity
  8
parts
  6
ByLayer
 62
  256
370
   -1
100
AcDbCircle
 10
772
 20
120
 40
13.5
  0
LINE
  5
276
100
AcDbEntity
  8
parts
  6
ByLayer
 62
  256
370
   -1
100
AcDbLine
 10
747
 20
78
 11
743
 21
78
  0
LINE
  5
277
100
AcDbEntity
  8
parts
  6
ByLayer
 62
  256
370
   -1
100
AcDbLine
 10
743
 20
78
 11
590
 21
260
  0
LINE
  5
278
100
AcDbEntity
  8
parts
  6
ByLayer
 62
  256
370
   -1
100
AcDbLine
 10
776.999999999998
 20
150
 11
756.999999999998
 21
150
  0
LINE
  5
279
100
AcDbEntity
  8
parts
  6
ByLayer
 62
  256
370
   -1
100
AcDbLine
 10
777
 20
162
 11
757
 21
162
  0
LINE
  5
27A
100
AcDbEntity
  8
parts
  6
ByLayer
 62
  256
370
   -1
100
AcDbLine
 10
752.999999999998
 20
162
 11
752.999999999998
 21
150
  0
ARC
  5
27B
100
AcDbEntity
  8
parts
  6
ByLayer
 62
  256
370
   -1
100
AcDbCircle
 10
754.999999999998
 20
150
 40
2
100
AcDbArc
 50
179.999884088
 51
0
  0
ARC
  5
27C
100
AcDbEntity
  8
parts
  6
ByLayer
 62
  256
370
   -1
100
AcDbCircle
 10
754.999999999998
 20
162
 40
2
100
AcDbArc
 50
0
 51
180.0001159121528
  0
ENDSEC
  0
SECTION
  2
OBJECTS
  0
DICTIONARY
  5
C
330
0
100
AcDbDictionary
281
    1
  3
ACAD_GROUP
350
D
  0
DICTIONARY
  5
D
330
C
100
AcDbDictionary
281
    1
  0
ENDSEC
  0
EOF
