999
dxfrw 0.5.10
0
SECTION
2
HEADER
9
$ACADVER
1
AC1021
9
$HANDSEED
5
20000
9
$DWGCODEPAGE
3
ANSI_1252
9
$INSBASE
10
0
20
0
30
0
9
$EXTMIN
10
-362
20
-362
30
0
9
$EXTMAX
10
372
20
362
30
0
9
$LIMMIN
10
0
20
0
9
$LIMMAX
10
420
20
297
9
$ORTHOMODE
70
0
9
$LTSCALE
40
1
9
$TEXTSTYLE
7
STANDARD
9
$CLAYER
8
base_front
9
$DIMASZ
40
2.5
9
$DIMLFAC
40
1
9
$DIMSCALE
40
2.5
9
$DIMEXO
40
0.625
9
$DIMEXE
40
1.25
9
$DIMTXT
40
2.5
9
$DIMTSZ
40
0
9
$DIMAUNIT
70
0
9
$DIMADEC
70
0
9
$DIMLUNIT
70
2
9
$DIMSTYLE
2
STANDARD
9
$DIMGAP
40
0.625
9
$DIMTIH
70
0
9
$LUNITS
70
2
9
$LUPREC
70
4
9
$AUNITS
70
0
9
$AUPREC
70
2
9
$SPLINESEGS
70
8
9
$GRIDMODE
70
1
9
$SNAPSTYLE
70
0
9
$PINSBASE
10
0
20
0
30
0
9
$PLIMMIN
10
0
20
0
9
$PLIMMAX
10
210
20
297
9
$INSUNITS
70
4
9
$PSVPSCALE
40
1
0
ENDSEC
0
SECTION
2
CLASSES
0
ENDSEC
0
SECTION
2
TABLES
0
TABLE
2
VPORT
5
8
330
0
100
AcDbSymbolTable
70
1
0
VPORT
5
31
330
2
100
AcDbSymbolTableRecord
100
AcDbViewportTableRecord
2
*ACTIVE
70
0
10
0
20
0
11
1
21
1
12
121.603798808
22
119.259629193
13
0
23
0
14
10
24
10
15
10
25
10
16
0
26
0
36
1
17
0
27
0
37
0
40
301.811838007
41
1.96116504854
42
50
43
0
44
0
50
0
51
0
71
0
72
100
73
1
74
3
75
0
76
1
77
0
78
0
281
0
65
1
110
0
120
0
130
0
111
1
121
0
131
0
112
0
122
1
132
0
79
0
146
0
348
10020
60
7
61
5
292
1
282
1
141
0
142
0
63
250
421
3358443
0
ENDTAB
0
TABLE
2
LTYPE
5
5
330
0
100
AcDbSymbolTable
70
4
0
LTYPE
5
14
330
5
100
AcDbSymbolTableRecord
100
AcDbLinetypeTableRecord
2
ByBlock
70
0
3

72
65
73
0
40
0
0
LTYPE
5
15
330
5
100
AcDbSymbolTableRecord
100
AcDbLinetypeTableRecord
2
ByLayer
70
0
3

72
65
73
0
40
0
0
LTYPE
5
16
330
5
100
AcDbSymbolTableRecord
100
AcDbLinetypeTableRecord
2
Continuous
70
0
3
Solid line
72
65
73
0
40
0
0
LTYPE
5
32
330
5
100
AcDbSymbolTableRecord
100
AcDbLinetypeTableRecord
2
DOT
70
0
3
Dot . . . . . . . . . . . . . . . . . . . . . .
72
65
73
2
40
6.35
49
0
74
0
49
-6.35
74
0
0
LTYPE
5
33
330
5
100
AcDbSymbolTableRecord
100
AcDbLinetypeTableRecord
2
DOT2
70
0
3
Dot (.5x) .....................................
72
65
73
2
40
3.175
49
0
74
0
49
-3.175
74
0
0
LTYPE
5
34
330
5
100
AcDbSymbolTableRecord
100
AcDbLinetypeTableRecord
2
DOTX2
70
0
3
Dot (2x) .  .  .  .  .  .  .  .  .  .  .  .  .
72
65
73
2
40
12.7
49
0
74
0
49
-12.7
74
0
0
LTYPE
5
35
330
5
100
AcDbSymbolTableRecord
100
AcDbLinetypeTableRecord
2
DASHED
70
0
3
Dot . . . . . . . . . . . . . . . . . . . . . .
72
65
73
2
40
19.05
49
12.7
74
0
49
-6.35
74
0
0
LTYPE
5
36
330
5
100
AcDbSymbolTableRecord
100
AcDbLinetypeTableRecord
2
DASHED2
70
0
3
Dashed (.5x) _ _ _ _ _ _ _ _ _ _ _ _ _ _ _ _ _
72
65
73
2
40
9.525
49
6.35
74
0
49
-3.175
74
0
0
LTYPE
5
37
330
5
100
AcDbSymbolTableRecord
100
AcDbLinetypeTableRecord
2
DASHEDX2
70
0
3
Dashed (2x) ____  ____  ____  ____  ____  ___
72
65
73
2
40
38.1
49
25.4
74
0
49
-12.7
74
0
0
LTYPE
5
38
330
5
100
AcDbSymbolTableRecord
100
AcDbLinetypeTableRecord
2
DASHDOT
70
0
3
Dash dot __ . __ . __ . __ . __ . __ . __ . __
72
65
73
4
40
25.4
49
12.7
74
0
49
-6.35
74
0
49
0
74
0
49
-6.35
74
0
0
LTYPE
5
39
330
5
100
AcDbSymbolTableRecord
100
AcDbLinetypeTableRecord
2
DASHDOT2
70
0
3
Dash dot (.5x) _._._._._._._._._._._._._._._.
72
65
73
4
40
12.7
49
6.35
74
0
49
-3.175
74
0
49
0
74
0
49
-3.175
74
0
0
LTYPE
5
3A
330
5
100
AcDbSymbolTableRecord
100
AcDbLinetypeTableRecord
2
DASHDOTX2
70
0
3
Dash dot (2x) ____  .  ____  .  ____  .  ___
72
65
73
4
40
50.8
49
25.4
74
0
49
-12.7
74
0
49
0
74
0
49
-12.7
74
0
0
LTYPE
5
3B
330
5
100
AcDbSymbolTableRecord
100
AcDbLinetypeTableRecord
2
DIVIDE
70
0
3
Divide ____ . . ____ . . ____ . . ____ . . ____
72
65
73
6
40
31.75
49
12.7
74
0
49
-6.35
74
0
49
0
74
0
49
-6.35
74
0
49
0
74
0
49
-6.35
74
0
0
LTYPE
5
3C
330
5
100
AcDbSymbolTableRecord
100
AcDbLinetypeTableRecord
2
DIVIDE2
70
0
3
Divide (.5x) __..__..__..__..__..__..__..__.._
72
65
73
6
40
15.875
49
6.35
74
0
49
-3.175
74
0
49
0
74
0
49
-3.175
74
0
49
0
74
0
49
-3.175
74
0
0
LTYPE
5
3D
330
5
100
AcDbSymbolTableRecord
100
AcDbLinetypeTableRecord
2
DIVIDEX2
70
0
3
Divide (2x) ________  .  .  ________  .  .  _
72
65
73
6
40
63.5
49
25.4
74
0
49
-12.7
74
0
49
0
74
0
49
-12.7
74
0
49
0
74
0
49
-12.7
74
0
0
LTYPE
5
3E
330
5
100
AcDbSymbolTableRecord
100
AcDbLinetypeTableRecord
2
BORDER
70
0
3
Border __ __ . __ __ . __ __ . __ __ . __ __ .
72
65
73
6
40
44.45
49
12.7
74
0
49
-6.35
74
0
49
12.7
74
0
49
-6.35
74
0
49
0
74
0
49
-6.35
74
0
0
LTYPE
5
3F
330
5
100
AcDbSymbolTableRecord
100
AcDbLinetypeTableRecord
2
BORDER2
70
0
3
Border (.5x) __.__.__.__.__.__.__.__.__.__.__.
72
65
73
6
40
22.225
49
6.35
74
0
49
-3.175
74
0
49
6.35
74
0
49
-3.175
74
0
49
0
74
0
49
-3.175
74
0
0
LTYPE
5
40
330
5
100
AcDbSymbolTableRecord
100
AcDbLinetypeTableRecord
2
BORDERX2
70
0
3
Border (2x) ____  ____  .  ____  ____  .  ___
72
65
73
6
40
88.9
49
25.4
74
0
49
-12.7
74
0
49
25.4
74
0
49
-12.7
74
0
49
0
74
0
49
-12.7
74
0
0
LTYPE
5
41
330
5
100
AcDbSymbolTableRecord
100
AcDbLinetypeTableRecord
2
CENTER
70
0
3
Center ____ _ ____ _ ____ _ ____ _ ____ _ ____
72
65
73
4
40
50.8
49
31.75
74
0
49
-6.35
74
0
49
6.35
74
0
49
-6.35
74
0
0
LTYPE
5
42
330
5
100
AcDbSymbolTableRecord
100
AcDbLinetypeTableRecord
2
CENTER2
70
0
3
Center (.5x) ___ _ ___ _ ___ _ ___ _ ___ _ ___
72
65
73
4
40
28.575
49
19.05
74
0
49
-3.175
74
0
49
3.175
74
0
49
-3.175
74
0
0
LTYPE
5
43
330
5
100
AcDbSymbolTableRecord
100
AcDbLinetypeTableRecord
2
CENTERX2
70
0
3
Center (2x) ________  __  ________  __  _____
72
65
73
4
40
101.6
49
63.5
74
0
49
-12.7
74
0
49
12.7
74
0
49
-12.7
74
0
0
ENDTAB
0
TABLE
2
LAYER
5
2
330
0
100
AcDbSymbolTable
70
1
0
LAYER
5
10
330
2
100
AcDbSymbolTableRecord
100
AcDbLayerTableRecord
2
0
70
5
62
7
6
CONTINUOUS
370
0
390
F
0
LAYER
5
44
330
2
100
AcDbSymbolTableRecord
100
AcDbLayerTableRecord
2
base
70
5
62
7
6
CONTINUOUS
370
0
390
F
0
LAYER
5
45
330
2
100
AcDbSymbolTableRecord
100
AcDbLayerTableRecord
2
base_front
70
4
62
7
6
CONTINUOUS
370
0
390
F
0
LAYER
5
46
330
2
100
AcDbSymbolTableRecord
100
AcDbLayerTableRecord
2
base_ribs
70
5
62
7
6
CONTINUOUS
370
0
390
F
0
LAYER
5
47
330
2
100
AcDbSymbolTableRecord
100
AcDbLayerTableRecord
2
bed
70
5
62
7
6
CONTINUOUS
370
0
390
F
0
LAYER
5
48
330
2
100
AcDbSymbolTableRecord
100
AcDbLayerTableRecord
2
gantry_back
70
5
62
7
6
CONTINUOUS
370
0
390
F
0
LAYER
5
49
330
2
100
AcDbSymbolTableRecord
100
AcDbLayerTableRecord
2
gantry_base_main
70
5
62
7
6
CONTINUOUS
370
0
390
F
0
LAYER
5
4A
330
2
100
AcDbSymbolTableRecord
100
AcDbLayerTableRecord
2
gantry_base_sides
70
5
62
7
6
CONTINUOUS
370
0
390
F
0
LAYER
5
4B
330
2
100
AcDbSymbolTableRecord
100
AcDbLayerTableRecord
2
gantry_side
70
5
62
7
6
CONTINUOUS
370
0
390
F
0
LAYER
5
4C
330
2
100
AcDbSymbolTableRecord
100
AcDbLayerTableRecord
2
gantry_side_motor
70
5
62
7
6
CONTINUOUS
370
0
390
F
0
LAYER
5
4D
330
2
100
AcDbSymbolTableRecord
100
AcDbLayerTableRecord
2
gantry_top
70
5
62
7
6
CONTINUOUS
370
0
390
F
0
LAYER
5
4E
330
2
100
AcDbSymbolTableRecord
100
AcDbLayerTableRecord
2
head_front
70
5
62
7
6
CONTINUOUS
370
0
390
F
0
LAYER
5
4F
330
2
100
AcDbSymbolTableRecord
100
AcDbLayerTableRecord
2
head_rear
70
5
62
7
6
CONTINUOUS
370
0
390
F
0
LAYER
5
50
330
2
100
AcDbSymbolTableRecord
100
AcDbLayerTableRecord
2
head_top
70
5
62
7
6
CONTINUOUS
370
0
390
F
0
LAYER
5
51
330
2
100
AcDbSymbolTableRecord
100
AcDbLayerTableRecord
2
spindle_plate
70
5
62
7
6
CONTINUOUS
370
0
390
F
0
LAYER
5
52
330
2
100
AcDbSymbolTableRecord
100
AcDbLayerTableRecord
2
base_dragchain_shelf
70
5
62
7
6
CONTINUOUS
370
0
390
F
0
ENDTAB
0
TABLE
2
STYLE
5
3
330
0
100
AcDbSymbolTable
70
3
0
STYLE
5
53
330
2
100
AcDbSymbolTableRecord
100
AcDbTextStyleTableRecord
2
Standard
70
0
40
0
41
1
50
0
71
0
42
1
3
txt
4

0
ENDTAB
0
TABLE
2
VIEW
5
6
330
0
100
AcDbSymbolTable
70
0
0
ENDTAB
0
TABLE
2
UCS
5
7
330
0
100
AcDbSymbolTable
70
0
0
ENDTAB
0
TABLE
2
APPID
5
9
330
0
100
AcDbSymbolTable
70
1
0
APPID
5
12
330
9
100
AcDbSymbolTableRecord
100
AcDbRegAppTableRecord
2
ACAD
70
0
0
ENDTAB
0
TABLE
2
DIMSTYLE
5
A
330
0
100
AcDbSymbolTable
70
1
100
AcDbDimStyleTable
71
1
0
DIMSTYLE
105
54
330
A
100
AcDbSymbolTableRecord
100
AcDbDimStyleTableRecord
2
Standard
70
0
40
1
41
2.5
42
0.625
43
0.38
44
1.25
45
0
46
0
47
0
48
0
140
2.5
141
0.09
142
0
143
25.4
144
1
145
0
146
1
147
0.625
148
0
71
0
72
0
73
0
74
1
75
0
76
0
77
0
78
0
79
0
170
0
171
2
172
0
173
0
174
0
175
0
176
0
177
0
178
0
179
0
271
4
272
4
273
2
274
2
275
0
276
0
277
2
278
46
279
0
280
0
281
0
282
0
283
1
284
0
285
0
286
0
288
0
289
3
340
Standard
341

371
-2
372
-2
0
ENDTAB
0
TABLE
2
BLOCK_RECORD
5
1
330
0
100
AcDbSymbolTable
70
2
0
BLOCK_RECORD
5
1F
330
1
100
AcDbSymbolTableRecord
100
AcDbBlockTableRecord
2
*Model_Space
70
0
280
1
281
0
0
BLOCK_RECORD
5
1E
330
1
100
AcDbSymbolTableRecord
100
AcDbBlockTableRecord
2
*Paper_Space
70
0
280
1
281
0
0
ENDTAB
0
ENDSEC
0
SECTION
2
BLOCKS
0
BLOCK
5
20
330
1F
100
AcDbEntity
8
0
100
AcDbBlockBegin
2
*Model_Space
70
0
10
0
20
0
30
0
3
*Model_Space
1

0
ENDBLK
5
21
330
1F
100
AcDbEntity
8
0
100
AcDbBlockEnd
0
BLOCK
5
1C
330
1B
100
AcDbEntity
8
0
100
AcDbBlockBegin
2
*Paper_Space
70
0
10
0
20
0
30
0
3
*Paper_Space
1

0
ENDBLK
5
1D
330
1F
100
AcDbEntity
8
0
100
AcDbBlockEnd
0
ENDSEC
0
SECTION
2
ENTITIES
0
LINE
5
55
100
AcDbEntity
8
bed
6
ByLayer
62
256
370
-1
100
AcDbLine
10
168
20
350
11
168
21
-350
0
LINE
5
56
100
AcDbEntity
8
bed
6
ByLayer
62
256
370
-1
100
AcDbLine
10
-168
20
350
11
-168
21
-350
0
CIRCLE
5
57
100
AcDbEntity
8
bed
6
ByLayer
62
256
370
-1
100
AcDbCircle
10
0
20
0
40
3.75
0
CIRCLE
5
58
100
AcDbEntity
8
bed
6
ByLayer
62
256
370
-1
100
AcDbCircle
10
50
20
0
40
3.75
0
CIRCLE
5
59
100
AcDbEntity
8
bed
6
ByLayer
62
256
370
-1
100
AcDbCircle
10
100
20
0
40
3.75
0
CIRCLE
5
5A
100
AcDbEntity
8
bed
6
ByLayer
62
256
370
-1
100
AcDbCircle
10
150
20
0
40
3.75
0
CIRCLE
5
5B
100
AcDbEntity
8
bed
6
ByLayer
62
256
370
-1
100
AcDbCircle
10
-50
20
0
40
3.75
0
CIRCLE
5
5C
100
AcDbEntity
8
bed
6
ByLayer
62
256
370
-1
100
AcDbCircle
10
-100
20
0
40
3.75
0
CIRCLE
5
5D
100
AcDbEntity
8
bed
6
ByLayer
62
256
370
-1
100
AcDbCircle
10
-150
20
0
40
3.75
0
CIRCLE
5
5E
100
AcDbEntity
8
bed
6
ByLayer
62
256
370
-1
100
AcDbCircle
10
0
20
50
40
3.75
0
CIRCLE
5
5F
100
AcDbEntity
8
bed
6
ByLayer
62
256
370
-1
100
AcDbCircle
10
50
20
50
40
3.75
0
CIRCLE
5
60
100
AcDbEntity
8
bed
6
ByLayer
62
256
370
-1
100
AcDbCircle
10
100
20
50
40
3.75
0
CIRCLE
5
61
100
AcDbEntity
8
bed
6
ByLayer
62
256
370
-1
100
AcDbCircle
10
150
20
50
40
3.75
0
CIRCLE
5
62
100
AcDbEntity
8
bed
6
ByLayer
62
256
370
-1
100
AcDbCircle
10
-50
20
50
40
3.75
0
CIRCLE
5
63
100
AcDbEntity
8
bed
6
ByLayer
62
256
370
-1
100
AcDbCircle
10
-100
20
50
40
3.75
0
CIRCLE
5
64
100
AcDbEntity
8
bed
6
ByLayer
62
256
370
-1
100
AcDbCircle
10
-150
20
50
40
3.75
0
CIRCLE
5
65
100
AcDbEntity
8
bed
6
ByLayer
62
256
370
-1
100
AcDbCircle
10
0
20
100
40
3.75
0
CIRCLE
5
66
100
AcDbEntity
8
bed
6
ByLayer
62
256
370
-1
100
AcDbCircle
10
50
20
100
40
3.75
0
CIRCLE
5
67
100
AcDbEntity
8
bed
6
ByLayer
62
256
370
-1
100
AcDbCircle
10
100
20
100
40
3.75
0
CIRCLE
5
68
100
AcDbEntity
8
bed
6
ByLayer
62
256
370
-1
100
AcDbCircle
10
150
20
100
40
3.75
0
CIRCLE
5
69
100
AcDbEntity
8
bed
6
ByLayer
62
256
370
-1
100
AcDbCircle
10
-50
20
100
40
3.75
0
CIRCLE
5
6A
100
AcDbEntity
8
bed
6
ByLayer
62
256
370
-1
100
AcDbCircle
10
-100
20
100
40
3.75
0
CIRCLE
5
6B
100
AcDbEntity
8
bed
6
ByLayer
62
256
370
-1
100
AcDbCircle
10
-150
20
100
40
3.75
0
CIRCLE
5
6C
100
AcDbEntity
8
bed
6
ByLayer
62
256
370
-1
100
AcDbCircle
10
0
20
150
40
3.75
0
CIRCLE
5
6D
100
AcDbEntity
8
bed
6
ByLayer
62
256
370
-1
100
AcDbCircle
10
50
20
150
40
3.75
0
CIRCLE
5
6E
100
AcDbEntity
8
bed
6
ByLayer
62
256
370
-1
100
AcDbCircle
10
100
20
150
40
3.75
0
CIRCLE
5
6F
100
AcDbEntity
8
bed
6
ByLayer
62
256
370
-1
100
AcDbCircle
10
150
20
150
40
3.75
0
CIRCLE
5
70
100
AcDbEntity
8
bed
6
ByLayer
62
256
370
-1
100
AcDbCircle
10
-50
20
150
40
3.75
0
CIRCLE
5
71
100
AcDbEntity
8
bed
6
ByLayer
62
256
370
-1
100
AcDbCircle
10
-100
20
150
40
3.75
0
CIRCLE
5
72
100
AcDbEntity
8
bed
6
ByLayer
62
256
370
-1
100
AcDbCircle
10
-150
20
150
40
3.75
0
CIRCLE
5
73
100
AcDbEntity
8
bed
6
ByLayer
62
256
370
-1
100
AcDbCircle
10
0
20
200
40
3.75
0
CIRCLE
5
74
100
AcDbEntity
8
bed
6
ByLayer
62
256
370
-1
100
AcDbCircle
10
50
20
200
40
3.75
0
CIRCLE
5
75
100
AcDbEntity
8
bed
6
ByLayer
62
256
370
-1
100
AcDbCircle
10
100
20
200
40
3.75
0
CIRCLE
5
76
100
AcDbEntity
8
bed
6
ByLayer
62
256
370
-1
100
AcDbCircle
10
150
20
200
40
3.75
0
CIRCLE
5
77
100
AcDbEntity
8
bed
6
ByLayer
62
256
370
-1
100
AcDbCircle
10
-50
20
200
40
3.75
0
CIRCLE
5
78
100
AcDbEntity
8
bed
6
ByLayer
62
256
370
-1
100
AcDbCircle
10
-100
20
200
40
3.75
0
CIRCLE
5
79
100
AcDbEntity
8
bed
6
ByLayer
62
256
370
-1
100
AcDbCircle
10
-150
20
200
40
3.75
0
CIRCLE
5
7A
100
AcDbEntity
8
bed
6
ByLayer
62
256
370
-1
100
AcDbCircle
10
0
20
250
40
3.75
0
CIRCLE
5
7B
100
AcDbEntity
8
bed
6
ByLayer
62
256
370
-1
100
AcDbCircle
10
50
20
250
40
3.75
0
CIRCLE
5
7C
100
AcDbEntity
8
bed
6
ByLayer
62
256
370
-1
100
AcDbCircle
10
100
20
250
40
3.75
0
CIRCLE
5
7D
100
AcDbEntity
8
bed
6
ByLayer
62
256
370
-1
100
AcDbCircle
10
150
20
250
40
3.75
0
CIRCLE
5
7E
100
AcDbEntity
8
bed
6
ByLayer
62
256
370
-1
100
AcDbCircle
10
-50
20
250
40
3.75
0
CIRCLE
5
7F
100
AcDbEntity
8
bed
6
ByLayer
62
256
370
-1
100
AcDbCircle
10
-100
20
250
40
3.75
0
CIRCLE
5
80
100
AcDbEntity
8
bed
6
ByLayer
62
256
370
-1
100
AcDbCircle
10
-150
20
250
40
3.75
0
CIRCLE
5
81
100
AcDbEntity
8
bed
6
ByLayer
62
256
370
-1
100
AcDbCircle
10
0
20
300
40
3.75
0
CIRCLE
5
82
100
AcDbEntity
8
bed
6
ByLayer
62
256
370
-1
100
AcDbCircle
10
50
20
300
40
3.75
0
CIRCLE
5
83
100
AcDbEntity
8
bed
6
ByLayer
62
256
370
-1
100
AcDbCircle
10
100
20
300
40
3.75
0
CIRCLE
5
84
100
AcDbEntity
8
bed
6
ByLayer
62
256
370
-1
100
AcDbCircle
10
150
20
300
40
3.75
0
CIRCLE
5
85
100
AcDbEntity
8
bed
6
ByLayer
62
256
370
-1
100
AcDbCircle
10
-50
20
300
40
3.75
0
CIRCLE
5
86
100
AcDbEntity
8
bed
6
ByLayer
62
256
370
-1
100
AcDbCircle
10
-100
20
300
40
3.75
0
CIRCLE
5
87
100
AcDbEntity
8
bed
6
ByLayer
62
256
370
-1
100
AcDbCircle
10
-150
20
300
40
3.75
0
CIRCLE
5
88
100
AcDbEntity
8
bed
6
ByLayer
62
256
370
-1
100
AcDbCircle
10
0
20
-50
40
3.75
0
CIRCLE
5
89
100
AcDbEntity
8
bed
6
ByLayer
62
256
370
-1
100
AcDbCircle
10
50
20
-50
40
3.75
0
CIRCLE
5
8A
100
AcDbEntity
8
bed
6
ByLayer
62
256
370
-1
100
AcDbCircle
10
100
20
-50
40
3.75
0
CIRCLE
5
8B
100
AcDbEntity
8
bed
6
ByLayer
62
256
370
-1
100
AcDbCircle
10
150
20
-50
40
3.75
0
CIRCLE
5
8C
100
AcDbEntity
8
bed
6
ByLayer
62
256
370
-1
100
AcDbCircle
10
-50
20
-50
40
3.75
0
CIRCLE
5
8D
100
AcDbEntity
8
bed
6
ByLayer
62
256
370
-1
100
AcDbCircle
10
-100
20
-50
40
3.75
0
CIRCLE
5
8E
100
AcDbEntity
8
bed
6
ByLayer
62
256
370
-1
100
AcDbCircle
10
-150
20
-50
40
3.75
0
CIRCLE
5
8F
100
AcDbEntity
8
bed
6
ByLayer
62
256
370
-1
100
AcDbCircle
10
0
20
-100
40
3.75
0
CIRCLE
5
90
100
AcDbEntity
8
bed
6
ByLayer
62
256
370
-1
100
AcDbCircle
10
50
20
-100
40
3.75
0
CIRCLE
5
91
100
AcDbEntity
8
bed
6
ByLayer
62
256
370
-1
100
AcDbCircle
10
100
20
-100
40
3.75
0
CIRCLE
5
92
100
AcDbEntity
8
bed
6
ByLayer
62
256
370
-1
100
AcDbCircle
10
150
20
-100
40
3.75
0
CIRCLE
5
93
100
AcDbEntity
8
bed
6
ByLayer
62
256
370
-1
100
AcDbCircle
10
-50
20
-100
40
3.75
0
CIRCLE
5
94
100
AcDbEntity
8
bed
6
ByLayer
62
256
370
-1
100
AcDbCircle
10
-100
20
-100
40
3.75
0
CIRCLE
5
95
100
AcDbEntity
8
bed
6
ByLayer
62
256
370
-1
100
AcDbCircle
10
-150
20
-100
40
3.75
0
CIRCLE
5
96
100
AcDbEntity
8
bed
6
ByLayer
62
256
370
-1
100
AcDbCircle
10
0
20
-150
40
3.75
0
CIRCLE
5
97
100
AcDbEntity
8
bed
6
ByLayer
62
256
370
-1
100
AcDbCircle
10
50
20
-150
40
3.75
0
CIRCLE
5
98
100
AcDbEntity
8
bed
6
ByLayer
62
256
370
-1
100
AcDbCircle
10
100
20
-150
40
3.75
0
CIRCLE
5
99
100
AcDbEntity
8
bed
6
ByLayer
62
256
370
-1
100
AcDbCircle
10
150
20
-150
40
3.75
0
CIRCLE
5
9A
100
AcDbEntity
8
bed
6
ByLayer
62
256
370
-1
100
AcDbCircle
10
-50
20
-150
40
3.75
0
CIRCLE
5
9B
100
AcDbEntity
8
bed
6
ByLayer
62
256
370
-1
100
AcDbCircle
10
-100
20
-150
40
3.75
0
CIRCLE
5
9C
100
AcDbEntity
8
bed
6
ByLayer
62
256
370
-1
100
AcDbCircle
10
-150
20
-150
40
3.75
0
CIRCLE
5
9D
100
AcDbEntity
8
bed
6
ByLayer
62
256
370
-1
100
AcDbCircle
10
0
20
-200
40
3.75
0
CIRCLE
5
9E
100
AcDbEntity
8
bed
6
ByLayer
62
256
370
-1
100
AcDbCircle
10
50
20
-200
40
3.75
0
CIRCLE
5
9F
100
AcDbEntity
8
bed
6
ByLayer
62
256
370
-1
100
AcDbCircle
10
100
20
-200
40
3.75
0
CIRCLE
5
A0
100
AcDbEntity
8
bed
6
ByLayer
62
256
370
-1
100
AcDbCircle
10
150
20
-200
40
3.75
0
CIRCLE
5
A1
100
AcDbEntity
8
bed
6
ByLayer
62
256
370
-1
100
AcDbCircle
10
-50
20
-200
40
3.75
0
CIRCLE
5
A2
100
AcDbEntity
8
bed
6
ByLayer
62
256
370
-1
100
AcDbCircle
10
-100
20
-200
40
3.75
0
CIRCLE
5
A3
100
AcDbEntity
8
bed
6
ByLayer
62
256
370
-1
100
AcDbCircle
10
-150
20
-200
40
3.75
0
CIRCLE
5
A4
100
AcDbEntity
8
bed
6
ByLayer
62
256
370
-1
100
AcDbCircle
10
0
20
-250
40
3.75
0
CIRCLE
5
A5
100
AcDbEntity
8
bed
6
ByLayer
62
256
370
-1
100
AcDbCircle
10
50
20
-250
40
3.75
0
CIRCLE
5
A6
100
AcDbEntity
8
bed
6
ByLayer
62
256
370
-1
100
AcDbCircle
10
100
20
-250
40
3.75
0
CIRCLE
5
A7
100
AcDbEntity
8
bed
6
ByLayer
62
256
370
-1
100
AcDbCircle
10
150
20
-250
40
3.75
0
CIRCLE
5
A8
100
AcDbEntity
8
bed
6
ByLayer
62
256
370
-1
100
AcDbCircle
10
-50
20
-250
40
3.75
0
CIRCLE
5
A9
100
AcDbEntity
8
bed
6
ByLayer
62
256
370
-1
100
AcDbCircle
10
-100
20
-250
40
3.75
0
CIRCLE
5
AA
100
AcDbEntity
8
bed
6
ByLayer
62
256
370
-1
100
AcDbCircle
10
-150
20
-250
40
3.75
0
CIRCLE
5
AB
100
AcDbEntity
8
bed
6
ByLayer
62
256
370
-1
100
AcDbCircle
10
0
20
-300
40
3.75
0
CIRCLE
5
AC
100
AcDbEntity
8
bed
6
ByLayer
62
256
370
-1
100
AcDbCircle
10
50
20
-300
40
3.75
0
CIRCLE
5
AD
100
AcDbEntity
8
bed
6
ByLayer
62
256
370
-1
100
AcDbCircle
10
100
20
-300
40
3.75
0
CIRCLE
5
AE
100
AcDbEntity
8
bed
6
ByLayer
62
256
370
-1
100
AcDbCircle
10
150
20
-300
40
3.75
0
CIRCLE
5
AF
100
AcDbEntity
8
bed
6
ByLayer
62
256
370
-1
100
AcDbCircle
10
-50
20
-300
40
3.75
0
CIRCLE
5
B0
100
AcDbEntity
8
bed
6
ByLayer
62
256
370
-1
100
AcDbCircle
10
-100
20
-300
40
3.75
0
CIRCLE
5
B1
100
AcDbEntity
8
bed
6
ByLayer
62
256
370
-1
100
AcDbCircle
10
-150
20
-300
40
3.75
0
LINE
5
B2
100
AcDbEntity
8
base
6
ByLayer
62
256
370
-1
100
AcDbLine
10
195
20
350
11
195
21
-350
0
LINE
5
B3
100
AcDbEntity
8
base
6
ByLayer
62
256
370
-1
100
AcDbLine
10
-195
20
350
11
-195
21
-350
0
CIRCLE
5
B4
100
AcDbEntity
8
base
6
ByLayer
62
256
370
-1
100
AcDbCircle
10
169
20
-300
40
2
0
CIRCLE
5
B5
100
AcDbEntity
8
base
6
ByLayer
62
256
370
-1
100
AcDbCircle
10
191
20
-300
40
2
0
CIRCLE
5
B6
100
AcDbEntity
8
base
6
ByLayer
62
256
370
-1
100
AcDbCircle
10
169
20
-150
40
2
0
CIRCLE
5
B7
100
AcDbEntity
8
base
6
ByLayer
62
256
370
-1
100
AcDbCircle
10
191
20
-150
40
2
0
CIRCLE
5
B8
100
AcDbEntity
8
base
6
ByLayer
62
256
370
-1
100
AcDbCircle
10
169
20
0
40
2
0
CIRCLE
5
B9
100
AcDbEntity
8
base
6
ByLayer
62
256
370
-1
100
AcDbCircle
10
191
20
0
40
2
0
CIRCLE
5
BA
100
AcDbEntity
8
base
6
ByLayer
62
256
370
-1
100
AcDbCircle
10
169
20
300
40
2
0
CIRCLE
5
BB
100
AcDbEntity
8
base
6
ByLayer
62
256
370
-1
100
AcDbCircle
10
191
20
300
40
2
0
CIRCLE
5
BC
100
AcDbEntity
8
base
6
ByLayer
62
256
370
-1
100
AcDbCircle
10
169
20
150
40
2
0
CIRCLE
5
BD
100
AcDbEntity
8
base
6
ByLayer
62
256
370
-1
100
AcDbCircle
10
191
20
150
40
2
0
CIRCLE
5
BE
100
AcDbEntity
8
base
6
ByLayer
62
256
370
-1
100
AcDbCircle
10
-191
20
-300
40
2
0
CIRCLE
5
BF
100
AcDbEntity
8
base
6
ByLayer
62
256
370
-1
100
AcDbCircle
10
-169
20
-300
40
2
0
CIRCLE
5
C0
100
AcDbEntity
8
base
6
ByLayer
62
256
370
-1
100
AcDbCircle
10
-191
20
-150
40
2
0
CIRCLE
5
C1
100
AcDbEntity
8
base
6
ByLayer
62
256
370
-1
100
AcDbCircle
10
-169
20
-150
40
2
0
CIRCLE
5
C2
100
AcDbEntity
8
base
6
ByLayer
62
256
370
-1
100
AcDbCircle
10
-191
20
0
40
2
0
CIRCLE
5
C3
100
AcDbEntity
8
base
6
ByLayer
62
256
370
-1
100
AcDbCircle
10
-169
20
0
40
2
0
CIRCLE
5
C4
100
AcDbEntity
8
base
6
ByLayer
62
256
370
-1
100
AcDbCircle
10
-191
20
300
40
2
0
CIRCLE
5
C5
100
AcDbEntity
8
base
6
ByLayer
62
256
370
-1
100
AcDbCircle
10
-169
20
300
40
2
0
CIRCLE
5
C6
100
AcDbEntity
8
base
6
ByLayer
62
256
370
-1
100
AcDbCircle
10
-169
20
150
40
2
0
CIRCLE
5
C7
100
AcDbEntity
8
base
6
ByLayer
62
256
370
-1
100
AcDbCircle
10
-191
20
150
40
2
0
CIRCLE
5
C8
100
AcDbEntity
8
base
6
ByLayer
62
256
370
-1
100
AcDbCircle
10
23
20
301.5
40
3.75
0
CIRCLE
5
C9
100
AcDbEntity
8
base
6
ByLayer
62
256
370
-1
100
AcDbCircle
10
-23
20
301.5
40
3.75
0
CIRCLE
5
CA
100
AcDbEntity
8
base
6
ByLayer
62
256
370
-1
100
AcDbCircle
10
-23
20
-315.5
40
3.75
0
CIRCLE
5
CB
100
AcDbEntity
8
base
6
ByLayer
62
256
370
-1
100
AcDbCircle
10
23
20
-315.5
40
3.75
0
CIRCLE
5
CC
100
AcDbEntity
8
base
6
ByLayer
62
256
370
-1
100
AcDbCircle
10
-23
20
-302.5
40
3.75
0
CIRCLE
5
CD
100
AcDbEntity
8
base
6
ByLayer
62
256
370
-1
100
AcDbCircle
10
23
20
-302.5
40
3.75
0
LINE
5
CE
100
AcDbEntity
8
gantry_base_main
6
ByLayer
62
256
370
-1
100
AcDbLine
10
-200
20
70
11
200
21
70
0
LINE
5
CF
100
AcDbEntity
8
gantry_base_main
6
ByLayer
62
256
370
-1
100
AcDbLine
10
-200
20
-70
11
200
21
-70
0
CIRCLE
5
D0
100
AcDbEntity
8
gantry_base_main
6
ByLayer
62
256
370
-1
100
AcDbCircle
10
-19.5
20
-12
40
2
0
CIRCLE
5
D1
100
AcDbEntity
8
gantry_base_main
6
ByLayer
62
256
370
-1
100
AcDbCircle
10
-19.5
20
12
40
2
0
CIRCLE
5
D2
100
AcDbEntity
8
gantry_base_main
6
ByLayer
62
256
370
-1
100
AcDbCircle
10
19.5
20
12
40
2
0
CIRCLE
5
D3
100
AcDbEntity
8
gantry_base_main
6
ByLayer
62
256
370
-1
100
AcDbCircle
10
19.5
20
-12
40
2
0
CIRCLE
5
D4
100
AcDbEntity
8
gantry_base_main
6
ByLayer
62
256
370
-1
100
AcDbCircle
10
-194
20
-37.5
40
2.5
0
CIRCLE
5
D5
100
AcDbEntity
8
gantry_base_main
6
ByLayer
62
256
370
-1
100
AcDbCircle
10
-166
20
-37.5
40
2.5
0
CIRCLE
5
D6
100
AcDbEntity
8
gantry_base_main
6
ByLayer
62
256
370
-1
100
AcDbCircle
10
-166
20
-63.5
40
2.5
0
CIRCLE
5
D7
100
AcDbEntity
8
gantry_base_main
6
ByLayer
62
256
370
-1
100
AcDbCircle
10
-194
20
-63.5
40
2.5
0
CIRCLE
5
D8
100
AcDbEntity
8
gantry_base_main
6
ByLayer
62
256
370
-1
100
AcDbCircle
10
-194
20
37.5
40
2.5
0
CIRCLE
5
D9
100
AcDbEntity
8
gantry_base_main
6
ByLayer
62
256
370
-1
100
AcDbCircle
10
-166
20
37.5
40
2.5
0
CIRCLE
5
DA
100
AcDbEntity
8
gantry_base_main
6
ByLayer
62
256
370
-1
100
AcDbCircle
10
-166
20
63.5
40
2.5
0
CIRCLE
5
DB
100
AcDbEntity
8
gantry_base_main
6
ByLayer
62
256
370
-1
100
AcDbCircle
10
-194
20
63.5
40
2.5
0
CIRCLE
5
DC
100
AcDbEntity
8
gantry_base_main
6
ByLayer
62
256
370
-1
100
AcDbCircle
10
166
20
63.5
40
2.5
0
CIRCLE
5
DD
100
AcDbEntity
8
gantry_base_main
6
ByLayer
62
256
370
-1
100
AcDbCircle
10
194
20
63.5
40
2.5
0
CIRCLE
5
DE
100
AcDbEntity
8
gantry_base_main
6
ByLayer
62
256
370
-1
100
AcDbCircle
10
166
20
37.5
40
2.5
0
CIRCLE
5
DF
100
AcDbEntity
8
gantry_base_main
6
ByLayer
62
256
370
-1
100
AcDbCircle
10
194
20
37.5
40
2.5
0
CIRCLE
5
E0
100
AcDbEntity
8
gantry_base_main
6
ByLayer
62
256
370
-1
100
AcDbCircle
10
166
20
-37.5
40
2.5
0
CIRCLE
5
E1
100
AcDbEntity
8
gantry_base_main
6
ByLayer
62
256
370
-1
100
AcDbCircle
10
194
20
-37.5
40
2.5
0
CIRCLE
5
E2
100
AcDbEntity
8
gantry_base_main
6
ByLayer
62
256
370
-1
100
AcDbCircle
10
194
20
-63.5
40
2.5
0
CIRCLE
5
E3
100
AcDbEntity
8
gantry_base_main
6
ByLayer
62
256
370
-1
100
AcDbCircle
10
166
20
-63.5
40
2.5
0
CIRCLE
5
E4
100
AcDbEntity
8
gantry_base_sides
6
ByLayer
62
256
370
-1
100
AcDbCircle
10
-194
20
63.5
40
2.5
0
CIRCLE
5
E5
100
AcDbEntity
8
gantry_base_sides
6
ByLayer
62
256
370
-1
100
AcDbCircle
10
-166
20
63.5
40
2.5
0
CIRCLE
5
E6
100
AcDbEntity
8
gantry_base_sides
6
ByLayer
62
256
370
-1
100
AcDbCircle
10
-166
20
37.5
40
2.5
0
CIRCLE
5
E7
100
AcDbEntity
8
gantry_base_sides
6
ByLayer
62
256
370
-1
100
AcDbCircle
10
-194
20
37.5
40
2.5
0
CIRCLE
5
E8
100
AcDbEntity
8
gantry_base_sides
6
ByLayer
62
256
370
-1
100
AcDbCircle
10
-194
20
-37.5
40
2.5
0
CIRCLE
5
E9
100
AcDbEntity
8
gantry_base_sides
6
ByLayer
62
256
370
-1
100
AcDbCircle
10
-166
20
-37.5
40
2.5
0
CIRCLE
5
EA
100
AcDbEntity
8
gantry_base_sides
6
ByLayer
62
256
370
-1
100
AcDbCircle
10
-166
20
-63.5
40
2.5
0
CIRCLE
5
EB
100
AcDbEntity
8
gantry_base_sides
6
ByLayer
62
256
370
-1
100
AcDbCircle
10
-194
20
-63.5
40
2.5
0
LINE
5
EC
100
AcDbEntity
8
gantry_base_sides
6
ByLayer
62
256
370
-1
100
AcDbLine
10
-200
20
-70
11
-160
21
-70
0
LINE
5
ED
100
AcDbEntity
8
gantry_base_sides
6
ByLayer
62
256
370
-1
100
AcDbLine
10
-160
20
-70
11
-160
21
70
0
LINE
5
EE
100
AcDbEntity
8
gantry_base_sides
6
ByLayer
62
256
370
-1
100
AcDbLine
10
-200
20
70
11
-160
21
70
0
LINE
5
EF
100
AcDbEntity
8
gantry_base_sides
6
ByLayer
62
256
370
-1
100
AcDbLine
10
-200
20
50
11
-212
21
50
0
LINE
5
F0
100
AcDbEntity
8
gantry_base_sides
6
ByLayer
62
256
370
-1
100
AcDbLine
10
-200
20
-50
11
-212
21
-50
0
LINE
5
F1
100
AcDbEntity
8
gantry_base_sides
6
ByLayer
62
256
370
-1
100
AcDbLine
10
-200
20
25
11
-212
21
25
0
LINE
5
F2
100
AcDbEntity
8
gantry_base_sides
6
ByLayer
62
256
370
-1
100
AcDbLine
10
-200
20
-25
11
-212
21
-25
0
LINE
5
F3
100
AcDbEntity
8
gantry_base_sides
6
ByLayer
62
256
370
-1
100
AcDbLine
10
-212
20
50
11
-212
21
25
0
LINE
5
F4
100
AcDbEntity
8
gantry_base_sides
6
ByLayer
62
256
370
-1
100
AcDbLine
10
-212
20
-25
11
-212
21
-50
0
ARC
5
F5
100
AcDbEntity
8
gantry_base_sides
6
ByLayer
62
256
370
-1
100
AcDbCircle
10
-200
20
-23
40
2
100
AcDbArc
50
269.999866156
51
450
0
LINE
5
F6
100
AcDbEntity
8
gantry_base_sides
6
ByLayer
62
256
370
-1
100
AcDbLine
10
-200
20
-54
11
-200
21
-70
0
ARC
5
F7
100
AcDbEntity
8
gantry_base_sides
6
ByLayer
62
256
370
-1
100
AcDbCircle
10
-200
20
-52
40
2
100
AcDbArc
50
270
51
449.999890717
0
ARC
5
F8
100
AcDbEntity
8
gantry_base_sides
6
ByLayer
62
256
370
-1
100
AcDbCircle
10
-200
20
23
40
2
100
AcDbArc
50
270
51
449.999945358
0
LINE
5
F9
100
AcDbEntity
8
gantry_base_sides
6
ByLayer
62
256
370
-1
100
AcDbLine
10
-200
20
21
11
-200
21
-21
0
LINE
5
FA
100
AcDbEntity
8
gantry_base_sides
6
ByLayer
62
256
370
-1
100
AcDbLine
10
-200
20
54
11
-200
21
70
0
ARC
5
FB
100
AcDbEntity
8
gantry_base_sides
6
ByLayer
62
256
370
-1
100
AcDbCircle
10
-200
20
52
40
2
100
AcDbArc
50
270.000077275
51
450
0
CIRCLE
5
FC
100
AcDbEntity
8
gantry_base_sides
6
ByLayer
62
256
370
-1
100
AcDbCircle
10
194
20
63.5
40
2.5
0
CIRCLE
5
FD
100
AcDbEntity
8
gantry_base_sides
6
ByLayer
62
256
370
-1
100
AcDbCircle
10
166
20
63.5
40
2.5
0
CIRCLE
5
FE
100
AcDbEntity
8
gantry_base_sides
6
ByLayer
62
256
370
-1
100
AcDbCircle
10
166
20
37.5
40
2.5
0
CIRCLE
5
FF
100
AcDbEntity
8
gantry_base_sides
6
ByLayer
62
256
370
-1
100
AcDbCircle
10
194
20
37.5
40
2.5
0
CIRCLE
5
100
100
AcDbEntity
8
gantry_base_sides
6
ByLayer
62
256
370
-1
100
AcDbCircle
10
194
20
-37.5
40
2.5
0
CIRCLE
5
101
100
AcDbEntity
8
gantry_base_sides
6
ByLayer
62
256
370
-1
100
AcDbCircle
10
166
20
-37.5
40
2.5
0
CIRCLE
5
102
100
AcDbEntity
8
gantry_base_sides
6
ByLayer
62
256
370
-1
100
AcDbCircle
10
166
20
-63.5
40
2.5
0
CIRCLE
5
103
100
AcDbEntity
8
gantry_base_sides
6
ByLayer
62
256
370
-1
100
AcDbCircle
10
194
20
-63.5
40
2.5
0
LINE
5
104
100
AcDbEntity
8
gantry_base_sides
6
ByLayer
62
256
370
-1
100
AcDbLine
10
200
20
-70
11
160
21
-70
0
LINE
5
105
100
AcDbEntity
8
gantry_base_sides
6
ByLayer
62
256
370
-1
100
AcDbLine
10
160
20
-70
11
160
21
70
0
LINE
5
106
100
AcDbEntity
8
gantry_base_sides
6
ByLayer
62
256
370
-1
100
AcDbLine
10
200
20
70
11
160
21
70
0
LINE
5
107
100
AcDbEntity
8
gantry_base_sides
6
ByLayer
62
256
370
-1
100
AcDbLine
10
200
20
50
11
212
21
50
0
LINE
5
108
100
AcDbEntity
8
gantry_base_sides
6
ByLayer
62
256
370
-1
100
AcDbLine
10
200
20
-50
11
212
21
-50
0
LINE
5
109
100
AcDbEntity
8
gantry_base_sides
6
ByLayer
62
256
370
-1
100
AcDbLine
10
200
20
25
11
212
21
25
0
LINE
5
10A
100
AcDbEntity
8
gantry_base_sides
6
ByLayer
62
256
370
-1
100
AcDbLine
10
200
20
-25
11
212
21
-25
0
LINE
5
10B
100
AcDbEntity
8
gantry_base_sides
6
ByLayer
62
256
370
-1
100
AcDbLine
10
212
20
50
11
212
21
25
0
LINE
5
10C
100
AcDbEntity
8
gantry_base_sides
6
ByLayer
62
256
370
-1
100
AcDbLine
10
212
20
-25
11
212
21
-50
0
ARC
5
10D
100
AcDbEntity
8
gantry_base_sides
6
ByLayer
62
256
370
-1
100
AcDbCircle
10
200
20
-23
40
2
100
AcDbArc
50
90
51
270.000133844
0
LINE
5
10E
100
AcDbEntity
8
gantry_base_sides
6
ByLayer
62
256
370
-1
100
AcDbLine
10
200
20
-54
11
200
21
-70
0
ARC
5
10F
100
AcDbEntity
8
gantry_base_sides
6
ByLayer
62
256
370
-1
100
AcDbCircle
10
200
20
-52
40
2
100
AcDbArc
50
90.000109283
51
270
0
ARC
5
110
100
AcDbEntity
8
gantry_base_sides
6
ByLayer
62
256
370
-1
100
AcDbCircle
10
200
20
23
40
2
100
AcDbArc
50
90.0000546415
51
270
0
LINE
5
111
100
AcDbEntity
8
gantry_base_sides
6
ByLayer
62
256
370
-1
100
AcDbLine
10
200
20
21
11
200
21
-21
0
LINE
5
112
100
AcDbEntity
8
gantry_base_sides
6
ByLayer
62
256
370
-1
100
AcDbLine
10
200
20
54
11
200
21
70
0
ARC
5
113
100
AcDbEntity
8
gantry_base_sides
6
ByLayer
62
256
370
-1
100
AcDbCircle
10
200
20
52
40
2
100
AcDbArc
50
90
51
269.999922725
0
LINE
5
114
100
AcDbEntity
8
gantry_base_main
6
ByLayer
62
256
370
-1
100
AcDbLine
10
-200
20
12.5
11
-212
21
12.5
0
LINE
5
115
100
AcDbEntity
8
gantry_base_main
6
ByLayer
62
256
370
-1
100
AcDbLine
10
-200
20
-12.5
11
-212
21
-12.5
0
LINE
5
116
100
AcDbEntity
8
gantry_base_main
6
ByLayer
62
256
370
-1
100
AcDbLine
10
-212
20
12.5
11
-212
21
-12.5
0
LINE
5
117
100
AcDbEntity
8
gantry_base_main
6
ByLayer
62
256
370
-1
100
AcDbLine
10
-200
20
-16.5
11
-200
21
-70
0
LINE
5
118
100
AcDbEntity
8
gantry_base_main
6
ByLayer
62
256
370
-1
100
AcDbLine
10
-200
20
16.5
11
-200
21
70
0
ARC
5
119
100
AcDbEntity
8
gantry_base_main
6
ByLayer
62
256
370
-1
100
AcDbCircle
10
-200
20
14.5
40
2
100
AcDbArc
50
270
51
450
0
ARC
5
11A
100
AcDbEntity
8
gantry_base_main
6
ByLayer
62
256
370
-1
100
AcDbCircle
10
-200
20
-14.5
40
2
100
AcDbArc
50
270
51
450
0
LINE
5
11B
100
AcDbEntity
8
gantry_base_main
6
ByLayer
62
256
370
-1
100
AcDbLine
10
200
20
12.5
11
212
21
12.5
0
LINE
5
11C
100
AcDbEntity
8
gantry_base_main
6
ByLayer
62
256
370
-1
100
AcDbLine
10
200
20
-12.5
11
212
21
-12.5
0
LINE
5
11D
100
AcDbEntity
8
gantry_base_main
6
ByLayer
62
256
370
-1
100
AcDbLine
10
212
20
12.5
11
212
21
-12.5
0
LINE
5
11E
100
AcDbEntity
8
gantry_base_main
6
ByLayer
62
256
370
-1
100
AcDbLine
10
200
20
-16.5
11
200
21
-70
0
LINE
5
11F
100
AcDbEntity
8
gantry_base_main
6
ByLayer
62
256
370
-1
100
AcDbLine
10
200
20
16.5
11
200
21
70
0
ARC
5
120
100
AcDbEntity
8
gantry_base_main
6
ByLayer
62
256
370
-1
100
AcDbCircle
10
200
20
14.5
40
2
100
AcDbArc
50
90
51
270
0
ARC
5
121
100
AcDbEntity
8
gantry_base_main
6
ByLayer
62
256
370
-1
100
AcDbCircle
10
200
20
-14.5
40
2
100
AcDbArc
50
90
51
270
0
LINE
5
122
100
AcDbEntity
8
gantry_side
6
ByLayer
62
256
370
-1
100
AcDbLine
10
-12.5
20
6
11
12.5
21
6
0
LINE
5
123
100
AcDbEntity
8
gantry_side
6
ByLayer
62
256
370
-1
100
AcDbLine
10
-12.5
20
-6
11
12.5
21
-6
0
LINE
5
124
100
AcDbEntity
8
gantry_side
6
ByLayer
62
256
370
-1
100
AcDbLine
10
70
20
-34
11
70
21
50
0
LINE
5
125
100
AcDbEntity
8
gantry_side
6
ByLayer
62
256
370
-1
100
AcDbLine
10
50
20
-6
11
25
21
-6
0
LINE
5
126
100
AcDbEntity
8
gantry_side
6
ByLayer
62
256
370
-1
100
AcDbLine
10
25
20
-18
11
50
21
-18
0
LINE
5
127
100
AcDbEntity
8
gantry_side
6
ByLayer
62
256
370
-1
100
AcDbLine
10
-50
20
-18
11
-25
21
-18
0
LINE
5
128
100
AcDbEntity
8
gantry_side
6
ByLayer
62
256
370
-1
100
AcDbLine
10
-25
20
-6
11
-50
21
-6
0
CIRCLE
5
129
100
AcDbEntity
8
gantry_side
6
ByLayer
62
256
370
-1
100
AcDbCircle
10
-1
20
-12
40
2
0
CIRCLE
5
12A
100
AcDbEntity
8
gantry_side
6
ByLayer
62
256
370
-1
100
AcDbCircle
10
-50
20
0
40
2
0
CIRCLE
5
12B
100
AcDbEntity
8
gantry_side
6
ByLayer
62
256
370
-1
100
AcDbCircle
10
50
20
0
40
2
0
LINE
5
12C
100
AcDbEntity
8
gantry_side
6
ByLayer
62
256
370
-1
100
AcDbLine
10
-70
20
-34
11
-70
21
-46
0
LINE
5
12D
100
AcDbEntity
8
gantry_side
6
ByLayer
62
256
370
-1
100
AcDbLine
10
70
20
-34
11
70
21
-46
0
LINE
5
12E
100
AcDbEntity
8
gantry_side
6
ByLayer
62
256
370
-1
100
AcDbLine
10
-70
20
-46
11
70
21
-46
0
LINE
5
12F
100
AcDbEntity
8
gantry_side
6
ByLayer
62
256
370
-1
100
AcDbLine
10
-87
20
232
11
70
21
50
0
LINE
5
130
100
AcDbEntity
8
gantry_side
6
ByLayer
62
256
370
-1
100
AcDbLine
10
-12.5
20
0
11
-12.5
21
2
0
LINE
5
131
100
AcDbEntity
8
gantry_side
6
ByLayer
62
256
370
-1
100
AcDbLine
10
-12.5
20
0
11
-12.5
21
-2
0
ARC
5
132
100
AcDbEntity
8
gantry_side
6
ByLayer
62
256
370
-1
100
AcDbCircle
10
-12.5
20
-4
40
2
100
AcDbArc
50
90
51
269.999990341
0
ARC
5
133
100
AcDbEntity
8
gantry_side
6
ByLayer
62
256
370
-1
100
AcDbCircle
10
-12.5
20
4
40
2
100
AcDbArc
50
89.9999975852
51
270
0
ARC
5
134
100
AcDbEntity
8
gantry_side
6
ByLayer
62
256
370
-1
100
AcDbCircle
10
12.5
20
4
40
2
100
AcDbArc
50
270
51
449.999990341
0
LINE
5
135
100
AcDbEntity
8
gantry_side
6
ByLayer
62
256
370
-1
100
AcDbLine
10
12.5
20
0
11
12.5
21
2
0
LINE
5
136
100
AcDbEntity
8
gantry_side
6
ByLayer
62
256
370
-1
100
AcDbLine
10
12.5
20
0
11
12.5
21
-2
0
ARC
5
137
100
AcDbEntity
8
gantry_side
6
ByLayer
62
256
370
-1
100
AcDbCircle
10
12.5
20
-4
40
2
100
AcDbArc
50
270.000002415
51
450
0
ARC
5
138
100
AcDbEntity
8
gantry_side
6
ByLayer
62
256
370
-1
100
AcDbCircle
10
-50
20
-8
40
2
100
AcDbArc
50
89.9999806813
51
270
0
ARC
5
139
100
AcDbEntity
8
gantry_side
6
ByLayer
62
256
370
-1
100
AcDbCircle
10
-50
20
-16
40
2
100
AcDbArc
50
90
51
270
0
LINE
5
13A
100
AcDbEntity
8
gantry_side
6
ByLayer
62
256
370
-1
100
AcDbLine
10
-50
20
-10
11
-50
21
-14
0
LINE
5
13B
100
AcDbEntity
8
gantry_side
6
ByLayer
62
256
370
-1
100
AcDbLine
10
-25
20
-14
11
-25
21
-10
0
ARC
5
13C
100
AcDbEntity
8
gantry_side
6
ByLayer
62
256
370
-1
100
AcDbCircle
10
-25
20
-16
40
2
100
AcDbArc
50
270.00002366
51
450
0
ARC
5
13D
100
AcDbEntity
8
gantry_side
6
ByLayer
62
256
370
-1
100
AcDbCircle
10
-25
20
-8
40
2
100
AcDbArc
50
270
51
89.9999863396
0
ARC
5
13E
100
AcDbEntity
8
gantry_side
6
ByLayer
62
256
370
-1
100
AcDbCircle
10
25
20
-8
40
2
100
AcDbArc
50
90.0000118302
51
270.00001183
0
ARC
5
13F
100
AcDbEntity
8
gantry_side
6
ByLayer
62
256
370
-1
100
AcDbCircle
10
25
20
-16
40
2
100
AcDbArc
50
90
51
269.99999517
0
LINE
5
140
100
AcDbEntity
8
gantry_side
6
ByLayer
62
256
370
-1
100
AcDbLine
10
50
20
-14
11
50
21
-10
0
ARC
5
141
100
AcDbEntity
8
gantry_side
6
ByLayer
62
256
370
-1
100
AcDbCircle
10
50
20
-8
40
2
100
AcDbArc
50
270
51
89.9999863396
0
ARC
5
142
100
AcDbEntity
8
gantry_side
6
ByLayer
62
256
370
-1
100
AcDbCircle
10
50
20
-16
40
2
100
AcDbArc
50
270.00002366
51
450
0
LINE
5
143
100
AcDbEntity
8
gantry_side
6
ByLayer
62
256
370
-1
100
AcDbLine
10
25
20
-10
11
25
21
-14
0
LINE
5
144
100
AcDbEntity
8
gantry_back
6
ByLayer
62
256
370
-1
100
AcDbLine
10
-200
20
10
11
-212
21
10
0
LINE
5
145
100
AcDbEntity
8
gantry_back
6
ByLayer
62
256
370
-1
100
AcDbLine
10
-200
20
-10
11
-212
21
-10
0
LINE
5
146
100
AcDbEntity
8
gantry_back
6
ByLayer
62
256
370
-1
100
AcDbLine
10
-212
20
10
11
-212
21
-10
0
LINE
5
147
100
AcDbEntity
8
gantry_back
6
ByLayer
62
256
370
-1
100
AcDbLine
10
-200
20
14
11
-200
21
30
0
ARC
5
148
100
AcDbEntity
8
gantry_back
6
ByLayer
62
256
370
-1
100
AcDbCircle
10
-200
20
12
40
2
100
AcDbArc
50
270.000077275
51
450
0
ARC
5
149
100
AcDbEntity
8
gantry_back
6
ByLayer
62
256
370
-1
100
AcDbCircle
10
-200
20
-12
40
2
100
AcDbArc
50
270
51
450.000077275
0
LINE
5
14A
100
AcDbEntity
8
gantry_back
6
ByLayer
62
256
370
-1
100
AcDbLine
10
200
20
10
11
212
21
10
0
LINE
5
14B
100
AcDbEntity
8
gantry_back
6
ByLayer
62
256
370
-1
100
AcDbLine
10
200
20
-10
11
212
21
-10
0
LINE
5
14C
100
AcDbEntity
8
gantry_back
6
ByLayer
62
256
370
-1
100
AcDbLine
10
212
20
10
11
212
21
-10
0
LINE
5
14D
100
AcDbEntity
8
gantry_back
6
ByLayer
62
256
370
-1
100
AcDbLine
10
200
20
14
11
200
21
30
0
ARC
5
14E
100
AcDbEntity
8
gantry_back
6
ByLayer
62
256
370
-1
100
AcDbCircle
10
200
20
12
40
2
100
AcDbArc
50
90
51
269.999922725
0
ARC
5
14F
100
AcDbEntity
8
gantry_back
6
ByLayer
62
256
370
-1
100
AcDbCircle
10
200
20
-12
40
2
100
AcDbArc
50
89.9999227252
51
270
0
LINE
5
150
100
AcDbEntity
8
gantry_side
6
ByLayer
62
256
370
-1
100
AcDbLine
10
-137
20
200
11
-149
21
200
0
LINE
5
151
100
AcDbEntity
8
gantry_side
6
ByLayer
62
256
370
-1
100
AcDbLine
10
-137
20
180
11
-149
21
180
0
LINE
5
152
100
AcDbEntity
8
gantry_side
6
ByLayer
62
256
370
-1
100
AcDbLine
10
-149
20
232
11
-149
21
200
0
LINE
5
153
100
AcDbEntity
8
gantry_side
6
ByLayer
62
256
370
-1
100
AcDbLine
10
-149
20
148
11
-149
21
180
0
LINE
5
154
100
AcDbEntity
8
gantry_side
6
ByLayer
62
256
370
-1
100
AcDbLine
10
-137
20
196
11
-137
21
184
0
ARC
5
155
100
AcDbEntity
8
gantry_side
6
ByLayer
62
256
370
-1
100
AcDbCircle
10
-137
20
198
40
2
100
AcDbArc
50
270
51
450.000122182
0
ARC
5
156
100
AcDbEntity
8
gantry_side
6
ByLayer
62
256
370
-1
100
AcDbCircle
10
-137
20
182
40
2
100
AcDbArc
50
269.999972679
51
450
0
LINE
5
157
100
AcDbEntity
8
gantry_top
6
ByLayer
62
256
370
-1
100
AcDbLine
10
1.59204083889e-15
20
26
11
200
21
26
0
LINE
5
158
100
AcDbEntity
8
gantry_top
6
ByLayer
62
256
370
-1
100
AcDbLine
10
1.59204083889e-15
20
26
11
-200
21
26
0
LINE
5
159
100
AcDbEntity
8
gantry_top
6
ByLayer
62
256
370
-1
100
AcDbLine
10
200
20
26
11
200
21
14
0
LINE
5
15A
100
AcDbEntity
8
gantry_top
6
ByLayer
62
256
370
-1
100
AcDbLine
10
199.999997303
20
10
11
212
21
10
0
LINE
5
15B
100
AcDbEntity
8
gantry_top
6
ByLayer
62
256
370
-1
100
AcDbLine
10
212
20
10
11
212
21
-10
0
LINE
5
15C
100
AcDbEntity
8
gantry_top
6
ByLayer
62
256
370
-1
100
AcDbLine
10
-212
20
-10
11
-212
21
10
0
LINE
5
15D
100
AcDbEntity
8
gantry_top
6
ByLayer
62
256
370
-1
100
AcDbLine
10
-212
20
10
11
-199.999997303
21
10
0
LINE
5
15E
100
AcDbEntity
8
gantry_top
6
ByLayer
62
256
370
-1
100
AcDbLine
10
-200
20
14
11
-200
21
26
0
ARC
5
15F
100
AcDbEntity
8
gantry_top
6
ByLayer
62
256
370
-1
100
AcDbCircle
10
200
20
12
40
2
100
AcDbArc
50
90
51
270.000109283
0
ARC
5
160
100
AcDbEntity
8
gantry_top
6
ByLayer
62
256
370
-1
100
AcDbCircle
10
-200
20
12
40
2
100
AcDbArc
50
270.000077275
51
450
0
LINE
5
161
100
AcDbEntity
8
gantry_side
6
ByLayer
62
256
370
-1
100
AcDbLine
10
-87
20
232
11
-113
21
232
0
LINE
5
162
100
AcDbEntity
8
gantry_side
6
ByLayer
62
256
370
-1
100
AcDbLine
10
-113
20
232
11
-113
21
220
0
LINE
5
163
100
AcDbEntity
8
gantry_side
6
ByLayer
62
256
370
-1
100
AcDbLine
10
-133
20
220
11
-133
21
232
0
LINE
5
164
100
AcDbEntity
8
gantry_side
6
ByLayer
62
256
370
-1
100
AcDbLine
10
-149
20
232
11
-133
21
232
0
LINE
5
165
100
AcDbEntity
8
gantry_side
6
ByLayer
62
256
370
-1
100
AcDbLine
10
-129
20
220
11
-117
21
220
0
ARC
5
166
100
AcDbEntity
8
gantry_side
6
ByLayer
62
256
370
-1
100
AcDbCircle
10
-115
20
220
40
2
100
AcDbArc
50
180
51
360.000115912
0
ARC
5
167
100
AcDbEntity
8
gantry_side
6
ByLayer
62
256
370
-1
100
AcDbCircle
10
-131
20
220
40
2
100
AcDbArc
50
180.000038637
51
360
0
CIRCLE
5
168
100
AcDbEntity
8
gantry_top
6
ByLayer
62
256
370
-1
100
AcDbCircle
10
50
20
0
40
2
0
CIRCLE
5
169
100
AcDbEntity
8
gantry_top
6
ByLayer
62
256
370
-1
100
AcDbCircle
10
150
20
0
40
2
0
CIRCLE
5
16A
100
AcDbEntity
8
gantry_top
6
ByLayer
62
256
370
-1
100
AcDbCircle
10
-50
20
0
40
2
0
CIRCLE
5
16B
100
AcDbEntity
8
gantry_top
6
ByLayer
62
256
370
-1
100
AcDbCircle
10
-150
20
0
40
2
0
CIRCLE
5
16C
100
AcDbEntity
8
gantry_top
6
ByLayer
62
256
370
-1
100
AcDbCircle
10
-150
20
22
40
2
0
CIRCLE
5
16D
100
AcDbEntity
8
gantry_top
6
ByLayer
62
256
370
-1
100
AcDbCircle
10
-50
20
22
40
2
0
CIRCLE
5
16E
100
AcDbEntity
8
gantry_top
6
ByLayer
62
256
370
-1
100
AcDbCircle
10
50
20
22
40
2
0
CIRCLE
5
16F
100
AcDbEntity
8
gantry_top
6
ByLayer
62
256
370
-1
100
AcDbCircle
10
150
20
22
40
2
0
CIRCLE
5
170
100
AcDbEntity
8
gantry_back
6
ByLayer
62
256
370
-1
100
AcDbCircle
10
-177.5
20
23
40
3.75
0
CIRCLE
5
171
100
AcDbEntity
8
gantry_back
6
ByLayer
62
256
370
-1
100
AcDbCircle
10
-177.5
20
-23
40
3.75
0
CIRCLE
5
172
100
AcDbEntity
8
gantry_back
6
ByLayer
62
256
370
-1
100
AcDbCircle
10
178.5
20
23
40
3.75
0
CIRCLE
5
173
100
AcDbEntity
8
gantry_back
6
ByLayer
62
256
370
-1
100
AcDbCircle
10
178.5
20
-23
40
3.75
0
LINE
5
174
100
AcDbEntity
8
gantry_back
6
ByLayer
62
256
370
-1
100
AcDbLine
10
200
20
30
11
200
21
42
0
LINE
5
175
100
AcDbEntity
8
gantry_back
6
ByLayer
62
256
370
-1
100
AcDbLine
10
-200
20
42
11
-200
21
30
0
LINE
5
176
100
AcDbEntity
8
gantry_back
6
ByLayer
62
256
370
-1
100
AcDbLine
10
100
20
30
11
100
21
42
0
ARC
5
177
100
AcDbEntity
8
gantry_back
6
ByLayer
62
256
370
-1
100
AcDbCircle
10
98
20
30
40
2
100
AcDbArc
50
180
51
4.07110999227e-13
0
LINE
5
178
100
AcDbEntity
8
gantry_back
6
ByLayer
62
256
370
-1
100
AcDbLine
10
100
20
42
11
200
21
42
0
LINE
5
179
100
AcDbEntity
8
gantry_back
6
ByLayer
62
256
370
-1
100
AcDbLine
10
-100
20
30
11
-100
21
42
0
ARC
5
17A
100
AcDbEntity
8
gantry_back
6
ByLayer
62
256
370
-1
100
AcDbCircle
10
-98
20
30
40
2
100
AcDbArc
50
180
51
360
0
LINE
5
17B
100
AcDbEntity
8
gantry_back
6
ByLayer
62
256
370
-1
100
AcDbLine
10
-100
20
42
11
-200
21
42
0
LINE
5
17C
100
AcDbEntity
8
gantry_back
6
ByLayer
62
256
370
-1
100
AcDbLine
10
-96
20
30
11
96
21
30
0
LINE
5
17D
100
AcDbEntity
8
gantry_back
6
ByLayer
62
256
370
-1
100
AcDbLine
10
100
20
-30
11
100
21
-42
0
ARC
5
17E
100
AcDbEntity
8
gantry_back
6
ByLayer
62
256
370
-1
100
AcDbCircle
10
98
20
-30
40
2
100
AcDbArc
50
360
51
180
0
LINE
5
17F
100
AcDbEntity
8
gantry_back
6
ByLayer
62
256
370
-1
100
AcDbLine
10
100
20
-42
11
200
21
-42
0
LINE
5
180
100
AcDbEntity
8
gantry_back
6
ByLayer
62
256
370
-1
100
AcDbLine
10
-100
20
-30
11
-100
21
-42
0
ARC
5
181
100
AcDbEntity
8
gantry_back
6
ByLayer
62
256
370
-1
100
AcDbCircle
10
-98
20
-30
40
2
100
AcDbArc
50
2.03555499614e-13
51
180
0
LINE
5
182
100
AcDbEntity
8
gantry_back
6
ByLayer
62
256
370
-1
100
AcDbLine
10
-100
20
-42
11
-200
21
-42
0
LINE
5
183
100
AcDbEntity
8
gantry_back
6
ByLayer
62
256
370
-1
100
AcDbLine
10
-96
20
-30
11
96
21
-30
0
LINE
5
184
100
AcDbEntity
8
gantry_back
6
ByLayer
62
256
370
-1
100
AcDbLine
10
200
20
-14
11
200
21
-42
0
LINE
5
185
100
AcDbEntity
8
gantry_back
6
ByLayer
62
256
370
-1
100
AcDbLine
10
-200
20
-14
11
-200
21
-42
0
LINE
5
186
100
AcDbEntity
8
gantry_top
6
ByLayer
62
256
370
-1
100
AcDbLine
10
204
20
-10
11
212
21
-10
0
LINE
5
187
100
AcDbEntity
8
gantry_top
6
ByLayer
62
256
370
-1
100
AcDbLine
10
200
20
-10
11
200
21
-14
0
ARC
5
188
100
AcDbEntity
8
gantry_top
6
ByLayer
62
256
370
-1
100
AcDbCircle
10
202
20
-10
40
2
100
AcDbArc
50
0
51
180.000077275
0
LINE
5
189
100
AcDbEntity
8
gantry_top
6
ByLayer
62
256
370
-1
100
AcDbLine
10
-212
20
-10
11
-204
21
-10
0
LINE
5
18A
100
AcDbEntity
8
gantry_top
6
ByLayer
62
256
370
-1
100
AcDbLine
10
-200
20
-10
11
-200
21
-14
0
ARC
5
18B
100
AcDbEntity
8
gantry_top
6
ByLayer
62
256
370
-1
100
AcDbCircle
10
-202
20
-10
40
2
100
AcDbArc
50
359.999922725
51
540
0
LINE
5
18C
100
AcDbEntity
8
gantry_top
6
ByLayer
62
256
370
-1
100
AcDbLine
10
100
20
-14
11
100
21
-26
0
LINE
5
18D
100
AcDbEntity
8
gantry_top
6
ByLayer
62
256
370
-1
100
AcDbLine
10
-100
20
-14
11
-100
21
-26
0
ARC
5
18E
100
AcDbEntity
8
gantry_top
6
ByLayer
62
256
370
-1
100
AcDbCircle
10
-102
20
-14
40
2
100
AcDbArc
50
359.999961363
51
540
0
ARC
5
18F
100
AcDbEntity
8
gantry_top
6
ByLayer
62
256
370
-1
100
AcDbCircle
10
102
20
-14
40
2
100
AcDbArc
50
6.42450361906e-05
51
179.999933078
0
LINE
5
190
100
AcDbEntity
8
gantry_top
6
ByLayer
62
256
370
-1
100
AcDbLine
10
200
20
-14
11
104
21
-13.9999977574
0
LINE
5
191
100
AcDbEntity
8
gantry_top
6
ByLayer
62
256
370
-1
100
AcDbLine
10
-104
20
-14
11
-200
21
-14
0
LINE
5
192
100
AcDbEntity
8
gantry_top
6
ByLayer
62
256
370
-1
100
AcDbLine
10
-100
20
-26
11
100
21
-26
0
CIRCLE
5
193
100
AcDbEntity
8
gantry_top
6
ByLayer
62
256
370
-1
100
AcDbCircle
10
-50
20
-20
40
2
0
CIRCLE
5
194
100
AcDbEntity
8
gantry_top
6
ByLayer
62
256
370
-1
100
AcDbCircle
10
50
20
-20
40
2
0
CIRCLE
5
195
100
AcDbEntity
8
gantry_back
6
ByLayer
62
256
370
-1
100
AcDbCircle
10
151
20
-36
40
2
0
CIRCLE
5
196
100
AcDbEntity
8
gantry_back
6
ByLayer
62
256
370
-1
100
AcDbCircle
10
-150
20
-36
40
2
0
CIRCLE
5
197
100
AcDbEntity
8
gantry_back
6
ByLayer
62
256
370
-1
100
AcDbCircle
10
-150
20
36
40
2
0
CIRCLE
5
198
100
AcDbEntity
8
gantry_back
6
ByLayer
62
256
370
-1
100
AcDbCircle
10
150
20
36
40
2
0
CIRCLE
5
199
100
AcDbEntity
8
gantry_back
6
ByLayer
62
256
370
-1
100
AcDbCircle
10
-206
20
0
40
2
0
CIRCLE
5
19A
100
AcDbEntity
8
gantry_back
6
ByLayer
62
256
370
-1
100
AcDbCircle
10
206
20
0
40
2
0
CIRCLE
5
19B
100
AcDbEntity
8
gantry_top
6
ByLayer
62
256
370
-1
100
AcDbCircle
10
206
20
0
40
2
0
CIRCLE
5
19C
100
AcDbEntity
8
gantry_top
6
ByLayer
62
256
370
-1
100
AcDbCircle
10
-206
20
0
40
2
0
LINE
5
19D
100
AcDbEntity
8
gantry_side
6
ByLayer
62
256
370
-1
100
AcDbLine
10
-113
20
148
11
-113
21
160
0
LINE
5
19E
100
AcDbEntity
8
gantry_side
6
ByLayer
62
256
370
-1
100
AcDbLine
10
-133
20
160
11
-133
21
148
0
LINE
5
19F
100
AcDbEntity
8
gantry_side
6
ByLayer
62
256
370
-1
100
AcDbLine
10
-129
20
160
11
-117
21
160
0
ARC
5
1A0
100
AcDbEntity
8
gantry_side
6
ByLayer
62
256
370
-1
100
AcDbCircle
10
-115
20
160
40
2
100
AcDbArc
50
359.999884088
51
180
0
ARC
5
1A1
100
AcDbEntity
8
gantry_side
6
ByLayer
62
256
370
-1
100
AcDbCircle
10
-131
20
160
40
2
100
AcDbArc
50
360
51
179.999961363
0
LINE
5
1A2
100
AcDbEntity
8
gantry_side
6
ByLayer
62
256
370
-1
100
AcDbLine
10
-129
20
148
11
-117
21
148
0
ARC
5
1A3
100
AcDbEntity
8
gantry_side
6
ByLayer
62
256
370
-1
100
AcDbCircle
10
-115
20
148
40
2
100
AcDbArc
50
180
51
0.000115912152826
0
ARC
5
1A4
100
AcDbEntity
8
gantry_side
6
ByLayer
62
256
370
-1
100
AcDbCircle
10
-131
20
148
40
2
100
AcDbArc
50
180.000038637
51
360
0
CIRCLE
5
1A5
100
AcDbEntity
8
gantry_side
6
ByLayer
62
256
370
-1
100
AcDbCircle
10
-143
20
210
40
2
0
CIRCLE
5
1A6
100
AcDbEntity
8
gantry_side
6
ByLayer
62
256
370
-1
100
AcDbCircle
10
-143
20
170
40
2
0
LINE
5
1A7
100
AcDbEntity
8
head_rear
6
ByLayer
62
256
370
-1
100
AcDbLine
10
-51
20
81.5
11
-51
21
-81.5
0
LINE
5
1A8
100
AcDbEntity
8
head_rear
6
ByLayer
62
256
370
-1
100
AcDbLine
10
51
20
81.5
11
51
21
-81.5
0
LINE
5
1A9
100
AcDbEntity
8
head_rear
6
ByLayer
62
256
370
-1
100
AcDbLine
10
5.72522378601e-15
20
93.5
11
20
21
93.5
0
LINE
5
1AA
100
AcDbEntity
8
head_rear
6
ByLayer
62
256
370
-1
100
AcDbLine
10
5.72522378601e-15
20
93.5
11
-20
21
93.5
0
LINE
5
1AB
100
AcDbEntity
8
head_rear
6
ByLayer
62
256
370
-1
100
AcDbLine
10
20
20
93.5
11
20
21
81.5
0
LINE
5
1AC
100
AcDbEntity
8
head_rear
6
ByLayer
62
256
370
-1
100
AcDbLine
10
-20
20
93.5
11
-20
21
81.5
0
LINE
5
1AD
100
AcDbEntity
8
head_rear
6
ByLayer
62
256
370
-1
100
AcDbLine
10
-51
20
81.5
11
-24
21
81.5
0
ARC
5
1AE
100
AcDbEntity
8
head_rear
6
ByLayer
62
256
370
-1
100
AcDbCircle
10
-22
20
81.5
40
2
100
AcDbArc
50
180
51
360
0
LINE
5
1AF
100
AcDbEntity
8
head_rear
6
ByLayer
62
256
370
-1
100
AcDbLine
10
24
20
81.5
11
51
21
81.5
0
ARC
5
1B0
100
AcDbEntity
8
head_rear
6
ByLayer
62
256
370
-1
100
AcDbCircle
10
22
20
81.5
40
2
100
AcDbArc
50
179.999945358
51
0
0
LINE
5
1B1
100
AcDbEntity
8
head_rear
6
ByLayer
62
256
370
-1
100
AcDbLine
10
2.26964856444e-14
20
-93.5
11
20
21
-93.5
0
LINE
5
1B2
100
AcDbEntity
8
head_rear
6
ByLayer
62
256
370
-1
100
AcDbLine
10
2.26964856444e-14
20
-93.5
11
-20
21
-93.5
0
LINE
5
1B3
100
AcDbEntity
8
head_rear
6
ByLayer
62
256
370
-1
100
AcDbLine
10
20
20
-93.5
11
20
21
-81.5
0
LINE
5
1B4
100
AcDbEntity
8
head_rear
6
ByLayer
62
256
370
-1
100
AcDbLine
10
-20
20
-93.5
11
-20
21
-81.5
0
LINE
5
1B5
100
AcDbEntity
8
head_rear
6
ByLayer
62
256
370
-1
100
AcDbLine
10
-51
20
-81.5
11
-24
21
-81.5
0
ARC
5
1B6
100
AcDbEntity
8
head_rear
6
ByLayer
62
256
370
-1
100
AcDbCircle
10
-22
20
-81.5
40
2
100
AcDbArc
50
4.07110999227e-13
51
180
0
LINE
5
1B7
100
AcDbEntity
8
head_rear
6
ByLayer
62
256
370
-1
100
AcDbLine
10
24
20
-81.5
11
51
21
-81.5
0
ARC
5
1B8
100
AcDbEntity
8
head_rear
6
ByLayer
62
256
370
-1
100
AcDbCircle
10
22
20
-81.5
40
2
100
AcDbArc
50
0
51
180.000054642
0
LINE
5
1B9
100
AcDbEntity
8
head_front
6
ByLayer
62
256
370
-1
100
AcDbLine
10
-51
20
81.5
11
-51
21
-81.5
0
LINE
5
1BA
100
AcDbEntity
8
head_front
6
ByLayer
62
256
370
-1
100
AcDbLine
10
51
20
81.5
11
51
21
-81.5
0
LINE
5
1BB
100
AcDbEntity
8
head_front
6
ByLayer
62
256
370
-1
100
AcDbLine
10
5.72522378601e-15
20
93.5
11
20
21
93.5
0
LINE
5
1BC
100
AcDbEntity
8
head_front
6
ByLayer
62
256
370
-1
100
AcDbLine
10
5.72522378601e-15
20
93.5
11
-20
21
93.5
0
LINE
5
1BD
100
AcDbEntity
8
head_front
6
ByLayer
62
256
370
-1
100
AcDbLine
10
20
20
93.5
11
20
21
81.5
0
LINE
5
1BE
100
AcDbEntity
8
head_front
6
ByLayer
62
256
370
-1
100
AcDbLine
10
-20
20
93.5
11
-20
21
81.5
0
LINE
5
1BF
100
AcDbEntity
8
head_front
6
ByLayer
62
256
370
-1
100
AcDbLine
10
-51
20
81.5
11
-24
21
81.5
0
ARC
5
1C0
100
AcDbEntity
8
head_front
6
ByLayer
62
256
370
-1
100
AcDbCircle
10
-22
20
81.5
40
2
100
AcDbArc
50
180
51
360
0
LINE
5
1C1
100
AcDbEntity
8
head_front
6
ByLayer
62
256
370
-1
100
AcDbLine
10
24
20
81.5
11
51
21
81.5
0
ARC
5
1C2
100
AcDbEntity
8
head_front
6
ByLayer
62
256
370
-1
100
AcDbCircle
10
22
20
81.5
40
2
100
AcDbArc
50
179.999945358
51
0
0
LINE
5
1C3
100
AcDbEntity
8
head_front
6
ByLayer
62
256
370
-1
100
AcDbLine
10
2.26964856444e-14
20
-93.5
11
20
21
-93.5
0
LINE
5
1C4
100
AcDbEntity
8
head_front
6
ByLayer
62
256
370
-1
100
AcDbLine
10
2.26964856444e-14
20
-93.5
11
-20
21
-93.5
0
LINE
5
1C5
100
AcDbEntity
8
head_front
6
ByLayer
62
256
370
-1
100
AcDbLine
10
20
20
-93.5
11
20
21
-81.5
0
LINE
5
1C6
100
AcDbEntity
8
head_front
6
ByLayer
62
256
370
-1
100
AcDbLine
10
-20
20
-93.5
11
-20
21
-81.5
0
LINE
5
1C7
100
AcDbEntity
8
head_front
6
ByLayer
62
256
370
-1
100
AcDbLine
10
-51
20
-81.5
11
-24
21
-81.5
0
ARC
5
1C8
100
AcDbEntity
8
head_front
6
ByLayer
62
256
370
-1
100
AcDbCircle
10
-22
20
-81.5
40
2
100
AcDbArc
50
4.07110999227e-13
51
180
0
LINE
5
1C9
100
AcDbEntity
8
head_front
6
ByLayer
62
256
370
-1
100
AcDbLine
10
24
20
-81.5
11
51
21
-81.5
0
ARC
5
1CA
100
AcDbEntity
8
head_front
6
ByLayer
62
256
370
-1
100
AcDbCircle
10
22
20
-81.5
40
2
100
AcDbArc
50
0
51
180.000054642
0
CIRCLE
5
1CB
100
AcDbEntity
8
head_rear
6
ByLayer
62
256
370
-1
100
AcDbCircle
10
2.30638796841e-14
20
-87.5
40
2
0
CIRCLE
5
1CC
100
AcDbEntity
8
head_rear
6
ByLayer
62
256
370
-1
100
AcDbCircle
10
4.62304166678e-15
20
87.5
40
2
0
CIRCLE
5
1CD
100
AcDbEntity
8
head_front
6
ByLayer
62
256
370
-1
100
AcDbCircle
10
2.30638796841e-14
20
-87.5
40
2
0
CIRCLE
5
1CE
100
AcDbEntity
8
head_front
6
ByLayer
62
256
370
-1
100
AcDbCircle
10
4.62304166678e-15
20
87.5
40
2
0
CIRCLE
5
1CF
100
AcDbEntity
8
head_front
6
ByLayer
62
256
370
-1
100
AcDbCircle
10
-46
20
70
40
2
0
CIRCLE
5
1D0
100
AcDbEntity
8
head_front
6
ByLayer
62
256
370
-1
100
AcDbCircle
10
-14
20
70
40
2
0
CIRCLE
5
1D1
100
AcDbEntity
8
head_front
6
ByLayer
62
256
370
-1
100
AcDbCircle
10
46
20
70
40
2
0
CIRCLE
5
1D2
100
AcDbEntity
8
head_front
6
ByLayer
62
256
370
-1
100
AcDbCircle
10
14
20
70
40
2
0
CIRCLE
5
1D3
100
AcDbEntity
8
head_front
6
ByLayer
62
256
370
-1
100
AcDbCircle
10
-46
20
-70
40
2
0
CIRCLE
5
1D4
100
AcDbEntity
8
head_front
6
ByLayer
62
256
370
-1
100
AcDbCircle
10
-14
20
-70
40
2
0
CIRCLE
5
1D5
100
AcDbEntity
8
head_front
6
ByLayer
62
256
370
-1
100
AcDbCircle
10
46
20
-70
40
2
0
CIRCLE
5
1D6
100
AcDbEntity
8
head_front
6
ByLayer
62
256
370
-1
100
AcDbCircle
10
14
20
-70
40
2
0
LINE
5
1D7
100
AcDbEntity
8
head_top
6
ByLayer
62
256
370
-1
100
AcDbLine
10
-20
20
-60
11
-20
21
-48
0
LINE
5
1D8
100
AcDbEntity
8
head_top
6
ByLayer
62
256
370
-1
100
AcDbLine
10
20
20
-60
11
20
21
-48
0
ARC
5
1D9
100
AcDbEntity
8
head_top
6
ByLayer
62
256
370
-1
100
AcDbCircle
10
-18
20
-48
40
2
100
AcDbArc
50
360
51
179.999961363
0
LINE
5
1DA
100
AcDbEntity
8
head_top
6
ByLayer
62
256
370
-1
100
AcDbLine
10
-16
20
-48
11
16
21
-48
0
ARC
5
1DB
100
AcDbEntity
8
head_top
6
ByLayer
62
256
370
-1
100
AcDbCircle
10
18
20
-48
40
2
100
AcDbArc
50
1.36603785436e-05
51
180
0
LINE
5
1DC
100
AcDbEntity
8
head_top
6
ByLayer
62
256
370
-1
100
AcDbLine
10
-51
20
-60
11
-20
21
-60
0
LINE
5
1DD
100
AcDbEntity
8
head_top
6
ByLayer
62
256
370
-1
100
AcDbLine
10
20
20
-60
11
51
21
-60
0
LINE
5
1DE
100
AcDbEntity
8
head_top
6
ByLayer
62
256
370
-1
100
AcDbLine
10
-20
20
22
11
-20
21
10
0
LINE
5
1DF
100
AcDbEntity
8
head_top
6
ByLayer
62
256
370
-1
100
AcDbLine
10
20
20
22
11
20
21
10
0
ARC
5
1E0
100
AcDbEntity
8
head_top
6
ByLayer
62
256
370
-1
100
AcDbCircle
10
-18
20
10
40
2
100
AcDbArc
50
180
51
0
0
ARC
5
1E1
100
AcDbEntity
8
head_top
6
ByLayer
62
256
370
-1
100
AcDbCircle
10
18
20
10
40
2
100
AcDbArc
50
180
51
360.000038637
0
LINE
5
1E2
100
AcDbEntity
8
head_top
6
ByLayer
62
256
370
-1
100
AcDbLine
10
-16
20
10
11
16
21
10
0
ARC
5
1E3
100
AcDbEntity
8
head_top
6
ByLayer
62
256
370
-1
100
AcDbCircle
10
-18
20
22
40
2
100
AcDbArc
50
0
51
180
0
ARC
5
1E4
100
AcDbEntity
8
head_top
6
ByLayer
62
256
370
-1
100
AcDbCircle
10
18
20
22
40
2
100
AcDbArc
50
359.999961363
51
180
0
LINE
5
1E5
100
AcDbEntity
8
head_top
6
ByLayer
62
256
370
-1
100
AcDbLine
10
-16
20
22
11
16
21
22
0
CIRCLE
5
1E6
100
AcDbEntity
8
head_top
6
ByLayer
62
256
370
-1
100
AcDbCircle
10
-35
20
16
40
2
0
CIRCLE
5
1E7
100
AcDbEntity
8
head_top
6
ByLayer
62
256
370
-1
100
AcDbCircle
10
35
20
16
40
2
0
CIRCLE
5
1E8
100
AcDbEntity
8
head_top
6
ByLayer
62
256
370
-1
100
AcDbCircle
10
35
20
-54
40
2
0
CIRCLE
5
1E9
100
AcDbEntity
8
head_top
6
ByLayer
62
256
370
-1
100
AcDbCircle
10
-35
20
-54
40
2
0
CIRCLE
5
1EA
100
AcDbEntity
8
head_top
6
ByLayer
62
256
370
-1
100
AcDbCircle
10
30
20
42
40
4.2
0
CIRCLE
5
1EB
100
AcDbEntity
8
head_top
6
ByLayer
62
256
370
-1
100
AcDbCircle
10
-30
20
42
40
4.2
0
CIRCLE
5
1EC
100
AcDbEntity
8
head_top
6
ByLayer
62
256
370
-1
100
AcDbCircle
10
-4.26937964856e-14
20
41
40
13
0
CIRCLE
5
1ED
100
AcDbEntity
8
head_top
6
ByLayer
62
256
370
-1
100
AcDbCircle
10
-18
20
41
40
2
0
CIRCLE
5
1EE
100
AcDbEntity
8
head_top
6
ByLayer
62
256
370
-1
100
AcDbCircle
10
18
20
41
40
2
0
CIRCLE
5
1EF
100
AcDbEntity
8
head_top
6
ByLayer
62
256
370
-1
100
AcDbCircle
10
33
20
4
40
2.5
0
CIRCLE
5
1F0
100
AcDbEntity
8
head_top
6
ByLayer
62
256
370
-1
100
AcDbCircle
10
7
20
4
40
2.5
0
CIRCLE
5
1F1
100
AcDbEntity
8
head_top
6
ByLayer
62
256
370
-1
100
AcDbCircle
10
7
20
-24
40
2.5
0
CIRCLE
5
1F2
100
AcDbEntity
8
head_top
6
ByLayer
62
256
370
-1
100
AcDbCircle
10
33
20
-24
40
2.5
0
CIRCLE
5
1F3
100
AcDbEntity
8
head_top
6
ByLayer
62
256
370
-1
100
AcDbCircle
10
-7
20
-24
40
2.5
0
CIRCLE
5
1F4
100
AcDbEntity
8
head_top
6
ByLayer
62
256
370
-1
100
AcDbCircle
10
-33
20
-24
40
2.5
0
CIRCLE
5
1F5
100
AcDbEntity
8
head_top
6
ByLayer
62
256
370
-1
100
AcDbCircle
10
-33
20
4
40
2.5
0
CIRCLE
5
1F6
100
AcDbEntity
8
head_top
6
ByLayer
62
256
370
-1
100
AcDbCircle
10
-7
20
4
40
2.5
0
LINE
5
1F7
100
AcDbEntity
8
head_top
6
ByLayer
62
256
370
-1
100
AcDbLine
10
51
20
-60
11
51
21
40
0
ARC
5
1F8
100
AcDbEntity
8
head_top
6
ByLayer
62
256
370
-1
100
AcDbCircle
10
31
20
40
40
20
100
AcDbArc
50
0
51
90
0
LINE
5
1F9
100
AcDbEntity
8
head_top
6
ByLayer
62
256
370
-1
100
AcDbLine
10
-31
20
60
11
31
21
60
0
LINE
5
1FA
100
AcDbEntity
8
head_top
6
ByLayer
62
256
370
-1
100
AcDbLine
10
-51
20
-60
11
-51
21
40
0
ARC
5
1FB
100
AcDbEntity
8
head_top
6
ByLayer
62
256
370
-1
100
AcDbCircle
10
-31
20
40
40
20
100
AcDbArc
50
90
51
180
0
CIRCLE
5
1FC
100
AcDbEntity
8
head_front
6
ByLayer
62
256
370
-1
100
AcDbCircle
10
12
20
19.5
40
2.5
0
CIRCLE
5
1FD
100
AcDbEntity
8
head_front
6
ByLayer
62
256
370
-1
100
AcDbCircle
10
-12
20
19.5
40
2.5
0
CIRCLE
5
1FE
100
AcDbEntity
8
head_front
6
ByLayer
62
256
370
-1
100
AcDbCircle
10
-12
20
-19.5
40
2.5
0
CIRCLE
5
1FF
100
AcDbEntity
8
head_front
6
ByLayer
62
256
370
-1
100
AcDbCircle
10
12
20
-19.5
40
2.5
0
LINE
5
200
100
AcDbEntity
8
gantry_side
6
ByLayer
62
256
370
-1
100
AcDbLine
10
-149
20
148
11
-74.4292350222
21
55.4944940782
0
LINE
5
201
100
AcDbEntity
8
gantry_side
6
ByLayer
62
256
370
-1
100
AcDbLine
10
-70
20
42.9425508818
11
-70
21
-34
0
ARC
5
202
100
AcDbEntity
8
gantry_side
6
ByLayer
62
256
370
-1
100
AcDbCircle
10
-90
20
42.9425508818
40
20
100
AcDbArc
50
0
51
38.8730669945
0
LINE
5
203
100
AcDbEntity
8
spindle_plate
6
ByLayer
62
256
370
-1
100
AcDbLine
10
47
20
30.5
11
47
21
-30.5
0
LINE
5
204
100
AcDbEntity
8
spindle_plate
6
ByLayer
62
256
370
-1
100
AcDbLine
10
-47
20
30.5
11
-47
21
-30.5
0
CIRCLE
5
205
100
AcDbEntity
8
spindle_plate
6
ByLayer
62
256
370
-1
100
AcDbCircle
10
42
20
-6.5
40
2
0
CIRCLE
5
206
100
AcDbEntity
8
spindle_plate
6
ByLayer
62
256
370
-1
100
AcDbCircle
10
18
20
-6.5
40
2
0
CIRCLE
5
207
100
AcDbEntity
8
spindle_plate
6
ByLayer
62
256
370
-1
100
AcDbCircle
10
18
20
-24.5
40
2
0
CIRCLE
5
208
100
AcDbEntity
8
spindle_plate
6
ByLayer
62
256
370
-1
100
AcDbCircle
10
42
20
-24.5
40
2
0
CIRCLE
5
209
100
AcDbEntity
8
spindle_plate
6
ByLayer
62
256
370
-1
100
AcDbCircle
10
42
20
6.5
40
2
0
CIRCLE
5
20A
100
AcDbEntity
8
spindle_plate
6
ByLayer
62
256
370
-1
100
AcDbCircle
10
18
20
6.5
40
2
0
CIRCLE
5
20B
100
AcDbEntity
8
spindle_plate
6
ByLayer
62
256
370
-1
100
AcDbCircle
10
18
20
24.5
40
2
0
CIRCLE
5
20C
100
AcDbEntity
8
spindle_plate
6
ByLayer
62
256
370
-1
100
AcDbCircle
10
42
20
24.5
40
2
0
CIRCLE
5
20D
100
AcDbEntity
8
spindle_plate
6
ByLayer
62
256
370
-1
100
AcDbCircle
10
-42
20
-6.5
40
2
0
CIRCLE
5
20E
100
AcDbEntity
8
spindle_plate
6
ByLayer
62
256
370
-1
100
AcDbCircle
10
-18
20
-6.5
40
2
0
CIRCLE
5
20F
100
AcDbEntity
8
spindle_plate
6
ByLayer
62
256
370
-1
100
AcDbCircle
10
-18
20
-24.5
40
2
0
CIRCLE
5
210
100
AcDbEntity
8
spindle_plate
6
ByLayer
62
256
370
-1
100
AcDbCircle
10
-42
20
-24.5
40
2
0
CIRCLE
5
211
100
AcDbEntity
8
spindle_plate
6
ByLayer
62
256
370
-1
100
AcDbCircle
10
-42
20
6.5
40
2
0
CIRCLE
5
212
100
AcDbEntity
8
spindle_plate
6
ByLayer
62
256
370
-1
100
AcDbCircle
10
-18
20
6.5
40
2
0
CIRCLE
5
213
100
AcDbEntity
8
spindle_plate
6
ByLayer
62
256
370
-1
100
AcDbCircle
10
-18
20
24.5
40
2
0
CIRCLE
5
214
100
AcDbEntity
8
spindle_plate
6
ByLayer
62
256
370
-1
100
AcDbCircle
10
-42
20
24.5
40
2
0
CIRCLE
5
215
100
AcDbEntity
8
spindle_plate
6
ByLayer
62
256
370
-1
100
AcDbCircle
10
35
20
10
40
3
0
CIRCLE
5
216
100
AcDbEntity
8
spindle_plate
6
ByLayer
62
256
370
-1
100
AcDbCircle
10
35
20
-10
40
3
0
CIRCLE
5
217
100
AcDbEntity
8
spindle_plate
6
ByLayer
62
256
370
-1
100
AcDbCircle
10
-35
20
-10
40
3
0
CIRCLE
5
218
100
AcDbEntity
8
spindle_plate
6
ByLayer
62
256
370
-1
100
AcDbCircle
10
-35
20
10
40
3
0
LINE
5
219
100
AcDbEntity
8
spindle_plate
6
ByLayer
62
256
370
-1
100
AcDbLine
10
-47
20
30.5
11
47
21
30.5
0
LINE
5
21A
100
AcDbEntity
8
spindle_plate
6
ByLayer
62
256
370
-1
100
AcDbLine
10
-47
20
-30.5
11
47
21
-30.5
0
LINE
5
21B
100
AcDbEntity
8
gantry_side_motor
6
ByLayer
62
256
370
-1
100
AcDbLine
10
-12.5
20
6
11
12.5
21
6
0
LINE
5
21C
100
AcDbEntity
8
gantry_side_motor
6
ByLayer
62
256
370
-1
100
AcDbLine
10
-12.5
20
-6
11
12.5
21
-6
0
LINE
5
21D
100
AcDbEntity
8
gantry_side_motor
6
ByLayer
62
256
370
-1
100
AcDbLine
10
70
20
-34
11
70
21
50
0
LINE
5
21E
100
AcDbEntity
8
gantry_side_motor
6
ByLayer
62
256
370
-1
100
AcDbLine
10
50
20
-6
11
25
21
-6
0
LINE
5
21F
100
AcDbEntity
8
gantry_side_motor
6
ByLayer
62
256
370
-1
100
AcDbLine
10
25
20
-18
11
50
21
-18
0
LINE
5
220
100
AcDbEntity
8
gantry_side_motor
6
ByLayer
62
256
370
-1
100
AcDbLine
10
-50
20
-18
11
-25
21
-18
0
LINE
5
221
100
AcDbEntity
8
gantry_side_motor
6
ByLayer
62
256
370
-1
100
AcDbLine
10
-25
20
-6
11
-50
21
-6
0
CIRCLE
5
222
100
AcDbEntity
8
gantry_side_motor
6
ByLayer
62
256
370
-1
100
AcDbCircle
10
-1
20
-12
40
2
0
CIRCLE
5
223
100
AcDbEntity
8
gantry_side_motor
6
ByLayer
62
256
370
-1
100
AcDbCircle
10
-50
20
0
40
2
0
CIRCLE
5
224
100
AcDbEntity
8
gantry_side_motor
6
ByLayer
62
256
370
-1
100
AcDbCircle
10
50
20
0
40
2
0
LINE
5
225
100
AcDbEntity
8
gantry_side_motor
6
ByLayer
62
256
370
-1
100
AcDbLine
10
-70
20
-34
11
-70
21
-46
0
LINE
5
226
100
AcDbEntity
8
gantry_side_motor
6
ByLayer
62
256
370
-1
100
AcDbLine
10
70
20
-34
11
70
21
-46
0
LINE
5
227
100
AcDbEntity
8
gantry_side_motor
6
ByLayer
62
256
370
-1
100
AcDbLine
10
-70
20
-46
11
70
21
-46
0
LINE
5
228
100
AcDbEntity
8
gantry_side_motor
6
ByLayer
62
256
370
-1
100
AcDbLine
10
-87
20
232
11
70
21
50
0
LINE
5
229
100
AcDbEntity
8
gantry_side_motor
6
ByLayer
62
256
370
-1
100
AcDbLine
10
-12.5
20
0
11
-12.5
21
2
0
LINE
5
22A
100
AcDbEntity
8
gantry_side_motor
6
ByLayer
62
256
370
-1
100
AcDbLine
10
-12.5
20
0
11
-12.5
21
-2
0
ARC
5
22B
100
AcDbEntity
8
gantry_side_motor
6
ByLayer
62
256
370
-1
100
AcDbCircle
10
-12.5
20
-4
40
2
100
AcDbArc
50
90
51
269.999990341
0
ARC
5
22C
100
AcDbEntity
8
gantry_side_motor
6
ByLayer
62
256
370
-1
100
AcDbCircle
10
-12.5
20
4
40
2
100
AcDbArc
50
89.9999975852
51
270
0
ARC
5
22D
100
AcDbEntity
8
gantry_side_motor
6
ByLayer
62
256
370
-1
100
AcDbCircle
10
12.5
20
4
40
2
100
AcDbArc
50
270
51
449.999990341
0
LINE
5
22E
100
AcDbEntity
8
gantry_side_motor
6
ByLayer
62
256
370
-1
100
AcDbLine
10
12.5
20
0
11
12.5
21
2
0
LINE
5
22F
100
AcDbEntity
8
gantry_side_motor
6
ByLayer
62
256
370
-1
100
AcDbLine
10
12.5
20
0
11
12.5
21
-2
0
ARC
5
230
100
AcDbEntity
8
gantry_side_motor
6
ByLayer
62
256
370
-1
100
AcDbCircle
10
12.5
20
-4
40
2
100
AcDbArc
50
270.000002415
51
450
0
ARC
5
231
100
AcDbEntity
8
gantry_side_motor
6
ByLayer
62
256
370
-1
100
AcDbCircle
10
-50
20
-8
40
2
100
AcDbArc
50
89.9999806813
51
270
0
ARC
5
232
100
AcDbEntity
8
gantry_side_motor
6
ByLayer
62
256
370
-1
100
AcDbCircle
10
-50
20
-16
40
2
100
AcDbArc
50
90
51
270
0
LINE
5
233
100
AcDbEntity
8
gantry_side_motor
6
ByLayer
62
256
370
-1
100
AcDbLine
10
-50
20
-10
11
-50
21
-14
0
LINE
5
234
100
AcDbEntity
8
gantry_side_motor
6
ByLayer
62
256
370
-1
100
AcDbLine
10
-25
20
-14
11
-25
21
-10
0
ARC
5
235
100
AcDbEntity
8
gantry_side_motor
6
ByLayer
62
256
370
-1
100
AcDbCircle
10
-25
20
-16
40
2
100
AcDbArc
50
270.00002366
51
450
0
ARC
5
236
100
AcDbEntity
8
gantry_side_motor
6
ByLayer
62
256
370
-1
100
AcDbCircle
10
-25
20
-8
40
2
100
AcDbArc
50
270
51
89.9999863396
0
ARC
5
237
100
AcDbEntity
8
gantry_side_motor
6
ByLayer
62
256
370
-1
100
AcDbCircle
10
25
20
-8
40
2
100
AcDbArc
50
90.0000118302
51
270.00001183
0
ARC
5
238
100
AcDbEntity
8
gantry_side_motor
6
ByLayer
62
256
370
-1
100
AcDbCircle
10
25
20
-16
40
2
100
AcDbArc
50
90
51
269.99999517
0
LINE
5
239
100
AcDbEntity
8
gantry_side_motor
6
ByLayer
62
256
370
-1
100
AcDbLine
10
50
20
-14
11
50
21
-10
0
ARC
5
23A
100
AcDbEntity
8
gantry_side_motor
6
ByLayer
62
256
370
-1
100
AcDbCircle
10
50
20
-8
40
2
100
AcDbArc
50
270
51
89.9999863396
0
ARC
5
23B
100
AcDbEntity
8
gantry_side_motor
6
ByLayer
62
256
370
-1
100
AcDbCircle
10
50
20
-16
40
2
100
AcDbArc
50
270.00002366
51
450
0
LINE
5
23C
100
AcDbEntity
8
gantry_side_motor
6
ByLayer
62
256
370
-1
100
AcDbLine
10
25
20
-10
11
25
21
-14
0
LINE
5
23D
100
AcDbEntity
8
gantry_side_motor
6
ByLayer
62
256
370
-1
100
AcDbLine
10
-137
20
200
11
-149
21
200
0
LINE
5
23E
100
AcDbEntity
8
gantry_side_motor
6
ByLayer
62
256
370
-1
100
AcDbLine
10
-137
20
180
11
-149
21
180
0
LINE
5
23F
100
AcDbEntity
8
gantry_side_motor
6
ByLayer
62
256
370
-1
100
AcDbLine
10
-149
20
232
11
-149
21
200
0
LINE
5
240
100
AcDbEntity
8
gantry_side_motor
6
ByLayer
62
256
370
-1
100
AcDbLine
10
-149
20
148
11
-149
21
180
0
LINE
5
241
100
AcDbEntity
8
gantry_side_motor
6
ByLayer
62
256
370
-1
100
AcDbLine
10
-137
20
196
11
-137
21
184
0
ARC
5
242
100
AcDbEntity
8
gantry_side_motor
6
ByLayer
62
256
370
-1
100
AcDbCircle
10
-137
20
198
40
2
100
AcDbArc
50
270
51
450.000122182
0
ARC
5
243
100
AcDbEntity
8
gantry_side_motor
6
ByLayer
62
256
370
-1
100
AcDbCircle
10
-137
20
182
40
2
100
AcDbArc
50
269.999972679
51
450
0
LINE
5
244
100
AcDbEntity
8
gantry_side_motor
6
ByLayer
62
256
370
-1
100
AcDbLine
10
-87
20
232
11
-113
21
232
0
LINE
5
245
100
AcDbEntity
8
gantry_side_motor
6
ByLayer
62
256
370
-1
100
AcDbLine
10
-113
20
232
11
-113
21
220
0
LINE
5
246
100
AcDbEntity
8
gantry_side_motor
6
ByLayer
62
256
370
-1
100
AcDbLine
10
-133
20
220
11
-133
21
232
0
LINE
5
247
100
AcDbEntity
8
gantry_side_motor
6
ByLayer
62
256
370
-1
100
AcDbLine
10
-149
20
232
11
-133
21
232
0
LINE
5
248
100
AcDbEntity
8
gantry_side_motor
6
ByLayer
62
256
370
-1
100
AcDbLine
10
-129
20
220
11
-117
21
220
0
ARC
5
249
100
AcDbEntity
8
gantry_side_motor
6
ByLayer
62
256
370
-1
100
AcDbCircle
10
-115
20
220
40
2
100
AcDbArc
50
180
51
360.000115912
0
ARC
5
24A
100
AcDbEntity
8
gantry_side_motor
6
ByLayer
62
256
370
-1
100
AcDbCircle
10
-131
20
220
40
2
100
AcDbArc
50
180.000038637
51
360
0
LINE
5
24B
100
AcDbEntity
8
gantry_side_motor
6
ByLayer
62
256
370
-1
100
AcDbLine
10
-113
20
148
11
-113
21
160
0
LINE
5
24C
100
AcDbEntity
8
gantry_side_motor
6
ByLayer
62
256
370
-1
100
AcDbLine
10
-133
20
160
11
-133
21
148
0
LINE
5
24D
100
AcDbEntity
8
gantry_side_motor
6
ByLayer
62
256
370
-1
100
AcDbLine
10
-129
20
160
11
-117
21
160
0
ARC
5
24E
100
AcDbEntity
8
gantry_side_motor
6
ByLayer
62
256
370
-1
100
AcDbCircle
10
-115
20
160
40
2
100
AcDbArc
50
359.999884088
51
180
0
ARC
5
24F
100
AcDbEntity
8
gantry_side_motor
6
ByLayer
62
256
370
-1
100
AcDbCircle
10
-131
20
160
40
2
100
AcDbArc
50
360
51
179.999961363
0
LINE
5
250
100
AcDbEntity
8
gantry_side_motor
6
ByLayer
62
256
370
-1
100
AcDbLine
10
-129
20
148
11
-117
21
148
0
ARC
5
251
100
AcDbEntity
8
gantry_side_motor
6
ByLayer
62
256
370
-1
100
AcDbCircle
10
-115
20
148
40
2
100
AcDbArc
50
180
51
0.000115912152826
0
ARC
5
252
100
AcDbEntity
8
gantry_side_motor
6
ByLayer
62
256
370
-1
100
AcDbCircle
10
-131
20
148
40
2
100
AcDbArc
50
180.000038637
51
360
0
CIRCLE
5
253
100
AcDbEntity
8
gantry_side_motor
6
ByLayer
62
256
370
-1
100
AcDbCircle
10
-143
20
210
40
2
0
CIRCLE
5
254
100
AcDbEntity
8
gantry_side_motor
6
ByLayer
62
256
370
-1
100
AcDbCircle
10
-143
20
170
40
2
0
LINE
5
255
100
AcDbEntity
8
gantry_side_motor
6
ByLayer
62
256
370
-1
100
AcDbLine
10
-149
20
148
11
-74.4292350222
21
55.4944940782
0
LINE
5
256
100
AcDbEntity
8
gantry_side_motor
6
ByLayer
62
256
370
-1
100
AcDbLine
10
-70
20
42.9425508818
11
-70
21
-34
0
ARC
5
257
100
AcDbEntity
8
gantry_side_motor
6
ByLayer
62
256
370
-1
100
AcDbCircle
10
-90
20
42.9425508818
40
20
100
AcDbArc
50
0
51
38.8730669945
0
CIRCLE
5
258
100
AcDbEntity
8
gantry_side_motor
6
ByLayer
62
256
370
-1
100
AcDbCircle
10
-112
20
190
40
13.5
0
LINE
5
259
100
AcDbEntity
8
base_ribs
6
ByLayer
62
256
370
-1
100
AcDbLine
10
-22.5
20
0
11
-22.5
21
350
0
LINE
5
25A
100
AcDbEntity
8
base_ribs
6
ByLayer
62
256
370
-1
100
AcDbLine
10
-22.5
20
0
11
-22.5
21
-350
0
LINE
5
25B
100
AcDbEntity
8
base_ribs
6
ByLayer
62
256
370
-1
100
AcDbLine
10
22.5
20
-50
11
34.5
21
-50
0
LINE
5
25C
100
AcDbEntity
8
base_ribs
6
ByLayer
62
256
370
-1
100
AcDbLine
10
22.5
20
50
11
34.5
21
50
0
LINE
5
25D
100
AcDbEntity
8
base_ribs
6
ByLayer
62
256
370
-1
100
AcDbLine
10
34.5
20
50
11
34.5
21
-50
0
ARC
5
25E
100
AcDbEntity
8
base_ribs
6
ByLayer
62
256
370
-1
100
AcDbCircle
10
22.5
20
-52
40
2
100
AcDbArc
50
89.999971022
51
269.999971022
0
ARC
5
25F
100
AcDbEntity
8
base_ribs
6
ByLayer
62
256
370
-1
100
AcDbCircle
10
22.5
20
52
40
2
100
AcDbArc
50
89.9999726792
51
269.999972679
0
LINE
5
260
100
AcDbEntity
8
base_ribs
6
ByLayer
62
256
370
-1
100
AcDbLine
10
22.5
20
250
11
34.5
21
250
0
LINE
5
261
100
AcDbEntity
8
base_ribs
6
ByLayer
62
256
370
-1
100
AcDbLine
10
22.5
20
150
11
34.5
21
150
0
LINE
5
262
100
AcDbEntity
8
base_ribs
6
ByLayer
62
256
370
-1
100
AcDbLine
10
34.5
20
150
11
34.5
21
250
0
ARC
5
263
100
AcDbEntity
8
base_ribs
6
ByLayer
62
256
370
-1
100
AcDbCircle
10
22.5
20
252
40
2
100
AcDbArc
50
90.000028978
51
270.000028978
0
ARC
5
264
100
AcDbEntity
8
base_ribs
6
ByLayer
62
256
370
-1
100
AcDbCircle
10
22.5
20
148
40
2
100
AcDbArc
50
90.0000273208
51
270.000027321
0
LINE
5
265
100
AcDbEntity
8
base_ribs
6
ByLayer
62
256
370
-1
100
AcDbLine
10
22.5
20
-150
11
34.5
21
-150
0
LINE
5
266
100
AcDbEntity
8
base_ribs
6
ByLayer
62
256
370
-1
100
AcDbLine
10
22.5
20
-250
11
34.5
21
-250
0
LINE
5
267
100
AcDbEntity
8
base_ribs
6
ByLayer
62
256
370
-1
100
AcDbLine
10
34.5
20
-250
11
34.5
21
-150
0
ARC
5
268
100
AcDbEntity
8
base_ribs
6
ByLayer
62
256
370
-1
100
AcDbCircle
10
22.5
20
-148
40
2
100
AcDbArc
50
90.000028978
51
270.000028978
0
ARC
5
269
100
AcDbEntity
8
base_ribs
6
ByLayer
62
256
370
-1
100
AcDbCircle
10
22.5
20
-252
40
2
100
AcDbArc
50
90.0000273208
51
270.000027321
0
LINE
5
26A
100
AcDbEntity
8
base_ribs
6
ByLayer
62
256
370
-1
100
AcDbLine
10
22.5
20
350
11
22.4999989885
21
254
0
LINE
5
26B
100
AcDbEntity
8
base_ribs
6
ByLayer
62
256
370
-1
100
AcDbLine
10
22.5000009537
20
146
11
22.5000009537
21
54
0
LINE
5
26C
100
AcDbEntity
8
base_ribs
6
ByLayer
62
256
370
-1
100
AcDbLine
10
22.4999989885
20
-54
11
22.4999989885
21
-146
0
LINE
5
26D
100
AcDbEntity
8
base_ribs
6
ByLayer
62
256
370
-1
100
AcDbLine
10
22.5000009537
20
-254
11
22.5
21
-350
0
LINE
5
26E
100
AcDbEntity
8
base_ribs
6
ByLayer
62
256
370
-1
100
AcDbLine
10
-22.5
20
350
11
-22.5
21
362
0
LINE
5
26F
100
AcDbEntity
8
base_ribs
6
ByLayer
62
256
370
-1
100
AcDbLine
10
2.13162820728e-14
20
350
11
2.20510701523e-14
21
362
0
LINE
5
270
100
AcDbEntity
8
base_ribs
6
ByLayer
62
256
370
-1
100
AcDbLine
10
-22.5
20
362
11
2.20510701523e-14
21
362
0
ARC
5
271
100
AcDbEntity
8
base_ribs
6
ByLayer
62
256
370
-1
100
AcDbCircle
10
2
20
350
40
2
100
AcDbArc
50
180.00015455
51
0
0
LINE
5
272
100
AcDbEntity
8
base_ribs
6
ByLayer
62
256
370
-1
100
AcDbLine
10
4
20
350
11
22.5
21
350
0
LINE
5
273
100
AcDbEntity
8
base_ribs
6
ByLayer
62
256
370
-1
100
AcDbLine
10
-22.5
20
-350
11
-22.5
21
-362
0
LINE
5
274
100
AcDbEntity
8
base_ribs
6
ByLayer
62
256
370
-1
100
AcDbLine
10
3.5527136788e-14
20
-350
11
3.47923487085e-14
21
-362
0
LINE
5
275
100
AcDbEntity
8
base_ribs
6
ByLayer
62
256
370
-1
100
AcDbLine
10
-22.5
20
-362
11
3.47923487085e-14
21
-362
0
ARC
5
276
100
AcDbEntity
8
base_ribs
6
ByLayer
62
256
370
-1
100
AcDbCircle
10
2
20
-350
40
2
100
AcDbArc
50
0
51
179.99984545
0
LINE
5
277
100
AcDbEntity
8
base_ribs
6
ByLayer
62
256
370
-1
100
AcDbLine
10
4
20
-350
11
22.5
21
-350
0
LINE
5
278
100
AcDbEntity
8
base
6
ByLayer
62
256
370
-1
100
AcDbLine
10
100
20
-362
11
150
21
-362
0
LINE
5
279
100
AcDbEntity
8
base
6
ByLayer
62
256
370
-1
100
AcDbLine
10
-100
20
-362
11
-50
21
-362
0
LINE
5
27A
100
AcDbEntity
8
base
6
ByLayer
62
256
370
-1
100
AcDbLine
10
100
20
-362
11
50
21
-362
0
LINE
5
27B
100
AcDbEntity
8
base
6
ByLayer
62
256
370
-1
100
AcDbLine
10
-100
20
-362
11
-150
21
-362
0
LINE
5
27C
100
AcDbEntity
8
base
6
ByLayer
62
256
370
-1
100
AcDbLine
10
-50
20
-362
11
-50
21
-350
0
LINE
5
27D
100
AcDbEntity
8
base
6
ByLayer
62
256
370
-1
100
AcDbLine
10
-150
20
-362
11
-150
21
-350
0
LINE
5
27E
100
AcDbEntity
8
base
6
ByLayer
62
256
370
-1
100
AcDbLine
10
50
20
-362
11
50
21
-350
0
LINE
5
27F
100
AcDbEntity
8
base
6
ByLayer
62
256
370
-1
100
AcDbLine
10
150
20
-362
11
150
21
-350
0
LINE
5
280
100
AcDbEntity
8
base
6
ByLayer
62
256
370
-1
100
AcDbLine
10
-154
20
-350
11
-195
21
-350
0
LINE
5
281
100
AcDbEntity
8
base
6
ByLayer
62
256
370
-1
100
AcDbLine
10
-46
20
-350
11
46
21
-350
0
LINE
5
282
100
AcDbEntity
8
base
6
ByLayer
62
256
370
-1
100
AcDbLine
10
195
20
-350
11
154
21
-350
0
ARC
5
283
100
AcDbEntity
8
base
6
ByLayer
62
256
370
-1
100
AcDbCircle
10
152
20
-350
40
2
100
AcDbArc
50
0
51
179.999922725
0
ARC
5
284
100
AcDbEntity
8
base
6
ByLayer
62
256
370
-1
100
AcDbCircle
10
48
20
-350
40
2
100
AcDbArc
50
0
51
180
0
ARC
5
285
100
AcDbEntity
8
base
6
ByLayer
62
256
370
-1
100
AcDbCircle
10
-48
20
-350
40
2
100
AcDbArc
50
0
51
180.00015455
0
ARC
5
286
100
AcDbEntity
8
base
6
ByLayer
62
256
370
-1
100
AcDbCircle
10
-152
20
-350
40
2
100
AcDbArc
50
359.99984545
51
540
0
LINE
5
287
100
AcDbEntity
8
base
6
ByLayer
62
256
370
-1
100
AcDbLine
10
100
20
362
11
150
21
362
0
LINE
5
288
100
AcDbEntity
8
base
6
ByLayer
62
256
370
-1
100
AcDbLine
10
-100
20
362
11
-50
21
362
0
LINE
5
289
100
AcDbEntity
8
base
6
ByLayer
62
256
370
-1
100
AcDbLine
10
100
20
362
11
50
21
362
0
LINE
5
28A
100
AcDbEntity
8
base
6
ByLayer
62
256
370
-1
100
AcDbLine
10
-100
20
362
11
-150
21
362
0
LINE
5
28B
100
AcDbEntity
8
base
6
ByLayer
62
256
370
-1
100
AcDbLine
10
-50
20
362
11
-50
21
350
0
LINE
5
28C
100
AcDbEntity
8
base
6
ByLayer
62
256
370
-1
100
AcDbLine
10
-150
20
362
11
-150
21
350
0
LINE
5
28D
100
AcDbEntity
8
base
6
ByLayer
62
256
370
-1
100
AcDbLine
10
50
20
362
11
50
21
350
0
LINE
5
28E
100
AcDbEntity
8
base
6
ByLayer
62
256
370
-1
100
AcDbLine
10
150
20
362
11
150
21
350
0
LINE
5
28F
100
AcDbEntity
8
base
6
ByLayer
62
256
370
-1
100
AcDbLine
10
-154
20
350
11
-195
21
350
0
LINE
5
290
100
AcDbEntity
8
base
6
ByLayer
62
256
370
-1
100
AcDbLine
10
-46
20
350
11
46
21
350
0
LINE
5
291
100
AcDbEntity
8
base
6
ByLayer
62
256
370
-1
100
AcDbLine
10
195
20
350
11
154
21
350
0
ARC
5
292
100
AcDbEntity
8
base
6
ByLayer
62
256
370
-1
100
AcDbCircle
10
152
20
350
40
2
100
AcDbArc
50
180.000077275
51
0
0
ARC
5
293
100
AcDbEntity
8
base
6
ByLayer
62
256
370
-1
100
AcDbCircle
10
48
20
350
40
2
100
AcDbArc
50
180
51
0
0
ARC
5
294
100
AcDbEntity
8
base
6
ByLayer
62
256
370
-1
100
AcDbCircle
10
-48
20
350
40
2
100
AcDbArc
50
179.99984545
51
0
0
ARC
5
295
100
AcDbEntity
8
base
6
ByLayer
62
256
370
-1
100
AcDbCircle
10
-152
20
350
40
2
100
AcDbArc
50
180
51
0.000154549539137
0
LINE
5
296
100
AcDbEntity
8
base_front
6
ByLayer
62
256
370
-1
100
AcDbLine
10
195
20
0
11
195
21
111.5
0
LINE
5
297
100
AcDbEntity
8
base_front
6
ByLayer
62
256
370
-1
100
AcDbLine
10
-195
20
0
11
-195
21
111.5
0
LINE
5
298
100
AcDbEntity
8
base_front
6
ByLayer
62
256
370
-1
100
AcDbLine
10
150
20
11.999999416
11
150
21
-5.84003862159e-07
0
LINE
5
299
100
AcDbEntity
8
base_front
6
ByLayer
62
256
370
-1
100
AcDbLine
10
50
20
11.999999416
11
50
21
-5.84003862159e-07
0
ARC
5
29A
100
AcDbEntity
8
base_front
6
ByLayer
62
256
370
-1
100
AcDbCircle
10
52
20
11.999999416
40
2
100
AcDbArc
50
3.3460956521e-05
51
180.000033461
0
ARC
5
29B
100
AcDbEntity
8
base_front
6
ByLayer
62
256
370
-1
100
AcDbCircle
10
148
20
11.999999416
40
2
100
AcDbArc
50
359.999945358
51
540
0
LINE
5
29C
100
AcDbEntity
8
base_front
6
ByLayer
62
256
370
-1
100
AcDbLine
10
54
20
12.000000584
11
146
21
11.999999416
0
LINE
5
29D
100
AcDbEntity
8
base_front
6
ByLayer
62
256
370
-1
100
AcDbLine
10
-50
20
12.0000004206
11
-50
21
4.20554178149e-07
0
LINE
5
29E
100
AcDbEntity
8
base_front
6
ByLayer
62
256
370
-1
100
AcDbLine
10
-150
20
12.0000004206
11
-150
21
4.20554178149e-07
0
ARC
5
29F
100
AcDbEntity
8
base_front
6
ByLayer
62
256
370
-1
100
AcDbCircle
10
-148
20
12.0000004206
40
2
100
AcDbArc
50
359.999945358
51
539.999945358
0
ARC
5
2A0
100
AcDbEntity
8
base_front
6
ByLayer
62
256
370
-1
100
AcDbCircle
10
-52
20
12.0000004206
40
2
100
AcDbArc
50
359.999969454
51
179.999969454
0
LINE
5
2A1
100
AcDbEntity
8
base_front
6
ByLayer
62
256
370
-1
100
AcDbLine
10
-146
20
11.9999985132
11
-54
21
12.0000014868
0
LINE
5
2A2
100
AcDbEntity
8
base_front
6
ByLayer
62
256
370
-1
100
AcDbLine
10
-195
20
0
11
-150
21
4.20554178149e-07
0
LINE
5
2A3
100
AcDbEntity
8
base_front
6
ByLayer
62
256
370
-1
100
AcDbLine
10
-50
20
4.20554178149e-07
11
50
21
-5.84003862159e-07
0
LINE
5
2A4
100
AcDbEntity
8
base_front
6
ByLayer
62
256
370
-1
100
AcDbLine
10
150
20
-5.84003862159e-07
11
195
21
0
0
CIRCLE
5
2A5
100
AcDbEntity
8
base_front
6
ByLayer
62
256
370
-1
100
AcDbCircle
10
0
20
6
40
2
0
CIRCLE
5
2A6
100
AcDbEntity
8
base_front
6
ByLayer
62
256
370
-1
100
AcDbCircle
10
175
20
6
40
2
0
CIRCLE
5
2A7
100
AcDbEntity
8
base_front
6
ByLayer
62
256
370
-1
100
AcDbCircle
10
-175
20
6
40
2
0
LINE
5
2A8
100
AcDbEntity
8
base_front
6
ByLayer
62
256
370
-1
100
AcDbLine
10
115
20
99.5
11
135
21
99.5
0
LINE
5
2A9
100
AcDbEntity
8
base_front
6
ByLayer
62
256
370
-1
100
AcDbLine
10
115
20
79.5
11
135
21
79.5
0
ARC
5
2AA
100
AcDbEntity
8
base_front
6
ByLayer
62
256
370
-1
100
AcDbCircle
10
115
20
97.5
40
2
100
AcDbArc
50
90.0000772748
51
270.000077275
0
ARC
5
2AB
100
AcDbEntity
8
base_front
6
ByLayer
62
256
370
-1
100
AcDbCircle
10
115
20
81.5
40
2
100
AcDbArc
50
90
51
270
0
ARC
5
2AC
100
AcDbEntity
8
base_front
6
ByLayer
62
256
370
-1
100
AcDbCircle
10
135
20
81.5
40
2
100
AcDbArc
50
269.999922725
51
450
0
ARC
5
2AD
100
AcDbEntity
8
base_front
6
ByLayer
62
256
370
-1
100
AcDbCircle
10
135
20
97.5
40
2
100
AcDbArc
50
270
51
450
0
LINE
5
2AE
100
AcDbEntity
8
base_front
6
ByLayer
62
256
370
-1
100
AcDbLine
10
115
20
83.5
11
115
21
95.5
0
LINE
5
2AF
100
AcDbEntity
8
base_front
6
ByLayer
62
256
370
-1
100
AcDbLine
10
135
20
95.5
11
135
21
83.5
0
LINE
5
2B0
100
AcDbEntity
8
base_front
6
ByLayer
62
256
370
-1
100
AcDbLine
10
-115
20
99.5
11
-135
21
99.5
0
LINE
5
2B1
100
AcDbEntity
8
base_front
6
ByLayer
62
256
370
-1
100
AcDbLine
10
-115
20
79.5
11
-135
21
79.5
0
ARC
5
2B2
100
AcDbEntity
8
base_front
6
ByLayer
62
256
370
-1
100
AcDbCircle
10
-115
20
97.5
40
2
100
AcDbArc
50
269.999922725
51
89.9999227252
0
ARC
5
2B3
100
AcDbEntity
8
base_front
6
ByLayer
62
256
370
-1
100
AcDbCircle
10
-115
20
81.5
40
2
100
AcDbArc
50
270
51
90
0
ARC
5
2B4
100
AcDbEntity
8
base_front
6
ByLayer
62
256
370
-1
100
AcDbCircle
10
-135
20
81.5
40
2
100
AcDbArc
50
90
51
270.000077275
0
ARC
5
2B5
100
AcDbEntity
8
base_front
6
ByLayer
62
256
370
-1
100
AcDbCircle
10
-135
20
97.5
40
2
100
AcDbArc
50
90
51
270
0
LINE
5
2B6
100
AcDbEntity
8
base_front
6
ByLayer
62
256
370
-1
100
AcDbLine
10
-115
20
83.5
11
-115
21
95.5
0
LINE
5
2B7
100
AcDbEntity
8
base_front
6
ByLayer
62
256
370
-1
100
AcDbLine
10
-135
20
95.5
11
-135
21
83.5
0
CIRCLE
5
2B8
100
AcDbEntity
8
base_front
6
ByLayer
62
256
370
-1
100
AcDbCircle
10
2.14693629227e-13
20
37.0000010354
40
13.5
0
LINE
5
2B9
100
AcDbEntity
8
base_front
6
ByLayer
62
256
370
-1
100
AcDbLine
10
-50
20
111.5
11
-50
21
99.5
0
LINE
5
2BA
100
AcDbEntity
8
base_front
6
ByLayer
62
256
370
-1
100
AcDbLine
10
50
20
111.5
11
50
21
99.5
0
LINE
5
2BB
100
AcDbEntity
8
base_front
6
ByLayer
62
256
370
-1
100
AcDbLine
10
-195
20
111.5
11
-50
21
111.5
0
LINE
5
2BC
100
AcDbEntity
8
base_front
6
ByLayer
62
256
370
-1
100
AcDbLine
10
50
20
111.5
11
195
21
111.5
0
ARC
5
2BD
100
AcDbEntity
8
base_front
6
ByLayer
62
256
370
-1
100
AcDbCircle
10
48
20
99.5
40
2
100
AcDbArc
50
180
51
360
0
ARC
5
2BE
100
AcDbEntity
8
base_front
6
ByLayer
62
256
370
-1
100
AcDbCircle
10
-48
20
99.5
40
2
100
AcDbArc
50
180
51
0
0
LINE
5
2BF
100
AcDbEntity
8
base_front
6
ByLayer
62
256
370
-1
100
AcDbLine
10
46
20
99.5
11
-46
21
99.5
0
LINE
5
2C0
100
AcDbEntity
8
bed
6
ByLayer
62
256
370
-1
100
AcDbLine
10
-7.34788079488e-16
20
-362
11
50
21
-362
0
LINE
5
2C1
100
AcDbEntity
8
bed
6
ByLayer
62
256
370
-1
100
AcDbLine
10
-7.34788079488e-16
20
-362
11
-50
21
-362
0
LINE
5
2C2
100
AcDbEntity
8
bed
6
ByLayer
62
256
370
-1
100
AcDbLine
10
-50
20
-362
11
-50
21
-350
0
LINE
5
2C3
100
AcDbEntity
8
bed
6
ByLayer
62
256
370
-1
100
AcDbLine
10
50
20
-362
11
50
21
-350
0
ARC
5
2C4
100
AcDbEntity
8
bed
6
ByLayer
62
256
370
-1
100
AcDbCircle
10
-52
20
-350
40
2
100
AcDbArc
50
359.999781434
51
180
0
LINE
5
2C5
100
AcDbEntity
8
bed
6
ByLayer
62
256
370
-1
100
AcDbLine
10
-168
20
-350
11
-54
21
-350
0
ARC
5
2C6
100
AcDbEntity
8
bed
6
ByLayer
62
256
370
-1
100
AcDbCircle
10
52
20
-350
40
2
100
AcDbArc
50
0
51
180
0
LINE
5
2C7
100
AcDbEntity
8
bed
6
ByLayer
62
256
370
-1
100
AcDbLine
10
54
20
-350
11
168
21
-350
0
LINE
5
2C8
100
AcDbEntity
8
bed
6
ByLayer
62
256
370
-1
100
AcDbLine
10
7.34788079488e-16
20
362
11
50
21
362
0
LINE
5
2C9
100
AcDbEntity
8
bed
6
ByLayer
62
256
370
-1
100
AcDbLine
10
7.34788079488e-16
20
362
11
-50
21
362
0
LINE
5
2CA
100
AcDbEntity
8
bed
6
ByLayer
62
256
370
-1
100
AcDbLine
10
-50
20
362
11
-50
21
350
0
LINE
5
2CB
100
AcDbEntity
8
bed
6
ByLayer
62
256
370
-1
100
AcDbLine
10
50
20
362
11
50
21
350
0
ARC
5
2CC
100
AcDbEntity
8
bed
6
ByLayer
62
256
370
-1
100
AcDbCircle
10
-52
20
350
40
2
100
AcDbArc
50
180
51
0.000218566056697
0
LINE
5
2CD
100
AcDbEntity
8
bed
6
ByLayer
62
256
370
-1
100
AcDbLine
10
-168
20
350
11
-54
21
350
0
ARC
5
2CE
100
AcDbEntity
8
bed
6
ByLayer
62
256
370
-1
100
AcDbCircle
10
52
20
350
40
2
100
AcDbArc
50
180
51
0
0
LINE
5
2CF
100
AcDbEntity
8
bed
6
ByLayer
62
256
370
-1
100
AcDbLine
10
54
20
350
11
168
21
350
0
CIRCLE
5
2D0
100
AcDbEntity
8
bed
6
ByLayer
62
256
370
-1
100
AcDbCircle
10
3.67394039744e-16
20
356
40
2
0
CIRCLE
5
2D1
100
AcDbEntity
8
bed
6
ByLayer
62
256
370
-1
100
AcDbCircle
10
-3.67394039744e-16
20
-356
40
2
0
LINE
5
2D2
100
AcDbEntity
8
base_dragchain_shelf
6
ByLayer
62
256
370
-1
100
AcDbLine
10
0
20
0
11
350
21
0
0
LINE
5
2D3
100
AcDbEntity
8
base_dragchain_shelf
6
ByLayer
62
256
370
-1
100
AcDbLine
10
0
20
0
11
-350
21
0
0
LINE
5
2D4
100
AcDbEntity
8
base_dragchain_shelf
6
ByLayer
62
256
370
-1
100
AcDbLine
10
9.18485099361e-15
20
30
11
-350
21
30
0
LINE
5
2D5
100
AcDbEntity
8
base_dragchain_shelf
6
ByLayer
62
256
370
-1
100
AcDbLine
10
1.83697019872e-15
20
30
11
350
21
30
0
LINE
5
2D6
100
AcDbEntity
8
base_dragchain_shelf
6
ByLayer
62
256
370
-1
100
AcDbLine
10
350
20
30
11
362
21
30
0
LINE
5
2D7
100
AcDbEntity
8
base_dragchain_shelf
6
ByLayer
62
256
370
-1
100
AcDbLine
10
-350
20
30
11
-362
21
30
0
LINE
5
2D8
100
AcDbEntity
8
base_dragchain_shelf
6
ByLayer
62
256
370
-1
100
AcDbLine
10
-362
20
30
11
-362
21
20
0
LINE
5
2D9
100
AcDbEntity
8
base_dragchain_shelf
6
ByLayer
62
256
370
-1
100
AcDbLine
10
362
20
30
11
362
21
20
0
LINE
5
2DA
100
AcDbEntity
8
base_dragchain_shelf
6
ByLayer
62
256
370
-1
100
AcDbLine
10
-350
20
0
11
-350
21
10
0
LINE
5
2DB
100
AcDbEntity
8
base_dragchain_shelf
6
ByLayer
62
256
370
-1
100
AcDbLine
10
350
20
0
11
350
21
10
0
LINE
5
2DC
100
AcDbEntity
8
base_dragchain_shelf
6
ByLayer
62
256
370
-1
100
AcDbLine
10
-350
20
10
11
-362
21
10
0
LINE
5
2DD
100
AcDbEntity
8
base_dragchain_shelf
6
ByLayer
62
256
370
-1
100
AcDbLine
10
350
20
10
11
362
21
10
0
LINE
5
2DE
100
AcDbEntity
8
base_dragchain_shelf
6
ByLayer
62
256
370
-1
100
AcDbLine
10
362
20
20
11
362
21
10
0
LINE
5
2DF
100
AcDbEntity
8
base_dragchain_shelf
6
ByLayer
62
256
370
-1
100
AcDbLine
10
-362
20
20
11
-362
21
10
0
LINE
5
2E0
100
AcDbEntity
8
base
6
ByLayer
62
256
370
-1
100
AcDbLine
10
-134
20
0
11
-134
21
-50
0
LINE
5
2E1
100
AcDbEntity
8
base
6
ByLayer
62
256
370
-1
100
AcDbLine
10
-134
20
-50
11
-146
21
-50
0
LINE
5
2E2
100
AcDbEntity
8
base
6
ByLayer
62
256
370
-1
100
AcDbLine
10
-146
20
-50
11
-146
21
50
0
LINE
5
2E3
100
AcDbEntity
8
base
6
ByLayer
62
256
370
-1
100
AcDbLine
10
-146
20
50
11
-134
21
50
0
LINE
5
2E4
100
AcDbEntity
8
base
6
ByLayer
62
256
370
-1
100
AcDbLine
10
-134
20
50
11
-134
21
0
0
CIRCLE
5
2E5
100
AcDbEntity
8
base
6
ByLayer
62
256
370
-1
100
AcDbCircle
10
-140
20
100
40
2
0
CIRCLE
5
2E6
100
AcDbEntity
8
base
6
ByLayer
62
256
370
-1
100
AcDbCircle
10
-140
20
-100
40
2
0
LINE
5
2E7
100
AcDbEntity
8
base
6
ByLayer
62
256
370
-1
100
AcDbLine
10
-134
20
-200
11
-134
21
-150
0
LINE
5
2E8
100
AcDbEntity
8
base
6
ByLayer
62
256
370
-1
100
AcDbLine
10
-134
20
-150
11
-146
21
-150
0
LINE
5
2E9
100
AcDbEntity
8
base
6
ByLayer
62
256
370
-1
100
AcDbLine
10
-146
20
-150
11
-146
21
-250
0
LINE
5
2EA
100
AcDbEntity
8
base
6
ByLayer
62
256
370
-1
100
AcDbLine
10
-146
20
-250
11
-134
21
-250
0
LINE
5
2EB
100
AcDbEntity
8
base
6
ByLayer
62
256
370
-1
100
AcDbLine
10
-134
20
-250
11
-134
21
-200
0
LINE
5
2EC
100
AcDbEntity
8
base
6
ByLayer
62
256
370
-1
100
AcDbLine
10
-134
20
200
11
-134
21
250
0
LINE
5
2ED
100
AcDbEntity
8
base
6
ByLayer
62
256
370
-1
100
AcDbLine
10
-134
20
250
11
-146
21
250
0
LINE
5
2EE
100
AcDbEntity
8
base
6
ByLayer
62
256
370
-1
100
AcDbLine
10
-146
20
250
11
-146
21
150
0
LINE
5
2EF
100
AcDbEntity
8
base
6
ByLayer
62
256
370
-1
100
AcDbLine
10
-146
20
150
11
-134
21
150
0
LINE
5
2F0
100
AcDbEntity
8
base
6
ByLayer
62
256
370
-1
100
AcDbLine
10
-134
20
150
11
-134
21
200
0
CIRCLE
5
2F1
100
AcDbEntity
8
base
6
ByLayer
62
256
370
-1
100
AcDbCircle
10
-140
20
300
40
2
0
CIRCLE
5
2F2
100
AcDbEntity
8
base
6
ByLayer
62
256
370
-1
100
AcDbCircle
10
-140
20
-300
40
2
0
LINE
5
2F3
100
AcDbEntity
8
base
6
ByLayer
62
256
370
-1
100
AcDbLine
10
134
20
0
11
134
21
-50
0
LINE
5
2F4
100
AcDbEntity
8
base
6
ByLayer
62
256
370
-1
100
AcDbLine
10
134
20
-50
11
146
21
-50
0
LINE
5
2F5
100
AcDbEntity
8
base
6
ByLayer
62
256
370
-1
100
AcDbLine
10
146
20
-50
11
146
21
50
0
LINE
5
2F6
100
AcDbEntity
8
base
6
ByLayer
62
256
370
-1
100
AcDbLine
10
146
20
50
11
134
21
50
0
LINE
5
2F7
100
AcDbEntity
8
base
6
ByLayer
62
256
370
-1
100
AcDbLine
10
134
20
50
11
134
21
0
0
CIRCLE
5
2F8
100
AcDbEntity
8
base
6
ByLayer
62
256
370
-1
100
AcDbCircle
10
140
20
100
40
2
0
CIRCLE
5
2F9
100
AcDbEntity
8
base
6
ByLayer
62
256
370
-1
100
AcDbCircle
10
140
20
-100
40
2
0
LINE
5
2FA
100
AcDbEntity
8
base
6
ByLayer
62
256
370
-1
100
AcDbLine
10
134
20
-200
11
134
21
-150
0
LINE
5
2FB
100
AcDbEntity
8
base
6
ByLayer
62
256
370
-1
100
AcDbLine
10
134
20
-150
11
146
21
-150
0
LINE
5
2FC
100
AcDbEntity
8
base
6
ByLayer
62
256
370
-1
100
AcDbLine
10
146
20
-150
11
146
21
-250
0
LINE
5
2FD
100
AcDbEntity
8
base
6
ByLayer
62
256
370
-1
100
AcDbLine
10
146
20
-250
11
134
21
-250
0
LINE
5
2FE
100
AcDbEntity
8
base
6
ByLayer
62
256
370
-1
100
AcDbLine
10
134
20
-250
11
134
21
-200
0
LINE
5
2FF
100
AcDbEntity
8
base
6
ByLayer
62
256
370
-1
100
AcDbLine
10
134
20
200
11
134
21
250
0
LINE
5
300
100
AcDbEntity
8
base
6
ByLayer
62
256
370
-1
100
AcDbLine
10
134
20
250
11
146
21
250
0
LINE
5
301
100
AcDbEntity
8
base
6
ByLayer
62
256
370
-1
100
AcDbLine
10
146
20
250
11
146
21
150
0
LINE
5
302
100
AcDbEntity
8
base
6
ByLayer
62
256
370
-1
100
AcDbLine
10
146
20
150
11
134
21
150
0
LINE
5
303
100
AcDbEntity
8
base
6
ByLayer
62
256
370
-1
100
AcDbLine
10
134
20
150
11
134
21
200
0
CIRCLE
5
304
100
AcDbEntity
8
base
6
ByLayer
62
256
370
-1
100
AcDbCircle
10
140
20
300
40
2
0
CIRCLE
5
305
100
AcDbEntity
8
base
6
ByLayer
62
256
370
-1
100
AcDbCircle
10
140
20
-300
40
2
0
LINE
5
306
100
AcDbEntity
8
base_front
6
ByLayer
62
256
370
-1
100
AcDbLine
10
134
20
34.5
11
134
21
57
0
LINE
5
307
100
AcDbEntity
8
base_front
6
ByLayer
62
256
370
-1
100
AcDbLine
10
146
20
34.5
11
146
21
57
0
ARC
5
308
100
AcDbEntity
8
base_front
6
ByLayer
62
256
370
-1
100
AcDbCircle
10
136
20
57
40
2
100
AcDbArc
50
4.07110999227e-13
51
179.999945358
0
ARC
5
309
100
AcDbEntity
8
base_front
6
ByLayer
62
256
370
-1
100
AcDbCircle
10
144
20
57
40
2
100
AcDbArc
50
0
51
180
0
ARC
5
30A
100
AcDbEntity
8
base_front
6
ByLayer
62
256
370
-1
100
AcDbCircle
10
144
20
34.5
40
2
100
AcDbArc
50
180
51
360
0
ARC
5
30B
100
AcDbEntity
8
base_front
6
ByLayer
62
256
370
-1
100
AcDbCircle
10
136
20
34.5
40
2
100
AcDbArc
50
180
51
360
0
LINE
5
30C
100
AcDbEntity
8
base_front
6
ByLayer
62
256
370
-1
100
AcDbLine
10
140
20
34.5
11
138
21
34.5
0
LINE
5
30D
100
AcDbEntity
8
base_front
6
ByLayer
62
256
370
-1
100
AcDbLine
10
140
20
34.5
11
142
21
34.5
0
LINE
5
30E
100
AcDbEntity
8
base_front
6
ByLayer
62
256
370
-1
100
AcDbLine
10
138
20
57
11
142
21
57
0
CIRCLE
5
30F
100
AcDbEntity
8
base_front
6
ByLayer
62
256
370
-1
100
AcDbCircle
10
140
20
23
40
2
0
LINE
5
310
100
AcDbEntity
8
base_front
6
ByLayer
62
256
370
-1
100
AcDbLine
10
-134
20
34.5
11
-134
21
57
0
LINE
5
311
100
AcDbEntity
8
base_front
6
ByLayer
62
256
370
-1
100
AcDbLine
10
-146
20
34.5
11
-146
21
57
0
ARC
5
312
100
AcDbEntity
8
base_front
6
ByLayer
62
256
370
-1
100
AcDbCircle
10
-136
20
57
40
2
100
AcDbArc
50
5.46415131565e-05
51
180
0
ARC
5
313
100
AcDbEntity
8
base_front
6
ByLayer
62
256
370
-1
100
AcDbCircle
10
-144
20
57
40
2
100
AcDbArc
50
360
51
180
0
ARC
5
314
100
AcDbEntity
8
base_front
6
ByLayer
62
256
370
-1
100
AcDbCircle
10
-144
20
34.5
40
2
100
AcDbArc
50
180
51
360
0
ARC
5
315
100
AcDbEntity
8
base_front
6
ByLayer
62
256
370
-1
100
AcDbCircle
10
-136
20
34.5
40
2
100
AcDbArc
50
180
51
360
0
LINE
5
316
100
AcDbEntity
8
base_front
6
ByLayer
62
256
370
-1
100
AcDbLine
10
-140
20
34.5
11
-138
21
34.5
0
LINE
5
317
100
AcDbEntity
8
base_front
6
ByLayer
62
256
370
-1
100
AcDbLine
10
-140
20
34.5
11
-142
21
34.5
0
LINE
5
318
100
AcDbEntity
8
base_front
6
ByLayer
62
256
370
-1
100
AcDbLine
10
-138
20
57
11
-142
21
57
0
CIRCLE
5
319
100
AcDbEntity
8
base_front
6
ByLayer
62
256
370
-1
100
AcDbCircle
10
-140
20
23
40
2
0
LINE
5
31A
100
AcDbEntity
8
base_front
6
ByLayer
62
256
370
-1
100
AcDbLine
10
-185
20
99.5
11
-165
21
99.5
0
LINE
5
31B
100
AcDbEntity
8
base_front
6
ByLayer
62
256
370
-1
100
AcDbLine
10
-185
20
87.5
11
-165
21
87.5
0
LINE
5
31C
100
AcDbEntity
8
base_front
6
ByLayer
62
256
370
-1
100
AcDbLine
10
-185
20
95.5
11
-185
21
91.5
0
ARC
5
31D
100
AcDbEntity
8
base_front
6
ByLayer
62
256
370
-1
100
AcDbCircle
10
-185
20
89.5
40
2
100
AcDbArc
50
90
51
270
0
ARC
5
31E
100
AcDbEntity
8
base_front
6
ByLayer
62
256
370
-1
100
AcDbCircle
10
-185
20
97.5
40
2
100
AcDbArc
50
90
51
270
0
ARC
5
31F
100
AcDbEntity
8
base_front
6
ByLayer
62
256
370
-1
100
AcDbCircle
10
-165
20
97.5
40
2
100
AcDbArc
50
270
51
450
0
LINE
5
320
100
AcDbEntity
8
base_front
6
ByLayer
62
256
370
-1
100
AcDbLine
10
-165
20
95.5
11
-165
21
91.5
0
ARC
5
321
100
AcDbEntity
8
base_front
6
ByLayer
62
256
370
-1
100
AcDbCircle
10
-165
20
89.5
40
2
100
AcDbArc
50
270
51
450
0
LINE
5
322
100
AcDbEntity
8
base_front
6
ByLayer
62
256
370
-1
100
AcDbLine
10
185
20
99.5
11
165
21
99.5
0
LINE
5
323
100
AcDbEntity
8
base_front
6
ByLayer
62
256
370
-1
100
AcDbLine
10
185
20
87.5
11
165
21
87.5
0
LINE
5
324
100
AcDbEntity
8
base_front
6
ByLayer
62
256
370
-1
100
AcDbLine
10
185
20
95.5
11
185
21
91.5
0
ARC
5
325
100
AcDbEntity
8
base_front
6
ByLayer
62
256
370
-1
100
AcDbCircle
10
185
20
89.5
40
2
100
AcDbArc
50
270
51
90
0
ARC
5
326
100
AcDbEntity
8
base_front
6
ByLayer
62
256
370
-1
100
AcDbCircle
10
185
20
97.5
40
2
100
AcDbArc
50
270
51
90
0
ARC
5
327
100
AcDbEntity
8
base_front
6
ByLayer
62
256
370
-1
100
AcDbCircle
10
165
20
97.5
40
2
100
AcDbArc
50
90
51
270
0
LINE
5
328
100
AcDbEntity
8
base_front
6
ByLayer
62
256
370
-1
100
AcDbLine
10
165
20
95.5
11
165
21
91.5
0
ARC
5
329
100
AcDbEntity
8
base_front
6
ByLayer
62
256
370
-1
100
AcDbCircle
10
165
20
89.5
40
2
100
AcDbArc
50
90
51
270
0
ENDSEC
0
SECTION
2
OBJECTS
0
DICTIONARY
5
C
330
0
100
AcDbDictionary
281
1
3
ACAD_GROUP
350
D
0
DICTIONARY
5
D
330
C
100
AcDbDictionary
281
1
0
ENDSEC
0
EOF
